<svg xmlns="http://www.w3.org/2000/svg">
	<symbol id="icon-burger" viewBox="0 0 40 40">
		<path d="M5 8.33313H35V11.2498H5V8.33313ZM5 18.5415H35V21.4581H5V18.5415ZM5 28.7498H35V31.6665H5V28.7498Z"
			fill="#000000" />
	</symbol>
	<symbol id="icon-check" viewBox="0 0 13 9">
		<path
			d="M5.00259 8.99993L0.759979 4.75733L2.1742 3.34303L5.00259 6.17153L10.6595 0.514648L12.0737 1.92886L5.00259 8.99993Z"
			fill="currentColor" />
	</symbol>
	<symbol id="icon-comment" viewBox="0 0 24 24">
		<path
			d="M6.45455 19L2 22.5V4C2 3.44772 2.44772 3 3 3H21C21.5523 3 22 3.44772 22 4V18C22 18.5523 21.5523 19 21 19H6.45455ZM5.76282 17H20V5H4V18.3851L5.76282 17ZM11 10H13V12H11V10ZM7 10H9V12H7V10ZM15 10H17V12H15V10Z"
			fill="currentColor" />
	</symbol>
	<symbol id="icon-phone" viewBox="0 0 24 24">
		<path
			d="M9.36556 10.6821C10.302 12.3288 11.6712 13.698 13.3179 14.6344L14.2024 13.3961C14.4965 12.9845 15.0516 12.8573 15.4956 13.0998C16.9024 13.8683 18.4571 14.3353 20.0789 14.4637C20.599 14.5049 21 14.9389 21 15.4606V19.9234C21 20.4361 20.6122 20.8657 20.1022 20.9181C19.5723 20.9726 19.0377 21 18.5 21C9.93959 21 3 14.0604 3 5.5C3 4.96227 3.02742 4.42771 3.08189 3.89776C3.1343 3.38775 3.56394 3 4.07665 3H8.53942C9.0611 3 9.49513 3.40104 9.5363 3.92109C9.66467 5.54288 10.1317 7.09764 10.9002 8.50444C11.1427 8.9484 11.0155 9.50354 10.6039 9.79757L9.36556 10.6821ZM6.84425 10.0252L8.7442 8.66809C8.20547 7.50514 7.83628 6.27183 7.64727 5H5.00907C5.00303 5.16632 5 5.333 5 5.5C5 12.9558 11.0442 19 18.5 19C18.667 19 18.8337 18.997 19 18.9909V16.3527C17.7282 16.1637 16.4949 15.7945 15.3319 15.2558L13.9748 17.1558C13.4258 16.9425 12.8956 16.6915 12.3874 16.4061L12.3293 16.373C10.3697 15.2587 8.74134 13.6303 7.627 11.6707L7.59394 11.6126C7.30849 11.1044 7.05754 10.5742 6.84425 10.0252Z"
			fill="currentColor" />
	</symbol>
	<symbol id="icon-mail" viewBox="0 0 24 24">
		<path
			d="M21 3C21.5523 3 22 3.44772 22 4V20.0066C22 20.5552 21.5447 21 21.0082 21H2.9918C2.44405 21 2 20.5551 2 20.0066V19H20V7.3L12 14.5L2 5.5V4C2 3.44772 2.44772 3 3 3H21ZM8 15V17H0V15H8ZM5 10V12H0V10H5ZM19.5659 5H4.43414L12 11.8093L19.5659 5Z"
			fill="currentColor" />
	</symbol>
	<symbol id="logo" viewBox="0 0 145 40">
		<path
			d="M0 30.5V6H21V9.5H7V16.5H21V20H24.5V27H21V30.5H0ZM7 27H17.5V20H7V27ZM28 30.5V6H52.5V9.5H35V16.5H49V20H35V27H52.5V30.5H28ZM63 30.5V27H59.5V23.5H56V13H59.5V9.5H63V6H77V9.5H80.5V13H73.5V9.5H66.5V13H63V23.5H66.5V27H73.5V23.5H80.5V27H77V30.5H63Z"
			fill="#87F29A" />
		<path
			d="M87.5 30.5V27H94.5V9.5H87.5V6H108.5V9.5H101.5V27H108.5V30.5H87.5ZM122.5 30.5V9.5H115.5V6H136.5V9.5H129.5V30.5H122.5Z"
			fill="#FFFFFF" />
	</symbol>
	<symbol id="icon-copy" viewBox="0 0 24 24" fill="none" xmlns="http://www.w3.org/2000/svg">
		<path
			d="M16.2877 9.42773C15.413 7.97351 13.8195 7 12 7C9.23999 7 7 9.23999 7 12C7 14.76 9.23999 17 12 17C13.8195 17 15.413 16.0265 16.2877 14.5723L14.5729 13.5442C14.0483 14.4166 13.0927 15 12 15C10.3425 15 9 13.6575 9 12C9 10.3425 10.3425 9 12 9C13.093 9 14.0491 9.58386 14.5735 10.4568L16.2877 9.42773ZM22 12C22 6.47998 17.52 2 12 2C6.47998 2 2 6.47998 2 12C2 17.52 6.47998 22 12 22C17.52 22 22 17.52 22 12ZM4 12C4 7.57996 7.57996 4 12 4C16.42 4 20 7.57996 20 12C20 16.42 16.42 20 12 20C7.57996 20 4 16.42 4 12Z"
			fill="#FFFFFF" fill-opacity="0.5" />
	</symbol>
	<symbol id="icon-vk" viewBox="0 0 19 11">
		<path fill-rule="evenodd" clip-rule="evenodd"
			d="M18.4875 1.37968C18.6262 0.985106 18.4875 0.698125 17.8729 0.698125H15.8308C15.3153 0.698125 15.0774 0.949207 14.9387 1.21829C14.9387 1.21829 13.8879 3.51408 12.4207 5.00273C11.9449 5.4332 11.7268 5.57669 11.4691 5.57669C11.3303 5.57669 11.1519 5.4332 11.1519 5.03862V1.36173C11.1519 0.895411 10.9933 0.680176 10.5571 0.680176H7.34533C7.02811 0.680176 6.82988 0.895411 6.82988 1.11065C6.82988 1.55907 7.56341 1.66666 7.64271 2.92217V5.64843C7.64271 6.24034 7.52379 6.34793 7.26603 6.34793C6.57213 6.34793 4.88694 4.03419 3.87581 1.39763C3.67752 0.877462 3.47929 0.680176 2.96384 0.680176H0.901906C0.307142 0.680176 0.208008 0.93131 0.208008 1.20034C0.208008 1.68461 0.901906 4.12389 3.43961 7.35236C5.12485 9.55846 7.52379 10.7422 9.6848 10.7422C10.9933 10.7422 11.1519 10.4732 11.1519 10.0248V8.3568C11.1519 7.81868 11.2708 7.72904 11.6872 7.72904C11.9846 7.72904 12.5199 7.87248 13.7292 8.9307C15.117 10.1862 15.355 10.7602 16.1282 10.7602H18.1703C18.765 10.7602 19.0426 10.4911 18.884 9.97098C18.7056 9.45087 18.0315 8.69757 17.1591 7.80073C16.6833 7.29857 15.9696 6.74256 15.7515 6.47347C15.4541 6.1148 15.5334 5.97131 15.7515 5.64843C15.7317 5.64843 18.2297 2.45585 18.4875 1.37968Z"
			fill="#FFFFFF" fill-opacity="0.8" />
	</symbol>
	<symbol id="icon-youtube" viewBox="0 0 16 12">
		<path fill-rule="evenodd" clip-rule="evenodd"
			d="M14.0008 1.04957C14.6617 1.23093 15.1822 1.7653 15.3588 2.4439C15.6798 3.67379 15.6798 6.23997 15.6798 6.23997C15.6798 6.23997 15.6798 8.80606 15.3588 10.036C15.1822 10.7146 14.6617 11.249 14.0008 11.4305C12.8031 11.76 7.99982 11.76 7.99982 11.76C7.99982 11.76 3.1966 11.76 1.99878 11.4305C1.33786 11.249 0.817366 10.7146 0.640726 10.036C0.319824 8.80606 0.319824 6.23997 0.319824 6.23997C0.319824 6.23997 0.319824 3.67379 0.640726 2.4439C0.817366 1.7653 1.33786 1.23093 1.99878 1.04957C3.1966 0.719971 7.99982 0.719971 7.99982 0.719971C7.99982 0.719971 12.8031 0.719971 14.0008 1.04957ZM6.55979 4.0802V8.88021L10.3998 6.4803L6.55979 4.0802Z"
			fill="#FFFFFF" fill-opacity="0.8" />
	</symbol>
	<symbol id="icon-ok" viewBox="0 0 12 19">
		<path
			d="M7.91902 13.2622L10.5725 15.8238C11.116 16.3474 11.116 17.1978 10.5725 17.722C10.0294 18.2462 9.14932 18.2462 8.60687 17.722L5.99801 15.2048L3.39142 17.722C3.11963 17.9838 2.76349 18.1149 2.40735 18.1149C2.05178 18.1149 1.69621 17.9838 1.42441 17.722C0.881398 17.1978 0.881398 16.348 1.42385 15.8238L4.07758 13.2622C3.1114 13.0497 2.17958 12.6802 1.32132 12.1604C0.671803 11.7651 0.476693 10.9369 0.885942 10.3094C1.29406 9.68105 2.15232 9.49189 2.80297 9.8872C4.74612 11.0671 7.24933 11.0674 9.19362 9.8872C9.84428 9.49189 10.7023 9.68105 11.1112 10.3094C11.5205 10.9364 11.3248 11.7651 10.6753 12.1604C9.81701 12.6807 8.8852 13.0497 7.91902 13.2622Z"
			fill="#FFFFFF" fill-opacity="0.8" />
		<path fill-rule="evenodd" clip-rule="evenodd"
			d="M1.24023 4.94193C1.24023 7.46791 3.36913 9.52263 5.98679 9.52263C8.60502 9.52263 10.7333 7.46791 10.7333 4.94193C10.7333 2.41513 8.60502 0.359863 5.98679 0.359863C3.36913 0.359863 1.24023 2.41513 1.24023 4.94193ZM7.95202 4.94145C7.95202 3.89531 7.07048 3.04463 5.98672 3.04463C4.90381 3.04463 4.02141 3.89531 4.02141 4.94145C4.02141 5.98676 4.90381 6.83799 5.98672 6.83799C7.07048 6.83799 7.95202 5.98676 7.95202 4.94145Z"
			fill="#FFFFFF" fill-opacity="0.8" />
	</symbol>
	<symbol id="icon-tg" viewBox="0 0 17 15">
		<path
			d="M0.600573 6.85877C2.28392 5.93153 4.163 5.15765 5.91872 4.37981C8.93924 3.10577 11.9718 1.85381 15.0349 0.688246C15.6309 0.489646 16.7017 0.295426 16.8067 1.17863C16.7492 2.42879 16.5127 3.67163 16.3504 4.91447C15.9387 7.64759 15.4627 10.3713 14.9986 13.0955C14.8387 14.0028 13.702 14.4726 12.9747 13.8919C11.2268 12.7112 9.46544 11.5421 7.73984 10.334C7.17458 9.75965 7.69874 8.93483 8.20358 8.52467C9.64322 7.10591 11.17 5.90051 12.5344 4.40843C12.9024 3.51965 11.815 4.26869 11.4563 4.49819C9.48542 5.85635 7.56278 7.29743 5.48486 8.49107C4.42346 9.07535 3.18638 8.57603 2.12546 8.24999C1.17421 7.85615 -0.219723 7.45937 0.600477 6.85883L0.600573 6.85877Z"
			fill="#FFFFFF" fill-opacity="0.8" />
	</symbol>
	<symbol id="icon-i" viewBox="0 0 16 16">
		<path
			d="M8.00016 14.6666C4.31826 14.6666 1.3335 11.6818 1.3335 7.99992C1.3335 4.31802 4.31826 1.33325 8.00016 1.33325C11.682 1.33325 14.6668 4.31802 14.6668 7.99992C14.6668 11.6818 11.682 14.6666 8.00016 14.6666ZM8.00016 13.3333C10.9457 13.3333 13.3335 10.9455 13.3335 7.99992C13.3335 5.0544 10.9457 2.66659 8.00016 2.66659C5.05464 2.66659 2.66683 5.0544 2.66683 7.99992C2.66683 10.9455 5.05464 13.3333 8.00016 13.3333ZM7.3335 4.66659H8.66683V5.99992H7.3335V4.66659ZM7.3335 7.33325H8.66683V11.3333H7.3335V7.33325Z"
			fill="currentColor" />
	</symbol>
	<symbol id="icon-send" viewBox="0 0 24 24">
		<path
			d="M1.94582 10.3153C1.42328 10.1411 1.41915 9.8601 1.95657 9.68096L21.0428 3.31889C21.5713 3.14273 21.8744 3.43854 21.7263 3.95682L16.2731 23.0431C16.1221 23.5715 15.8175 23.5899 15.5942 23.0875L11.9997 14.9999L17.9997 6.99993L9.99967 12.9999L1.94582 10.3153Z"
			fill="currentColor" />
	</symbol>
	<symbol id="icon-mc" viewBox="0 0 24 24">
		<path
			d="M23.77 16.6487V16.3574H23.698L23.614 16.5516L23.53 16.3574H23.458V16.6487H23.506V16.4302L23.59 16.6244H23.65L23.734 16.4302V16.6487H23.77ZM23.29 16.6487V16.406H23.386V16.3574H23.146V16.406H23.242V16.6487H23.29Z"
			fill="#00A2E5" />
		<path d="M15.2357 17.8978H8.74365V6.10173H15.2357V17.8978Z" fill="#FF5F00" />
		<path
			d="M9.16556 12C9.16556 9.60922 10.2696 7.4733 11.9976 6.10194C10.7376 5.09466 9.14156 4.5 7.41356 4.5C3.32156 4.5 -0.00244141 7.86165 -0.00244141 12C-0.00244141 16.1383 3.32156 19.5 7.41356 19.5C9.14156 19.5 10.7376 18.9053 11.9976 17.8981C10.2696 16.5267 9.16556 14.3908 9.16556 12Z"
			fill="#EB001B" />
		<path
			d="M23.9976 12C23.9976 16.1383 20.6736 19.5 16.5816 19.5C14.8536 19.5 13.2576 18.9053 11.9976 17.8981C13.7256 16.5267 14.8296 14.3908 14.8296 12C14.8296 9.60922 13.7256 7.4733 11.9976 6.10194C13.2576 5.09466 14.8536 4.5 16.5816 4.5C20.6736 4.5 23.9976 7.86165 23.9976 12Z"
			fill="#F79E1B" />
	</symbol>
	<symbol id="icon-mir" viewBox="0 0 30 24" fill="none" xmlns="http://www.w3.org/2000/svg">
		<path
			d="M21.3687 11.7754V16.4982H24.0596V13.8388H26.7686C28.1831 13.8388 29.3897 12.9806 29.8563 11.7754H21.3687Z"
			fill="white" />
		<path
			d="M21.2476 7.5C21.2589 7.73695 21.2904 7.97231 21.3416 8.20317C21.3528 8.25392 21.364 8.3056 21.3778 8.35543C21.383 8.37573 21.3881 8.39603 21.3942 8.41726C21.6352 9.23304 22.1128 9.94546 22.7578 10.4512C23.4028 10.9569 24.1816 11.2297 24.9812 11.2299H29.9508C29.9825 11.0451 29.999 10.8577 29.9999 10.6698C29.9979 9.83011 29.6854 9.02541 29.1306 8.43148C28.5758 7.83756 27.8239 7.50268 27.0391 7.5H21.2476Z"
			fill="#4CC567" />
		<path
			d="M16.5979 8.45048L14.7134 12.8181H14.5228V7.5H11.8491V16.5H14.1209C14.4131 16.4998 14.6991 16.4102 14.9452 16.2416C15.1913 16.073 15.3871 15.8325 15.5095 15.5486L17.3931 11.1819H17.5846V16.5H20.2582V7.5H17.9856C17.6936 7.50003 17.4077 7.58956 17.1618 7.75801C16.9159 7.92645 16.7202 8.16676 16.5979 8.45048Z"
			fill="white" />
		<path
			d="M4.13657 8.68302L5.25175 12.8181H5.44236L6.55754 8.68302C6.64937 8.34263 6.84194 8.04331 7.10632 7.82999C7.37069 7.61667 7.69262 7.50088 8.02374 7.5H10.6974V16.4991H8.02374V11.1819H7.83228L6.30311 16.4991H4.39187L2.86184 11.1819H2.67123V16.4991H-0.00244141V7.5H2.67123C3.00236 7.50088 3.32428 7.61667 3.58866 7.82999C3.85304 8.04331 4.04474 8.34263 4.13657 8.68302Z"
			fill="white" />
	</symbol>

	<symbol id="icon-visa" viewBox="0 0 30 24">
		<path fill-rule="evenodd" clip-rule="evenodd"
			d="M12.1232 7.17291L10.5962 16.8337H13.0392L14.5663 7.17291H12.1232ZM8.54081 7.17291L6.21163 13.8175L5.93612 12.3867L5.8756 12.0665C5.59371 11.4411 4.94084 10.2523 3.70806 9.23788C3.34359 8.93802 2.97619 8.68211 2.62103 8.46351L4.73788 16.8337H7.28324L11.1702 7.17291H8.54081ZM18.0752 9.85494C18.0752 8.7627 20.4544 8.90305 21.4999 9.49613L21.8485 7.42125C21.8485 7.42125 20.7726 7 19.6511 7C18.4387 7 15.5597 7.54585 15.5597 10.1981C15.5597 12.6943 18.9388 12.7253 18.9388 14.0358C18.9388 15.3463 15.9081 15.1121 14.908 14.2854L14.5445 16.4541C14.5445 16.4541 15.6353 17 17.3024 17C18.9692 17 21.4846 16.1109 21.4846 13.6926C21.4846 11.1809 18.0752 10.9469 18.0752 9.85494ZM28.0442 7.17291H26.08C25.1731 7.17291 24.9522 7.89287 24.9522 7.89287L21.309 16.8337H23.8553L24.3647 15.3988H27.4704L27.7569 16.8337H30.0001L28.0442 7.17291ZM25.0687 13.4163L26.3524 9.80101L27.0746 13.4163H25.0687Z"
			fill="#1C83E2" />
		<path fill-rule="evenodd" clip-rule="evenodd"
			d="M5.14862 8.08284C5.14862 8.08284 5.0475 7.21094 3.96796 7.21094H0.0458797L-6.10352e-05 7.3748C-6.10352e-05 7.3748 1.8852 7.77046 3.69387 9.25279C5.42231 10.6695 5.98616 12.4356 5.98616 12.4356L5.14862 8.08284Z"
			fill="#1C83E2" />
	</symbol>
</svg>