<svg width="72" height="72" viewBox="0 0 72 72" fill="none" xmlns="http://www.w3.org/2000/svg">
    <circle cx="36" cy="36" r="36" fill="url(#paint0_linear_38_517)"/>
    <g clip-path="url(#clip0_38_517)">
    <path d="M26.8203 26.8203V32.0986H32.0986V26.8203H26.8203ZM33.3608 26.8203V32.0986H38.6392V26.8203H33.3608ZM39.9014 26.8203V32.0986H45.1797V26.8203H39.9014ZM26.8203 33.3608V38.6392H32.0986V33.3608H26.8203ZM33.3608 33.3608V38.6392H38.6392V33.3608H33.3608ZM39.9014 33.3608V38.6392H45.1797V33.3608H39.9014ZM26.8203 39.9014V45.1797H32.0986V39.9014H26.8203ZM33.3608 39.9014V45.1797H38.6392V39.9014H33.3608ZM39.9014 39.9014V45.1797H45.1797V39.9014H39.9014Z" fill="white"/>
    </g>
    <defs>
    <linearGradient id="paint0_linear_38_517" x1="36" y1="0" x2="36" y2="72" gradientUnits="userSpaceOnUse">
    <stop stop-color="#7B94F1"/>
    <stop offset="0.51" stop-color="#6583FF"/>
    <stop offset="1" stop-color="#C499FF"/>
    </linearGradient>
    <clipPath id="clip0_38_517">
    <rect width="20" height="20" fill="white" transform="translate(26 26)"/>
    </clipPath>
    </defs>
</svg>