<svg width="72" height="72" viewBox="0 0 72 72" fill="none" xmlns="http://www.w3.org/2000/svg">
    <circle cx="36" cy="36" r="36" fill="#4C5269"/>
    <path fill-rule="evenodd" clip-rule="evenodd" d="M35.9999 71.9999C55.8821 71.9999 71.9999 55.8822 71.9999 35.9999C71.9999 34.637 71.9241 33.2918 71.7766 31.9682C66.0973 34.8718 59.14 37.4996 50.4998 37.4996C24.7628 37.4996 10.0426 41.7326 1.87854 47.5082C6.67906 61.7467 20.1421 71.9999 35.9999 71.9999Z" fill="url(#paint0_linear_38_497)"/>
    <g clip-path="url(#clip0_38_497)">
    <path d="M26.8203 26.8203V32.0986H32.0986V26.8203H26.8203ZM33.3608 26.8203V32.0986H38.6392V26.8203H33.3608ZM39.9014 26.8203V32.0986H45.1797V26.8203H39.9014ZM26.8203 33.3608V38.6392H32.0986V33.3608H26.8203ZM33.3608 33.3608V38.6392H38.6392V33.3608H33.3608ZM39.9014 33.3608V38.6392H45.1797V33.3608H39.9014ZM26.8203 39.9014V45.1797H32.0986V39.9014H26.8203ZM33.3608 39.9014V45.1797H38.6392V39.9014H33.3608ZM39.9014 39.9014V45.1797H45.1797V39.9014H39.9014Z" fill="white"/>
    </g>
    <defs>
    <linearGradient id="paint0_linear_38_497" x1="41.8918" y1="31.2098" x2="41.8918" y2="80.6282" gradientUnits="userSpaceOnUse">
    <stop stop-color="#6683FF"/>
    <stop offset="1" stop-color="#BB98FF"/>
    </linearGradient>
    <clipPath id="clip0_38_497">
    <rect width="20" height="20" fill="white" transform="translate(26 26)"/>
    </clipPath>
    </defs>
</svg>