<svg width="72" height="72" viewBox="0 0 72 72" fill="none" xmlns="http://www.w3.org/2000/svg">
    <circle cx="36" cy="36" r="36" fill="#4C5269"/>
    <path fill-rule="evenodd" clip-rule="evenodd" d="M35.9999 71.9999C55.8821 71.9999 71.9999 55.8822 71.9999 35.9999C71.9999 26.8763 68.6059 18.5455 63.0117 12.2009C56.2802 16.1766 48.1412 19.9994 39.0001 19.9994C20.4931 19.9994 8.44116 23.3424 0.796025 28.4352C0.274414 30.8743 -0.00012207 33.4051 -0.00012207 35.9999C-0.00012207 55.8822 16.1176 71.9999 35.9999 71.9999Z" fill="url(#paint0_linear_38_507)"/>
    <g clip-path="url(#clip0_38_507)">
    <path d="M26.8203 26.8203V32.0986H32.0986V26.8203H26.8203ZM33.3608 26.8203V32.0986H38.6392V26.8203H33.3608ZM39.9014 26.8203V32.0986H45.1797V26.8203H39.9014ZM26.8203 33.3608V38.6392H32.0986V33.3608H26.8203ZM33.3608 33.3608V38.6392H38.6392V33.3608H33.3608ZM39.9014 33.3608V38.6392H45.1797V33.3608H39.9014ZM26.8203 39.9014V45.1797H32.0986V39.9014H26.8203ZM33.3608 39.9014V45.1797H38.6392V39.9014H33.3608ZM39.9014 39.9014V45.1797H45.1797V39.9014H39.9014Z" fill="white"/>
    </g>
    <defs>
    <linearGradient id="paint0_linear_38_507" x1="41.0852" y1="11.0681" x2="41.0852" y2="84.8888" gradientUnits="userSpaceOnUse">
    <stop stop-color="#5E81FF"/>
    <stop offset="0.516474" stop-color="#7788FF"/>
    <stop offset="1" stop-color="#CD9DFC"/>
    </linearGradient>
    <clipPath id="clip0_38_507">
    <rect width="20" height="20" fill="white" transform="translate(26 26)"/>
    </clipPath>
    </defs>
</svg>