<svg width="20" height="20" viewBox="0 0 20 20" fill="none" xmlns="http://www.w3.org/2000/svg">
    <g clip-path="url(#clip0_38_597)">
    <path d="M0 5.03283V7.22228H3.12667L0 5.03283ZM2.59111 17.2223H7.22222V13.9795L2.59111 17.2223ZM12.7778 13.9801V17.2223H17.4083L12.7778 13.9801ZM0 12.7778V14.9673L3.12778 12.7778H0ZM17.4094 2.77783H12.7778V6.02061L17.4094 2.77783ZM20 14.9678V12.7778H16.8717L20 14.9678ZM20 7.22228V5.03283L16.8728 7.22228H20ZM7.22222 2.77783H2.59111L7.22222 6.02061V2.77783Z" fill="#00247D"/>
    <path d="M13.9667 12.7778L19.3622 16.5561C19.6257 16.2847 19.8151 15.9501 19.9122 15.5845L15.9039 12.7778H13.9667ZM7.22222 12.7778H6.03277L0.637775 16.5556C0.927219 16.85 1.29833 17.0606 1.71444 17.1583L7.22222 13.3017V12.7778ZM12.7778 7.22223H13.9672L19.3622 3.44445C19.0678 3.14572 18.6946 2.93669 18.2861 2.84167L12.7778 6.69834V7.22223ZM6.03277 7.22223L0.637775 3.44445C0.374415 3.7161 0.184894 4.05059 0.0872192 4.41612L4.09555 7.22223H6.03277Z" fill="#CF1B2B"/>
    <path d="M20 11.6667H11.6667V17.2223H12.7778V13.9801L17.4083 17.2223H17.7778C18.0729 17.2223 18.3651 17.1634 18.6372 17.049C18.9093 16.9347 19.1558 16.7671 19.3622 16.5562L13.9667 12.7778H15.9039L19.9122 15.5845C19.9639 15.3973 20 15.2034 20 15.0001V14.9678L16.8717 12.7778H20V11.6667ZM0 11.6667V12.7778H3.12778L0 14.9673V15.0001C0 15.6062 0.243889 16.1545 0.637778 16.5556L6.03278 12.7778H7.22222V13.3017L1.71444 17.1578C1.87778 17.1967 2.04667 17.2223 2.22222 17.2223H2.59111L7.22222 13.9795V17.2223H8.33333V11.6667H0ZM20 5.00005C20.0003 4.41782 19.7712 3.85892 19.3622 3.4445L13.9672 7.22228H12.7778V6.69839L18.2861 2.84172C18.1197 2.8009 17.9491 2.77946 17.7778 2.77783H17.4094L12.7778 6.02061V2.77783H11.6667V8.33339H20V7.22228H16.8728L20 5.03283V5.00005ZM7.22222 2.77783V6.02061L2.59111 2.77783H2.22222C1.92701 2.7777 1.63476 2.83662 1.36265 2.95111C1.09055 3.0656 0.844091 3.23335 0.637778 3.4445L6.03278 7.22228H4.09556L0.0872222 4.41617C0.0321001 4.606 0.00276301 4.80239 0 5.00005L0 5.03283L3.12667 7.22228H0V8.33339H8.33333V2.77783H7.22222Z" fill="#EEEEEE"/>
    <path d="M11.6667 8.33339V2.77783H8.33333V8.33339H0V11.6667H8.33333V17.2223H11.6667V11.6667H20V8.33339H11.6667Z" fill="#CF1B2B"/>
    </g>
    <defs>
    <clipPath id="clip0_38_597">
    <rect width="20" height="20" fill="white"/>
    </clipPath>
    </defs>
</svg>