<svg width="32" height="32" viewBox="0 0 32 32" fill="none" xmlns="http://www.w3.org/2000/svg">
    <path d="M18.8246 31C10.3158 31 10.2503 30.6464 9.19607 29.8519C8.63712 29.4308 7.58289 29.1391 3.73015 28.8877C3.45114 28.8689 3.18431 28.762 3.00642 28.5453C2.92496 28.445 1 25.6329 1 21.1288C1 16.6903 2.37818 14.6662 2.43623 14.5724C2.60663 14.2976 2.90717 14.1316 3.22925 14.1316C6.39195 14.1316 10.7774 10.0861 13.7248 3.02508C14.2341 1.80384 14.3399 1 16.2124 1C17.277 1 18.4717 1.76444 19.0606 2.74462C20.2693 4.74719 19.656 9.04871 19.0877 11.3467C21.0192 11.3308 24.5143 11.3045 26.1771 11.3045C28.4906 11.3045 30.0224 12.6862 30.0682 14.7065C30.0842 15.3734 29.9962 16.2251 29.8042 16.666C30.3135 17.1753 30.9699 17.9416 30.9989 18.9302C31.0345 20.2059 30.2012 21.1767 29.6685 21.7338C29.7911 22.1043 30.0345 22.5967 30.0111 23.1848C29.9522 24.6312 28.838 25.5626 28.1442 26.0494C28.2013 26.4452 28.2472 27.1918 28.1199 27.7696C27.619 30.0742 24.2465 30.9991 18.8246 30.9991V31ZM4.22731 26.9855C7.58289 27.2641 9.37677 27.6402 10.3224 28.354C11.0546 28.9065 10.9422 29.125 18.8246 29.125C21.229 29.125 25.9309 29.0246 26.2923 27.371C26.4355 26.7097 25.7399 26.0597 25.7371 26.055C25.547 25.5851 25.7586 25.0336 26.2221 24.831C26.2296 24.8272 28.0993 24.1566 28.1414 23.1098C28.1695 22.441 27.7107 22.0386 27.7004 22.0218C27.428 21.5978 27.5272 21.0163 27.941 20.7274C27.9457 20.7236 29.1573 19.9882 29.1273 18.9856C29.1048 18.1892 28.0571 17.6283 28.0253 17.6105C27.7912 17.4764 27.6208 17.2447 27.5675 16.9783C27.515 16.7138 27.574 16.4352 27.7388 16.2204C27.7388 16.2204 28.2154 15.4625 28.1976 14.7516C28.1629 13.2292 26.5292 13.1814 26.179 13.1814C23.8168 13.1814 17.7517 13.2049 17.7517 13.2049C17.4249 13.2067 17.1412 13.051 16.9652 12.7893C16.7892 12.5276 16.777 12.2012 16.8791 11.9039C17.7938 9.26538 18.305 5.12425 17.4558 3.70979C17.2058 3.2924 17.1487 2.87594 16.2124 2.87594C16.0823 2.87594 15.7743 2.97911 15.4522 3.74731C12.3241 11.2464 7.65123 15.5845 3.82284 15.9756C3.49234 16.7297 2.8716 18.2924 2.8716 21.1279C2.8716 24.0215 3.78633 26.2614 4.22637 26.9855H4.22731Z" fill="white"/>
</svg>