<svg width="16" height="16" viewBox="0 0 16 16" fill="none" xmlns="http://www.w3.org/2000/svg">
    <path fill-rule="evenodd" clip-rule="evenodd" d="M13.6869 2.31309C13.8296 2.45582 13.8725 2.67037 13.7957 2.85702L9.12901 14.1903C9.05236 14.3765 8.87154 14.4985 8.67024 14.5C8.46893 14.5014 8.28639 14.382 8.20709 14.1969L6.28588 9.7141L1.80304 7.79288C1.61801 7.71358 1.49858 7.53104 1.50001 7.32974C1.50145 7.12843 1.62348 6.94762 1.80963 6.87097L13.143 2.2043C13.3296 2.12745 13.5442 2.17036 13.6869 2.31309ZM3.29081 7.34253L6.86363 8.87373C6.98163 8.92431 7.07566 9.01834 7.12624 9.13635L8.65745 12.7092L12.4141 3.58588L3.29081 7.34253Z" fill="#476BF0"/>
</svg>
