<svg xmlns="http://www.w3.org/2000/svg" width="157" height="56" fill="none">
    <g fill="#0079C2" clip-path="url(#a)"><path d="M121.624 55.966h-2.116V36.81h5.284c3.462 0 5.737 1.623 5.737 5.402 0 4.469-2.694 5.64-6.133 5.64h-2.776v8.118l.004-.004Zm0-10.031h2.06c2.906 0 4.651-.451 4.651-3.727 0-2.712-1.508-3.484-4.043-3.484h-2.668v7.211ZM136.031 36.81h2.802l5.34 19.156h-2.327l-1.505-5.506h-6l-1.4 5.506h-2.328l5.418-19.156Zm1.375 1.545h-.052l-2.509 10.191h5.022l-2.457-10.191h-.004ZM145.47 36.81l4.44 9.602 4.465-9.602h2.327l-5.736 11.732v7.424h-2.113v-7.424l-5.71-11.732h2.327ZM30.74 10.113C29.562 4.917 26.604.69 26.197 0c-.642.97-3.002 4.7-4.2 8.84-1.307 4.615-1.5 8.711-1.048 12.744.448 4.032 2.142 8.173 2.142 8.173.9 2.178 2.25 4.506 3.128 5.651 1.286-1.682 4.243-6.707 5.162-13.265.512-3.644.534-6.834-.641-12.034v.004Zm-4.543 24.001c-.578-1.1-1.479-3.193-1.564-6.427-.023-3.126 1.219-5.801 1.582-6.36.323.559 1.394 2.89 1.52 6.08.085 3.126-.942 5.584-1.542 6.707h.004Zm4.195-15.182c-.045 1.98-.278 4.073-.578 5.326.107-2.156-.149-5.196-.642-7.568-.492-2.373-1.886-6.338-2.998-8.174-1.026 1.746-2.293 5.178-2.957 8.151-.667 2.977-.685 6.577-.685 7.659-.175-.91-.62-4.156-.493-7.42.103-2.693.726-5.458 1.07-6.73 1.305-4.248 2.787-6.964 3.065-7.397.278.433 2.142 3.775 3.11 7.29.96 3.513 1.156 6.878 1.111 8.862"/><path d="M28.198 36.62h-8.965v6.059s.015-.019.023-.026a5.388 5.388 0 0 1 7.652 0 5.474 5.474 0 0 1 0 7.703c-.007.008-.018.015-.026.026 0 0-.022.019-.03.03a10.722 10.722 0 0 1-7.611 3.16 10.761 10.761 0 0 1-7.642-3.186c-3.717-3.742-4.158-9.535-1.323-13.765.382-.57.823-1.116 1.323-1.62a10.742 10.742 0 0 1 7.642-3.185V17.253C8.612 17.253 0 25.926 0 36.625c0 10.698 8.616 19.368 19.24 19.368 5.541 0 10.533-2.358 14.046-6.133V36.62h-5.088ZM44.638 52.539c0 1.354-.167 3.458-2.857 3.458h-3.187c-2.695 0-2.858-2.104-2.858-3.458V40.087c0-1.354.163-3.458 2.858-3.458h3.187c2.694 0 2.857 2.104 2.857 3.458v2.738H40.79v-3.16c0-.332-.248-.637-.604-.637-.219 0-.604.138-.604.637v13.21c0 .496.385.638.604.638.356 0 .604-.306.604-.638v-4.242h-.578v-2.13h4.425v6.036ZM50.437 48.719l.66-9.68h.219l.66 9.68h-1.539Zm-4.261 7.278h3.765l.355-5.148h1.813l.36 5.148h3.764l-2.008-19.368h-6.048l-2.005 19.368h.004ZM57.666 53.56l3.684-14.522H58.05v-2.413h7.257v2.41l-3.684 14.477h3.906v2.485h-7.864V53.56ZM71.194 46.995V39.03h.496c.412 0 .716.359.716.97v6.029c0 .608-.3.97-.716.97h-.496v-.004Zm-3.85 9.001h3.85v-6.584h2.197c2.695 0 2.858-2.104 2.858-3.458V40.09c0-1.358-.163-3.458-2.858-3.458H67.34V56l.004-.004ZM82.08 46.413v-7.386h.498c.41 0 .715.358.715.97v5.45c0 .608-.304.966-.716.966h-.496Zm5.552 9.584-1.897-7.554c1.375-.552 1.4-1.828 1.4-2.354v-6.006c0-1.358-.162-3.458-2.857-3.458h-6.047v19.368h3.846v-7.166h.274l1.32 7.166h3.958l.003.004ZM94.766 52.874c0 .332-.249.635-.605.635-.218 0-.604-.139-.604-.635V39.665c0-.5.386-.638.605-.638.355 0 .603.306.603.638v13.21Zm-5.059-.34c0 1.355.167 3.459 2.861 3.459h3.187c2.694 0 2.857-2.104 2.857-3.458V40.083c0-1.354-.163-3.458-2.857-3.458h-3.187c-2.694 0-2.861 2.104-2.861 3.458v12.452ZM110.693 36.625h5.003v19.372h-3.846v-12.15h-.138l-1.978 12.15h-3.08l-1.979-12.15h-.137v12.15h-3.85V36.625h5.002l2.502 13.616 2.501-13.616Z"/></g><defs><clipPath id="a"><path fill="#fff" d="M0 0h157v56H0z"/></clipPath></defs>
</svg>