<svg width="15" height="12" viewBox="0 0 15 12" fill="none" xmlns="http://www.w3.org/2000/svg">
    <mask id="mask0_38_559" style="mask-type:luminance" maskUnits="userSpaceOnUse" x="0" y="0" width="15" height="12">
    <path fill-rule="evenodd" clip-rule="evenodd" d="M0.5 0.166626H14.5V11.8333H0.5V0.166626Z" fill="white"/>
    </mask>
    <g mask="url(#mask0_38_559)">
    <path fill-rule="evenodd" clip-rule="evenodd" d="M14.5 1.10399C14.4265 1.43021 14.3499 1.75577 14.2799 2.08276C13.8275 4.19729 13.3766 6.31216 12.9249 8.42688C12.7304 9.33762 12.5373 10.2487 12.3383 11.1585C12.3124 11.2767 12.2663 11.3941 12.2094 11.5012C12.0573 11.7874 11.8068 11.8953 11.4984 11.7987C11.3578 11.7547 11.2162 11.6903 11.0974 11.6042C10.0912 10.875 9.09024 10.1387 8.08762 9.40466C8.05133 9.37809 8.01412 9.35272 7.97084 9.3222C7.93757 9.35064 7.90612 9.37499 7.87744 9.40233C7.35983 9.89558 6.84214 10.3888 6.3254 10.883C6.17144 11.0302 5.99625 11.1188 5.76599 11.1055C5.78505 10.8208 5.80254 10.5452 5.82214 10.2698C5.86321 9.69319 5.90533 9.11661 5.94716 8.53996C5.95376 8.44919 5.97744 8.35623 5.96553 8.26805C5.92049 7.93556 6.10739 7.74284 6.33567 7.53935C8.19169 5.88467 10.0388 4.21997 11.8885 2.55822C11.9156 2.53387 11.9508 2.51334 11.9668 2.48294C11.9961 2.42717 12.0139 2.36534 12.0365 2.30603C11.9741 2.2885 11.905 2.24497 11.8505 2.25883C11.7383 2.2873 11.6258 2.33345 11.5274 2.39487C9.11644 3.90071 6.70721 5.40936 4.29823 6.91845C4.23056 6.96084 4.17248 6.98428 4.08561 6.95687C3.0636 6.63419 2.03931 6.31887 1.01738 5.99589C0.893738 5.95681 0.770683 5.89842 0.664901 5.82402C0.466054 5.68418 0.442113 5.47946 0.620008 5.31415C0.750314 5.19305 0.908095 5.08558 1.07276 5.02015C1.93378 4.67797 2.80066 4.35062 3.6659 4.01908C6.95288 2.75977 10.2399 1.50042 13.5278 0.243624C13.6324 0.203635 13.7464 0.177316 13.8579 0.168749C14.1537 0.146076 14.3731 0.306141 14.4635 0.593647C14.4742 0.627512 14.4878 0.660502 14.5 0.693893V1.10399Z" fill="#1E222E"/>
    </g>
</svg>
