<svg width="32" height="32" viewBox="0 0 32 32" fill="none" xmlns="http://www.w3.org/2000/svg">
    <path d="M2.99982 16.0369C3.01327 19.1934 4.10048 22.253 6.08553 24.7208C8.07058 27.1886 10.8373 28.9202 13.9382 29.6354C17.039 30.3505 20.2925 30.0075 23.1723 28.6616C26.052 27.3158 28.3896 25.046 29.8067 22.2195C29.9661 21.9519 30.0214 21.6358 29.9622 21.3306C29.903 21.0254 29.7334 20.7522 29.4853 20.5623C29.3347 20.4488 29.1607 20.3697 28.9758 20.3305C28.7908 20.2914 28.5994 20.2932 28.4152 20.3358C28.2311 20.3784 28.0586 20.4608 27.9102 20.5771C27.7618 20.6933 27.6411 20.8406 27.5568 21.0084C26.6259 22.9632 25.1512 24.6136 23.3062 25.7654C21.4612 26.9172 19.3228 27.5224 17.1426 27.5097C15.2119 27.5115 13.3116 27.0343 11.6146 26.1215C9.91754 25.2088 8.47783 23.8896 7.42657 22.2841C6.37531 20.6785 5.74593 18.8377 5.59574 16.9293C5.44556 15.0209 5.77936 13.1056 6.56673 11.3579C7.3541 9.61009 8.57001 8.08543 10.1037 6.92277C11.6374 5.76011 13.4401 4.9964 15.3476 4.70122C17.2552 4.40603 19.2069 4.58876 21.0249 5.23275C22.843 5.87674 24.4697 6.96152 25.7568 8.38827H22.3497C22.032 8.38251 21.7225 8.48801 21.4756 8.68621C21.2286 8.8844 21.0601 9.16259 20.9997 9.47182C20.9717 9.65452 20.9841 9.84107 21.0361 10.0185C21.0881 10.196 21.1783 10.3601 21.3006 10.4996C21.4229 10.639 21.5743 10.7505 21.7444 10.8261C21.9144 10.9018 22.099 10.9399 22.2854 10.9378H28.7139C29.0549 10.9378 29.3819 10.8035 29.623 10.5644C29.8641 10.3254 29.9996 10.0011 29.9996 9.66304V3.35295C30.0054 3.03801 29.899 2.73113 29.6991 2.48631C29.4992 2.24148 29.2186 2.0744 28.9067 2.01445C28.7225 1.98672 28.5343 1.99904 28.3553 2.05056C28.1763 2.10209 28.0108 2.19158 27.8702 2.31284C27.7295 2.43409 27.6171 2.58422 27.5408 2.75281C27.4645 2.9214 27.4261 3.10443 27.4282 3.28921V6.41239C25.4844 4.37023 22.967 2.95372 20.202 2.34628C17.437 1.73884 14.5518 1.96845 11.9199 3.00538C9.28802 4.0423 7.03074 5.83879 5.44037 8.16219C3.84999 10.4856 2.99977 13.2289 2.99982 16.0369Z" fill="white"/>
    <path d="M21.8333 21.6667C21.6253 21.671 21.4213 21.6098 21.25 21.4917L14.8333 17.6417V11.1667C14.8333 10.8573 14.9562 10.5605 15.175 10.3417C15.3938 10.1229 15.6906 10 16 10C16.3094 10 16.6061 10.1229 16.8249 10.3417C17.0437 10.5605 17.1666 10.8573 17.1666 11.1667V16.3583L22.4166 19.5083C22.5513 19.5806 22.6695 19.68 22.7638 19.8002C22.8582 19.9203 22.9267 20.0587 22.9651 20.2066C23.0034 20.3545 23.0108 20.5087 22.9867 20.6596C22.9625 20.8105 22.9075 20.9548 22.825 21.0833C22.7289 21.262 22.5856 21.4109 22.4108 21.5138C22.2359 21.6166 22.0362 21.6695 21.8333 21.6667Z" fill="white"/>
</svg>