<svg width="14" height="14" viewBox="0 0 14 14" fill="none" xmlns="http://www.w3.org/2000/svg">
    <g clip-path="url(#clip0_38_564)">
    <path d="M7.00175 0H6.99825C3.13863 0 0 3.1395 0 7C0 8.53125 0.4935 9.9505 1.33263 11.1029L0.46025 13.7034L3.15088 12.8433C4.25775 13.5765 5.57812 14 7.00175 14C10.8614 14 14 10.8596 14 7C14 3.14038 10.8614 0 7.00175 0Z" fill="#1E222E"/>
    <path d="M11.0749 9.88491C10.906 10.3618 10.2358 10.7573 9.70117 10.8728C9.33542 10.9507 8.85767 11.0128 7.24942 10.346C5.19229 9.49379 3.86754 7.40341 3.76429 7.26779C3.66542 7.13216 2.93304 6.16091 2.93304 5.15641C2.93304 4.15191 3.44317 3.66279 3.64879 3.45279C3.81767 3.28041 4.09679 3.20166 4.36454 3.20166C4.45117 3.20166 4.52904 3.20604 4.59904 3.20954C4.80467 3.21829 4.90792 3.23054 5.04354 3.55516C5.21242 3.96204 5.62367 4.96654 5.67267 5.06979C5.72254 5.17304 5.77242 5.31304 5.70242 5.44866C5.63679 5.58866 5.57904 5.65079 5.47579 5.76979C5.37254 5.88879 5.27454 5.97979 5.17129 6.10754C5.07679 6.21866 4.97004 6.33766 5.08904 6.54329C5.20804 6.74454 5.61929 7.41566 6.22479 7.95466C7.00617 8.65029 7.63967 8.87254 7.86629 8.96704C8.03517 9.03704 8.23642 9.02041 8.35979 8.88916C8.51642 8.72029 8.70979 8.44029 8.90667 8.16466C9.04667 7.96691 9.22342 7.94241 9.40892 8.01241C9.59792 8.07804 10.598 8.57241 10.8037 8.67479C11.0093 8.77804 11.1449 8.82704 11.1948 8.91366C11.2438 9.00029 11.2438 9.40716 11.0749 9.88491Z" fill="#E3E5EB"/>
    </g>
    <defs>
    <clipPath id="clip0_38_564">
    <rect width="14" height="14" fill="white"/>
    </clipPath>
    </defs>
</svg>
