<svg width="20" height="20" viewBox="0 0 20 20" fill="none" xmlns="http://www.w3.org/2000/svg">
<path fill-rule="evenodd" clip-rule="evenodd" d="M12.9167 3.125C11.1908 3.125 9.79171 4.52411 9.79171 6.25C9.79171 7.97589 11.1908 9.375 12.9167 9.375C14.6426 9.375 16.0417 7.97589 16.0417 6.25C16.0417 4.52411 14.6426 3.125 12.9167 3.125ZM8.54171 6.25C8.54171 3.83376 10.5004 1.875 12.9167 1.875C15.333 1.875 17.2917 3.83376 17.2917 6.25C17.2917 8.66624 15.333 10.625 12.9167 10.625C11.9353 10.625 11.0293 10.3018 10.2995 9.75614L6.71839 13.3345L7.94198 14.5581C8.18606 14.8021 8.18606 15.1979 7.94198 15.4419C7.6979 15.686 7.30218 15.686 7.0581 15.4419L5.83417 14.218L4.21743 15.8335L5.44198 17.0581C5.68606 17.3021 5.68606 17.6979 5.44198 17.9419C5.1979 18.186 4.80218 18.186 4.5581 17.9419L2.89143 16.2753C2.77419 16.158 2.70834 15.999 2.70837 15.8332C2.70841 15.6674 2.77432 15.5084 2.8916 15.3912L5.36316 12.9216C5.37219 12.9113 5.38161 12.9012 5.39143 12.8914C5.40137 12.8815 5.41155 12.8719 5.42197 12.8628L9.41486 8.87298C8.86656 8.14212 8.54171 7.234 8.54171 6.25Z" fill="#AD8361"/>
</svg>
