<svg width="24" height="22" viewBox="0 0 24 22" fill="none" xmlns="http://www.w3.org/2000/svg">
    <path
        d="M22.7848 5.70581C22.1692 3.13551 20.2581 1.33064 17.8519 1.05188C15.4673 0.773112 13.6809 1.88344 12.3336 3.9718C12.2217 4.14662 12.1227 4.32616 11.9979 4.53878C11.9462 4.45846 11.9075 4.39231 11.8688 4.32144C11.0897 2.95597 10.0824 1.88344 8.67488 1.34481C5.54126 0.154162 1.71033 2.10078 1.08188 6.35311C0.776268 8.44147 1.34445 10.2605 2.48082 11.9048C3.30727 13.1001 4.28007 14.1443 5.33465 15.094C7.39216 16.9461 9.4755 18.7699 11.5459 20.6031C11.6923 20.7307 11.8343 20.8583 11.9936 21C12.0495 20.9528 12.1055 20.9102 12.1615 20.863C14.1975 19.0676 16.2464 17.2863 18.2694 15.472C19.4575 14.4089 20.5809 13.2655 21.515 11.9142C22.2381 10.8653 22.7676 9.72189 22.9397 8.40367C22.957 8.26665 22.9828 8.12491 23 7.98789C23 7.6288 23 7.26499 23 6.90591C22.9268 6.5043 22.8795 6.09797 22.7848 5.70581Z"
        stroke="#AC8361" />
</svg>