<svg width="16" height="12" viewBox="0 0 16 12" fill="none" xmlns="http://www.w3.org/2000/svg">
<path fill-rule="evenodd" clip-rule="evenodd" d="M14.0008 1.04957C14.6617 1.23093 15.1822 1.7653 15.3588 2.4439C15.6798 3.67379 15.6798 6.23997 15.6798 6.23997C15.6798 6.23997 15.6798 8.80606 15.3588 10.036C15.1822 10.7146 14.6617 11.249 14.0008 11.4305C12.8031 11.76 7.99982 11.76 7.99982 11.76C7.99982 11.76 3.1966 11.76 1.99878 11.4305C1.33786 11.249 0.817366 10.7146 0.640726 10.036C0.319824 8.80606 0.319824 6.23997 0.319824 6.23997C0.319824 6.23997 0.319824 3.67379 0.640726 2.4439C0.817366 1.7653 1.33786 1.23093 1.99878 1.04957C3.1966 0.719971 7.99982 0.719971 7.99982 0.719971C7.99982 0.719971 12.8031 0.719971 14.0008 1.04957ZM6.55979 4.0802V8.88021L10.3998 6.4803L6.55979 4.0802Z" fill="white" fill-opacity="0.8"/>
</svg>
