<svg width="635" height="635" viewBox="0 0 635 635" fill="none" xmlns="http://www.w3.org/2000/svg">
  <g style="mix-blend-mode:overlay">
    <path
      d="M528.093 553.764L527.502 553.076L528.683 551.698L522.485 544.713L522.878 547.468L523.173 555.929L523.468 556.322L524.846 555.437L525.436 556.126L521.599 559.569L521.009 558.88L521.993 557.7L514.319 548.943L513.04 549.829L512.449 549.14L516.385 545.697L516.975 546.385L515.893 547.566L522.189 554.65L521.796 552.092L521.501 543.434L521.009 542.942L519.533 543.926L518.943 543.237L522.878 539.793L523.468 540.482L522.386 541.663L530.06 550.419L531.339 549.632L531.93 550.321L528.093 553.764Z"
      fill="#313131" />
    <path
      d="M518.451 561.733C518.057 562.225 517.762 562.521 517.467 562.816C517.172 563.111 516.877 563.406 516.581 563.603C515.401 564.587 514.319 565.177 513.335 565.275C512.351 565.374 511.564 565.079 510.875 564.193C510.285 563.406 509.99 562.619 510.088 561.733C510.186 560.848 510.58 560.061 511.17 559.372C510.285 560.061 509.399 560.356 508.514 560.356C507.628 560.258 506.94 559.864 506.349 559.175C505.464 558.093 505.169 557.109 505.365 556.027C505.562 554.945 506.349 553.863 507.727 552.682C508.317 552.19 508.907 551.796 509.399 551.6C509.891 551.305 510.383 551.108 510.678 551.009C510.973 550.911 511.17 550.813 511.269 550.813L513.039 553.567L512.351 554.158L510.383 552.584C509.694 552.682 509.006 553.076 508.12 553.764C507.431 554.256 507.136 554.846 507.136 555.535C507.136 556.224 507.432 556.913 508.022 557.7C508.514 558.29 509.104 558.683 509.793 558.782C510.481 558.88 511.269 558.585 512.154 557.896L513.138 557.109L513.827 557.896L512.941 558.585C512.548 558.88 512.252 559.274 511.957 559.766C511.761 560.258 511.662 560.75 511.662 561.242C511.761 561.733 511.957 562.324 512.351 562.816C512.843 563.504 513.433 563.8 514.023 563.8C514.614 563.8 515.204 563.504 515.893 563.012C516.286 562.619 516.68 562.324 516.877 561.93C517.073 561.537 517.172 561.242 517.172 561.045L516.385 559.471L517.27 558.684L519.238 560.848C519.139 560.946 518.844 561.242 518.451 561.733Z"
      fill="#313131" />
    <path
      d="M505.169 570.982L506.546 570.293L507.136 571.08L505.07 572.556C504.775 572.851 504.283 573.146 503.791 573.54C503.299 573.933 503.004 574.228 502.807 574.425C501.43 575.409 500.249 575.901 499.364 575.901C498.478 575.901 497.691 575.507 497.101 574.622C496.609 573.933 496.314 573.146 496.412 572.359C496.412 571.572 496.806 570.785 497.396 570.195C496.412 570.883 495.527 571.277 494.641 571.178C493.756 571.08 492.969 570.687 492.378 569.801C491.591 568.817 491.395 567.735 491.69 566.554C491.985 565.374 492.87 564.193 494.543 563.012C494.936 562.717 495.232 562.52 495.625 562.324C496.412 561.832 496.904 561.438 497.101 561.34L499.069 559.864L499.561 560.651L498.38 561.733L505.169 570.982ZM495.035 563.701C494.051 564.488 493.461 565.177 493.264 565.964C493.067 566.751 493.362 567.44 493.854 568.227C494.444 569.014 495.035 569.408 495.724 569.506C496.412 569.604 497.199 569.309 498.085 568.62C499.069 567.833 499.757 567.44 500.053 567.145L496.806 562.619C496.412 562.717 495.92 563.111 495.035 563.701ZM499.757 568.719L498.97 569.309C498.282 569.801 497.888 570.391 497.79 571.08C497.691 571.769 497.888 572.457 498.478 573.146C498.97 573.835 499.561 574.228 500.151 574.327C500.741 574.425 501.528 574.13 502.414 573.441C502.807 573.146 503.103 572.851 503.496 572.556L503.791 572.261L500.741 568.03C500.544 568.227 500.249 568.424 499.757 568.719Z"
      fill="#313131" />
    <path
      d="M492.575 581.313L490.903 582.493L479.982 574.229L478.9 574.721L478.408 573.934L482.54 571.179L483.032 571.966L481.851 572.95L484.114 574.819L488.64 571.769L487.853 569.014L486.377 569.703L485.885 568.916L489.624 566.456L490.116 567.243L489.23 568.031L492.575 581.313ZM490.017 579.443L491.296 580.525L490.706 578.853L488.935 572.851L484.999 575.508L490.017 579.443Z"
      fill="#313131" />
    <path
      d="M476.046 576.098C477.227 576.098 478.211 576.393 479.195 577.082C480.179 577.77 481.064 578.656 481.753 579.935C482.441 581.116 482.835 582.296 482.933 583.575C483.032 584.854 482.737 585.937 482.146 586.92C481.556 587.904 480.769 588.79 479.687 589.478C478.9 589.97 477.817 590.462 476.538 590.856L475.948 591.053L474.374 588.101L475.456 587.412L477.129 589.183C477.325 589.183 477.719 589.183 478.112 589.085C478.506 588.986 478.998 588.691 479.588 588.396C480.277 588.003 480.769 587.412 481.064 586.724C481.359 586.035 481.458 585.149 481.261 584.264C481.064 583.379 480.67 582.296 480.08 581.312C479.49 580.329 478.801 579.443 478.014 578.853C477.227 578.262 476.44 577.77 475.653 577.672C474.866 577.574 473.98 577.672 473.193 578.164C472.603 578.459 472.209 578.853 472.013 579.049C471.816 579.246 471.619 579.64 471.521 579.935L471.816 581.903L470.733 582.395L469.75 579.935C469.946 579.837 470.242 579.541 470.635 579.148C470.93 578.754 471.225 578.459 471.619 578.164C471.914 577.869 472.406 577.574 472.898 577.279C473.783 576.491 474.866 576.098 476.046 576.098Z"
      fill="#313131" />
    <path
      d="M466.208 593.807C466.109 594.89 465.814 595.972 465.322 596.759C464.732 597.645 464.043 598.333 463.158 598.727C462.076 599.317 460.993 599.514 460.009 599.416C459.026 599.317 458.042 598.924 457.156 598.235C456.271 597.546 455.484 596.661 454.893 595.382C454.205 594.004 453.811 592.725 453.713 591.545C453.614 590.266 453.909 589.183 454.401 588.2C454.893 587.216 455.68 586.527 456.664 585.937C457.747 585.346 458.829 585.051 459.911 585.15C460.993 585.248 461.879 585.641 462.764 586.232C463.65 586.921 464.437 587.806 465.027 589.085L467.684 587.708L465.126 582.887L463.65 583.477L463.256 582.69L467.782 580.23L468.175 581.017L466.896 581.903L472.406 592.135L473.783 591.643L474.177 592.43L469.75 594.791L469.356 594.004L470.635 593.119L468.274 588.691L465.617 590.167C466.011 591.545 466.208 592.725 466.208 593.807ZM464.437 595.185C464.535 593.906 464.142 592.43 463.158 590.561C462.272 588.987 461.288 587.806 460.206 587.216C459.124 586.625 458.042 586.527 456.861 587.117C455.779 587.708 455.287 588.593 455.188 589.774C455.09 590.954 455.582 592.529 456.566 594.398C457.451 595.972 458.337 597.153 459.419 597.743C460.501 598.432 461.584 598.432 462.567 597.841C463.748 597.349 464.338 596.464 464.437 595.185Z"
      fill="#313131" />
    <path
      d="M445.448 598.53C444.76 598.136 443.776 597.644 442.693 596.956C441.906 596.464 441.414 596.07 441.021 595.873C440.627 595.677 440.332 595.578 440.135 595.578L439.447 595.677L439.053 594.89L441.119 593.906C441.414 593.807 441.808 593.906 442.3 594.201C442.792 594.496 443.579 594.988 444.464 595.677C445.547 596.464 446.334 596.956 447.022 597.349C447.613 597.743 448.105 597.841 448.498 597.644L449.58 597.152L447.318 592.331L445.743 592.823L445.35 592.036L449.974 589.872L450.368 590.757L449.089 591.544L454.008 602.072L455.484 601.678L455.877 602.564L451.351 604.63L450.958 603.548L452.237 602.662L449.974 597.743L448.498 598.431L447.318 604.925L448.793 604.433L449.187 605.318L445.055 607.286L444.661 606.401L445.94 605.614L447.318 598.923C446.826 599.022 446.137 598.825 445.448 598.53Z"
      fill="#313131" />
    <path
      d="M436.298 596.66C437.381 596.857 438.266 597.349 439.053 598.235C439.84 599.022 440.529 600.104 441.119 601.383C441.71 602.662 441.906 603.941 441.808 605.22C441.71 606.401 441.316 607.483 440.726 608.368C440.037 609.254 439.25 609.943 438.069 610.435C436.298 611.222 434.626 611.222 433.248 610.435C431.871 609.647 430.69 608.368 429.903 606.302C429.313 604.925 429.116 603.646 429.215 602.465C429.313 601.186 429.706 600.202 430.297 599.219C430.986 598.333 431.871 597.644 432.953 597.152C434.134 596.66 435.216 596.464 436.298 596.66ZM439.84 606.893C440.037 605.614 439.84 604.138 439.053 602.17C438.364 600.399 437.479 599.219 436.397 598.431C435.315 597.644 434.232 597.546 433.15 598.038C432.068 598.53 431.379 599.317 431.182 600.596C430.986 601.875 431.182 603.449 431.969 605.318C432.658 607.089 433.544 608.27 434.626 608.959C435.61 609.647 436.692 609.844 437.873 609.352C438.955 609.057 439.644 608.172 439.84 606.893Z"
      fill="#313131" />
    <path
      d="M428.821 612.697L430.297 612.402L430.592 613.288L428.231 614.173C427.837 614.272 427.345 614.567 426.755 614.764C426.165 615.059 425.771 615.157 425.574 615.256C424 615.846 422.721 616.043 421.836 615.747C420.95 615.452 420.36 614.862 419.966 613.878C419.671 613.091 419.671 612.205 419.868 611.517C420.065 610.828 420.655 610.139 421.442 609.647C420.36 610.041 419.376 610.139 418.491 609.844C417.605 609.549 417.015 608.86 416.72 607.975C416.326 606.794 416.326 605.712 416.916 604.63C417.507 603.548 418.687 602.662 420.655 601.973C421.049 601.777 421.442 601.678 421.934 601.58C422.82 601.285 423.41 601.088 423.607 601.088L425.968 600.202L426.263 601.088L424.886 601.777L428.821 612.697ZM421.049 602.957C419.868 603.351 419.081 603.941 418.786 604.63C418.392 605.318 418.392 606.106 418.786 606.991C419.081 607.877 419.573 608.467 420.163 608.664C420.753 608.86 421.639 608.86 422.623 608.467C423.803 608.073 424.59 607.778 424.886 607.581L423.016 602.367C422.623 602.367 422.032 602.564 421.049 602.957ZM424.295 609.057L423.311 609.451C422.524 609.746 421.934 610.238 421.737 610.828C421.54 611.418 421.541 612.205 421.836 612.993C422.131 613.78 422.524 614.37 423.115 614.567C423.705 614.764 424.492 614.764 425.476 614.37C425.869 614.173 426.361 614.075 426.755 613.78L427.148 613.583L425.378 608.664C425.082 608.762 424.787 608.86 424.295 609.057Z"
      fill="#313131" />
    <path
      d="M401.175 622.93L400.879 622.044L402.355 621.356L399.01 610.238L397.239 610.533L396.944 609.648L401.962 608.172L402.257 609.057L400.781 609.648L404.126 620.864L409.832 619.191L406.487 607.975L404.815 608.27L404.52 607.385L409.537 605.909L409.832 606.794L408.455 607.385L411.8 618.502L413.374 618.306L413.67 619.191L401.175 622.93Z"
      fill="#313131" />
    <path
      d="M393.5 611.32C394.484 611.714 395.37 612.304 396.058 613.288C396.747 614.173 397.239 615.354 397.633 616.732C397.928 618.109 398.026 619.388 397.731 620.569C397.436 621.749 396.944 622.733 396.157 623.52C395.37 624.307 394.386 624.898 393.304 625.193C391.434 625.685 389.86 625.389 388.581 624.504C387.302 623.52 386.417 622.044 385.826 619.88C385.433 618.502 385.433 617.125 385.728 615.944C386.023 614.764 386.515 613.682 387.302 612.894C388.089 612.107 389.073 611.517 390.254 611.222C391.434 610.927 392.516 610.927 393.5 611.32ZM395.566 621.946C395.96 620.765 395.96 619.191 395.468 617.223C394.976 615.452 394.287 614.075 393.402 613.19C392.517 612.304 391.434 612.009 390.254 612.304C389.073 612.599 388.286 613.386 387.892 614.567C387.499 615.748 387.499 617.42 387.991 619.388C388.483 621.257 389.073 622.536 390.057 623.422C390.942 624.307 392.025 624.602 393.205 624.307C394.287 623.815 395.075 623.127 395.566 621.946Z"
      fill="#313131" />
    <path
      d="M379.53 619.093C379.431 617.322 379.53 616.043 379.923 615.059C380.12 614.567 380.317 614.173 380.612 613.878C380.907 613.583 381.301 613.386 381.694 613.288C382.284 613.189 382.678 613.091 382.973 613.091L383.367 614.567C383.071 614.567 382.58 614.665 381.989 614.764C381.792 614.764 381.596 614.862 381.399 615.059C381.202 615.256 381.104 615.452 381.005 615.649C380.317 617.322 380.513 620.372 381.399 624.799L381.694 626.275L383.859 626.078L384.055 626.963L373.43 629.128L373.233 628.242L374.905 627.652L372.643 616.239L370.773 616.436L370.576 615.551L376.184 614.468L376.381 615.354L374.512 615.944L376.775 627.357L380.513 626.57L380.218 624.897C379.923 622.733 379.628 620.765 379.53 619.093Z"
      fill="#313131" />
    <path
      d="M369.789 628.636H371.364L371.462 629.522L362.017 630.997L361.328 628.144L362.41 627.947L363.198 629.62L367.822 629.03L367.035 623.815L363.985 624.307V625.881L363.001 626.078L362.312 621.847L363.296 621.651L363.788 623.225L366.838 622.831L365.952 617.322L360.738 618.306L360.148 620.765L358.967 620.568V617.223L369.199 615.649L369.297 616.535L367.822 616.928L369.789 628.636Z"
      fill="#313131" />
    <path
      d="M354.441 630.997L357.589 630.506L357.786 626.57L358.967 626.472L359.262 631.489L347.653 632.768L346.865 627.849L348.046 627.751L349.128 631.588L352.375 631.293L350.998 619.585L348.341 619.683L348.243 618.798L355.327 618.01L355.425 618.896L353.064 619.388L354.441 630.997Z"
      fill="#313131" />
    <path
      d="M339.191 625.586L340.077 625.488C340.372 625.291 340.667 624.799 340.864 624.209C341.061 623.619 341.454 622.831 341.749 621.946C342.045 621.06 342.34 620.372 342.536 619.88C342.733 619.388 342.93 619.191 343.127 619.191L345.685 618.994L345.783 619.88L345.095 620.175C344.898 620.273 344.701 620.372 344.504 620.765C344.307 621.06 344.012 621.651 343.717 622.339C343.324 623.225 343.028 623.914 342.733 624.406C342.438 624.996 342.143 625.291 341.749 625.586C342.635 625.783 343.324 626.177 343.815 626.767C344.307 627.357 344.603 628.144 344.701 629.128C344.799 630.604 344.406 631.686 343.619 632.277C342.733 632.867 341.553 633.26 339.88 633.359C339.486 633.359 339.093 633.359 338.503 633.359C337.912 633.359 337.42 633.359 337.125 633.359L334.469 633.556L334.37 632.67L335.945 632.375L335.158 620.765L333.387 620.667L333.288 619.781L338.798 619.388L338.896 620.273L337.125 620.569L337.519 625.488L339.191 625.586ZM338.404 632.473C338.995 632.473 339.486 632.473 339.88 632.473C340.864 632.375 341.553 632.178 342.045 631.686C342.536 631.194 342.733 630.506 342.635 629.423C342.537 628.439 342.241 627.652 341.651 627.16C341.061 626.668 340.372 626.472 339.388 626.472C338.404 626.57 337.716 626.57 337.42 626.668L337.814 632.375L338.404 632.473Z"
      fill="#313131" />
    <path
      d="M327.582 632.965L330.829 632.768L331.321 628.833H332.6L332.403 633.85L320.793 634.146L320.4 629.128H321.58L322.269 633.063H325.516L325.122 621.257L322.466 621.159V620.273L329.648 620.076V620.962L327.188 621.257L327.582 632.965Z"
      fill="#313131" />
    <path
      d="M311.938 620.962C312.922 621.552 313.611 622.438 314.103 623.52C314.595 624.602 314.792 625.881 314.792 627.357C314.792 628.734 314.398 630.013 313.808 630.997C313.217 632.08 312.332 632.867 311.348 633.457C310.266 634.047 309.184 634.244 307.905 634.244C306.921 634.244 305.838 634.047 304.461 633.752L303.871 633.654L304.166 630.309H305.445L305.839 632.67C306.035 632.867 306.33 632.965 306.724 633.063C307.118 633.162 307.708 633.26 308.298 633.26C309.085 633.26 309.774 633.063 310.463 632.67C311.053 632.276 311.643 631.588 311.938 630.702C312.332 629.817 312.529 628.734 312.529 627.554C312.529 626.373 312.43 625.291 312.135 624.307C311.84 623.323 311.348 622.536 310.758 621.946C310.167 621.355 309.38 621.06 308.397 621.06C307.708 621.06 307.216 621.06 306.822 621.159C306.429 621.257 306.134 621.454 305.937 621.651L305.15 623.422L303.969 623.225L304.461 620.568C304.756 620.568 305.15 620.47 305.642 620.372C306.134 620.273 306.527 620.175 306.921 620.076C307.314 619.978 307.905 619.978 308.495 619.978C309.774 619.978 310.955 620.273 311.938 620.962Z"
      fill="#313131" />
    <path
      d="M296.197 633.457L296.295 632.572L298.164 632.473L298.853 623.127L297.181 625.291L291.376 631.489V631.981L293.048 632.277L292.95 633.162L287.834 632.768L287.932 631.883L289.408 631.785L290.195 620.175L288.621 619.88L288.719 618.994L293.934 619.388L293.835 620.273L292.163 620.372L291.474 629.817L293.048 627.751L299.05 621.454V620.765L297.279 620.47L297.377 619.585L302.592 619.978L302.493 620.864L300.919 620.962L300.132 632.572L301.608 632.867L301.509 633.752L296.197 633.457Z"
      fill="#313131" />
    <path
      d="M275.929 631.588L276.323 626.668L277.602 626.767L277.7 630.604L281.734 631.194L283.111 619.486L279.864 618.896L279.963 618.01L287.243 618.797L287.145 619.683H285.079L283.8 631.194L285.768 631.686L285.669 632.572L275.929 631.588Z"
      fill="#313131" />
    <path
      d="M272.879 630.014L274.257 630.506L274.158 631.391L269.14 630.604L269.239 629.718H270.813L271.6 624.799L265.107 623.815L264.32 628.735L265.795 629.226L265.697 630.112L260.778 629.325L260.876 628.439H262.352L264.123 616.928L262.647 616.535L262.745 615.649L267.665 616.436L267.566 617.322L265.992 617.223L265.107 622.635L271.6 623.618L272.486 618.207L270.911 617.814L271.01 616.928L276.126 617.715L276.028 618.601L274.552 618.502L272.879 630.014Z"
      fill="#313131" />
    <path
      d="M253.989 627.947L252.021 627.554L250.152 613.977L249.07 613.583L249.267 612.698L254.087 613.681L253.891 614.567L252.316 614.468L252.612 617.322L257.925 618.404L259.302 615.846L257.728 615.354L257.925 614.468L262.254 615.354L262.057 616.239L260.876 616.141L253.989 627.947ZM253.399 624.799L253.497 626.472L254.284 624.897L257.334 619.388L252.71 618.404L253.399 624.799Z"
      fill="#313131" />
    <path
      d="M243.363 616.535C244.052 614.961 244.741 613.78 245.429 612.993C245.823 612.599 246.118 612.403 246.512 612.206C246.905 612.107 247.299 612.107 247.791 612.206C248.381 612.304 248.775 612.501 249.07 612.599L248.873 614.075C248.578 613.977 248.184 613.878 247.496 613.682C247.299 613.583 247.102 613.583 246.905 613.682C246.708 613.78 246.512 613.878 246.315 614.075C245.036 615.256 243.855 618.109 242.675 622.536L242.281 624.012L244.347 624.799L244.15 625.685L233.721 623.028L233.918 622.143L235.689 622.34L238.542 611.025L236.771 610.435L236.968 609.549L242.576 610.927L242.379 611.812L240.51 611.517L237.657 622.733L241.297 623.619L241.691 621.946C242.084 619.978 242.675 618.109 243.363 616.535Z"
      fill="#313131" />
    <path
      d="M214.536 617.322L214.831 616.436L216.602 616.732L220.046 605.614L218.472 604.925L218.767 604.04L223.981 605.712L223.686 606.598L222.013 606.303L218.57 617.42L220.144 618.109L219.849 618.994L214.536 617.322ZM227.326 615.551C225.851 615.059 224.867 614.37 224.276 613.485C223.686 612.599 223.588 611.517 223.981 610.238C224.375 608.861 225.162 607.975 226.244 607.483C227.326 606.991 228.605 606.991 230.081 607.385C230.278 607.483 230.475 607.483 230.671 607.582C230.868 607.68 231.065 607.778 231.262 607.778C231.951 608.074 232.541 608.27 233.033 608.467L235.492 609.254L235.197 610.14L233.623 609.845L230.18 620.962L231.557 621.651L231.262 622.536L226.146 620.962L226.441 620.077L228.31 620.372L229.589 616.24L227.326 615.551ZM231.065 608.861C230.868 608.762 230.573 608.664 230.081 608.566C229.097 608.27 228.212 608.27 227.523 608.664C226.834 609.057 226.342 609.746 225.949 610.828C225.654 611.812 225.654 612.599 226.047 613.288C226.441 613.977 227.13 614.469 228.113 614.764L229.983 615.354L231.852 609.353C231.557 609.058 231.36 608.959 231.065 608.861Z"
      fill="#313131" />
    <path
      d="M206.764 613.19L208.043 613.977L207.748 614.862L203.025 612.993L203.32 612.107L204.894 612.501L206.764 607.778L200.664 605.417L198.794 610.14L200.073 610.927L199.778 611.812L195.154 609.943L195.449 609.057L196.925 609.352L201.156 598.53L199.877 597.841L200.172 596.956L204.894 598.825L204.599 599.711L203.123 599.317L201.156 604.335L207.256 606.696L209.223 601.678L207.748 600.891L208.043 600.006L212.864 601.875L212.568 602.761L211.093 602.367L206.764 613.19Z"
      fill="#313131" />
    <path
      d="M188.759 607.188L186.89 606.302L187.972 592.627L186.988 591.938L187.382 591.151L191.907 593.119L191.514 594.004L190.038 593.512L189.743 596.365L194.761 598.628L196.728 596.464L195.351 595.677L195.744 594.89L199.778 596.66L199.385 597.448L198.204 597.152L188.759 607.188ZM188.956 604.039L188.759 605.712L189.841 604.335L193.973 599.612L189.645 597.644L188.956 604.039Z"
      fill="#313131" />
    <path
      d="M175.182 599.415L176.854 600.596L176.461 601.383L172.033 599.022L173.608 590.364L174.198 588.003L172.624 589.872L166.425 596.07L162.096 593.807L162.49 593.02L164.458 593.807L168.59 582.886L167.212 581.903L167.606 581.115L172.329 583.673L171.935 584.461L170.361 583.87L167.212 591.643L165.835 594.988L167.803 593.02L175.182 585.838L176.264 586.428L174.788 595.775L174.099 599.415L176.067 596.365L180.691 589.282L179.117 588.298L179.511 587.511L183.84 589.773L183.446 590.561L181.97 589.97L175.182 599.415Z"
      fill="#313131" />
    <path
      d="M155.8 590.167L154.029 589.085L156.783 575.704L155.898 574.917L156.39 574.13L160.621 576.688L160.129 577.475L158.653 576.885L157.964 579.738L162.687 582.493L164.851 580.525L163.572 579.541L164.064 578.754L167.901 581.017L167.409 581.804L166.327 581.411L155.8 590.167ZM156.39 587.019L155.996 588.691L157.275 587.511L161.998 583.28L157.866 580.821L156.39 587.019Z"
      fill="#313131" />
    <path
      d="M147.634 583.673L148.716 584.657L148.224 585.444L146.158 584.067C145.764 583.87 145.371 583.575 144.977 583.378C144.387 583.083 143.796 582.69 143.305 582.394C141.829 581.411 140.943 580.427 140.648 579.443C140.353 578.459 140.648 577.475 141.337 576.295C141.927 575.507 142.517 574.819 143.305 574.524C144.092 574.13 144.977 574.032 145.863 574.13C146.748 574.228 147.634 574.622 148.519 575.212C148.814 575.409 149.109 575.606 149.405 575.803C149.7 575.999 149.896 576.196 149.995 576.196L152.258 572.753L150.192 571.178L150.684 570.391L155.8 573.737L155.308 574.524L153.93 573.835L147.634 583.673ZM148.027 576.098C147.24 575.606 146.355 575.409 145.567 575.507C144.78 575.606 143.895 576.295 143.206 577.475C142.616 578.361 142.419 579.148 142.616 579.836C142.813 580.525 143.403 581.214 144.288 581.804C144.584 582.001 144.977 582.198 145.371 582.394C145.567 582.493 145.764 582.591 145.863 582.69L149.503 577.18C149.208 576.983 148.716 576.59 148.027 576.098Z"
      fill="#313131" />
    <path
      d="M143.305 566.358C143.797 567.44 143.895 568.522 143.6 569.703C143.403 570.884 142.813 572.064 142.026 573.245C141.239 574.425 140.255 575.213 139.172 575.704C138.09 576.196 136.91 576.492 135.729 576.295C134.548 576.196 133.466 575.803 132.384 575.016C131.597 574.425 130.711 573.638 129.826 572.654L129.432 572.163L131.498 569.506L132.482 570.195L131.498 572.359C131.597 572.556 131.695 572.851 131.99 573.245C132.285 573.54 132.679 573.933 133.171 574.327C133.86 574.819 134.548 575.016 135.335 575.016C136.122 575.016 136.91 574.721 137.697 574.229C138.484 573.737 139.271 572.95 139.959 571.966C140.648 570.982 141.14 570.096 141.435 569.113C141.73 568.129 141.829 567.243 141.632 566.456C141.435 565.669 140.943 564.98 140.255 564.39C139.763 563.997 139.271 563.8 138.877 563.603C138.484 563.406 138.189 563.406 137.893 563.505L136.221 564.587L135.335 563.8L137.205 561.93C137.401 562.029 137.795 562.226 138.287 562.422C138.779 562.619 139.172 562.718 139.566 562.914C139.959 563.111 140.353 563.406 140.943 563.701C142.124 564.39 142.911 565.276 143.305 566.358Z"
      fill="#313131" />
    <path
      d="M109.066 556.322L109.657 555.634L111.132 556.716L117.331 549.632L114.674 550.321L106.312 551.698L106.016 552.092L107.099 553.371L106.508 554.059L102.671 550.616L103.262 549.927L104.541 550.714L112.215 541.958L111.132 540.777L111.723 540.089L115.658 543.532L115.068 544.221L113.69 543.237L107.394 550.419L109.853 549.73L118.413 548.353L118.905 547.861L117.724 546.582L118.315 545.893L122.25 549.337L121.66 550.026L120.381 549.14L112.707 557.896L113.69 559.077L113.1 559.766L109.066 556.322Z"
      fill="#313131" />
    <path
      d="M99.9163 547.763C99.4244 547.468 99.0308 547.172 98.6373 546.976C98.2437 546.779 98.047 546.484 97.7518 546.287C96.6696 545.205 95.9809 544.221 95.6857 543.237C95.3906 542.253 95.6857 541.466 96.4728 540.679C97.1615 539.99 97.9486 539.597 98.8341 539.597C99.7196 539.597 100.507 539.892 101.294 540.384C100.507 539.597 100.015 538.711 100.015 537.826C100.015 536.94 100.31 536.153 100.9 535.464C101.786 534.481 102.868 533.989 103.95 534.087C105.032 534.185 106.213 534.776 107.59 536.055C108.082 536.547 108.574 537.039 108.869 537.531C109.165 538.023 109.46 538.416 109.657 538.711C109.853 539.006 109.952 539.203 109.952 539.302L107.492 541.368L106.803 540.679L108.082 538.613C107.886 537.924 107.394 537.235 106.607 536.547C106.016 535.956 105.328 535.661 104.737 535.76C104.147 535.858 103.36 536.252 102.671 536.94C102.179 537.531 101.884 538.121 101.786 538.81C101.786 539.498 102.179 540.285 102.966 540.974L103.95 541.86L103.261 542.647L102.474 541.86C102.081 541.466 101.687 541.269 101.195 541.072C100.703 540.876 100.211 540.876 99.7195 540.974C99.2276 541.072 98.7357 541.368 98.2438 541.86C97.6534 542.45 97.4567 543.04 97.4567 543.63C97.5551 544.221 97.8502 544.811 98.4405 545.401C98.8341 545.795 99.2276 546.09 99.6212 546.189C100.015 546.385 100.31 546.385 100.507 546.287L101.982 545.303L102.868 546.09L100.999 548.255C100.802 548.255 100.507 548.058 99.9163 547.763Z"
      fill="#313131" />
    <path
      d="M89.0939 535.759L89.9793 537.039L89.2906 537.629L87.5197 535.759C87.2245 535.464 86.831 535.071 86.339 534.677C85.8471 534.284 85.552 533.989 85.3552 533.792C84.1745 532.513 83.5842 531.431 83.3875 530.545C83.2891 529.66 83.5842 528.872 84.3713 528.085C85.06 527.495 85.7487 527.102 86.5358 527.102C87.3229 527.003 88.11 527.298 88.7987 527.79C88.0116 526.905 87.5197 526.019 87.5197 525.134C87.5197 524.248 87.8149 523.461 88.6019 522.773C89.4874 521.887 90.5696 521.494 91.7503 521.69C92.9309 521.789 94.2099 522.576 95.6857 524.15C95.9809 524.445 96.276 524.839 96.5712 525.134C97.1615 525.822 97.5551 526.314 97.7518 526.413L99.4244 528.184L98.7357 528.774L97.5551 527.79L89.0939 535.759ZM90.668 530.053L89.9793 529.266C89.389 528.676 88.7987 528.282 88.11 528.282C87.4213 528.282 86.831 528.577 86.1423 529.168C85.552 529.758 85.1584 530.348 85.1584 530.939C85.1584 531.529 85.5519 532.218 86.2407 533.005C86.5358 533.3 86.9294 533.693 87.2245 533.989L87.5197 534.284L91.3567 530.742C91.3567 530.742 91.0616 530.447 90.668 530.053ZM95.0954 524.74C94.2099 523.855 93.4228 523.363 92.6357 523.264C91.8487 523.166 91.16 523.461 90.4713 524.15C89.7826 524.839 89.389 525.429 89.4874 526.118C89.5858 526.806 89.8809 527.495 90.668 528.282C91.5535 529.168 92.0454 529.758 92.3406 530.053L96.3744 526.216C96.1777 526.019 95.7841 525.527 95.0954 524.74Z"
      fill="#313131" />
    <path
      d="M77.2876 524.544L75.9102 522.969L82.6988 511.163L82.1085 510.179L82.7972 509.589L86.0439 513.328L85.3552 513.918L84.1746 512.836L82.6004 515.295L86.1423 519.428L88.7987 518.247L87.9133 516.87L88.602 516.279L91.4552 519.624L90.7665 520.215L89.881 519.428L77.2876 524.544ZM78.7634 521.69L77.7795 523.166L79.3537 522.379L85.1585 519.92L82.0101 516.279L78.7634 521.69Z"
      fill="#313131" />
    <path
      d="M80.3376 507.425C80.4359 508.507 80.2392 509.687 79.7473 510.671C79.2553 511.655 78.3699 512.737 77.2876 513.623C76.2054 514.508 75.0247 515 73.8441 515.197C72.6635 515.394 71.4828 515.295 70.4006 514.902C69.3183 514.508 68.3344 513.721 67.5474 512.737C66.957 511.95 66.3667 510.966 65.7764 509.786L65.4813 509.195L68.2361 507.228L69.0232 508.212L67.449 510.081C67.449 510.278 67.5474 510.671 67.7441 511.065C67.9409 511.458 68.2361 511.95 68.6296 512.442C69.1215 513.033 69.7119 513.524 70.4989 513.721C71.286 513.918 72.0731 513.918 72.9586 513.623C73.8441 513.328 74.828 512.836 75.8118 512.049C76.6973 511.36 77.4844 510.573 78.0747 509.687C78.665 508.802 78.9602 508.015 78.9602 507.129C79.0585 506.244 78.7634 505.457 78.1731 504.768C77.7795 504.276 77.386 503.883 77.0908 503.686C76.7957 503.489 76.5005 503.292 76.107 503.292L74.1392 503.784L73.5489 502.8L75.9102 501.521C76.107 501.718 76.4021 502.013 76.7957 502.308C77.1892 502.604 77.5827 502.8 77.8779 503.096C78.1731 503.391 78.5666 503.784 78.9602 504.276C79.7472 505.26 80.2392 506.342 80.3376 507.425Z"
      fill="#313131" />
    <path
      d="M61.5458 499.849C60.4636 499.947 59.3813 499.75 58.4959 499.357C57.6104 498.963 56.8233 498.274 56.233 497.389C55.5443 496.405 55.1507 495.421 55.1507 494.339C55.1507 493.257 55.3475 492.273 55.9378 491.387C56.5281 490.403 57.3152 489.616 58.3975 488.829C59.6765 487.944 60.8571 487.452 62.0378 487.157C63.2184 486.96 64.399 487.058 65.3829 487.452C66.3667 487.845 67.2522 488.534 67.9409 489.42C68.6296 490.403 69.0232 491.486 69.1215 492.568C69.2199 493.65 68.9248 494.634 68.3345 495.618C67.7442 496.602 66.9571 497.487 65.8748 498.274L67.6458 500.734L72.0731 497.586L71.2861 496.11L72.0731 495.618L75.0247 499.849L74.2376 500.34L73.1554 499.16L63.7103 505.85L64.399 507.227L63.6119 507.719L60.6603 503.587L61.4474 503.095L62.5297 504.276L66.6619 501.324L64.891 498.865C63.8087 499.455 62.6281 499.849 61.5458 499.849ZM59.9717 498.373C61.2507 498.373 62.7265 497.782 64.399 496.503C65.8748 495.421 66.8587 494.339 67.3506 493.158C67.8425 491.978 67.7441 490.895 67.0554 489.912C66.3667 488.928 65.3829 488.534 64.2022 488.534C63.0216 488.534 61.5458 489.223 59.8733 490.403C58.3975 491.486 57.4136 492.568 56.9217 493.65C56.4297 494.831 56.5281 495.815 57.2168 496.799C57.8071 497.881 58.791 498.373 59.9717 498.373Z"
      fill="#313131" />
    <path
      d="M54.3635 479.975C54.6587 479.188 55.0523 478.204 55.6426 477.023C56.0361 476.236 56.3313 475.646 56.5281 475.154C56.7248 474.76 56.7248 474.465 56.7248 474.268L56.5281 473.58L57.3151 473.088L58.5942 475.056C58.7909 475.252 58.6925 475.744 58.4958 476.236C58.299 476.827 57.9054 477.614 57.3151 478.597C56.7248 479.778 56.2329 480.664 55.9377 481.352C55.6426 482.041 55.6426 482.533 55.8393 482.828L56.4297 483.812L60.9554 480.959L60.2667 479.385L61.0538 478.893L63.8086 483.222L63.0215 483.714L62.0377 482.533L52.1991 488.731L52.7894 490.109L52.0023 490.601L49.3459 486.37L50.133 485.878L51.1168 487.059L55.6426 484.206L54.7571 482.828L48.1652 482.533L48.8539 484.009L48.0668 484.501L45.6072 480.565L46.3943 480.073L47.3781 481.156L54.1668 481.647C53.97 481.352 54.0684 480.664 54.3635 479.975Z"
      fill="#313131" />
    <path
      d="M54.954 470.628C54.8556 471.71 54.462 472.694 53.7733 473.58C53.0846 474.465 52.1008 475.35 50.9202 476.039C49.6411 476.728 48.4605 477.121 47.2799 477.22C46.0993 477.318 45.017 477.023 44.0331 476.531C43.0493 476.039 42.2622 475.252 41.6719 474.17C40.688 472.497 40.4912 470.923 41.0815 469.349C41.6719 467.873 42.8525 466.594 44.7218 465.512C46.0009 464.823 47.2799 464.43 48.4605 464.331C49.6411 464.233 50.8218 464.528 51.8056 465.02C52.7895 465.512 53.5766 466.299 54.1669 467.381C54.7572 468.463 55.0524 469.546 54.954 470.628ZM45.2138 475.449C46.4928 475.547 47.9686 475.055 49.7395 474.071C51.4121 473.186 52.4943 472.104 53.0847 471.021C53.675 469.939 53.675 468.759 53.0847 467.775C52.4943 466.692 51.5105 466.201 50.2315 466.102C48.9525 466.004 47.3783 466.496 45.6073 467.48C43.9348 468.365 42.8525 469.447 42.2622 470.53C41.6719 471.612 41.6719 472.694 42.2622 473.776C43.0493 474.76 44.0331 475.35 45.2138 475.449Z"
      fill="#313131" />
    <path
      d="M38.1299 465.217L38.6218 466.693L37.8348 467.086L36.6541 464.823C36.4573 464.43 36.1622 463.938 35.867 463.446C35.5719 462.954 35.2767 462.56 35.1783 462.265C34.3912 460.691 34.0961 459.51 34.1945 458.625C34.2929 457.739 34.8832 457.051 35.7687 456.559C36.5557 456.165 37.3428 456.067 38.1299 456.165C38.917 456.362 39.6057 456.756 40.196 457.444C39.6057 456.362 39.4089 455.476 39.6057 454.591C39.8025 453.706 40.3928 453.017 41.2783 452.623C42.3605 452.033 43.5412 451.935 44.6234 452.427C45.7056 452.82 46.7879 454.001 47.6734 455.772C47.8701 456.165 48.0669 456.559 48.1653 456.952C48.5588 457.838 48.854 458.33 48.9524 458.526L50.133 460.691L49.3459 461.085L48.4605 459.806L38.1299 465.217ZM41.1799 460.199L40.688 459.314C40.2944 458.527 39.8025 458.035 39.1138 457.838C38.5235 457.641 37.7364 457.739 36.9493 458.231C36.1622 458.625 35.6703 459.117 35.5719 459.707C35.4735 460.297 35.5719 461.085 36.0638 462.068C36.2606 462.462 36.4574 462.855 36.7525 463.249L36.9493 463.544L41.5734 461.183C41.5734 460.986 41.3767 460.691 41.1799 460.199ZM46.7879 456.264C46.1976 455.181 45.6073 454.493 44.8202 454.198C44.1315 453.902 43.3444 454.001 42.4589 454.493C41.5734 454.886 41.0815 455.476 40.9831 456.067C40.7863 456.657 40.9831 457.543 41.475 458.526C42.0653 459.609 42.4589 460.396 42.6557 460.691L47.575 458.133C47.575 457.838 47.2798 457.247 46.7879 456.264Z"
      fill="#313131" />
    <path
      d="M24.4541 439.144L25.3396 438.751L26.2251 440.128L36.8508 435.406L36.3589 433.733L37.2443 433.34L39.4088 438.161L38.5233 438.554L37.7363 437.177L27.1106 441.899L29.5702 447.409L40.2943 442.686L39.8024 441.014L40.6878 440.62L42.754 445.441L41.8685 445.835L41.0814 444.556L30.4557 449.278L30.8492 450.852L29.9638 451.246L24.4541 439.144Z"
      fill="#313131" />
    <path
      d="M35.0799 429.995C34.8831 430.978 34.2929 431.962 33.5058 432.749C32.7187 433.536 31.6364 434.225 30.259 434.717C28.8816 435.209 27.6026 435.406 26.422 435.307C25.2413 435.209 24.1591 434.815 23.2736 434.127C22.3881 433.438 21.6994 432.553 21.3059 431.47C20.6172 429.699 20.6172 428.027 21.4043 426.649C22.1913 425.272 23.5688 424.19 25.6349 423.403C27.0123 422.911 28.2913 422.714 29.4719 422.812C30.6526 422.911 31.7348 423.304 32.7187 423.993C33.6041 424.682 34.2928 425.567 34.6864 426.649C35.1783 427.928 35.2767 429.011 35.0799 429.995ZM24.7494 433.34C26.0284 433.635 27.5042 433.34 29.4719 432.651C31.2429 431.962 32.4235 431.175 33.2106 430.093C33.9977 429.109 34.1944 428.027 33.7025 426.846C33.309 425.764 32.4235 425.075 31.1445 424.78C29.8655 424.485 28.2913 424.78 26.422 425.469C24.651 426.157 23.372 426.945 22.6833 428.027C21.8962 429.011 21.7978 430.093 22.2897 431.274C22.6833 432.454 23.5687 433.143 24.7494 433.34Z"
      fill="#313131" />
    <path
      d="M25.5365 417.204C27.2091 416.909 28.5865 416.811 29.5703 417.008C30.0623 417.106 30.4558 417.303 30.751 417.5C31.0461 417.795 31.2429 418.09 31.4397 418.483C31.6364 419.074 31.7348 419.467 31.7348 419.763L30.3574 420.353C30.259 420.058 30.1607 419.664 29.9639 418.975C29.8655 418.779 29.7671 418.582 29.5703 418.483C29.3736 418.385 29.1768 418.287 28.8816 418.188C27.2091 417.795 24.1591 418.287 19.8301 419.763L18.4527 420.254L18.9446 422.321L18.0592 422.616L14.6156 412.384L15.5011 412.088L16.2882 413.663L27.3074 409.924L26.9139 408.153L27.7994 407.858L29.6687 413.269L28.7832 413.564L27.9962 411.793L16.9769 415.433L18.1576 419.074L19.7317 418.582C21.9946 417.992 23.8639 417.5 25.5365 417.204Z"
      fill="#313131" />
    <path
      d="M14.8124 408.743L15.0092 410.317L14.1237 410.612L11.4673 401.463L14.2221 400.38L14.5173 401.364L12.9431 402.348L14.1237 406.874L19.1414 405.398L18.256 402.446L16.6818 402.643L16.3866 401.659L20.5188 400.479L20.814 401.463L19.3382 402.151L20.1253 405.201L25.4381 403.627L23.7656 398.609L21.2075 398.314V397.134L24.4543 396.74L27.3075 406.677L26.422 406.972L25.8317 405.496L14.8124 408.743Z"
      fill="#313131" />
    <path
      d="M10.5817 393.788L11.4672 396.838L15.4026 396.543L15.6978 397.724L10.7785 398.609L8.02366 387.295L12.8446 385.918L13.1397 387.098L9.49945 388.672L10.1882 391.821L21.601 388.968L21.109 386.311L21.9945 386.114L23.6671 393.001L22.7816 393.198L21.9945 390.837L10.5817 393.788Z"
      fill="#313131" />
    <path
      d="M14.0253 377.948L14.2221 378.834C14.5172 379.129 14.9108 379.326 15.5995 379.522C16.1898 379.719 16.9769 379.916 17.9607 380.113C18.9446 380.309 19.6333 380.506 20.1252 380.605C20.6172 380.703 20.9123 380.9 20.9123 381.097L21.4043 383.556L20.5188 383.753L20.2236 383.064C20.1253 382.867 19.9285 382.769 19.6333 382.572C19.2398 382.474 18.7478 382.277 17.9607 381.982C17.0753 381.785 16.3866 381.49 15.7963 381.293C15.206 381.097 14.8124 380.801 14.5172 380.506C14.4188 381.392 14.1237 382.08 13.5334 382.769C12.9431 383.359 12.2544 383.753 11.2705 383.95C9.79471 384.245 8.71247 384.048 7.92538 383.261C7.13829 382.474 6.64636 381.293 6.3512 379.719C6.25281 379.326 6.2528 378.932 6.15441 378.342C6.05603 377.751 6.05605 377.26 5.95766 376.964L5.46573 374.308L6.3512 374.111L6.84313 375.587L18.2559 373.324L18.0591 371.553L18.9446 371.356L20.0269 376.768L19.1414 376.964L18.6495 375.193L13.7302 376.177L14.0253 377.948ZM7.03988 378.047C7.03988 378.637 7.13828 379.129 7.23667 379.522C7.43344 380.506 7.7286 381.195 8.31892 381.588C8.90924 381.982 9.59793 382.08 10.6802 381.884C11.664 381.687 12.3528 381.293 12.8447 380.703C13.3366 380.113 13.3366 379.326 13.2382 378.342C13.0415 377.358 12.9431 376.768 12.7463 376.374L7.13827 377.456L7.03988 378.047Z"
      fill="#313131" />
    <path
      d="M5.17053 367.421L5.76085 370.569H9.6963L9.89308 371.75L4.87538 372.242L3.10442 360.731L8.02372 359.747L8.2205 360.928L4.48185 362.108L4.87538 365.355L16.4849 363.584L16.2882 360.928L17.1736 360.829L18.2559 367.913L17.3704 368.011L16.7801 365.65L5.17053 367.421Z"
      fill="#313131" />
    <path
      d="M15.206 350.302C14.7141 351.286 13.927 352.171 12.9431 352.761C11.9593 353.352 10.6803 353.745 9.30287 353.844C7.92546 353.942 6.64642 353.844 5.56418 353.352C4.48193 352.86 3.49808 352.171 2.80938 351.187C2.12068 350.203 1.72712 349.121 1.62873 347.842C1.53035 346.858 1.53035 345.678 1.72712 344.399L1.82552 343.808L5.17064 343.611L5.26903 344.89L2.90777 345.579C2.80938 345.776 2.71098 346.071 2.61259 346.563C2.51421 346.957 2.51421 347.547 2.61259 348.137C2.71098 348.924 3.00616 349.613 3.49809 350.203C3.99002 350.794 4.67871 351.187 5.66257 351.482C6.54804 351.777 7.63031 351.777 8.90933 351.679C10.09 351.581 11.0738 351.286 12.0577 350.892C12.9431 350.498 13.7302 349.908 14.2222 349.219C14.7141 348.531 14.9109 347.744 14.8125 346.76C14.7141 346.071 14.6157 345.579 14.5173 345.284C14.4189 344.989 14.2222 344.694 13.927 344.399L12.0577 343.808V342.628L14.7141 342.824C14.7141 343.12 14.9109 343.415 15.1076 343.907C15.3044 344.3 15.4028 344.792 15.5996 345.186C15.7963 345.579 15.7963 346.071 15.8947 346.76C15.8947 348.039 15.698 349.219 15.206 350.302Z"
      fill="#313131" />
    <path
      d="M0.841647 336.233L1.72712 336.134L2.02229 337.905L11.369 337.413L9.00768 336.036L2.12065 331.018H1.62872L1.53036 332.691L0.644862 332.789L0.349716 327.673L1.23518 327.575L1.53036 329.05L13.1399 328.46L13.2383 326.886H14.1238L14.4189 332.1H13.5334L13.2383 330.428L3.69484 330.92L5.95774 332.199L12.9431 337.315H13.6318L13.7302 335.544L14.6157 335.445L14.9108 340.66L14.0254 340.758L13.7302 339.184L2.12065 339.774L2.02229 341.25L1.13679 341.349L0.841647 336.233Z"
      fill="#313131" />
    <path
      d="M0.152924 315.965L5.07223 315.768V317.047L1.33357 317.638L1.23518 321.77L13.0415 321.573L13.2383 318.326H14.1238L14.2222 325.607H13.3367L13.1399 323.541L1.53035 323.737L1.33357 325.705H0.4481L0.152924 315.965Z"
      fill="#313131" />
    <path
      d="M1.33355 312.718L1.0384 314.194H0.152901L0.349685 309.078H1.23515L1.43194 310.652L6.44963 310.849L6.64639 304.257L1.62869 304.06L1.33355 305.536H0.448077L0.644831 300.518H1.53033L1.72708 301.994L13.3367 302.388L13.5334 300.912H14.4189L14.2221 305.93H13.3367L13.2383 304.355L7.82703 304.159L7.63025 310.751L13.0415 310.947L13.2383 309.373H14.1237L13.927 314.489H13.0415L12.9431 313.013L1.33355 312.718Z"
      fill="#313131" />
    <path
      d="M0.939964 293.73L1.13672 291.664L14.3205 288.122L14.6156 286.941L15.5011 287.04L15.1076 291.959L14.2221 291.86L14.1237 290.286L11.2705 290.975L10.877 296.386L13.5334 297.468L13.8285 295.894L14.714 295.993L14.4188 300.42L13.5334 300.322L13.435 299.141L0.939964 293.73ZM4.0883 292.844L2.41576 293.139L4.0883 293.73L9.8931 296.091L10.2866 291.369L4.0883 292.844Z"
      fill="#313131" />
    <path
      d="M11.0738 281.727C12.7464 282.218 14.0254 282.71 14.8125 283.301C15.206 283.596 15.5012 283.989 15.698 284.285C15.8947 284.678 15.8947 285.072 15.8947 285.465C15.7963 286.056 15.698 286.449 15.5996 286.744L14.1238 286.646C14.2222 286.351 14.2222 285.859 14.3206 285.268C14.3206 285.072 14.3206 284.777 14.2222 284.678C14.1238 284.481 13.927 284.285 13.7302 284.088C12.3528 283.006 9.40125 282.12 4.87549 281.628L3.3997 281.431L2.90777 283.498L2.0223 283.399L3.30131 272.675L4.18678 272.773V274.544L15.698 275.922L16.0915 274.151L16.977 274.249L16.2883 279.956L15.4028 279.857V277.889L3.89163 276.512L3.3997 280.251L5.07225 280.448C7.43351 280.939 9.40124 281.235 11.0738 281.727Z"
      fill="#313131" />
    <path
      d="M9.89303 265.69C10.1882 264.214 10.6801 263.132 11.5656 262.443C12.451 261.754 13.4349 261.557 14.7139 261.754C16.0913 262.049 17.1736 262.64 17.7639 263.722C18.3542 264.706 18.551 265.985 18.2558 267.461C18.2558 267.657 18.1575 267.854 18.1575 268.051C18.0591 268.248 18.0591 268.444 17.9607 268.74C17.7639 269.428 17.6655 270.019 17.5671 270.609L17.1736 273.069L16.2881 272.872L16.3865 271.298L4.87533 269.232L4.3834 270.707L3.49793 270.511L4.3834 265.296L5.26887 265.493L5.17048 267.362L9.4011 268.149L9.89303 265.69ZM6.54788 253.195L7.43338 253.391L7.33498 255.162L18.7478 257.228L19.2397 255.556L20.1252 255.753L19.1413 261.164L18.2558 260.967L18.3542 259.196L6.94145 257.13L6.44951 258.803L5.56402 258.606L6.54788 253.195ZM17.0752 268.641C17.1736 268.444 17.1736 268.051 17.272 267.657C17.4688 266.673 17.272 265.788 16.7801 265.099C16.2881 264.411 15.501 264.017 14.4188 263.82C13.4349 263.624 12.5494 263.82 11.9591 264.214C11.3688 264.706 10.9753 265.394 10.7785 266.378L10.4833 268.248L16.6817 269.33C16.8784 269.133 16.9768 268.838 17.0752 268.641Z"
      fill="#313131" />
    <path
      d="M9.59791 245.029L9.00758 246.406L8.12212 246.209L9.40115 241.29L10.2866 241.487L10.0898 243.061L15.0091 244.242L16.5833 237.846L11.664 236.666L11.0737 238.043L10.1882 237.846L11.3689 233.026L12.2543 233.222L12.156 234.698L23.4704 237.551L24.0607 236.174L24.9461 236.371L23.7655 241.29L22.88 241.093L23.0768 239.519L17.764 238.24L16.1898 244.635L21.5026 245.914L22.093 244.34L22.9784 244.537L21.6994 249.554L20.8139 249.358L21.0107 247.882L9.59791 245.029Z"
      fill="#313131" />
    <path
      d="M13.3366 226.434L13.9269 224.466L27.6026 223.875L28.0945 222.793L28.98 223.088L27.5042 227.811L26.6187 227.516L26.9138 225.942H23.9623L22.3881 231.156L24.7493 232.829L25.438 231.353L26.3235 231.648L25.0445 235.879L24.159 235.583L24.3558 234.403L13.3366 226.434ZM16.4849 226.237H14.8124L16.2882 227.122L21.5026 230.664L22.88 226.138L16.4849 226.237Z"
      fill="#313131" />
    <path
      d="M19.3381 211.872L18.4527 213.742L17.5672 213.447L19.3381 208.822L28.0945 209.314L30.5542 209.61L28.4881 208.232L21.5026 202.821L23.2736 198.197L24.1591 198.492L23.6671 200.46L35.0799 203.116L35.867 201.64L36.7525 201.935L34.7848 207.052L33.8993 206.756L34.2928 205.084L26.1268 202.919L22.5849 202.034L24.8478 203.706L32.9154 210.101L32.5219 211.282L23.0768 210.987L19.3381 210.79L22.5849 212.364L30.1606 216.005L30.9477 214.332L31.8332 214.627L30.1606 219.153L29.2751 218.858L29.6687 217.284L19.3381 211.872Z"
      fill="#313131" />
    <path
      d="M26.0284 191.605L26.8155 189.736L40.4911 190.72L41.0815 189.736L41.9669 190.129L39.9992 194.655L39.1137 194.262L39.6057 192.786L36.7525 192.491L34.588 197.508L36.7525 199.378L37.5396 198L38.4251 198.394L36.6541 202.428L35.7686 202.034L36.0638 200.853L26.0284 191.605ZM29.1767 191.704L27.5042 191.507L28.8816 192.589L33.6041 196.721L35.4735 192.392L29.1767 191.704Z"
      fill="#313131" />
    <path
      d="M31.4397 182.652L30.5542 183.833L29.6687 183.439L30.751 181.176C30.9478 180.783 31.1445 180.389 31.2429 179.996C31.5381 179.405 31.7349 178.815 32.03 178.225C32.8171 176.65 33.7026 175.568 34.588 175.175C35.4735 174.781 36.5558 174.879 37.7364 175.47C38.6219 175.863 39.3106 176.454 39.8025 177.241C40.2944 178.028 40.4912 178.815 40.4912 179.7C40.4912 180.586 40.2944 181.57 39.8025 182.455C39.6057 182.75 39.5074 183.144 39.3106 183.439C39.1138 183.734 39.0154 183.931 39.0154 184.029L42.7541 185.8L44.0331 183.636L44.8202 184.029L42.1638 189.539L41.3767 189.145L41.8686 187.67L31.4397 182.652ZM39.0154 182.062C39.409 181.176 39.5074 180.291 39.2122 179.504C38.917 178.717 38.2283 178.028 36.9493 177.339C35.9655 176.847 35.1784 176.749 34.4897 177.044C33.801 177.339 33.309 177.929 32.7187 179.012C32.5219 179.405 32.4235 179.799 32.2268 180.192C32.1284 180.487 32.03 180.586 32.03 180.684L38.0315 183.537C38.3267 183.341 38.6219 182.849 39.0154 182.062Z"
      fill="#313131" />
    <path
      d="M48.1652 176.158C47.1814 176.749 46.0991 176.945 44.9185 176.945C43.7379 176.847 42.5572 176.552 41.2782 175.863C40.0976 175.174 39.1137 174.387 38.425 173.305C37.7363 172.321 37.4412 171.141 37.3428 169.96C37.3428 168.779 37.5395 167.599 38.2282 166.517C38.7202 165.631 39.3105 164.746 40.2944 163.663L40.6879 163.171L43.5411 164.942L42.9508 166.025L40.5895 165.336C40.3927 165.434 40.0976 165.631 39.8024 165.926C39.5073 166.221 39.2121 166.713 38.917 167.205C38.5234 167.894 38.425 168.681 38.5234 169.37C38.6218 170.157 39.0153 170.846 39.6056 171.633C40.196 172.321 41.0814 173.01 42.1637 173.6C43.1475 174.191 44.2298 174.486 45.2137 174.683C46.1975 174.879 47.083 174.781 47.8701 174.486C48.6572 174.191 49.2475 173.6 49.7394 172.813C50.0346 172.223 50.2313 171.731 50.3297 171.436C50.4281 171.141 50.4281 170.747 50.3297 170.452L49.0507 168.878L49.7394 167.894L51.9039 169.566C51.8055 169.763 51.7071 170.157 51.6088 170.747C51.5104 171.239 51.412 171.633 51.3136 172.026C51.2152 172.42 51.0184 172.912 50.7233 173.502C49.9362 174.683 49.0507 175.568 48.1652 176.158Z"
      fill="#313131" />
    <path
      d="M51.2153 144.773L52.0024 145.265L51.2153 146.938L59.0862 152.054L58.0039 149.496L55.4459 141.428L55.0524 141.133L53.9701 142.412L53.183 141.92L56.0362 137.591L56.8233 138.083L56.233 139.46L65.9732 145.856L66.9571 144.675L67.7442 145.167L64.891 149.496L64.1039 149.004L64.891 147.528L56.9217 142.314L58.0039 144.675L60.562 152.939L61.1523 153.333L62.2345 151.955L63.0216 152.447L60.1684 156.875L59.3813 156.383L60.0701 155.005L50.3298 148.61L49.3459 149.693L48.5589 149.201L51.2153 144.773Z"
      fill="#313131" />
    <path
      d="M58.4959 134.541C58.6927 134.049 58.8895 133.557 59.0862 133.164C59.283 132.77 59.4798 132.475 59.6765 132.18C60.562 130.901 61.5459 130.114 62.4314 129.72C63.3168 129.327 64.2023 129.523 65.0878 130.114C65.8749 130.704 66.3668 131.393 66.4652 132.278C66.5636 133.164 66.4652 133.951 66.0716 134.836C66.7603 133.951 67.5474 133.36 68.4329 133.262C69.3184 133.065 70.1055 133.262 70.8926 133.852C71.9748 134.639 72.5651 135.623 72.6635 136.706C72.7619 137.788 72.27 139.067 71.1877 140.543C70.7942 141.133 70.3023 141.625 69.9087 142.018C69.5152 142.412 69.1216 142.707 68.8265 142.904C68.5313 143.101 68.3345 143.199 68.3345 143.297L65.8749 141.133L66.4652 140.346L68.7281 141.33C69.3184 141.035 70.0071 140.444 70.5974 139.559C71.0893 138.87 71.2861 138.181 71.0893 137.591C70.8926 136.902 70.499 136.312 69.6135 135.722C69.0232 135.23 68.3345 135.033 67.6458 135.131C66.9571 135.23 66.2684 135.722 65.5797 136.607L64.7926 137.689L63.9072 137.099L64.4975 136.214C64.7926 135.82 64.9894 135.328 65.0878 134.836C65.1862 134.344 65.1862 133.852 64.9894 133.36C64.7926 132.868 64.3991 132.475 63.9072 132.081C63.2185 131.589 62.6281 131.393 62.0378 131.589C61.4475 131.786 60.9556 132.18 60.4636 132.77C60.1685 133.262 59.9717 133.656 59.7749 134.049C59.5782 134.443 59.6765 134.738 59.7749 134.935L60.9556 136.214L60.2669 137.197L57.8072 135.623C58.004 135.427 58.2008 135.033 58.4959 134.541Z"
      fill="#313131" />
    <path
      d="M68.8264 122.144L67.6457 123.227L66.957 122.636L68.5312 120.669C68.8263 120.373 69.1215 119.882 69.515 119.39C69.8102 118.898 70.1054 118.504 70.3022 118.307C71.3844 116.93 72.3683 116.143 73.2537 115.946C74.1392 115.749 75.0247 115.946 75.8118 116.536C76.5005 117.127 76.894 117.815 77.0908 118.603C77.2876 119.39 77.0908 120.177 76.6972 120.964C77.386 119.98 78.2714 119.488 79.1569 119.291C80.0424 119.094 80.9279 119.39 81.6166 119.98C82.6004 120.767 83.0924 121.751 83.1907 122.932C83.2891 124.112 82.6004 125.49 81.3214 127.162C81.0262 127.556 80.7311 127.851 80.4359 128.146C79.7472 128.835 79.4521 129.327 79.2553 129.425L77.6811 131.393L76.9924 130.802L77.7795 129.523L68.8264 122.144ZM74.6311 122.932L75.3198 122.144C75.9102 121.456 76.1069 120.767 76.0085 120.177C75.9101 119.586 75.5166 118.898 74.8279 118.307C74.1392 117.717 73.5489 117.52 72.9586 117.619C72.3682 117.717 71.6795 118.209 71.0892 118.996C70.7941 119.39 70.4989 119.685 70.3022 120.078L70.1054 120.373L74.1392 123.62C74.0408 123.62 74.336 123.325 74.6311 122.932ZM80.5343 126.473C81.3214 125.49 81.7149 124.604 81.6166 123.817C81.5182 123.03 81.1246 122.341 80.4359 121.751C79.6488 121.161 78.9601 120.865 78.3698 120.964C77.6811 121.062 77.0908 121.554 76.4021 122.44C75.615 123.423 75.1231 124.014 74.9263 124.309L79.2553 127.851C79.4521 127.752 79.8456 127.261 80.5343 126.473Z"
      fill="#313131" />
    <path
      d="M78.2715 108.862L79.6489 107.288L92.3407 112.404L93.2262 111.617L93.9149 112.207L90.6682 115.946L89.9795 115.356L90.865 114.077L88.2085 112.896L84.5682 117.028L86.044 119.488L87.2247 118.406L87.9134 118.996L84.9618 122.341L84.2731 121.751L84.8634 120.767L78.2715 108.862ZM81.3215 109.945L79.7473 109.256L80.7312 110.732L83.9779 116.143L87.1263 112.601L81.3215 109.945Z"
      fill="#313131" />
    <path
      d="M95.5874 109.452C94.5052 109.748 93.423 109.649 92.2423 109.354C91.1601 108.961 90.0778 108.272 88.9956 107.288C88.0117 106.304 87.323 105.222 86.9295 104.14C86.5359 103.057 86.5359 101.778 86.8311 100.696C87.1262 99.5155 87.7166 98.5316 88.6021 97.5478C89.2908 96.8591 90.1762 96.1704 91.3569 95.3833L91.8488 94.9897L94.1117 97.4494L93.2262 98.3349L91.1601 97.0558C90.9633 97.0558 90.6681 97.2526 90.2746 97.4494C89.8811 97.6462 89.4875 98.0397 89.094 98.4333C88.5037 99.0236 88.2085 99.7123 88.1101 100.401C88.0117 101.188 88.1101 101.975 88.5037 102.861C88.8972 103.746 89.5859 104.632 90.4714 105.419C91.3569 106.206 92.2423 106.894 93.1278 107.288C94.0133 107.682 94.8988 107.878 95.7842 107.878C96.6697 107.878 97.3584 107.485 98.0471 106.796C98.539 106.304 98.8342 105.911 98.9326 105.615C99.1294 105.32 99.2277 104.927 99.2277 104.632L98.4407 102.762L99.3261 101.975L100.9 104.14C100.704 104.336 100.507 104.632 100.31 105.124C100.113 105.517 99.9164 105.911 99.6213 106.304C99.4245 106.698 99.031 107.091 98.6374 107.485C97.7519 108.567 96.6697 109.157 95.5874 109.452Z"
      fill="#313131" />
    <path
      d="M100.408 89.7755C100.211 88.6932 100.211 87.611 100.507 86.6271C100.802 85.6433 101.294 84.8562 102.081 84.0691C102.966 83.1836 103.95 82.6917 104.934 82.4949C105.918 82.2981 107 82.3965 107.984 82.8885C108.968 83.3804 109.952 84.0691 110.936 84.9546C112.018 86.0368 112.707 87.2174 113.1 88.3981C113.494 89.5787 113.592 90.661 113.297 91.7432C113.002 92.8255 112.51 93.7109 111.723 94.498C110.837 95.3835 109.853 95.8754 108.771 96.0722C107.787 96.269 106.705 96.1706 105.721 95.777C104.737 95.3835 103.655 94.6948 102.77 93.7109L100.605 95.777L104.344 99.7125L105.623 98.7286L106.213 99.4173L102.474 102.959L101.884 102.271L102.868 101.09L94.8986 92.6287L93.6196 93.5142L92.9309 92.8255L96.5712 89.3819L97.2599 90.0707L96.276 91.2513L99.7196 94.8916L101.982 92.8255C101.195 91.94 100.703 90.9561 100.408 89.7755ZM101.786 88.1029C101.982 89.382 102.77 90.7594 104.245 92.2351C105.524 93.5142 106.705 94.3996 107.984 94.6948C109.263 94.99 110.247 94.7932 111.231 93.9077C112.116 93.1206 112.411 92.0384 112.116 90.8577C111.821 89.6771 111.034 88.2997 109.657 86.8239C108.378 85.5449 107.197 84.6594 106.016 84.3643C104.836 84.0691 103.753 84.2659 102.868 85.053C101.982 85.84 101.589 86.8239 101.786 88.1029Z"
      fill="#313131" />
    <path
      d="M119.2 79.8386C119.987 80.0354 120.971 80.3306 122.25 80.6257C123.135 80.9209 123.726 81.1177 124.218 81.2161C124.71 81.3144 124.906 81.3144 125.103 81.2161L125.792 80.9209L126.382 81.6096L124.611 83.0854C124.414 83.2822 124.021 83.2822 123.431 83.1838C122.84 83.0854 122.053 82.7902 120.971 82.3967C119.79 81.9048 118.807 81.6096 118.118 81.4128C117.429 81.2161 116.937 81.3144 116.642 81.5112L115.757 82.2983L119.2 86.3321L120.577 85.4466L121.168 86.1354L117.232 89.4805L116.642 88.7918L117.724 87.7095L110.247 78.8548L108.968 79.6419L108.378 78.9532L112.215 75.7064L112.805 76.3951L111.723 77.5758L115.166 81.708L116.347 80.6257L115.757 74.0339L114.379 74.9193L113.789 74.2306L117.331 71.2791L117.921 71.9678L116.937 73.05L117.331 79.8386C117.724 79.7403 118.413 79.7403 119.2 79.8386Z"
      fill="#313131" />
    <path
      d="M128.547 79.15C127.464 79.2483 126.481 78.9532 125.497 78.3629C124.513 77.7725 123.529 76.9855 122.643 75.8048C121.758 74.6242 121.168 73.542 120.971 72.3613C120.774 71.1807 120.774 70.0984 121.168 69.0162C121.561 67.9339 122.25 67.0485 123.135 66.3598C124.71 65.1791 126.185 64.7856 127.76 65.0807C129.334 65.3759 130.81 66.4582 132.089 68.1307C132.974 69.3113 133.564 70.492 133.761 71.6726C133.958 72.8532 133.958 74.0339 133.564 75.1161C133.171 76.1984 132.482 77.0839 131.597 77.7726C130.613 78.658 129.629 79.0516 128.547 79.15ZM122.447 70.2952C122.545 71.5742 123.234 72.9516 124.414 74.6242C125.595 76.1 126.776 77.0839 127.956 77.4774C129.137 77.9693 130.219 77.7726 131.203 76.9855C132.187 76.2968 132.58 75.2145 132.482 73.9355C132.384 72.6565 131.695 71.1807 130.416 69.6065C129.235 68.1307 128.055 67.1468 126.874 66.7533C125.693 66.3598 124.611 66.4581 123.627 67.2452C122.742 68.0323 122.348 69.0162 122.447 70.2952Z"
      fill="#313131" />
    <path
      d="M131.498 61.7352L130.121 62.4239L129.629 61.6368L131.695 60.161C132.089 59.9643 132.482 59.5707 132.974 59.1772C133.466 58.7836 133.761 58.4885 134.056 58.3901C135.434 57.4062 136.614 56.9143 137.5 56.9143C138.385 56.9143 139.172 57.3078 139.763 58.1933C140.255 58.882 140.55 59.6691 140.451 60.4562C140.353 61.2433 140.058 62.0304 139.468 62.6207C140.451 61.932 141.337 61.6368 142.222 61.6368C143.108 61.6368 143.895 62.1288 144.485 63.0142C145.174 63.9981 145.469 65.1787 145.174 66.261C144.879 67.4416 143.895 68.6222 142.222 69.8029C141.829 70.098 141.534 70.2948 141.14 70.4916C140.353 70.9835 139.861 71.3771 139.664 71.4754L137.598 72.9512L137.106 72.2625L138.287 71.1803L131.498 61.7352ZM136.91 64.0965L137.795 63.5062C138.484 63.0142 138.877 62.4239 138.976 61.7352C139.074 61.0465 138.877 60.3578 138.287 59.6691C137.795 58.9804 137.205 58.5869 136.614 58.4885C136.024 58.3901 135.237 58.6853 134.352 59.2756C133.958 59.5707 133.663 59.8659 133.269 60.161L132.974 60.4562L136.024 64.6868C136.122 64.5884 136.418 64.3916 136.91 64.0965ZM141.534 69.1142C142.518 68.4255 143.108 67.6384 143.305 66.8513C143.501 66.0642 143.305 65.3755 142.714 64.49C142.124 63.7029 141.534 63.3094 140.943 63.211C140.255 63.1126 139.468 63.4078 138.582 64.0965C137.5 64.7852 136.91 65.2771 136.614 65.4739L139.861 69.9997C140.156 70.098 140.747 69.7045 141.534 69.1142Z"
      fill="#313131" />
    <path
      d="M155.406 44.6162L155.898 45.4033L154.717 46.4855L160.817 56.3242L162.392 55.5371L162.883 56.3242L158.456 59.079L157.964 58.2919L159.145 57.308L152.946 47.371L147.83 50.5194L154.029 60.4564L155.603 59.6693L156.095 60.4564L151.667 63.2112L151.176 62.4241L152.356 61.4402L146.256 51.6016L144.78 52.2903L144.288 51.5032L155.406 44.6162Z"
      fill="#313131" />
    <path
      d="M165.933 53.7663C164.851 53.6679 163.867 53.2743 162.982 52.5856C162.096 51.8969 161.309 50.9131 160.621 49.634C159.932 48.355 159.538 47.1744 159.44 45.8954C159.342 44.7147 159.637 43.6325 160.129 42.6486C160.621 41.6648 161.408 40.8777 162.49 40.2874C164.162 39.3035 165.737 39.1067 167.311 39.697C168.787 40.2874 170.066 41.468 171.148 43.4357C171.837 44.7147 172.23 45.9938 172.329 47.1744C172.427 48.4534 172.132 49.5357 171.541 50.5195C170.951 51.5034 170.164 52.2905 169.18 52.8808C168 53.5695 167.016 53.8646 165.933 53.7663ZM161.113 44.026C161.014 45.3051 161.506 46.7808 162.49 48.5518C163.375 50.2244 164.458 51.3066 165.54 51.8969C166.622 52.4872 167.803 52.4872 168.787 51.8969C169.869 51.3066 170.361 50.4211 170.459 49.0437C170.558 47.7647 170.066 46.1905 169.082 44.4196C168.196 42.747 167.114 41.6648 166.032 41.0745C164.95 40.4841 163.867 40.4841 162.785 41.0745C161.801 41.8615 161.211 42.8454 161.113 44.026Z"
      fill="#313131" />
    <path
      d="M177.346 42.5502C177.937 44.2228 178.133 45.5018 178.035 46.5841C178.035 47.076 177.838 47.5679 177.641 47.8631C177.445 48.1582 177.149 48.4534 176.756 48.6502C176.264 48.9453 175.772 49.0437 175.575 49.1421L174.788 47.8631C175.083 47.7647 175.477 47.5679 176.067 47.2728C176.264 47.1744 176.461 47.076 176.559 46.8792C176.658 46.6825 176.756 46.4857 176.756 46.1905C176.953 44.4196 175.969 41.5664 173.903 37.4342L173.214 36.1551L171.148 36.9422L170.754 36.1551L180.396 31.3342L180.79 32.1213L179.314 33.1052L184.528 43.5341L186.299 42.8454L186.693 43.6325L181.577 46.1905L181.183 45.4034L182.856 44.3212L177.641 33.8923L174.296 35.5648L175.083 37.0406C175.969 39.1067 176.756 40.9761 177.346 42.5502Z"
      fill="#313131" />
    <path
      d="M184.135 30.744L182.659 31.1376L182.266 30.2521L190.924 26.3167L192.399 28.8747L191.415 29.2682L190.136 27.7924L185.906 29.5634L188.07 34.3843L190.924 33.0069L190.53 31.5311L191.514 31.1376L193.285 35.073L192.301 35.4666L191.415 34.0891L188.562 35.3682L190.825 40.4842L195.548 38.123L195.449 35.5649L196.63 35.4666L197.515 38.6149L188.07 42.8455L187.677 42.0584L189.054 41.2713L184.135 30.744Z"
      fill="#313131" />
    <path
      d="M198.401 24.4472L195.449 25.7262L196.335 29.5632L195.154 30.0552L193.58 25.3327L204.402 21.0037L206.469 25.5294L205.386 25.923L203.32 22.4795L200.27 23.5617L204.698 34.4826L207.256 33.6955L207.551 34.5809L200.959 37.2374L200.664 36.3519L202.828 35.2696L198.401 24.4472Z"
      fill="#313131" />
    <path
      d="M214.536 25.6277L213.651 25.9228C213.454 26.218 213.257 26.7099 213.159 27.3003C213.06 27.989 212.962 28.776 212.962 29.7599C212.864 30.7438 212.864 31.4325 212.765 31.9244C212.667 32.4163 212.568 32.7115 212.372 32.8099L210.01 33.6954L209.715 32.8099L210.306 32.4163C210.502 32.3179 210.601 32.1212 210.699 31.7276C210.797 31.3341 210.896 30.7438 210.994 29.9567C211.093 29.0712 211.289 28.2841 211.388 27.6938C211.585 27.1035 211.781 26.6116 212.076 26.3164C211.191 26.4148 210.404 26.218 209.715 25.7261C209.026 25.2341 208.535 24.5454 208.239 23.66C207.747 22.2826 207.846 21.1019 208.436 20.3148C209.125 19.4294 210.207 18.7407 211.781 18.2487C212.076 18.1503 212.568 17.9536 213.159 17.8552C213.749 17.6584 214.143 17.56 214.438 17.4616L216.996 16.5762L217.291 17.4616L215.914 18.1503L219.751 28.9728L221.423 28.5793L221.718 29.4647L216.504 31.3341L216.209 30.4486L217.881 29.6615L216.209 24.939L214.536 25.6277ZM213.454 18.6423C212.864 18.7407 212.47 18.9374 211.978 19.0358C211.093 19.331 210.404 19.8229 210.109 20.3148C209.715 20.9052 209.715 21.6922 210.109 22.6761C210.404 23.66 210.994 24.2503 211.585 24.6438C212.273 24.939 213.06 24.939 213.946 24.6438C214.93 24.3487 215.52 24.0535 215.815 23.9551L213.946 18.5439L213.454 18.6423Z"
      fill="#313131" />
    <path
      d="M223.686 15.3957L220.636 16.4779L221.128 20.4134L219.947 20.8069L218.767 15.8876L229.884 12.4441L231.557 17.1666L230.475 17.4618L228.704 13.9199L225.556 14.8054L228.999 26.1198L231.557 25.5294L231.852 26.4149L225.064 28.481L224.768 27.5956L227.031 26.7101L223.686 15.3957Z"
      fill="#313131" />
    <path
      d="M242.084 22.8732C241.002 22.4796 240.117 21.8893 239.33 21.0038C238.542 20.1184 238.051 18.9377 237.657 17.5603C237.362 16.1829 237.362 14.9039 237.657 13.7233C237.952 12.5426 238.542 11.5588 239.428 10.7717C240.313 9.98458 241.297 9.39427 242.576 9.09911C243.462 8.90234 244.642 8.70557 246.02 8.70557H246.61L247.2 12.0507L246.02 12.3458L245.036 10.1814C244.839 10.083 244.544 9.98458 244.052 9.98458C243.56 9.98458 243.068 10.083 242.478 10.1814C241.691 10.3781 241.1 10.7717 240.609 11.362C240.117 11.9523 239.821 12.7394 239.625 13.6249C239.526 14.6087 239.526 15.5926 239.821 16.8716C240.117 18.0522 240.51 19.0361 241.002 19.8232C241.494 20.6103 242.183 21.299 242.97 21.6925C243.757 22.0861 244.544 22.1845 245.429 21.9877C246.118 21.7909 246.512 21.6925 246.905 21.4958C247.2 21.299 247.496 21.1022 247.692 20.8071L247.988 18.8393L249.168 18.7409L249.365 21.3974C249.07 21.4958 248.775 21.6925 248.283 21.8893C247.889 22.0861 247.496 22.3812 247.102 22.4796C246.708 22.6764 246.217 22.7748 245.626 22.9715C244.347 23.2667 243.167 23.2667 242.084 22.8732Z"
      fill="#313131" />
    <path
      d="M253.891 6.63937L254.087 7.52484L252.316 8.11516L254.087 17.3634L255.17 14.8054L259.203 7.32807L259.105 6.83614L257.432 6.93452L257.236 6.04905L262.253 5.06519L262.45 5.95066L261.073 6.44259L263.336 17.8554L264.91 17.757L265.107 18.6425L259.991 19.6263L259.794 18.7409L261.368 18.2489L259.499 8.90224L258.515 11.2635L254.383 18.8392L254.481 19.5279L256.252 19.3312L256.449 20.2166L251.234 21.2005L251.037 20.315L252.513 19.8231L250.25 8.41031L248.774 8.5087L248.578 7.62323L253.891 6.63937Z"
      fill="#313131" />
    <path
      d="M273.961 3.19556L274.847 8.01647L273.568 8.21325L272.486 4.57296L268.353 5.06489L270.124 16.7728L273.371 16.4777L273.469 17.3631L266.189 18.4454L266.09 17.5599L268.058 17.068L266.287 5.65521H264.319L264.221 4.76973L273.961 3.19556Z"
      fill="#313131" />
    <path
      d="M277.405 3.88445L275.929 3.78607L275.831 2.90059L280.848 2.31028L280.947 3.19575L279.373 3.58929L279.963 8.60699L286.456 7.91828L285.866 2.90059L284.292 2.80221L284.193 1.91673L289.211 1.32642L289.31 2.21189L287.834 2.60543L289.113 14.1166H290.589L290.687 15.0021L285.669 15.5924L285.571 14.7069L287.047 14.3134L286.456 8.90214L279.963 9.59085L280.553 15.0021H282.226L282.324 15.8876L277.208 16.4779L277.11 15.5924L278.585 15.1989L277.405 3.88445Z"
      fill="#313131" />
    <path
      d="M296.098 0.932857L298.164 0.834473L303.477 13.4279L304.658 13.5263L304.756 14.4117L299.837 14.7069L299.738 13.8214L301.313 13.5263L300.23 10.7715L294.819 11.0666L294.13 13.9198L295.705 14.0182L295.803 14.9037L291.376 15.1988L291.277 14.3134L292.458 14.0182L296.098 0.932857ZM297.476 3.78606L296.885 2.21188L296.59 3.88444L295.114 9.98437L299.837 9.68922L297.476 3.78606Z"
      fill="#313131" />
    <path
      d="M309.38 9.19728C309.184 10.8698 308.79 12.2472 308.298 13.1327C308.003 13.6247 307.708 13.9198 307.413 14.1166C307.117 14.3134 306.724 14.4117 306.232 14.4117C305.642 14.4117 305.15 14.4117 304.855 14.3134L304.658 12.8376C304.953 12.8376 305.445 12.8376 306.035 12.8376C306.232 12.8376 306.429 12.7392 306.625 12.6408C306.822 12.5424 306.921 12.3456 307.117 12.0505C308.003 10.5747 308.495 7.52471 308.396 2.90057V1.42477H306.33V0.440914L317.153 0.244141V1.228L315.382 1.52316L315.579 13.1327L317.448 13.3295V14.215L311.643 14.3134V13.4279L313.611 13.2311L313.414 1.62155L309.577 1.71993V3.3925C309.675 5.4586 309.577 7.52471 309.38 9.19728Z"
      fill="#313131" />
    <path
      d="M325.122 5.85215C326.598 5.95053 327.779 6.34408 328.566 7.03278C329.353 7.72148 329.746 8.80373 329.648 10.0828C329.549 11.5585 329.058 12.6408 328.172 13.3295C327.188 14.1166 326.008 14.4117 324.532 14.4117C324.335 14.4117 324.138 14.4117 323.942 14.4117C323.745 14.4117 323.548 14.4117 323.253 14.3134C322.564 14.215 321.875 14.215 321.285 14.1166L318.727 14.0182V13.1327L320.301 13.0343L320.695 1.42477L319.219 1.12962V0.244141L324.532 0.440914V1.32639L322.662 1.52316L322.466 5.85215L325.122 5.85215ZM323.154 13.3295C323.351 13.3295 323.745 13.4279 324.138 13.4279C325.22 13.4279 326.008 13.2311 326.598 12.6408C327.188 12.0505 327.483 11.2634 327.483 10.1811C327.483 9.09889 327.287 8.41019 326.696 7.81987C326.204 7.32794 325.417 7.03278 324.335 6.93439L322.466 6.93439L322.269 13.2311C322.662 13.2311 322.958 13.3295 323.154 13.3295ZM337.027 0.834459V1.71993L335.256 1.9167L334.862 13.5263L336.633 13.8214V14.7069L331.124 14.5101V13.6247L332.895 13.5263L333.288 1.9167L331.517 1.62155V0.736071L337.027 0.834459Z"
      fill="#313131" />
    <path
      d="M345.488 2.70383L344.012 2.31028L344.111 1.4248L349.128 1.91674L349.03 2.80221L347.456 2.9006L346.964 7.91829L353.556 8.60699L354.048 3.5893L352.572 3.19576L352.67 2.31028L357.688 2.80221L357.59 3.68769L356.114 3.78607L354.933 15.3956L356.409 15.6908L356.311 16.5763L351.293 16.0843L351.391 15.1989H352.965L353.556 9.78762L346.964 9.09892L346.374 14.5102L347.948 14.9037L347.849 15.7892L342.733 15.1989L342.832 14.3134H344.406L345.488 2.70383Z"
      fill="#313131" />
    <path
      d="M364.378 3.68774L366.444 3.9829L369.002 17.4618L370.085 17.8553L369.986 18.7408L365.067 17.9537L365.165 17.0683L366.739 17.1666L366.346 14.2151L360.935 13.428L359.656 15.986L361.23 16.3795L361.131 17.265L356.704 16.5763L356.802 15.6908H357.983L364.378 3.68774ZM365.165 6.8361L364.968 5.16354L364.28 6.73771L361.525 12.3457L366.248 13.0344L365.165 6.8361Z"
      fill="#313131" />
    <path
      d="M379.628 7.62326L377.66 6.93455L377.857 6.04907L382.678 7.13133L383.465 15.8877L383.563 18.3473L384.646 16.1828L388.975 8.50872L393.796 9.59098L393.599 10.4764L391.533 10.2797L390.451 21.8892L392.025 22.4796L391.828 23.365L386.613 22.1844L386.81 21.2989L388.483 21.4957L389.467 13.1329L389.86 9.49259L388.483 11.9522L383.367 20.807L382.186 20.5118L381.202 11.0668L380.907 7.42648L379.825 10.87L377.267 18.9377L379.038 19.528L378.841 20.4134L374.118 19.3312L374.315 18.4457L375.889 18.6425L379.628 7.62326Z"
      fill="#313131" />
    <path
      d="M400.683 11.3618L402.65 11.9521L403.634 25.6278L404.716 26.0213L404.52 26.9068L399.797 25.6278L399.994 24.7423L401.568 24.9391L401.47 22.0859L396.255 20.6101L394.681 23.0698L396.157 23.6601L395.96 24.5456L391.729 23.3649L391.926 22.4794L393.107 22.5778L400.683 11.3618ZM401.076 14.5102V12.8376L400.191 14.3134L396.747 19.6262L401.371 20.9053L401.076 14.5102Z"
      fill="#313131" />
    <path
      d="M410.324 15.3955L409.045 14.7068L409.341 13.8213L411.702 14.6084C412.095 14.7068 412.587 14.9035 412.981 15.0019C413.67 15.1987 414.26 15.2971 414.85 15.4939C416.523 16.0842 417.703 16.7729 418.195 17.6583C418.687 18.5438 418.786 19.6261 418.392 20.8067C418.097 21.7906 417.605 22.4793 416.916 23.0696C416.228 23.6599 415.44 23.9551 414.555 24.0534C413.67 24.1518 412.686 24.0534 411.702 23.7583C411.308 23.6599 411.013 23.5615 410.62 23.3647C410.226 23.2664 410.029 23.168 409.931 23.0696L408.652 27.005L411.013 27.9889L410.718 28.8744L404.913 27.005L405.208 26.1196L406.782 26.4147L410.324 15.3955ZM411.997 22.8728C412.981 23.168 413.768 23.168 414.555 22.7744C415.342 22.3809 415.932 21.5938 416.326 20.2164C416.621 19.2325 416.621 18.347 416.228 17.7567C415.834 17.1664 415.145 16.6745 414.063 16.2809C413.67 16.1826 413.276 16.0842 412.784 15.9858C412.489 15.8874 412.292 15.8874 412.292 15.8874L410.226 22.1841C410.62 22.3809 411.112 22.5777 411.997 22.8728Z"
      fill="#313131" />
    <path
      d="M419.081 31.0388C418.392 30.1533 417.999 29.0711 417.9 27.9888C417.802 26.9066 417.999 25.5292 418.491 24.1518C418.982 22.8728 419.671 21.7905 420.557 21.0034C421.442 20.2163 422.524 19.7244 423.705 19.5276C424.886 19.3309 426.066 19.4292 427.247 19.9212C428.132 20.2163 429.215 20.8067 430.297 21.4954L430.887 21.7905L429.51 24.8405L428.329 24.4469L428.723 22.0857C428.624 21.8889 428.329 21.6921 428.034 21.397C427.739 21.1018 427.148 20.905 426.558 20.7083C425.771 20.4131 425.082 20.4131 424.295 20.6099C423.508 20.8067 422.819 21.2986 422.229 21.9873C421.639 22.676 421.049 23.6598 420.655 24.7421C420.261 25.8243 420.065 26.9066 419.966 27.8904C419.966 28.8743 420.065 29.7598 420.557 30.5469C421.049 31.334 421.639 31.8259 422.524 32.121C423.115 32.3178 423.607 32.5146 424 32.5146C424.394 32.5146 424.689 32.5146 424.984 32.4162L426.361 30.9404L427.444 31.5307L426.066 33.892C425.771 33.7936 425.378 33.7936 424.886 33.6952C424.394 33.6952 424 33.5968 423.508 33.5968C423.115 33.4985 422.623 33.4001 422.032 33.2033C420.852 32.613 419.769 31.9243 419.081 31.0388Z"
      fill="#313131" />
    <path
      d="M446.432 27.7922L446.039 28.6777L444.268 28.0873L440.431 36.6469L442.792 35.1711L450.368 31.4325L450.564 30.9405L449.187 30.0551L449.58 29.1696L454.303 31.3341L453.909 32.2196L452.434 31.826L447.613 42.4517L448.99 43.2388L448.597 44.0259L443.874 41.8614L444.268 41.0743L445.842 41.5662L449.777 32.9083L447.613 34.2857L439.84 38.1227L439.545 38.713L441.021 39.5985L440.627 40.3856L435.806 38.2211L436.2 37.434L437.676 37.9259L442.497 27.3003L441.218 26.5132L441.611 25.6277L446.432 27.7922Z"
      fill="#313131" />
    <path
      d="M457.747 33.4001C458.337 33.4985 458.73 33.6953 459.124 33.7937C459.518 33.8921 459.911 34.0888 460.206 34.1872C461.584 34.8759 462.567 35.663 463.059 36.5485C463.551 37.434 463.551 38.3194 463.059 39.2049C462.567 40.0904 461.977 40.6807 461.092 40.8775C460.305 41.1726 459.419 41.1726 458.534 40.8775C459.518 41.4678 460.206 42.1565 460.501 42.9436C460.797 43.7307 460.698 44.6161 460.305 45.4032C459.714 46.5839 458.829 47.371 457.747 47.5677C456.664 47.8629 455.385 47.5677 453.713 46.7806C453.024 46.4855 452.532 46.0919 452.04 45.6984C451.548 45.3048 451.253 45.0097 450.958 44.8129C450.761 44.6161 450.564 44.4194 450.466 44.321L452.237 41.5662L453.024 41.9597L452.434 44.321C452.827 44.9113 453.516 45.4032 454.401 45.8952C455.189 46.2887 455.779 46.3871 456.468 46.0919C457.058 45.7968 457.648 45.3048 458.042 44.4194C458.435 43.7307 458.435 43.042 458.337 42.3533C458.239 41.6646 457.55 41.0742 456.566 40.5823L455.385 39.992L455.877 39.1065L456.861 39.5985C457.353 39.7952 457.845 39.992 458.337 39.992C458.829 39.992 459.321 39.8936 459.813 39.5985C460.305 39.3033 460.6 38.9098 460.895 38.3194C461.288 37.5323 461.387 36.942 461.092 36.3517C460.895 35.7614 460.403 35.3678 459.616 34.9743C459.124 34.6791 458.73 34.5808 458.239 34.4824C457.845 34.384 457.55 34.4824 457.353 34.5808L456.271 35.9582L455.189 35.4662L456.369 32.8098C456.763 33.105 457.156 33.2034 457.747 33.4001Z"
      fill="#313131" />
    <path
      d="M471.521 41.7631L470.34 40.7793L470.832 39.9922L472.996 41.2712C473.39 41.468 473.882 41.7631 474.472 42.0583C475.062 42.3535 475.456 42.5502 475.653 42.6486C477.129 43.5341 478.112 44.3212 478.408 45.2067C478.801 45.9937 478.703 46.8792 478.211 47.7647C477.719 48.5518 477.129 49.0437 476.44 49.3389C475.751 49.634 474.866 49.634 473.98 49.3389C475.062 49.9292 475.751 50.6179 476.046 51.5034C476.341 52.3888 476.243 53.1759 475.751 54.0614C475.161 55.1436 474.177 55.8324 473.095 56.0291C471.914 56.2259 470.438 55.8324 468.667 54.8485C468.274 54.6517 467.88 54.3566 467.585 54.1598C466.798 53.6679 466.306 53.3727 466.109 53.2743L463.945 51.9953L464.437 51.2082L465.913 51.7985L471.521 41.7631ZM469.061 53.963C470.143 54.5533 471.029 54.8485 471.816 54.6517C472.603 54.4549 473.193 53.963 473.685 53.1759C474.177 52.3888 474.275 51.6018 474.079 51.0114C473.882 50.4211 473.292 49.8308 472.308 49.2405C471.225 48.6502 470.537 48.2566 470.241 48.0599L467.487 52.8808C467.585 53.0775 468.175 53.3727 469.061 53.963ZM471.717 47.5679L472.603 48.0599C473.39 48.4534 474.079 48.6502 474.669 48.4534C475.259 48.2566 475.85 47.7647 476.243 46.9776C476.637 46.1905 476.833 45.6002 476.637 45.0099C476.44 44.4196 475.85 43.8292 474.964 43.3373C474.571 43.1405 474.177 42.9438 473.685 42.747L473.292 42.5502L470.733 47.076C470.93 47.076 471.225 47.2728 471.717 47.5679Z"
      fill="#313131" />
    <path
      d="M486.18 48.9451L487.951 50.0273L484.901 63.3094L485.787 64.0965L485.295 64.8836L481.162 62.2272L481.654 61.4401L483.032 62.1288L483.819 59.2756L479.195 56.324L476.932 58.1934L478.211 59.1772L477.719 59.9643L473.98 57.603L474.472 56.816L475.554 57.3079L486.18 48.9451ZM485.491 52.0934L485.983 50.4209L484.704 51.6015L479.883 55.6353L483.917 58.1934L485.491 52.0934Z"
      fill="#313131" />
    <path
      d="M488.148 66.1628C487.656 65.0806 487.558 63.9983 487.754 62.8177C487.951 61.6371 488.443 60.4564 489.329 59.2758C490.116 58.0952 491.1 57.3081 492.182 56.7177C493.264 56.1274 494.445 55.9307 495.625 56.029C496.806 56.1274 497.888 56.521 498.97 57.3081C499.758 57.8984 500.643 58.6855 501.529 59.6693L501.922 60.1613L499.856 62.8177L498.872 62.129L499.856 59.8661C499.758 59.6693 499.659 59.3742 499.364 59.079C499.069 58.7839 498.675 58.3903 498.183 58.0951C497.495 57.6032 496.806 57.4064 496.019 57.4064C495.232 57.4064 494.445 57.7016 493.658 58.1935C492.871 58.6855 492.083 59.4726 491.395 60.4564C490.706 61.4403 490.214 62.4241 489.919 63.3096C489.624 64.2935 489.624 65.179 489.821 65.966C490.017 66.7531 490.509 67.4418 491.296 68.0321C491.887 68.4257 492.28 68.6225 492.674 68.7208C493.067 68.8192 493.362 68.9176 493.658 68.8192L495.33 67.737L496.216 68.5241L494.346 70.4918C494.149 70.3934 493.756 70.1966 493.264 69.9999C492.772 69.9015 492.379 69.7047 491.985 69.5079C491.591 69.3112 491.1 69.1144 490.608 68.7208C489.427 68.1305 488.64 67.2451 488.148 66.1628Z"
      fill="#313131" />
    <path
      d="M508.317 67.9337C509.399 67.5401 510.383 67.4417 511.367 67.5401C512.351 67.6385 513.335 68.1304 514.122 68.7207C515.106 69.5078 515.696 70.2949 516.089 71.2788C516.385 72.2626 516.483 73.2465 516.188 74.3288C515.893 75.411 515.401 76.4932 514.515 77.5755C513.63 78.7561 512.548 79.6416 511.465 80.2319C510.383 80.8222 509.301 81.019 508.12 80.9206C506.94 80.8222 506.054 80.4287 505.169 79.74C504.185 78.9529 503.496 78.0674 503.102 77.0836C502.709 76.0997 502.709 75.1158 502.906 74.0336C503.201 72.9514 503.693 71.8691 504.48 70.7869L502.119 68.9175L498.773 73.2465L499.954 74.4271L499.364 75.1158L495.33 71.9675L495.92 71.2788L497.298 72.0659L504.381 62.916L503.299 61.8337L503.89 61.0466L507.825 64.0966L507.235 64.8837L505.857 64.0966L502.807 68.032L505.169 69.9014C506.349 69.0159 507.333 68.4256 508.317 67.9337ZM510.285 69.0159C509.104 69.4094 507.825 70.3933 506.546 72.0659C505.464 73.5417 504.775 74.8207 504.677 76.0997C504.578 77.3787 504.972 78.3626 505.956 79.1497C506.94 79.8384 507.923 80.0351 509.104 79.5432C510.285 79.1497 511.465 78.0674 512.744 76.4933C513.827 75.0175 514.515 73.7384 514.614 72.4594C514.712 71.1804 514.318 70.1965 513.433 69.5078C512.548 68.8191 511.465 68.6224 510.285 69.0159Z"
      fill="#313131" />
    <path
      d="M521.107 84.9545C521.107 85.7416 520.91 86.8239 520.714 88.1029C520.517 88.9884 520.517 89.6771 520.418 90.0706C520.418 90.4642 520.418 90.8577 520.517 90.9561L520.91 91.5464L520.32 92.2351L518.549 90.7593C518.352 90.5626 518.254 90.169 518.352 89.5787C518.451 88.9884 518.549 88.1029 518.746 87.0207C519.041 85.7416 519.139 84.7578 519.238 84.0691C519.336 83.3804 519.139 82.8884 518.943 82.5933L518.057 81.8062L514.614 85.84L515.696 87.119L515.106 87.8077L511.269 84.4626L511.859 83.7739L513.138 84.6594L520.714 75.903L519.73 74.7224L520.32 74.0337L524.059 77.2804L523.468 77.9691L522.189 77.0837L518.648 81.1175L519.828 82.1997L526.223 80.6256L525.141 79.4449L525.731 78.7562L529.175 81.8062L528.585 82.4949L527.305 81.7078L520.714 83.1836C521.009 83.5771 521.107 84.1674 521.107 84.9545Z"
      fill="#313131" />
    <path
      d="M523.173 94.1043C522.977 93.1204 522.977 92.0381 523.468 90.9559C523.862 89.8737 524.551 88.7914 525.535 87.8075C526.518 86.7253 527.601 86.0366 528.683 85.6431C529.864 85.2495 530.946 85.1511 532.028 85.3479C533.11 85.5447 534.094 86.0366 534.98 86.9221C536.357 88.2995 537.046 89.6769 536.947 91.3494C536.849 92.9236 536.062 94.4978 534.586 96.072C533.602 97.1542 532.52 97.8429 531.339 98.3349C530.159 98.7284 529.077 98.8268 527.896 98.63C526.814 98.4332 525.83 97.8429 524.944 97.0558C523.96 96.072 523.469 95.0881 523.173 94.1043ZM531.044 86.6269C529.864 86.9221 528.486 87.8075 527.109 89.2833C525.83 90.6607 525.043 91.9398 524.846 93.2188C524.551 94.4978 524.944 95.4817 525.83 96.3671C526.715 97.1542 527.797 97.4494 528.978 97.1542C530.257 96.8591 531.536 95.9736 532.914 94.4978C534.193 93.1204 534.98 91.8414 535.176 90.5624C535.373 89.3817 535.078 88.2995 534.193 87.414C533.307 86.6269 532.323 86.3318 531.044 86.6269Z"
      fill="#313131" />
    <path
      d="M540.883 94.3996L539.997 93.1206L540.686 92.4319L542.457 94.2028C542.752 94.498 543.146 94.8915 543.638 95.2851C544.13 95.6786 544.425 95.9738 544.621 96.1706C545.802 97.4496 546.491 98.4334 546.589 99.4173C546.688 100.401 546.392 101.09 545.704 101.877C545.113 102.467 544.326 102.861 543.539 102.959C542.752 103.058 541.965 102.861 541.178 102.27C542.063 103.156 542.457 103.943 542.555 104.927C542.654 105.812 542.26 106.599 541.571 107.288C540.686 108.174 539.604 108.567 538.423 108.469C537.243 108.37 535.964 107.583 534.488 106.108C534.193 105.812 533.897 105.419 533.602 105.124C532.914 104.435 532.52 103.943 532.422 103.845L530.651 102.074L531.339 101.483L532.52 102.467L540.883 94.3996ZM535.078 105.419C535.963 106.304 536.751 106.796 537.538 106.796C538.325 106.796 539.013 106.501 539.702 105.812C540.391 105.124 540.686 104.435 540.686 103.845C540.686 103.254 540.292 102.467 539.505 101.68C538.62 100.795 538.03 100.204 537.833 100.008L533.799 103.845C533.996 104.238 534.389 104.73 535.078 105.419ZM539.407 100.008L540.096 100.795C540.686 101.385 541.375 101.68 541.965 101.68C542.654 101.68 543.244 101.385 543.933 100.696C544.523 100.106 544.818 99.5157 544.818 98.9254C544.818 98.3351 544.425 97.6463 543.638 96.8593C543.342 96.5641 542.949 96.2689 542.654 95.8754L542.359 95.5802L538.62 99.2205C538.817 99.4173 539.013 99.6141 539.407 100.008Z"
      fill="#313131" />
    <path
      d="M561.544 115.257L560.855 115.848L559.675 114.765L550.918 122.341L551.902 123.817L551.213 124.407L547.77 120.373L548.459 119.783L549.639 120.865L558.494 113.29L554.559 108.764L545.704 116.438L546.688 117.914L545.999 118.504L542.555 114.569L543.244 113.978L544.326 114.962L553.083 107.386L552.197 106.009L552.886 105.419L561.544 115.257Z"
      fill="#313131" />
    <path
      d="M554.067 127.162C553.968 126.08 554.263 125.096 554.755 124.112C555.346 123.128 556.133 122.145 557.215 121.259C558.297 120.374 559.478 119.783 560.658 119.587C561.839 119.39 562.921 119.39 564.004 119.783C565.086 120.177 565.971 120.866 566.66 121.751C567.841 123.325 568.333 124.801 567.939 126.375C567.644 127.949 566.562 129.425 564.889 130.704C563.708 131.59 562.528 132.18 561.347 132.377C560.167 132.573 558.986 132.573 557.904 132.18C556.821 131.786 555.936 131.098 555.149 130.212C554.559 129.228 554.067 128.146 554.067 127.162ZM562.921 120.964C561.642 121.062 560.265 121.751 558.592 123.03C557.117 124.211 556.133 125.391 555.739 126.572C555.346 127.753 555.444 128.835 556.231 129.819C557.018 130.803 558.002 131.196 559.281 131.098C560.56 130.999 562.036 130.311 563.61 129.032C565.086 127.851 566.07 126.67 566.463 125.49C566.857 124.309 566.66 123.227 565.971 122.243C565.184 121.259 564.2 120.866 562.921 120.964Z"
      fill="#313131" />
    <path
      d="M566.857 136.607C565.283 137.394 564.004 137.886 563.02 137.985C562.528 137.985 562.036 137.985 561.741 137.788C561.347 137.591 561.052 137.394 560.757 137.001C560.363 136.509 560.167 136.115 560.068 135.82L561.249 134.836C561.347 135.131 561.642 135.525 562.036 136.017C562.134 136.214 562.331 136.312 562.528 136.41C562.725 136.509 562.921 136.509 563.216 136.509C564.987 136.41 567.742 135.033 571.383 132.377L572.563 131.491L571.481 129.622L572.268 129.031L578.565 137.788L577.778 138.378L576.597 137.099L567.152 143.888L568.037 145.462L567.25 145.954L563.905 141.231L564.692 140.739L565.971 142.215L575.416 135.427L573.252 132.377L571.874 133.36C570.103 134.836 568.431 135.82 566.857 136.607Z"
      fill="#313131" />
    <path
      d="M579.647 141.527L578.958 140.149L579.745 139.657L584.96 147.627L582.697 149.397L582.107 148.512L583.287 147.036L580.828 143.101L576.4 145.954L578.171 148.512L579.647 147.922L580.237 148.807L576.597 151.168L576.007 150.283L577.187 149.201L575.515 146.544L570.891 149.594L573.941 153.923L576.499 153.431L576.794 154.514L573.744 155.793L568.037 147.135L568.824 146.643L569.808 147.823L579.647 141.527Z"
      fill="#313131" />
    <path
      d="M588.108 154.612L586.337 151.956L582.598 153.431L582.008 152.349L586.436 150.086L592.437 160.122L588.206 162.876L587.616 161.893L590.666 159.334L589.092 156.481L578.958 162.483L580.139 164.844L579.352 165.336L575.711 159.236L576.499 158.744L577.876 160.712L588.108 154.612Z"
      fill="#313131" />
    <path
      d="M589.387 170.747L588.994 169.96C588.698 169.763 588.206 169.763 587.518 169.763C586.829 169.763 586.042 169.862 585.058 169.96C584.074 170.059 583.386 170.059 582.894 170.059C582.402 170.059 582.107 169.96 582.008 169.763L580.828 167.5L581.615 167.107L582.107 167.697C582.205 167.796 582.5 167.894 582.894 167.992C583.287 167.992 583.878 167.992 584.665 168.091C585.55 168.091 586.337 168.091 587.026 168.091C587.616 168.189 588.108 168.288 588.502 168.484C588.305 167.599 588.403 166.812 588.698 166.123C589.092 165.336 589.682 164.746 590.469 164.352C591.748 163.663 592.929 163.565 593.814 164.057C594.7 164.549 595.585 165.533 596.373 167.009C596.569 167.304 596.766 167.796 596.963 168.288C597.16 168.878 597.356 169.271 597.553 169.567L598.832 171.928L598.045 172.42L597.061 171.141L586.829 176.65L587.518 178.225L586.731 178.52L584.074 173.699L584.861 173.305L585.845 174.781L590.174 172.42L589.387 170.747ZM596.077 168.681C595.881 168.189 595.684 167.697 595.487 167.304C594.995 166.418 594.503 165.926 593.913 165.631C593.323 165.336 592.535 165.533 591.65 166.025C590.765 166.517 590.174 167.107 589.977 167.796C589.781 168.484 589.879 169.271 590.371 170.157C590.863 171.042 591.158 171.633 591.355 171.829L596.373 169.075L596.077 168.681Z"
      fill="#313131" />
    <path
      d="M600.898 178.225L599.423 175.372L595.586 176.552L595.094 175.47L599.718 173.601L604.834 184.03L600.406 186.391L599.915 185.309L603.161 183.046L601.882 180.094L591.257 185.21L592.24 187.67L591.453 188.063L588.305 181.668L589.092 181.275L590.371 183.341L600.898 178.225Z"
      fill="#313131" />
    <path
      d="M596.372 197.508C596.569 196.426 597.061 195.344 597.848 194.556C598.635 193.671 599.718 192.982 600.997 192.392C602.276 191.9 603.555 191.605 604.735 191.802C605.916 191.9 606.998 192.392 607.982 193.081C608.966 193.769 609.655 194.753 610.146 195.934C610.54 196.819 610.835 197.902 611.032 199.279L611.13 199.869L607.982 200.952L607.49 199.771L609.458 198.394C609.556 198.197 609.556 197.803 609.458 197.41C609.359 197.016 609.261 196.426 608.966 195.934C608.671 195.245 608.179 194.655 607.49 194.261C606.801 193.868 606.014 193.671 605.03 193.671C604.047 193.671 603.063 193.966 601.882 194.36C600.8 194.852 599.914 195.344 599.127 196.032C598.34 196.721 597.848 197.41 597.553 198.197C597.258 198.984 597.356 199.869 597.651 200.656C597.947 201.247 598.143 201.739 598.439 202.034C598.635 202.329 598.93 202.526 599.226 202.722H601.193L601.489 203.903L598.832 204.493C598.734 204.297 598.537 203.903 598.143 203.51C597.848 203.116 597.553 202.821 597.356 202.427C597.16 202.034 596.864 201.64 596.668 201.05C596.372 199.869 596.176 198.689 596.372 197.508Z"
      fill="#313131" />
    <path
      d="M614.279 206.757L613.393 207.052L612.508 205.379L603.653 208.626L606.31 209.315L614.377 212.07L614.869 211.873L614.476 210.2L615.361 209.905L617.132 214.726L616.247 215.021L615.558 213.742L604.637 217.776L605.031 219.35L604.145 219.645L602.374 214.726L603.26 214.431L604.047 215.907L613 212.66L610.442 212.07L602.276 209.216L601.685 209.413L602.079 211.086L601.194 211.381L599.423 206.462L600.308 206.166L600.997 207.544L611.918 203.51L611.622 202.034L612.508 201.739L614.279 206.757Z"
      fill="#313131" />
    <path
      d="M620.772 226.04L616.148 227.614L615.755 226.434L619.198 224.761L618.116 220.826L606.9 224.368L607.687 227.516L606.802 227.811L604.539 220.826L605.424 220.531L606.211 222.4L617.23 218.858L616.837 216.89L617.722 216.595L620.772 226.04Z"
      fill="#313131" />
    <path
      d="M620.575 229.484L620.379 228.008L621.264 227.811L622.543 232.731L621.658 232.927L621.067 231.452L616.246 232.731L617.919 239.126L622.74 237.847L622.543 236.371L623.429 236.174L624.708 240.995L623.822 241.192L623.232 239.814L612.016 242.864L612.213 244.34L611.327 244.537L610.048 239.716L610.934 239.519L611.524 240.995L616.738 239.618L615.066 233.223L609.851 234.6L610.048 236.174L609.163 236.371L607.785 231.452L608.671 231.255L609.261 232.632L620.575 229.484Z"
      fill="#313131" />
    <path
      d="M626.479 247.488L626.971 249.456L615.361 256.638L615.459 257.819L614.574 258.016L613.492 253.195L614.377 252.998L614.869 254.474L617.427 252.998L616.247 247.685L613.393 247.39L613.59 248.964L612.705 249.161L611.721 244.832L612.606 244.635L613 245.717L626.479 247.488ZM623.822 249.358L625.298 248.571L623.527 248.472L617.23 247.882L618.214 252.506L623.822 249.358Z"
      fill="#313131" />
    <path
      d="M620.379 261.951C618.608 261.951 617.329 261.853 616.345 261.459C615.853 261.262 615.459 261.066 615.263 260.771C614.967 260.475 614.869 260.082 614.771 259.688C614.672 259.098 614.574 258.704 614.672 258.409L616.148 258.016C616.148 258.311 616.246 258.803 616.345 259.393C616.345 259.59 616.443 259.787 616.64 259.983C616.738 260.18 616.935 260.279 617.23 260.377C618.805 261.066 621.953 260.967 626.38 260.18L627.856 259.885L627.659 257.721L628.545 257.524L630.414 268.15L629.529 268.346L629.037 266.674L617.624 268.641L617.722 270.511L616.837 270.708L615.853 265.001L616.738 264.804L617.23 266.674L628.643 264.706L627.954 260.967L626.282 261.262C624.019 261.656 622.051 261.853 620.379 261.951Z"
      fill="#313131" />
    <path
      d="M626.085 276.906C626.282 278.382 626.085 279.661 625.396 280.546C624.806 281.432 623.822 281.924 622.543 282.12C621.166 282.317 619.985 281.924 619.1 281.136C618.214 280.349 617.722 279.169 617.525 277.693C617.525 277.496 617.526 277.299 617.427 277.103C617.329 276.906 617.427 276.709 617.427 276.414C617.427 275.725 617.329 275.037 617.329 274.446L617.034 271.888L617.919 271.79L618.313 273.364L629.922 271.987L630.021 270.412L630.906 270.314L631.496 275.627L630.611 275.725L630.021 273.954L625.692 274.446L626.085 276.906ZM618.411 276.217C618.411 276.414 618.411 276.807 618.509 277.201C618.608 278.283 619.001 278.972 619.69 279.464C620.379 279.956 621.166 280.153 622.248 279.956C623.232 279.857 624.019 279.464 624.413 278.874C624.904 278.283 625.003 277.496 624.904 276.414L624.708 274.545L618.411 275.332C618.411 275.725 618.411 276.02 618.411 276.217ZM632.874 287.925L631.988 288.023L631.595 286.351L620.084 287.728V289.499L619.198 289.598L618.509 284.186L619.395 284.088L619.788 285.761L631.3 284.383V282.612L632.185 282.514L632.874 287.925Z"
      fill="#313131" />
    <path
      d="M632.283 296.583L632.48 295.107H633.366L633.562 300.223H632.677L632.382 298.649L627.364 298.846L627.659 305.438L632.677 305.241L632.874 303.765H633.759L633.956 308.783H633.071L632.775 307.307L621.166 307.897L621.067 309.373H620.182L619.985 304.356H620.871L621.166 305.831L626.577 305.536L626.282 298.944L620.871 299.24L620.772 300.912H619.887L619.69 295.796H620.576L620.871 297.272L632.283 296.583Z"
      fill="#313131" />
    <path
      d="M634.153 315.276V317.342L621.363 322.065L621.166 323.246H620.28L620.182 318.326H621.067L621.264 319.901L624.019 319.015L623.921 313.604L621.166 312.817L620.969 314.391H620.084L619.985 309.964H620.871L621.067 311.144L634.153 315.276ZM631.201 316.457L632.874 315.965L631.201 315.571L625.2 313.801L625.298 318.523L631.201 316.457Z"
      fill="#313131" />
    <path
      d="M632.677 331.117L633.071 329.05L633.956 329.149L633.661 334.068L625.101 336.134L622.74 336.626L625.101 337.315L633.366 340.463L633.071 345.383L632.185 345.284L632.087 343.218L620.379 344.005L620.084 345.579L619.198 345.481L619.493 340.07L620.379 340.168L620.477 341.841L628.938 341.546L632.579 341.349L629.922 340.365L620.379 336.626L620.477 335.446L629.627 332.986L633.267 332.1L629.627 331.51L621.264 330.231L620.969 332.1L620.084 332.002L620.379 327.181L621.264 327.28L621.363 328.854L632.677 331.117Z"
      fill="#313131" />
    <path
      d="M632.284 352.565L632.087 354.631L618.805 357.681L618.509 358.763L617.624 358.664L618.214 353.745L619.1 353.844V355.418L621.953 354.827L622.543 349.416L619.887 348.236L619.493 349.81L618.608 349.711L619.1 345.284L619.985 345.382L620.084 346.563L632.284 352.565ZM629.135 353.352L630.808 353.056L629.234 352.466L623.527 349.908L623.035 354.631L629.135 353.352Z"
      fill="#313131" />
    <path
      d="M629.725 362.6L630.217 361.223L631.103 361.321L630.709 363.781C630.611 364.273 630.611 364.666 630.512 365.06C630.414 365.748 630.414 366.339 630.316 366.929C630.021 368.7 629.529 369.881 628.742 370.569C627.954 371.16 626.971 371.455 625.593 371.258C624.609 371.061 623.822 370.766 623.134 370.176C622.445 369.585 622.051 368.897 621.756 368.011C621.461 367.126 621.461 366.142 621.658 365.158C621.756 364.765 621.756 364.469 621.854 364.076C621.953 363.682 621.953 363.485 622.051 363.387L618.017 362.797L617.427 365.256L616.542 365.158L617.525 359.156L618.411 359.255L618.313 360.829L629.725 362.6ZM622.642 365.355C622.445 366.339 622.642 367.126 623.134 367.913C623.625 368.7 624.511 369.093 625.888 369.29C626.971 369.487 627.758 369.29 628.25 368.897C628.84 368.405 629.135 367.618 629.332 366.535C629.43 366.142 629.43 365.748 629.43 365.256C629.43 364.961 629.43 364.765 629.43 364.666L622.838 363.682C622.838 363.977 622.74 364.568 622.642 365.355Z"
      fill="#313131" />
    <path
      d="M615.656 373.718C616.443 372.931 617.427 372.34 618.509 372.045C619.69 371.75 620.969 371.75 622.346 372.045C623.724 372.34 624.905 372.832 625.79 373.619C626.774 374.406 627.364 375.39 627.758 376.472C628.151 377.555 628.25 378.735 627.955 380.014C627.758 380.998 627.364 382.08 626.872 383.359L626.675 383.95L623.429 383.163L623.626 381.982H626.085C626.282 381.884 626.479 381.589 626.675 381.195C626.872 380.801 626.971 380.31 627.167 379.719C627.364 378.932 627.266 378.243 626.872 377.456C626.577 376.768 625.987 376.177 625.2 375.587C624.413 375.095 623.429 374.702 622.15 374.406C620.969 374.21 619.887 374.111 618.903 374.21C617.919 374.308 617.034 374.603 616.345 375.193C615.656 375.685 615.263 376.374 615.066 377.358C614.968 378.047 614.869 378.539 614.968 378.932C614.968 379.326 615.066 379.621 615.263 379.916L616.935 380.998L616.542 382.08L613.984 381.097C613.984 380.801 613.984 380.408 613.984 379.916C613.984 379.424 613.885 379.03 613.885 378.539C613.885 378.145 613.984 377.555 614.082 376.964C614.377 375.685 614.869 374.603 615.656 373.718Z"
      fill="#313131" />
    <path
      d="M623.133 400.183L622.248 399.888L622.543 398.019L613.492 395.559L615.263 397.625L620.182 404.611L620.674 404.709L621.362 403.135L622.248 403.43L620.871 408.35L619.985 408.054L620.182 406.579L608.966 403.529L608.375 405.004L607.49 404.808L608.867 399.79L609.753 399.987L609.458 401.659L618.608 404.217L616.837 402.348L611.917 395.264L611.229 395.067L610.54 396.74L609.654 396.543L611.032 391.427L611.917 391.624L611.721 393.198L622.937 396.248L623.527 394.871L624.412 395.166L623.133 400.183Z"
      fill="#313131" />
    <path
      d="M619.395 412.187C619.296 412.777 619.296 413.269 619.198 413.662C619.1 414.056 619.001 414.45 618.903 414.745C618.411 416.22 617.821 417.303 617.033 417.893C616.246 418.483 615.361 418.68 614.377 418.385C613.393 418.09 612.803 417.499 612.409 416.712C612.016 415.925 611.917 415.138 612.016 414.154C611.622 415.237 611.032 416.024 610.245 416.417C609.458 416.811 608.671 416.909 607.785 416.614C606.506 416.22 605.621 415.532 605.227 414.449C604.834 413.466 604.834 412.088 605.424 410.317C605.621 409.629 605.916 409.038 606.211 408.448C606.506 407.956 606.801 407.562 606.998 407.267C607.195 406.972 607.293 406.775 607.392 406.775L610.343 408.054L610.048 408.94L607.588 408.645C607.097 409.137 606.703 409.825 606.309 410.908C606.014 411.695 606.113 412.383 606.408 412.974C606.703 413.564 607.392 413.958 608.376 414.253C609.064 414.45 609.753 414.45 610.442 414.154C611.13 413.859 611.622 413.17 611.917 412.187L612.311 410.908L613.295 411.203L613 412.187C612.803 412.679 612.803 413.17 612.803 413.662C612.901 414.154 613.098 414.646 613.393 415.04C613.688 415.433 614.18 415.729 614.771 415.925C615.558 416.22 616.246 416.122 616.738 415.827C617.23 415.532 617.624 414.941 617.919 414.154C618.116 413.662 618.214 413.17 618.116 412.777C618.116 412.383 618.017 412.088 617.821 411.891L616.246 411.006L616.64 409.924L619.395 410.612C619.493 411.203 619.395 411.596 619.395 412.187Z"
      fill="#313131" />
    <path
      d="M613.295 427.24L614.082 425.862L614.968 426.158L614.082 428.519C613.885 428.912 613.787 429.404 613.59 430.093C613.393 430.683 613.295 431.077 613.197 431.372C612.606 432.946 611.918 434.028 611.131 434.52C610.343 435.012 609.458 435.111 608.573 434.717C607.785 434.422 607.097 433.93 606.703 433.143C606.31 432.454 606.211 431.667 606.31 430.782C605.916 431.864 605.326 432.651 604.539 433.143C603.752 433.537 602.866 433.635 601.981 433.241C600.8 432.749 600.013 431.962 599.619 430.88C599.226 429.798 599.324 428.224 600.111 426.354C600.308 425.961 600.406 425.567 600.603 425.174C600.997 424.288 601.194 423.698 601.292 423.6L602.177 421.238L603.063 421.533L602.669 423.009L613.295 427.24ZM600.8 426.65C600.308 427.83 600.308 428.814 600.505 429.503C600.702 430.191 601.39 430.782 602.276 431.077C603.161 431.47 603.948 431.47 604.539 431.175C605.129 430.88 605.621 430.191 606.014 429.208C606.506 428.027 606.703 427.24 606.802 426.945L601.587 424.977C601.489 425.075 601.194 425.666 600.8 426.65ZM607.49 428.224L607.097 429.208C606.802 429.995 606.802 430.683 607.097 431.274C607.392 431.864 607.982 432.356 608.769 432.651C609.556 432.946 610.245 432.946 610.835 432.749C611.327 432.454 611.819 431.864 612.213 430.782C612.41 430.388 612.508 429.896 612.606 429.503L612.705 429.109L607.884 427.24C607.884 427.437 607.687 427.732 607.49 428.224Z"
      fill="#313131" />
    <path
      d="M608.376 442.785L607.588 444.654L593.913 443.67L593.323 444.654L592.437 444.26L594.405 439.735L595.29 440.128L594.798 441.604L597.651 441.899L599.816 436.881L597.651 435.012L596.864 436.39L595.979 435.996L597.75 431.962L598.635 432.356L598.34 433.536L608.376 442.785ZM605.129 442.588L606.801 442.785L605.424 441.702L600.701 437.57L598.832 441.899L605.129 442.588Z"
      fill="#313131" />
    <path
      d="M591.65 447.409C592.634 446.819 593.716 446.523 594.897 446.523C596.077 446.523 597.356 446.917 598.635 447.507C599.914 448.098 600.898 448.885 601.587 449.869C602.276 450.852 602.669 451.935 602.768 453.115C602.866 454.296 602.571 455.477 602.079 456.559C601.685 457.444 600.997 458.428 600.21 459.51L599.816 460.002L596.865 458.33L597.455 457.247L599.816 457.838C600.013 457.739 600.308 457.543 600.603 457.149C600.898 456.854 601.194 456.362 601.39 455.772C601.784 455.083 601.882 454.296 601.685 453.509C601.587 452.722 601.194 452.033 600.505 451.344C599.816 450.656 599.029 449.967 597.848 449.475C596.766 448.983 595.782 448.59 594.798 448.491C593.815 448.393 592.929 448.491 592.142 448.786C591.355 449.081 590.765 449.672 590.371 450.557C590.076 451.148 589.879 451.639 589.879 452.033C589.781 452.427 589.879 452.722 589.879 453.017L591.158 454.493L590.469 455.477L588.305 453.902C588.403 453.706 588.502 453.312 588.6 452.722C588.699 452.23 588.797 451.836 588.895 451.443C588.994 451.049 589.19 450.557 589.486 449.967C589.879 448.983 590.666 447.999 591.65 447.409Z"
      fill="#313131" />
    <path
      d="M593.027 467.676C593.618 468.66 593.913 469.644 593.913 470.628C593.913 471.612 593.716 472.596 593.126 473.481C592.536 474.563 591.748 475.351 590.863 475.842C589.977 476.334 588.895 476.531 587.813 476.433C586.731 476.334 585.55 475.941 584.369 475.351C583.09 474.662 582.008 473.776 581.319 472.694C580.631 471.71 580.139 470.628 580.139 469.546C580.04 468.463 580.336 467.381 580.828 466.397C581.418 465.315 582.205 464.528 583.09 463.938C583.976 463.446 585.058 463.249 586.14 463.347C587.223 463.446 588.403 463.839 589.584 464.43L591.06 461.773L586.239 459.117L585.255 460.396L584.468 459.904L586.928 455.378L587.715 455.772L587.124 457.247L597.258 462.855L598.143 461.675L598.931 462.167L596.471 466.594L595.684 466.102L596.274 464.626L591.847 462.167L590.371 464.823C591.65 465.807 592.437 466.693 593.027 467.676ZM592.339 469.644C591.748 468.562 590.568 467.48 588.797 466.496C587.223 465.61 585.747 465.217 584.468 465.315C583.189 465.414 582.205 466.004 581.615 467.086C581.024 468.168 581.024 469.152 581.615 470.234C582.205 471.317 583.386 472.399 585.255 473.383C586.829 474.268 588.207 474.662 589.486 474.662C590.765 474.662 591.65 474.071 592.24 472.989C592.831 471.907 592.831 470.825 592.339 469.644Z"
      fill="#313131" />
    <path
      d="M578.171 482.828C577.384 482.926 576.302 482.926 575.023 482.926C574.137 482.926 573.449 482.926 572.957 482.926C572.563 482.926 572.268 483.025 572.071 483.221L571.481 483.713L570.694 483.221L571.874 481.254C572.071 481.057 572.366 480.86 573.055 480.86C573.645 480.86 574.531 480.86 575.712 480.86C576.991 480.959 577.974 480.959 578.762 480.86C579.45 480.86 579.942 480.663 580.139 480.27L580.729 479.286L576.203 476.433L575.121 477.712L574.334 477.22L577.089 472.891L577.876 473.383L577.187 474.76L587.026 480.959L588.01 479.778L588.797 480.27L586.14 484.5L585.353 484.008L585.944 482.533L581.418 479.679L580.532 481.057L583.09 487.157L584.074 485.976L584.861 486.468L582.402 490.404L581.615 489.912L582.205 488.534L579.745 482.238C579.647 482.533 578.958 482.729 578.171 482.828Z"
      fill="#313131" />
    <path
      d="M569.513 486.37C570.497 485.976 571.579 485.878 572.662 486.173C573.842 486.37 574.924 486.96 576.105 487.747C577.286 488.534 578.171 489.518 578.762 490.6C579.352 491.683 579.647 492.765 579.549 493.847C579.45 494.929 579.155 496.012 578.466 496.995C577.384 498.57 576.007 499.455 574.432 499.652C572.858 499.849 571.186 499.258 569.316 498.078C568.136 497.291 567.25 496.307 566.66 495.224C566.07 494.142 565.775 493.06 565.873 491.879C565.873 490.699 566.266 489.715 566.955 488.731C567.644 487.452 568.529 486.763 569.513 486.37ZM578.073 492.962C577.581 491.781 576.499 490.6 574.826 489.518C573.252 488.436 571.874 487.944 570.595 487.846C569.316 487.747 568.333 488.239 567.644 489.223C566.955 490.207 566.857 491.289 567.349 492.47C567.841 493.65 568.923 494.831 570.595 496.012C572.17 497.094 573.547 497.586 574.826 497.684C576.105 497.684 577.089 497.192 577.778 496.208C578.466 495.224 578.565 494.142 578.073 492.962Z"
      fill="#313131" />
    <path
      d="M571.973 503.784L573.055 502.702L573.842 503.292L572.366 505.26C572.071 505.555 571.776 506.047 571.481 506.637C571.186 507.129 570.891 507.523 570.694 507.72C569.612 509.097 568.726 509.884 567.841 510.179C566.955 510.474 566.07 510.278 565.283 509.687C564.594 509.195 564.102 508.507 563.905 507.72C563.708 506.933 563.807 506.145 564.2 505.358C563.512 506.342 562.725 506.933 561.839 507.129C560.954 507.326 560.068 507.129 559.281 506.539C558.297 505.752 557.707 504.768 557.608 503.587C557.51 502.407 558.1 500.931 559.281 499.357C559.576 498.963 559.871 498.668 560.068 498.373C560.658 497.586 561.052 497.192 561.15 496.996L562.626 495.028L563.315 495.618L562.528 496.996L571.973 503.784ZM560.166 499.849C559.379 500.833 559.084 501.718 559.183 502.505C559.281 503.292 559.675 503.981 560.462 504.571C561.249 505.162 561.937 505.358 562.626 505.26C563.315 505.162 563.905 504.67 564.594 503.784C565.381 502.8 565.873 502.112 565.971 501.816L561.544 498.471C561.15 498.471 560.757 498.963 560.166 499.849ZM566.168 503.194L565.578 503.981C565.086 504.67 564.889 505.358 564.987 506.047C565.086 506.736 565.479 507.326 566.266 507.818C566.955 508.31 567.644 508.507 568.234 508.408C568.824 508.31 569.415 507.818 570.103 506.933C570.399 506.539 570.595 506.145 570.891 505.752L571.087 505.457L566.955 502.308C566.66 502.505 566.463 502.8 566.168 503.194Z"
      fill="#313131" />
    <g style="mix-blend-mode:overlay">
      <circle cx="50.3176" cy="159.067" r="2" transform="rotate(-15 50.3176 159.067)" fill="#313131" />
    </g>
    <g style="mix-blend-mode:overlay">
      <circle cx="434.4" cy="29.619" r="2" transform="rotate(-15 434.4 29.619)" fill="#313131" />
    </g>
  </g>
</svg>