<svg xmlns="http://www.w3.org/2000/svg" enable-background="new 0 0 512 512" viewBox="0 0 512 512" id="whats-app">
  <path fill="#020202" d="M262.6,16C139,16,38.9,116.1,38.9,239.7c0,49.8,16.3,95.8,43.8,133L25.7,496l14.9-6.9l114.8-53
		c31.8,17.4,68.3,27.3,107.1,27.3c123.5,0,223.7-100.1,223.7-223.7C486.3,116.1,386.1,16,262.6,16z M381.9,335.2
		c-1.3,6.2-4,12.1-7.9,17.3c-4.8,6.4-11,11.2-18.1,14.2s-14.9,4.2-22.7,3.2c-20.9-2.5-41.1-9.2-59.2-20
		c-20.9-12.4-49-31.7-70.2-59.3c-22.6-26.5-34.9-57.5-42.7-80.6c-6.7-19.9-9.1-41.1-7.2-62c0.7-7.9,3.5-15.3,7.9-21.6
		c4.4-6.3,10.5-11.4,17.7-14.7c5.9-2.8,12.3-4.1,18.6-4.1c9,0,20-0.1,27.6,5.3c11.8,8.3,16.8,24.7,16.8,39.1c0,1.3-0.1,2.7-0.2,4
		c-0.7,7.9-1.4,14.8-5.9,21.1c-4.4,6.3-12.5,11.8-19.7,15.2c5.5,29.6,15,51.6,28.1,65.8c5.6,7.8,13.2,15.2,22.9,22.1
		c9.7,6.9,21.4,13.2,35.3,19c4.8-6.3,11.9-13.1,19-16.1c7-3,14-2.3,21.8-1.3c1.3,0.2,2.7,0.4,4,0.7c14,3,29,11.3,34.7,24.6
		C386.1,315.7,383.8,326.4,381.9,335.2z"></path>
</svg>
