<svg xmlns="http://www.w3.org/2000/svg" width="24" height="24" fill="none" viewBox="0 0 24 24" id="send">
  <path fill="#000" fill-rule="evenodd" d="M1 3.21918C1 1.99356 1.99356 1 3.21918 1C3.55555 1 3.88752 1.07647 4.18999 1.22362L21.5382 9.6633C22.4325 10.0983 23 11.0056 23 12C23 12.9944 22.4325 13.9017 21.5382 14.3367L4.18999 22.7764C3.88752 22.9235 3.55555 23 3.21918 23C1.99356 23 1 22.0064 1 20.7808C1 20.588 0.98678 20.3926 1.04422 20.2059L3.04422 13.7059C3.1472 13.3712 3.41775 13.1148 3.75747 13.0299L7.8769 12L3.75747 10.9701C3.41775 10.8852 3.1472 10.6288 3.04422 10.2941L1.04422 3.79409C0.986779 3.6074 1 3.41196 1 3.21918ZM3.21918 3C3.09813 3 3 3.09813 3 3.21918V3.34963L4.78987 9.16669L12.2425 11.0299C12.6877 11.1411 13 11.5411 13 12C13 12.4589 12.6877 12.8589 12.2425 12.9701L4.78987 14.8333L3 20.6504V20.7808C3 20.9019 3.09813 21 3.21918 21C3.2524 21 3.28519 20.9924 3.31506 20.9779L20.6633 12.5382C20.8693 12.438 21 12.2291 21 12C21 11.7709 20.8693 11.562 20.6633 11.4618L3.31506 3.02209C3.28519 3.00755 3.2524 3 3.21918 3Z" clip-rule="evenodd"></path>
</svg>
