<svg width="180" height="32" viewBox="0 0 180 32" fill="none" xmlns="http://www.w3.org/2000/svg">
<path d="M83.0772 32V27.4286H78.4618V22.8571H73.8464V9.14285H78.4618V4.57143H83.0772V0H101.539V4.57143H106.154V9.14285H96.9234V4.57143H87.6926V9.14285H83.0772V22.8571H87.6926V27.4286H96.9234V22.8571H106.154V27.4286H101.539V32H83.0772Z" fill="#87F29A"/>
<path d="M36.9229 32V0H69.2306V4.57143H46.1536V13.7143H64.6152V18.2857H46.1536V27.4286H69.2306V32H36.9229Z" fill="#87F29A"/>
<path d="M0 32V0H27.6924V4.57143H9.23078V13.7143H27.6924V18.2857H32.3077V27.4286H27.6924V32H0ZM9.23078 27.4286H23.077V18.2857H9.23078V27.4286Z" fill="#87F29A"/>
<path d="M161.539 32V4.57143H152.308V0H180V4.57143H170.77V32H161.539Z" fill="white"/>
<path d="M115.385 32V27.4286H124.616V4.57143H115.385V0H143.078V4.57143H133.847V27.4286H143.078V32H115.385Z" fill="white"/>
</svg>
