<svg width="210" height="245" viewBox="0 0 210 245" fill="none" xmlns="http://www.w3.org/2000/svg">
<path d="M71.8062 201.985H52.363V196.996H45.2947V191.194H38.9751V180.204H71.8062V201.985Z" fill="#332A74"/>
<path d="M138.172 201.985H157.616V196.996H164.684V191.194H171.003V180.204H138.172V201.985Z" fill="#332A74"/>
<path d="M64.8263 158.181H41.3094V164.203H32.7659V171.237H25.0811V184.534H64.8263V158.181Z" fill="#B22980"/>
<path d="M65.355 175.281H12.5522V184.534H65.355V175.281Z" fill="#5D3896"/>
<path d="M145.153 158.181H168.67V164.203H177.236V171.237H184.898V184.534H145.153V158.181Z" fill="#B22980"/>
<path d="M197.428 175.281H144.625V184.534H197.428V175.281Z" fill="#5D3896"/>
<path d="M140.265 187.613H66.8523V197.437H72.3132V204.756H78.1923V212.866H81.6494V228.384H89.4443V238.736H95.94V245H111.2V238.736H119.545V228.384H125.49V212.866H128.925V204.756H134.805V197.437H140.265V187.613Z" fill="#EA4325"/>
<path d="M124.147 187.613H82.9705V197.437H86.0311V204.756H89.3341V212.866H91.2718V228.384H95.6317V238.736H99.2869V245H107.852V238.736H112.521V228.384H115.868V212.866H117.783V204.756H121.086V197.437H124.147V187.613Z" fill="#FFE500"/>
<path d="M111.553 187.613H95.5664V197.437H96.7555V204.756H98.0326V212.866H98.7812V228.384H100.477V238.736H101.908V245H105.233V238.736H107.039V228.384H108.338V212.866H109.086V204.756H110.364V197.437H111.553V187.613Z" fill="#FFF8AC"/>
<path d="M76.1673 209.262H69.6936V214.845H76.1673V209.262Z" fill="#EA4325"/>
<path d="M84.7988 236.099H81.4958V238.956H84.7988V236.099Z" fill="#EA4325"/>
<path d="M77.8846 219.262H74.4275V222.251H77.8846V219.262Z" fill="#FFE500"/>
<path d="M130.975 214.866H137.448V209.283H130.975V214.866Z" fill="#EA4325"/>
<path d="M122.343 238.955H125.646V236.098H122.343V238.955Z" fill="#EA4325"/>
<path d="M129.236 222.228H132.693V219.239H129.236V222.228Z" fill="#FFE500"/>
<path d="M74.1408 179.149L74.0527 191.325L135.707 191.655L135.795 179.479L74.1408 179.149Z" fill="#505CA9"/>
<path d="M56.6354 165.391L56.4812 184.513L153.367 185.018L153.499 165.919L56.6354 165.391Z" fill="#B22980"/>
<path d="M23.6921 172.467L23.6921 136.509H10.2382L10.2382 172.467H23.6921Z" fill="#F04C5A"/>
<path d="M23.7148 172.467V148.29H10.2609L10.2609 172.467H23.7148Z" fill="#332A74"/>
<path d="M27.7891 180.818V171.125H6.16592V180.818H27.7891Z" fill="#2E498F"/>
<path d="M33.9761 191.698V176.466H-1.14441e-05V191.698H33.9761Z" fill="#3C3485"/>
<path d="M199.739 172.444V136.486H186.285V172.444H199.739Z" fill="#F04C5A"/>
<path d="M199.739 172.467V148.29H186.285V172.467H199.739Z" fill="#332A74"/>
<path d="M203.834 180.818V171.125H182.211V180.818H203.834Z" fill="#2E498F"/>
<path d="M210 191.699V176.468H176.024V191.699H210Z" fill="#3C3485"/>
<path d="M151.693 41.0791H58.3079V164.711H151.693V41.0791Z" fill="#B22980"/>
<g style="mix-blend-mode:multiply">
<path d="M151.693 41.0791H103.448V164.711H151.693V41.0791Z" fill="#B22980"/>
</g>
<path d="M135.201 18.9248H74.8013V154.602H135.201V18.9248Z" fill="#D8217E"/>
<path d="M120.381 0H89.5974V150.447H120.381V0Z" fill="#DB6A96"/>
<path d="M129.475 49.5647H122.847V40.3555H106.266H105.804H89.2231V49.5647H80.5034V67.5875H89.2231V76.7968H105.804H106.266H122.847V67.5875H129.475V49.5647Z" fill="#332A74"/>
<path d="M96.4679 82.3589H113.511V58.8193H96.4679V82.3589Z" fill="#332A74"/>
<path d="M96.4679 58.312H113.511V34.7724H96.4679V58.312Z" fill="#332A74"/>
<path d="M118.263 53.5574H114.671V48.5425H105.678H105.427H96.4592V53.5574H91.7368V63.3857H96.4592V68.4007H105.427H105.678H114.671V63.3857H118.263V53.5574Z" fill="#87F29A"/>
</svg>
