<svg xmlns="http://www.w3.org/2000/svg">
  <symbol id="icon-airplane" viewBox="0 0 16 16" fill="none" xmlns="http://www.w3.org/2000/svg">
    <path fill-rule="evenodd" clip-rule="evenodd"
      d="M13.7082 2.30972C13.2407 1.84078 12.4192 1.95069 11.9491 2.42188L9.55673 4.80861L5.11941 3.15044C4.69436 3.04052 4.26632 2.89833 3.73923 3.42693C3.47024 3.69629 2.91126 4.25677 3.73923 5.08623L6.78172 7.57725L4.80204 9.55282L2.95478 9.09099C2.68092 9.02047 2.49635 9.07562 2.35567 9.23093C2.28476 9.31947 1.77042 9.70062 2.12907 10.06L4.27682 11.731L5.94776 13.8787C6.20736 14.1391 6.44858 13.9766 6.77834 13.6634C6.9873 13.454 6.94229 13.3464 6.87926 13.0414L6.46209 11.2069L8.42827 9.23393L10.9155 12.2772C11.7431 13.1066 12.3025 12.5458 12.5715 12.2772C13.0989 11.7482 12.9571 11.3198 12.8472 10.894L11.2029 6.44917L13.5855 4.0583C14.0556 3.58749 14.176 2.77829 13.7082 2.30972Z"
      fill="#242424" />
  </symbol>
  <symbol id="icon-burger" viewBox="0 0 36 14" fill="none" xmlns="http://www.w3.org/2000/svg">
    <path fill-rule="evenodd" clip-rule="evenodd"
      d="M0 0.8C0 0.358172 0.447715 0 1 0H35C35.5523 0 36 0.358172 36 0.8C36 1.24183 35.5523 1.6 35 1.6H1C0.447715 1.6 0 1.24183 0 0.8Z"
      fill="#242424" />
    <path fill-rule="evenodd" clip-rule="evenodd"
      d="M0 12.4C0 11.9581 0.447715 11.6 1 11.6H35C35.5523 11.6 36 11.9581 36 12.4C36 12.8418 35.5523 13.2 35 13.2H1C0.447715 13.2 0 12.8418 0 12.4Z"
      fill="#242424" />
  </symbol>
  <symbol id="icon-favorites" viewBox="0 0 22 20" xmlns="http://www.w3.org/2000/svg">
    <path
      d="M11 20C10.6868 20 10.3848 19.8841 10.1495 19.6734C9.26077 18.8794 8.40392 18.1331 7.64793 17.4749L7.64407 17.4714C5.42766 15.5415 3.5137 13.8747 2.18201 12.2329C0.693375 10.3974 0 8.65709 0 6.75591C0 4.90876 0.619858 3.20464 1.74527 1.95726C2.88411 0.695126 4.44676 0 6.14587 0C7.4158 0 8.57881 0.410249 9.60251 1.21926C10.1191 1.62762 10.5874 2.1274 11 2.71036C11.4127 2.1274 11.8809 1.62762 12.3977 1.21926C13.4214 0.410249 14.5844 0 15.8543 0C17.5532 0 19.1161 0.695126 20.2549 1.95726C21.3803 3.20464 22 4.90876 22 6.75591C22 8.65709 21.3068 10.3974 19.8182 12.2327C18.4865 13.8747 16.5727 15.5413 14.3566 17.4711C13.5993 18.1304 12.7411 18.8778 11.8503 19.6738C11.6152 19.8841 11.313 20 11 20ZM6.14587 1.31685C4.81099 1.31685 3.5847 1.86121 2.6926 2.84979C1.78723 3.85329 1.28856 5.24046 1.28856 6.75591C1.28856 8.35489 1.87015 9.78493 3.17415 11.3927C4.43426 12.9464 6.30845 14.5785 8.4785 16.4682L8.47978 16.4693L8.48381 16.4727C9.24265 17.1336 10.1029 17.8827 10.9982 18.6826C11.8988 17.8812 12.7604 17.1308 13.5207 16.469C13.5227 16.4673 13.5246 16.4656 13.5266 16.4638C15.6945 14.5758 17.5668 12.9453 18.826 11.3927C20.1299 9.78493 20.7114 8.35489 20.7114 6.75591C20.7114 5.24046 20.2128 3.85329 19.3074 2.84979C18.4155 1.86121 17.189 1.31685 15.8543 1.31685C14.8764 1.31685 13.9786 1.63448 13.1859 2.26083C12.4794 2.81926 11.9873 3.52519 11.6987 4.01914C11.5504 4.27315 11.2892 4.42476 11 4.42476C10.7108 4.42476 10.4496 4.27315 10.3013 4.01914C10.0129 3.52519 9.52077 2.81926 8.81413 2.26083C8.02139 1.63448 7.12358 1.31685 6.14587 1.31685Z"
      fill="currentColor" />
    <path
      d="M6.14587 1.31685C4.81099 1.31685 3.5847 1.86121 2.6926 2.84979C1.78723 3.85329 1.28856 5.24046 1.28856 6.75591C1.28856 8.35489 1.87015 9.78493 3.17415 11.3927C4.43426 12.9464 6.30845 14.5785 8.4785 16.4682L8.47978 16.4693L8.48381 16.4727C9.24265 17.1336 10.1029 17.8827 10.9982 18.6826C11.8988 17.8812 12.7604 17.1308 13.5207 16.469L13.5266 16.4638C15.6945 14.5758 17.5668 12.9453 18.826 11.3927C20.1299 9.78493 20.7114 8.35489 20.7114 6.75591C20.7114 5.24046 20.2128 3.85329 19.3074 2.84979C18.4155 1.86121 17.189 1.31685 15.8543 1.31685C14.8764 1.31685 13.9786 1.63448 13.1859 2.26083C12.4794 2.81926 11.9873 3.52519 11.6987 4.01914C11.5504 4.27315 11.2892 4.42476 11 4.42476C10.7108 4.42476 10.4496 4.27315 10.3013 4.01914C10.0129 3.52519 9.52077 2.81926 8.81413 2.26083C8.02139 1.63448 7.12358 1.31685 6.14587 1.31685Z" />
  </symbol>
  <symbol id="icon-favorites-bg" viewBox="0 0 40 40" fill="none" xmlns="http://www.w3.org/2000/svg">
    <path
      d="M20 30C19.6868 30 19.3848 29.8841 19.1495 29.6734C18.2608 28.8794 17.4039 28.1331 16.6479 27.4749L16.6441 27.4714C14.4277 25.5415 12.5137 23.8747 11.182 22.2329C9.69337 20.3974 9 18.6571 9 16.7559C9 14.9088 9.61986 13.2046 10.7453 11.9573C11.8841 10.6951 13.4468 10 15.1459 10C16.4158 10 17.5788 10.4102 18.6025 11.2193C19.1191 11.6276 19.5874 12.1274 20 12.7104C20.4127 12.1274 20.8809 11.6276 21.3977 11.2193C22.4214 10.4102 23.5844 10 24.8543 10C26.5532 10 28.1161 10.6951 29.2549 11.9573C30.3803 13.2046 31 14.9088 31 16.7559C31 18.6571 30.3068 20.3974 28.8182 22.2327C27.4865 23.8747 25.5727 25.5413 23.3566 27.4711C22.5993 28.1304 21.7411 28.8778 20.8503 29.6738C20.6152 29.8841 20.313 30 20 30ZM15.1459 11.3168C13.811 11.3168 12.5847 11.8612 11.6926 12.8498C10.7872 13.8533 10.2886 15.2405 10.2886 16.7559C10.2886 18.3549 10.8701 19.7849 12.1741 21.3927C13.4343 22.9464 15.3084 24.5785 17.4785 26.4682L17.4798 26.4693L17.4838 26.4727C18.2426 27.1336 19.1029 27.8827 19.9982 28.6826C20.8988 27.8812 21.7604 27.1308 22.5207 26.469C22.5227 26.4673 22.5246 26.4656 22.5266 26.4638C24.6945 24.5758 26.5668 22.9453 27.826 21.3927C29.1299 19.7849 29.7114 18.3549 29.7114 16.7559C29.7114 15.2405 29.2128 13.8533 28.3074 12.8498C27.4155 11.8612 26.189 11.3168 24.8543 11.3168C23.8764 11.3168 22.9786 11.6345 22.1859 12.2608C21.4794 12.8193 20.9873 13.5252 20.6987 14.0191C20.5504 14.2731 20.2892 14.4248 20 14.4248C19.7108 14.4248 19.4496 14.2731 19.3013 14.0191C19.0129 13.5252 18.5208 12.8193 17.8141 12.2608C17.0214 11.6345 16.1236 11.3168 15.1459 11.3168Z"
      fill="#9E5FC4" />
    <path
      d="M15.1459 11.3168C13.811 11.3168 12.5847 11.8612 11.6926 12.8498C10.7872 13.8533 10.2886 15.2405 10.2886 16.7559C10.2886 18.3549 10.8701 19.7849 12.1741 21.3927C13.4343 22.9464 15.3084 24.5785 17.4785 26.4682L17.4798 26.4693L17.4838 26.4727C18.2426 27.1336 19.1029 27.8827 19.9982 28.6826C20.8988 27.8812 21.7604 27.1308 22.5207 26.469L22.5266 26.4638C24.6945 24.5758 26.5668 22.9453 27.826 21.3927C29.1299 19.7849 29.7114 18.3549 29.7114 16.7559C29.7114 15.2405 29.2128 13.8533 28.3074 12.8498C27.4155 11.8612 26.189 11.3168 24.8543 11.3168C23.8764 11.3168 22.9786 11.6345 22.1859 12.2608C21.4794 12.8193 20.9873 13.5252 20.6987 14.0191C20.5504 14.2731 20.2892 14.4248 20 14.4248C19.7108 14.4248 19.4496 14.2731 19.3013 14.0191C19.0129 13.5252 18.5208 12.8193 17.8141 12.2608C17.0214 11.6345 16.1236 11.3168 15.1459 11.3168Z"
      fill="#9E5FC4" />
  </symbol>
  <symbol id="icon-logo" viewBox="0 0 140 40" fill="none" xmlns="http://www.w3.org/2000/svg">
    <path d="M139.568 14.27V26H136.984V14.27H139.568Z" fill="black" />
    <path
      d="M131.1 14.27V23.042C131.1 23.3253 131.179 23.5406 131.338 23.688C131.496 23.8353 131.723 23.909 132.018 23.909H136.115L136.234 25.864C135.429 25.9546 134.585 26.0056 133.701 26.017C132.828 26.0396 131.955 26.051 131.083 26.051C130.233 26.051 129.587 25.8243 129.145 25.371C128.714 24.9063 128.499 24.317 128.499 23.603V14.27H131.1Z"
      fill="black" />
    <path
      d="M123.716 14.27C123.932 14.27 124.119 14.3323 124.277 14.457C124.447 14.5816 124.561 14.746 124.617 14.95L128.017 26H125.365L122.968 17.381C122.923 17.1883 122.878 16.9956 122.832 16.803C122.787 16.599 122.747 16.4063 122.713 16.225H122.254C122.22 16.4063 122.181 16.599 122.135 16.803C122.101 16.9956 122.056 17.1883 121.999 17.381L119.602 26H116.933L120.35 14.95C120.407 14.746 120.515 14.5816 120.673 14.457C120.843 14.3323 121.036 14.27 121.251 14.27L123.716 14.27ZM125.518 20.951V22.906H119.432V20.951H125.518Z"
      fill="black" />
    <path
      d="M112.366 14.134C113.386 14.134 114.197 14.2246 114.797 14.406C115.409 14.576 115.851 14.882 116.123 15.324C116.395 15.766 116.531 16.3893 116.531 17.194C116.531 18.0326 116.367 18.673 116.038 19.115C115.721 19.5456 115.194 19.795 114.457 19.863V19.965C115.364 20.0443 115.999 20.3503 116.361 20.883C116.724 21.4043 116.905 22.1353 116.905 23.076C116.905 23.8806 116.764 24.504 116.48 24.946C116.208 25.388 115.778 25.6996 115.188 25.881C114.61 26.051 113.851 26.136 112.91 26.136C112.151 26.136 111.488 26.1303 110.921 26.119C110.366 26.119 109.85 26.1076 109.374 26.085C108.898 26.0623 108.411 26.034 107.912 26L108.167 24.198C108.439 24.2093 108.961 24.2206 109.731 24.232C110.513 24.2433 111.42 24.249 112.451 24.249C112.927 24.249 113.301 24.2036 113.573 24.113C113.845 24.0223 114.032 23.858 114.134 23.62C114.248 23.3706 114.304 23.0193 114.304 22.566C114.304 22.0786 114.248 21.7103 114.134 21.461C114.021 21.2003 113.823 21.019 113.539 20.917C113.267 20.815 112.888 20.7583 112.4 20.747H108.15V19.098H112.366C112.786 19.0866 113.114 19.0413 113.352 18.962C113.602 18.8826 113.777 18.7296 113.879 18.503C113.981 18.2763 114.032 17.959 114.032 17.551C114.032 17.1316 113.976 16.8143 113.862 16.599C113.76 16.3723 113.579 16.2193 113.318 16.14C113.058 16.0606 112.695 16.021 112.23 16.021C111.596 16.021 111.035 16.021 110.547 16.021C110.06 16.021 109.624 16.0266 109.238 16.038C108.853 16.038 108.496 16.0493 108.167 16.072L107.912 14.27C108.366 14.2246 108.802 14.1963 109.221 14.185C109.652 14.1623 110.117 14.151 110.615 14.151C111.114 14.1396 111.698 14.134 112.366 14.134ZM110.462 14.27V26H107.912V14.27H110.462Z"
      fill="black" />
    <path
      d="M103.096 14.27C103.311 14.27 103.498 14.3323 103.657 14.457C103.827 14.5816 103.94 14.746 103.997 14.95L107.397 26H104.745L102.348 17.381C102.302 17.1883 102.257 16.9956 102.212 16.803C102.166 16.599 102.127 16.4063 102.093 16.225H101.634C101.6 16.4063 101.56 16.599 101.515 16.803C101.481 16.9956 101.435 17.1883 101.379 17.381L98.9818 26H96.3128L99.7298 14.95C99.7865 14.746 99.8941 14.5816 100.053 14.457C100.223 14.3323 100.415 14.27 100.631 14.27L103.096 14.27ZM104.898 20.951V22.906H98.8118V20.951H104.898Z"
      fill="black" />
    <path
      d="M95.8252 14.27V25.065C95.8252 25.6883 95.5136 26 94.8902 26H93.4622C93.1789 26 92.9636 25.9376 92.8162 25.813C92.6689 25.677 92.5329 25.4786 92.4082 25.218L89.1612 19.064C89.0252 18.8033 88.8892 18.5143 88.7532 18.197C88.6286 17.8796 88.5209 17.5736 88.4302 17.279H88.2432C88.2772 17.585 88.3056 17.8966 88.3282 18.214C88.3509 18.52 88.3622 18.826 88.3622 19.132V26H85.8972V15.205C85.8972 14.5816 86.2146 14.27 86.8492 14.27H88.2602C88.5322 14.27 88.7362 14.338 88.8722 14.474C89.0196 14.5986 89.1612 14.7913 89.2972 15.052L92.4422 21.019C92.5782 21.2796 92.7199 21.5686 92.8672 21.886C93.0146 22.2033 93.1562 22.532 93.2922 22.872H93.4962C93.4622 22.532 93.4339 22.2033 93.4112 21.886C93.3999 21.5573 93.3942 21.2343 93.3942 20.917L93.3772 14.27H95.8252Z"
      fill="black" />
    <path d="M84.2144 14.27V26H81.6304V14.27H84.2144Z" fill="black" />
    <path
      d="M75.7461 14.27V23.042C75.7461 23.3253 75.8254 23.5406 75.9841 23.688C76.1428 23.8353 76.3694 23.909 76.6641 23.909H80.7611L80.8801 25.864C80.0754 25.9546 79.2311 26.0056 78.3471 26.017C77.4744 26.0396 76.6018 26.051 75.7291 26.051C74.8791 26.051 74.2331 25.8243 73.7911 25.371C73.3604 24.9063 73.1451 24.317 73.1451 23.603V14.27H75.7461Z"
      fill="black" />
    <path
      d="M68.3627 14.27C68.578 14.27 68.765 14.3323 68.9237 14.457C69.0937 14.5816 69.207 14.746 69.2637 14.95L72.6637 26H70.0117L67.6147 17.381C67.5693 17.1883 67.524 16.9956 67.4787 16.803C67.4333 16.599 67.3937 16.4063 67.3597 16.225H66.9007C66.8667 16.4063 66.827 16.599 66.7817 16.803C66.7477 16.9956 66.7023 17.1883 66.6457 17.381L64.2487 26H61.5797L64.9967 14.95C65.0533 14.746 65.161 14.5816 65.3197 14.457C65.4897 14.3323 65.6823 14.27 65.8977 14.27L68.3627 14.27ZM70.1647 20.951V22.906H64.0787V20.951H70.1647Z"
      fill="black" />
    <path
      d="M62.7439 14.27L59.5479 25.286C59.4912 25.49 59.3779 25.66 59.2079 25.796C59.0492 25.932 58.8566 26 58.6299 26H56.2499C56.0119 26 55.8079 25.932 55.6379 25.796C55.4792 25.66 55.3772 25.49 55.3319 25.286L52.1189 14.27H54.8049L56.9469 22.736C56.9922 22.9513 57.0376 23.1723 57.0829 23.399C57.1396 23.6143 57.1849 23.8296 57.2189 24.045H57.6609C57.6949 23.8296 57.7346 23.6086 57.7799 23.382C57.8366 23.1553 57.8932 22.9343 57.9499 22.719L60.0749 14.27H62.7439Z"
      fill="black" />
    <g clip-path="url(#clip0_1815_593)">
      <rect width="40" height="40" fill="url(#paint0_linear_1815_593)" />
      <path
        d="M12.1924 20.0948C9.34336 20.1069 6.70334 20.6851 5.41614 21.088C5.41614 21.088 17.0926 23.0695 18.0639 31.1301C9.19101 18.3372 -0.487183 33.8089 -0.487183 33.8089C1.53066 33.2796 7.30875 31.7084 11.1671 32.3712C13.8069 32.8247 16.3803 35.218 16.2692 35.1879C9.97812 36.7357 -0.0163387 64.7344 1.68077 67.0082C3.19405 68.7469 4.70896 68.1538 6.22244 67.2718C6.97157 61.338 12.8177 35.3034 19.9715 37.4051C19.9725 37.4054 19.9735 37.4048 19.9745 37.4051C20.5768 37.6112 21.1465 37.9728 21.1774 38.5253C21.2363 39.5778 20.5569 41.298 20.7173 42.4926C21.0893 45.2649 21.6321 46.2291 22.4216 47.1963C24.307 46.1365 26.1109 42.3155 26.4841 40.3343C28.1734 41.0741 30.8891 42.7876 33.1046 49.1513C34.2628 43.1879 32.5925 38.4842 27.1094 36.3955C29.4839 35.3692 39.8191 40.5626 41.0806 43.4572C42.308 38.2378 33.6263 31.8509 26.3984 32.1903C27.7842 31.8288 29.307 32.2513 30.7561 31.1842C32.7006 29.7523 34.9683 28.5192 37.0814 27.1946C29.9749 24.1035 23.4167 25.6298 22.9549 28.8292C22.592 21.7284 17.0815 20.0741 12.1923 20.0949L12.1924 20.0948Z"
        fill="white" />
    </g>
    <defs>
      <linearGradient id="paint0_linear_1815_593" x1="20" y1="0" x2="20" y2="40" gradientUnits="userSpaceOnUse">
        <stop stop-color="#FAAD66" />
        <stop offset="0.844644" stop-color="#F849C7" />
      </linearGradient>
      <clipPath id="clip0_1815_593">
        <rect width="40" height="40" fill="white" />
      </clipPath>
    </defs>
  </symbol>
  <symbol id="icon-logo-white" viewBox="0 0 140 40" fill="none" xmlns="http://www.w3.org/2000/svg">
    <path d="M139.568 14.27V26H136.984V14.27H139.568Z" fill="white" />
    <path
      d="M131.1 14.27V23.042C131.1 23.3254 131.179 23.5407 131.338 23.688C131.496 23.8354 131.723 23.909 132.018 23.909H136.115L136.234 25.864C135.429 25.9547 134.585 26.0057 133.701 26.017C132.828 26.0397 131.955 26.051 131.083 26.051C130.233 26.051 129.587 25.8244 129.145 25.371C128.714 24.9064 128.499 24.317 128.499 23.603V14.27H131.1Z"
      fill="white" />
    <path
      d="M123.716 14.27C123.932 14.27 124.119 14.3324 124.277 14.457C124.447 14.5817 124.561 14.746 124.617 14.95L128.017 26H125.365L122.968 17.381C122.923 17.1884 122.878 16.9957 122.832 16.803C122.787 16.599 122.747 16.4064 122.713 16.225H122.254C122.22 16.4064 122.181 16.599 122.135 16.803C122.101 16.9957 122.056 17.1884 121.999 17.381L119.602 26H116.933L120.35 14.95C120.407 14.746 120.515 14.5817 120.673 14.457C120.843 14.3324 121.036 14.27 121.251 14.27L123.716 14.27ZM125.518 20.951V22.906H119.432V20.951H125.518Z"
      fill="white" />
    <path
      d="M112.366 14.134C113.386 14.134 114.197 14.2247 114.797 14.406C115.409 14.576 115.851 14.882 116.123 15.324C116.395 15.766 116.531 16.3894 116.531 17.194C116.531 18.0327 116.367 18.673 116.038 19.115C115.721 19.5457 115.194 19.795 114.457 19.863V19.965C115.364 20.0444 115.999 20.3504 116.361 20.883C116.724 21.4044 116.905 22.1354 116.905 23.076C116.905 23.8807 116.764 24.504 116.48 24.946C116.208 25.388 115.778 25.6997 115.188 25.881C114.61 26.051 113.851 26.136 112.91 26.136C112.151 26.136 111.488 26.1304 110.921 26.119C110.366 26.119 109.85 26.1077 109.374 26.085C108.898 26.0624 108.411 26.034 107.912 26L108.167 24.198C108.439 24.2094 108.961 24.2207 109.731 24.232C110.513 24.2434 111.42 24.249 112.451 24.249C112.927 24.249 113.301 24.2037 113.573 24.113C113.845 24.0224 114.032 23.858 114.134 23.62C114.248 23.3707 114.304 23.0194 114.304 22.566C114.304 22.0787 114.248 21.7104 114.134 21.461C114.021 21.2004 113.823 21.019 113.539 20.917C113.267 20.815 112.888 20.7584 112.4 20.747H108.15V19.098H112.366C112.786 19.0867 113.114 19.0414 113.352 18.962C113.602 18.8827 113.777 18.7297 113.879 18.503C113.981 18.2764 114.032 17.959 114.032 17.551C114.032 17.1317 113.976 16.8144 113.862 16.599C113.76 16.3724 113.579 16.2194 113.318 16.14C113.058 16.0607 112.695 16.021 112.23 16.021C111.596 16.021 111.035 16.021 110.547 16.021C110.06 16.021 109.624 16.0267 109.238 16.038C108.853 16.038 108.496 16.0494 108.167 16.072L107.912 14.27C108.366 14.2247 108.802 14.1964 109.221 14.185C109.652 14.1624 110.117 14.151 110.615 14.151C111.114 14.1397 111.698 14.134 112.366 14.134ZM110.462 14.27V26H107.912V14.27H110.462Z"
      fill="white" />
    <path
      d="M103.096 14.27C103.311 14.27 103.498 14.3324 103.657 14.457C103.827 14.5817 103.94 14.746 103.997 14.95L107.397 26H104.745L102.348 17.381C102.302 17.1884 102.257 16.9957 102.212 16.803C102.166 16.599 102.127 16.4064 102.093 16.225H101.634C101.6 16.4064 101.56 16.599 101.515 16.803C101.481 16.9957 101.435 17.1884 101.379 17.381L98.9818 26H96.3128L99.7298 14.95C99.7865 14.746 99.8941 14.5817 100.053 14.457C100.223 14.3324 100.415 14.27 100.631 14.27L103.096 14.27ZM104.898 20.951V22.906H98.8118V20.951H104.898Z"
      fill="white" />
    <path
      d="M95.8252 14.27V25.065C95.8252 25.6884 95.5136 26 94.8902 26H93.4622C93.1789 26 92.9636 25.9377 92.8162 25.813C92.6689 25.677 92.5329 25.4787 92.4082 25.218L89.1612 19.064C89.0252 18.8034 88.8892 18.5144 88.7532 18.197C88.6286 17.8797 88.5209 17.5737 88.4302 17.279H88.2432C88.2772 17.585 88.3056 17.8967 88.3282 18.214C88.3509 18.52 88.3622 18.826 88.3622 19.132V26H85.8972V15.205C85.8972 14.5817 86.2146 14.27 86.8492 14.27H88.2602C88.5322 14.27 88.7362 14.338 88.8722 14.474C89.0196 14.5987 89.1612 14.7914 89.2972 15.052L92.4422 21.019C92.5782 21.2797 92.7199 21.5687 92.8672 21.886C93.0146 22.2034 93.1562 22.532 93.2922 22.872H93.4962C93.4622 22.532 93.4339 22.2034 93.4112 21.886C93.3999 21.5574 93.3942 21.2344 93.3942 20.917L93.3772 14.27H95.8252Z"
      fill="white" />
    <path d="M84.2144 14.27V26H81.6304V14.27H84.2144Z" fill="white" />
    <path
      d="M75.7461 14.27V23.042C75.7461 23.3254 75.8254 23.5407 75.9841 23.688C76.1428 23.8354 76.3694 23.909 76.6641 23.909H80.7611L80.8801 25.864C80.0754 25.9547 79.2311 26.0057 78.3471 26.017C77.4744 26.0397 76.6018 26.051 75.7291 26.051C74.8791 26.051 74.2331 25.8244 73.7911 25.371C73.3604 24.9064 73.1451 24.317 73.1451 23.603V14.27H75.7461Z"
      fill="white" />
    <path
      d="M68.3627 14.27C68.578 14.27 68.765 14.3324 68.9237 14.457C69.0937 14.5817 69.207 14.746 69.2637 14.95L72.6637 26H70.0117L67.6147 17.381C67.5693 17.1884 67.524 16.9957 67.4787 16.803C67.4333 16.599 67.3937 16.4064 67.3597 16.225H66.9007C66.8667 16.4064 66.827 16.599 66.7817 16.803C66.7477 16.9957 66.7023 17.1884 66.6457 17.381L64.2487 26H61.5797L64.9967 14.95C65.0533 14.746 65.161 14.5817 65.3197 14.457C65.4897 14.3324 65.6823 14.27 65.8977 14.27L68.3627 14.27ZM70.1647 20.951V22.906H64.0787V20.951H70.1647Z"
      fill="white" />
    <path
      d="M62.7439 14.27L59.5479 25.286C59.4912 25.49 59.3779 25.66 59.2079 25.796C59.0492 25.932 58.8566 26 58.6299 26H56.2499C56.0119 26 55.8079 25.932 55.6379 25.796C55.4792 25.66 55.3772 25.49 55.3319 25.286L52.1189 14.27H54.8049L56.9469 22.736C56.9922 22.9514 57.0376 23.1724 57.0829 23.399C57.1396 23.6144 57.1849 23.8297 57.2189 24.045H57.6609C57.6949 23.8297 57.7346 23.6087 57.7799 23.382C57.8366 23.1554 57.8932 22.9344 57.9499 22.719L60.0749 14.27H62.7439Z"
      fill="white" />
    <g clip-path="url(#clip0_1815_594)">
      <rect width="40" height="40" fill="url(#paint0_linear_1815_594)" />
      <path
        d="M12.1924 20.0947C9.34336 20.1069 6.70334 20.6851 5.41614 21.088C5.41614 21.088 17.0926 23.0695 18.0639 31.1301C9.19101 18.3372 -0.487183 33.8089 -0.487183 33.8089C1.53066 33.2795 7.30875 31.7084 11.1671 32.3712C13.8069 32.8246 16.3803 35.218 16.2692 35.1878C9.97812 36.7356 -0.0163387 64.7344 1.68077 67.0081C3.19405 68.7469 4.70896 68.1538 6.22244 67.2717C6.97157 61.3379 12.8177 35.3034 19.9715 37.405C19.9725 37.4053 19.9735 37.4047 19.9745 37.405C20.5768 37.6112 21.1465 37.9727 21.1774 38.5252C21.2363 39.5777 20.5569 41.2979 20.7173 42.4926C21.0893 45.2648 21.6321 46.2291 22.4216 47.1962C24.307 46.1364 26.1109 42.3155 26.4841 40.3343C28.1734 41.0741 30.8891 42.7875 33.1046 49.1512C34.2628 43.1879 32.5925 38.4841 27.1094 36.3955C29.4839 35.3692 39.8191 40.5626 41.0806 43.4571C42.308 38.2377 33.6263 31.8509 26.3984 32.1903C27.7842 31.8287 29.307 32.2512 30.7561 31.1841C32.7006 29.7523 34.9683 28.5191 37.0814 27.1945C29.9749 24.1035 23.4167 25.6297 22.9549 28.8292C22.592 21.7283 17.0815 20.0741 12.1923 20.0948L12.1924 20.0947Z"
        fill="white" />
    </g>
    <defs>
      <linearGradient id="paint0_linear_1815_594" x1="20" y1="0" x2="20" y2="40" gradientUnits="userSpaceOnUse">
        <stop stop-color="#FAAD66" />
        <stop offset="0.844644" stop-color="#F849C7" />
      </linearGradient>
      <clipPath id="clip0_1815_594">
        <rect width="40" height="40" fill="white" />
      </clipPath>
    </defs>
  </symbol>
  <symbol id="icon-send" viewBox="0 0 12 12" fill="none" xmlns="http://www.w3.org/2000/svg">
    <path
      d="M10.5263 0.629971L1.00125 3.58122C0.824809 3.62805 0.668205 3.73061 0.554746 3.87362C0.441287 4.01663 0.377038 4.19245 0.37156 4.37492C0.366081 4.55739 0.419667 4.73675 0.524342 4.88631C0.629017 5.03587 0.779186 5.14764 0.952501 5.20497L5.2725 6.65247C5.28825 6.65846 5.30265 6.6675 5.31488 6.67909C5.32711 6.69068 5.33692 6.70457 5.34375 6.71997L6.93375 10.845C6.99809 11.0107 7.11165 11.1527 7.25915 11.2519C7.40665 11.3512 7.58101 11.4028 7.75875 11.4H7.78125C7.96198 11.3994 8.13793 11.3418 8.28404 11.2354C8.43015 11.1291 8.53897 10.9793 8.595 10.8075L11.625 1.70997C11.6725 1.56431 11.6795 1.40847 11.6451 1.25916C11.6107 1.10986 11.5364 0.97272 11.43 0.862471C11.3162 0.743008 11.1712 0.657882 11.0114 0.616779C10.8517 0.575676 10.6836 0.580247 10.5263 0.629971Z"
      fill="currentColor" />
  </symbol>
  <symbol id="icon-sun" viewBox="0 0 16 16" fill="none" xmlns="http://www.w3.org/2000/svg">
    <g clip-path="url(#clip0_1796_433)">
      <path
        d="M12.1007 8.03041C12.1007 10.2094 10.3289 11.9809 8.15073 11.9809C5.97186 11.9809 4.1999 10.2088 4.1999 8.03041C4.1999 5.85187 5.97219 4.07996 8.15073 4.07996C10.3286 4.0799 12.1007 5.85214 12.1007 8.03041ZM8.15073 2.57626C8.36862 2.57626 8.54566 2.39911 8.54566 2.18117V0.534666C8.54566 0.316118 8.36901 0.139572 8.15073 0.139572C7.93218 0.139572 7.75531 0.316391 7.75531 0.534666V2.18117C7.75531 2.39911 7.93185 2.57626 8.15073 2.57626ZM12.0824 4.58433C12.1835 4.58433 12.2846 4.54588 12.3615 4.46871L13.777 3.05356C13.9313 2.89867 13.9313 2.64829 13.777 2.49428C13.6227 2.34054 13.373 2.34054 13.2187 2.49428L11.8032 3.91008C11.6489 4.06475 11.6489 4.31464 11.8032 4.46871C11.8804 4.54593 11.9812 4.58433 12.0824 4.58433ZM3.30908 4.46876C3.38641 4.5456 3.48776 4.58438 3.58822 4.58438C3.68957 4.58438 3.79069 4.54593 3.86803 4.46876C4.02237 4.31442 4.02237 4.06481 3.86803 3.91014L2.45195 2.49433C2.29761 2.34059 2.04799 2.34059 1.89365 2.49433C1.73931 2.64867 1.73931 2.89878 1.89365 3.05361L3.30908 4.46876ZM7.83532 13.424C7.6171 13.424 7.44056 13.6013 7.44056 13.819V15.4654C7.44056 15.6834 7.61738 15.8605 7.83532 15.8605C8.05327 15.8605 8.23085 15.6838 8.23085 15.4654V13.819C8.23085 13.6013 8.05354 13.424 7.83532 13.424ZM3.62388 11.5316L2.20846 12.947C2.05412 13.1014 2.05412 13.3517 2.20846 13.5053C2.28579 13.5826 2.38714 13.6213 2.48826 13.6213C2.58955 13.6213 2.69007 13.5829 2.76741 13.5053L4.18289 12.0899C4.33723 11.9356 4.33723 11.6853 4.18289 11.5316C4.02849 11.3776 3.77822 11.3776 3.62388 11.5316ZM12.6768 11.5316C12.5224 11.3776 12.2725 11.3776 12.1181 11.5316C11.9638 11.686 11.9638 11.9356 12.1181 12.0899L13.5336 13.5053C13.6107 13.5826 13.7119 13.6213 13.8134 13.6213C13.9145 13.6213 14.0151 13.5829 14.0922 13.5053C14.2466 13.351 14.2466 13.1014 14.0922 12.947L12.6768 11.5316ZM2.56833 8.03041C2.56833 7.81186 2.39064 7.63531 2.17274 7.63531H0.394766C0.176545 7.63531 0 7.81186 0 8.03041C0 8.24879 0.176819 8.4255 0.394766 8.4255H2.1728C2.39102 8.42545 2.56833 8.24879 2.56833 8.03041ZM15.6049 7.63531H13.4978C13.2797 7.63531 13.103 7.81186 13.103 8.03041C13.103 8.24879 13.2797 8.4255 13.4978 8.4255H15.6049C15.823 8.4255 16 8.24885 16 8.03041C16 7.8118 15.823 7.63531 15.6049 7.63531Z"
        fill="#242424" />
    </g>
    <defs>
      <clipPath id="clip0_1796_433">
        <rect width="16" height="16" fill="white" />
      </clipPath>
    </defs>
  </symbol>
  <symbol id="icon-users-double" viewBox="0 0 22 20" fill="none" xmlns="http://www.w3.org/2000/svg">
    <path
      d="M12.0572 5.52725C12.0572 3.70105 13.5373 2.2207 15.3637 2.2207C17.1901 2.2207 18.6702 3.70105 18.6702 5.52725C18.6702 7.35344 17.1901 8.83379 15.3637 8.83379C13.5373 8.83379 12.0572 7.35322 12.0572 5.52725ZM16.7664 9.05924H13.9609C11.6265 9.05924 9.72754 10.9585 9.72754 13.2926V16.7248L9.73633 16.778L9.97306 16.8519C12.2005 17.5477 14.1363 17.7801 15.7291 17.7801C18.8406 17.7801 20.644 16.8927 20.7554 16.8364L20.9763 16.7241L20.9998 16.7243V13.2929C21 10.9585 19.101 9.05924 16.7664 9.05924ZM6.63634 8.83379C8.46252 8.83379 9.94285 7.35344 9.94285 5.52725C9.94285 3.70105 8.46252 2.2207 6.63634 2.2207C4.81017 2.2207 3.32984 3.70105 3.32984 5.52725C3.32984 7.35344 4.81017 8.83379 6.63634 8.83379ZM8.96438 16.7248V13.2929C8.96438 11.9264 9.51561 10.6888 10.4039 9.78296C9.72822 9.32641 8.91433 9.05947 8.03934 9.05947H5.23357C2.89922 9.05924 1 10.9585 1 13.2929V16.7248L1.00879 16.778L1.24574 16.8519C3.473 17.5477 5.40875 17.7801 7.0018 17.7801C8.01477 17.7801 8.88637 17.6854 9.60872 17.5569L9.06268 17.386L8.96438 16.7248Z"
      fill="#D6D3D9" />
  </symbol>
  <symbol id="icon-users" viewBox="0 0 22 20" fill="none" xmlns="http://www.w3.org/2000/svg">
    <path fill-rule="evenodd" clip-rule="evenodd"
      d="M7.32961 5.52725C7.32961 3.70105 8.80972 2.2207 10.6361 2.2207C12.4625 2.2207 13.9426 3.70105 13.9426 5.52725C13.9426 7.35344 12.4625 8.83379 10.6361 8.83379C8.80972 8.83379 7.32961 7.35322 7.32961 5.52725ZM9.23335 9.05924C6.899 9.05924 5 10.9585 5 13.2926V16.7248L5.00879 16.778L5.24552 16.8519C7.473 17.5477 9.40875 17.7801 11.0016 17.7801C14.1131 17.7801 15.9165 16.8927 16.0278 16.8364L16.2488 16.7241L16.2722 16.7243V13.2929C16.2725 10.9585 14.3735 9.05924 12.0389 9.05924H9.23335Z"
      fill="#D6D3D9" />
  </symbol>
  <symbol id="icon-vk" viewBox="0 0 20 20" fill="currentColor" xmlns="http://www.w3.org/2000/svg">
    <path fill-rule="evenodd" clip-rule="evenodd"
      d="M18.7447 4.95695C18.8722 4.50164 18.7447 4.16699 18.1382 4.16699H16.1325C15.6225 4.16699 15.3875 4.45605 15.26 4.77489C15.26 4.77489 14.24 7.43872 12.795 9.16908C12.3276 9.66997 12.1151 9.82916 11.8601 9.82916C11.7326 9.82916 11.5481 9.66998 11.5481 9.21467V4.95695C11.5481 4.41046 11.4001 4.16699 10.975 4.16699H7.82325C7.50463 4.16699 7.31295 4.42059 7.31295 4.66098C7.31295 5.17908 8.03528 5.29851 8.10977 6.75561V9.9205C8.10977 10.6144 7.99287 10.7402 7.73786 10.7402C7.05794 10.7402 5.40411 8.06427 4.42305 5.00254C4.23079 4.40739 4.03796 4.16699 3.52537 4.16699H1.51969C0.946641 4.16699 0.832031 4.45605 0.832031 4.77489C0.832031 5.3441 1.5121 8.16743 3.99814 11.9014C5.65568 14.4512 7.99058 15.8337 10.1154 15.8337C11.3905 15.8337 11.5481 15.5266 11.5481 14.9978V13.0705C11.5481 12.4565 11.6688 12.334 12.0724 12.334C12.3701 12.334 12.88 12.4933 14.0701 13.7228C15.4299 15.1797 15.654 15.8337 16.419 15.8337H18.4247C18.9977 15.8337 19.2843 15.5266 19.1189 14.9207C18.9381 14.3168 18.2889 13.4409 17.4273 12.4023C16.9598 11.8102 16.2586 11.1727 16.0462 10.854C15.7487 10.4441 15.8336 10.2621 16.0462 9.89794C16.0462 9.89794 18.4897 6.20943 18.7447 4.9571V4.95695Z"
      fill="currentColor" />
  </symbol>
  <symbol id="icon-youtube" viewBox="0 0 20 20" fill="currentColor" xmlns="http://www.w3.org/2000/svg">
    <path
      d="M18.9906 5.49952C18.7745 4.69629 18.1412 4.06315 17.3381 3.84686C15.8708 3.44531 10.0018 3.44531 10.0018 3.44531C10.0018 3.44531 4.13284 3.44531 2.66557 3.83155C1.87793 4.0477 1.2292 4.69643 1.01305 5.49952C0.626953 6.96664 0.626953 10.0093 0.626953 10.0093C0.626953 10.0093 0.626953 13.0673 1.01305 14.5191C1.22934 15.3222 1.86248 15.9555 2.66571 16.1718C4.14829 16.5733 10.0019 16.5733 10.0019 16.5733C10.0019 16.5733 15.8708 16.5733 17.3381 16.1871C18.1413 15.971 18.7745 15.3377 18.9908 14.5346C19.3769 13.0673 19.3769 10.0248 19.3769 10.0248C19.3769 10.0248 19.3923 6.96664 18.9906 5.49952Z"
      fill="currentColor" />
    <path d="M8.13477 12.82L13.0152 10.0091L8.13477 7.19812V12.82Z" fill="white" />
  </symbol>

</svg>