<svg xmlns="http://www.w3.org/2000/svg">
    <symbol id="icon-logo" viewBox="0 0 19 34" fill="none" xmlns="http://www.w3.org/2000/svg">
        <path d="M4.19026 27.3109L9.17537 6.45456H13.9886L18.9737 27.3109L11.4674 33.2698L4.19026 27.3109Z"
            fill="#FF6600" />
        <path
            d="M13.9886 5.18552H9.17537L7.39907 2.5371C6.90362 1.59003 8.02011 0.720558 8.77824 0.661133H14.4414C15.1382 0.661133 15.9921 1.83576 15.593 2.5371L13.9886 5.18552Z"
            fill="#FF6600" />
        <path d="M0 21.0469V16.2789L7.88586 7.73191L4.84155 19.8814L0 21.0469Z" fill="#FF6600" />
        <path
            d="M7.39898 2.5371C6.90353 1.59003 8.02003 0.720558 8.77815 0.661133H11.6097L11.5819 5.18552H9.17528L7.39898 2.5371Z"
            fill="url(#paint0_linear_2335_31211)" />
        <path d="M11.4561 6.45508H13.9862L16.2556 15.9242L11.4561 20.6714V6.45508Z"
            fill="url(#paint1_linear_2335_31211)" />
        <path fill-rule="evenodd" clip-rule="evenodd"
            d="M5.78633 20.5268L5.39742 22.1539C8.65838 18.9811 15.2193 12.5806 15.3752 12.3613L15.1803 11.546L5.78633 20.5268ZM13.9632 6.4541L14.228 7.56175L7.31313 14.1391L7.62406 12.8383L13.9632 6.4541ZM16.2854 16.1695L4.43652 27.5328L5.14841 28.1158L16.5366 17.2203L16.2854 16.1695ZM8.36604 30.7506L7.67126 30.1606L17.4109 20.8783L17.6816 22.0105L8.36604 30.7506Z"
            fill="white" />
        <defs>
            <linearGradient id="paint0_linear_2335_31211" x1="9.44304" y1="5.18552" x2="13.0576" y2="2.82559"
                gradientUnits="userSpaceOnUse">
                <stop stop-color="#EA7438" stop-opacity="0" />
                <stop offset="1" stop-color="#EA8D38" />
            </linearGradient>
            <linearGradient id="paint1_linear_2335_31211" x1="11.4561" y1="20.6714" x2="16.2538" y2="21.0175"
                gradientUnits="userSpaceOnUse">
                <stop stop-color="#EAB838" />
                <stop offset="1" stop-color="#EA7438" stop-opacity="0" />
            </linearGradient>
        </defs>
    </symbol>
    <symbol id="icon-arrow" xmlns="http://www.w3.org/2000/svg" viewBox="0 0 32 32">
        <path
            d="M28.66 17.11a1.19 1.19 0 0 0 .09-.15l.1-.2.06-.2a.84.84 0 0 0 .05-.17 2 2 0 0 0 0-.78.84.84 0 0 0-.05-.17l-.06-.2-.1-.2a1.19 1.19 0 0 0-.09-.15 1.79 1.79 0 0 0-.25-.31l-10-10a2 2 0 0 0-2.82 2.82l6.58 6.6H5a2 2 0 0 0 0 4h17.17l-6.58 6.59a2 2 0 1 0 2.82 2.82l10-10a1.79 1.79 0 0 0 .25-.3Z"
            fill="currentColor">
        </path>
    </symbol>
    <symbol id="icon-phone" xmlns="http://www.w3.org/2000/svg" viewBox="0 0 24 24">
        <path fill="none" d="M0 0h24v24H0V0z"></path>
        <path fill="currentColor"
            d="M19.23 15.26l-2.54-.29c-.61-.07-1.21.14-1.64.57l-1.84 1.84c-2.83-1.44-5.15-3.75-6.59-6.59l1.85-1.85c.43-.43.64-1.03.57-1.64l-.29-2.52c-.12-1.01-.97-1.77-1.99-1.77H5.03c-1.13 0-2.07.94-2 2.07.53 8.54 7.36 15.36 15.89 15.89 1.13.07 2.07-.87 2.07-2v-1.73c.01-1.01-.75-1.86-1.76-1.98z">
        </path>
    </symbol>
    <symbol id="icon-mail" xmlns="http://www.w3.org/2000/svg" viewBox="0 0 96 96">
        <path
            d="M80 12H16C9.373 12 4 17.373 4 24v48c0 6.627 5.373 12 12 12h64c6.627 0 12-5.373 12-12V24c0-6.627-5.373-12-12-12zm0 8c.462 0 .906.078 1.318.223L48 46.878 14.682 20.223A3.964 3.964 0 0 1 16 20h64zm0 56H16a4 4 0 0 1-4-4V28.322l33.501 26.801c.73.585 1.614.877 2.499.877s1.769-.292 2.499-.877L84 28.322V72a4 4 0 0 1-4 4z"
            fill="currentColor">
        </path>
    </symbol>
    <symbol id="icon-send" xmlns="http://www.w3.org/2000/svg" fill="none" viewBox="0 0 24 24">
        <path fill="currentColor" fill-rule="evenodd"
            d="M1 3.21918C1 1.99356 1.99356 1 3.21918 1C3.55555 1 3.88752 1.07647 4.18999 1.22362L21.5382 9.6633C22.4325 10.0983 23 11.0056 23 12C23 12.9944 22.4325 13.9017 21.5382 14.3367L4.18999 22.7764C3.88752 22.9235 3.55555 23 3.21918 23C1.99356 23 1 22.0064 1 20.7808C1 20.588 0.98678 20.3926 1.04422 20.2059L3.04422 13.7059C3.1472 13.3712 3.41775 13.1148 3.75747 13.0299L7.8769 12L3.75747 10.9701C3.41775 10.8852 3.1472 10.6288 3.04422 10.2941L1.04422 3.79409C0.986779 3.6074 1 3.41196 1 3.21918ZM3.21918 3C3.09813 3 3 3.09813 3 3.21918V3.34963L4.78987 9.16669L12.2425 11.0299C12.6877 11.1411 13 11.5411 13 12C13 12.4589 12.6877 12.8589 12.2425 12.9701L4.78987 14.8333L3 20.6504V20.7808C3 20.9019 3.09813 21 3.21918 21C3.2524 21 3.28519 20.9924 3.31506 20.9779L20.6633 12.5382C20.8693 12.438 21 12.2291 21 12C21 11.7709 20.8693 11.562 20.6633 11.4618L3.31506 3.02209C3.28519 3.00755 3.2524 3 3.21918 3Z"
            clip-rule="evenodd"></path>
    </symbol>
    <symbol id="icon-github" xmlns="http://www.w3.org/2000/svg" viewBox="0 0 16 16">
        <path
            d="M7.999 0C3.582 0 0 3.596 0 8.032a8.031 8.031 0 0 0 5.472 7.621c.4.074.546-.174.546-.387 0-.191-.007-.696-.011-1.366-2.225.485-2.695-1.077-2.695-1.077-.363-.928-.888-1.175-.888-1.175-.727-.498.054-.488.054-.488.803.057 1.225.828 1.225.828.714 1.227 1.873.873 2.329.667.072-.519.279-.873.508-1.074-1.776-.203-3.644-.892-3.644-3.969 0-.877.312-1.594.824-2.156-.083-.203-.357-1.02.078-2.125 0 0 .672-.216 2.2.823a7.633 7.633 0 0 1 2.003-.27 7.65 7.65 0 0 1 2.003.271c1.527-1.039 2.198-.823 2.198-.823.436 1.106.162 1.922.08 2.125.513.562.822 1.279.822 2.156 0 3.085-1.87 3.764-3.652 3.963.287.248.543.738.543 1.487 0 1.074-.01 1.94-.01 2.203 0 .215.144.465.55.386A8.032 8.032 0 0 0 16 8.032C16 3.596 12.418 0 7.999 0z"
            fill="currentColor">
        </path>
    </symbol>
    <symbol id="icon-fb" xmlns="http://www.w3.org/2000/svg" viewBox="0 0 1024 1024">
        <path fill="currentColor"
            d="M1024,512C1024,229.23016,794.76978,0,512,0S0,229.23016,0,512c0,255.554,187.231,467.37012,432,505.77777V660H302V512H432V399.2C432,270.87982,508.43854,200,625.38922,200,681.40765,200,740,210,740,210V336H675.43713C611.83508,336,592,375.46667,592,415.95728V512H734L711.3,660H592v357.77777C836.769,979.37012,1024,767.554,1024,512Z">
        </path>
        <path fill="none"
            d="M711.3,660,734,512H592V415.95728C592,375.46667,611.83508,336,675.43713,336H740V210s-58.59235-10-114.61078-10C508.43854,200,432,270.87982,432,399.2V512H302V660H432v357.77777a517.39619,517.39619,0,0,0,160,0V660Z">
        </path>
    </symbol>
    <symbol id="icon-instagram" xmlns="http://www.w3.org/2000/svg" viewBox="0 0 16 16">
        <path
            d="M11 0H5a5 5 0 0 0-5 5v6a5 5 0 0 0 5 5h6a5 5 0 0 0 5-5V5a5 5 0 0 0-5-5zm3.5 11c0 1.93-1.57 3.5-3.5 3.5H5c-1.93 0-3.5-1.57-3.5-3.5V5c0-1.93 1.57-3.5 3.5-3.5h6c1.93 0 3.5 1.57 3.5 3.5v6z"
            fill="currentColor">
        </path>
        <path
            d="M8 4a4 4 0 1 0 0 8 4 4 0 0 0 0-8zm0 6.5A2.503 2.503 0 0 1 5.5 8c0-1.379 1.122-2.5 2.5-2.5s2.5 1.121 2.5 2.5c0 1.378-1.122 2.5-2.5 2.5z"
            fill="currentColor">
        </path>
        <circle cx="12.3" cy="3.7" r=".533" fill="none"></circle>
    </symbol>
    <symbol id="icon-vk" xmlns="http://www.w3.org/2000/svg" enable-background="new 0 0 24 24" viewBox="0 0 24 24">
        <path
            d="m19.915 13.028c-.388-.49-.277-.708 0-1.146.005-.005 3.208-4.431 3.538-5.932l.002-.001c.164-.547 0-.949-.793-.949h-2.624c-.668 0-.976.345-1.141.731 0 0-1.336 3.198-3.226 5.271-.61.599-.892.791-1.225.791-.164 0-.419-.192-.419-.739v-5.105c0-.656-.187-.949-.74-.949h-4.126c-.419 0-.668.306-.668.591 0 .622.945.765 1.043 2.515v3.797c0 .832-.151.985-.486.985-.892 0-3.057-3.211-4.34-6.886-.259-.713-.512-1.001-1.185-1.001h-2.625c-.749 0-.9.345-.9.731 0 .682.892 4.073 4.148 8.553 2.17 3.058 5.226 4.715 8.006 4.715 1.671 0 1.875-.368 1.875-1.001 0-2.922-.151-3.198.686-3.198.388 0 1.056.192 2.616 1.667 1.783 1.749 2.076 2.532 3.074 2.532h2.624c.748 0 1.127-.368.909-1.094-.499-1.527-3.871-4.668-4.023-4.878z"
            fill="currentColor">
        </path>
    </symbol>
    <symbol id="icon-whatsapp" xmlns="http://www.w3.org/2000/svg" enable-background="new 0 0 512 512"
        viewBox="0 0 512 512">
        <path fill="currentColor" d="M262.6,16C139,16,38.9,116.1,38.9,239.7c0,49.8,16.3,95.8,43.8,133L25.7,496l14.9-6.9l114.8-53
		c31.8,17.4,68.3,27.3,107.1,27.3c123.5,0,223.7-100.1,223.7-223.7C486.3,116.1,386.1,16,262.6,16z M381.9,335.2
		c-1.3,6.2-4,12.1-7.9,17.3c-4.8,6.4-11,11.2-18.1,14.2s-14.9,4.2-22.7,3.2c-20.9-2.5-41.1-9.2-59.2-20
		c-20.9-12.4-49-31.7-70.2-59.3c-22.6-26.5-34.9-57.5-42.7-80.6c-6.7-19.9-9.1-41.1-7.2-62c0.7-7.9,3.5-15.3,7.9-21.6
		c4.4-6.3,10.5-11.4,17.7-14.7c5.9-2.8,12.3-4.1,18.6-4.1c9,0,20-0.1,27.6,5.3c11.8,8.3,16.8,24.7,16.8,39.1c0,1.3-0.1,2.7-0.2,4
		c-0.7,7.9-1.4,14.8-5.9,21.1c-4.4,6.3-12.5,11.8-19.7,15.2c5.5,29.6,15,51.6,28.1,65.8c5.6,7.8,13.2,15.2,22.9,22.1
		c9.7,6.9,21.4,13.2,35.3,19c4.8-6.3,11.9-13.1,19-16.1c7-3,14-2.3,21.8-1.3c1.3,0.2,2.7,0.4,4,0.7c14,3,29,11.3,34.7,24.6
		C386.1,315.7,383.8,326.4,381.9,335.2z"></path>
    </symbol>
    <symbol id="icon-check" xmlns="http://www.w3.org/2000/svg" viewBox="0 0 256 256">
        <rect width="256" height="256" fill="none"></rect>
        <polyline fill="none" stroke="currentColor" stroke-linecap="round" stroke-linejoin="round" stroke-width="24"
            points="216 72.005 104 184 48 128.005"></polyline>
    </symbol>
    <symbol xmlns="http://www.w3.org/2000/svg" enable-background="new 0 0 24 24" viewBox="0 0 24 24" id="icon-tg">
        <path
            d="m12 24c6.629 0 12-5.371 12-12s-5.371-12-12-12-12 5.371-12 12 5.371 12 12 12zm-6.509-12.26 11.57-4.461c.537-.194 1.006.131.832.943l.001-.001-1.97 9.281c-.146.658-.537.818-1.084.508l-3-2.211-1.447 1.394c-.16.16-.295.295-.605.295l.213-3.053 5.56-5.023c.242-.213-.054-.333-.373-.121l-6.871 4.326-2.962-.924c-.643-.204-.657-.643.136-.953z"
            fill="currentColor">
        </path>
    </symbol>





</svg>