<svg width="12" height="12" viewBox="0 0 12 12" fill="none" xmlns="http://www.w3.org/2000/svg">
<path d="M10.5263 0.629971L1.00125 3.58122C0.824809 3.62805 0.668205 3.73061 0.554746 3.87362C0.441287 4.01663 0.377038 4.19245 0.37156 4.37492C0.366081 4.55739 0.419667 4.73675 0.524342 4.88631C0.629017 5.03587 0.779186 5.14764 0.952501 5.20497L5.2725 6.65247C5.28825 6.65846 5.30265 6.6675 5.31488 6.67909C5.32711 6.69068 5.33692 6.70457 5.34375 6.71997L6.93375 10.845C6.99809 11.0107 7.11165 11.1527 7.25915 11.2519C7.40665 11.3512 7.58101 11.4028 7.75875 11.4H7.78125C7.96198 11.3994 8.13793 11.3418 8.28404 11.2354C8.43015 11.1291 8.53897 10.9793 8.595 10.8075L11.625 1.70997C11.6725 1.56431 11.6795 1.40847 11.6451 1.25916C11.6107 1.10986 11.5364 0.97272 11.43 0.862471C11.3162 0.743008 11.1712 0.657882 11.0114 0.616779C10.8517 0.575676 10.6836 0.580247 10.5263 0.629971Z" fill="#A9A0D9"/>
</svg>
