<svg width="22" height="20" viewBox="0 0 22 20" fill="none" xmlns="http://www.w3.org/2000/svg">
<path fill-rule="evenodd" clip-rule="evenodd" d="M7.32961 5.52725C7.32961 3.70105 8.80972 2.2207 10.6361 2.2207C12.4625 2.2207 13.9426 3.70105 13.9426 5.52725C13.9426 7.35344 12.4625 8.83379 10.6361 8.83379C8.80972 8.83379 7.32961 7.35322 7.32961 5.52725ZM9.23335 9.05924C6.899 9.05924 5 10.9585 5 13.2926V16.7248L5.00879 16.778L5.24552 16.8519C7.473 17.5477 9.40875 17.7801 11.0016 17.7801C14.1131 17.7801 15.9165 16.8927 16.0278 16.8364L16.2488 16.7241L16.2722 16.7243V13.2929C16.2725 10.9585 14.3735 9.05924 12.0389 9.05924H9.23335Z" fill="#D6D3D9"/>
</svg>
