<svg width="16" height="16" viewBox="0 0 16 16" fill="none" xmlns="http://www.w3.org/2000/svg">
<g clip-path="url(#clip0_1796_433)">
<path d="M12.1007 8.03041C12.1007 10.2094 10.3289 11.9809 8.15073 11.9809C5.97186 11.9809 4.1999 10.2088 4.1999 8.03041C4.1999 5.85187 5.97219 4.07996 8.15073 4.07996C10.3286 4.0799 12.1007 5.85214 12.1007 8.03041ZM8.15073 2.57626C8.36862 2.57626 8.54566 2.39911 8.54566 2.18117V0.534666C8.54566 0.316118 8.36901 0.139572 8.15073 0.139572C7.93218 0.139572 7.75531 0.316391 7.75531 0.534666V2.18117C7.75531 2.39911 7.93185 2.57626 8.15073 2.57626ZM12.0824 4.58433C12.1835 4.58433 12.2846 4.54588 12.3615 4.46871L13.777 3.05356C13.9313 2.89867 13.9313 2.64829 13.777 2.49428C13.6227 2.34054 13.373 2.34054 13.2187 2.49428L11.8032 3.91008C11.6489 4.06475 11.6489 4.31464 11.8032 4.46871C11.8804 4.54593 11.9812 4.58433 12.0824 4.58433ZM3.30908 4.46876C3.38641 4.5456 3.48776 4.58438 3.58822 4.58438C3.68957 4.58438 3.79069 4.54593 3.86803 4.46876C4.02237 4.31442 4.02237 4.06481 3.86803 3.91014L2.45195 2.49433C2.29761 2.34059 2.04799 2.34059 1.89365 2.49433C1.73931 2.64867 1.73931 2.89878 1.89365 3.05361L3.30908 4.46876ZM7.83532 13.424C7.6171 13.424 7.44056 13.6013 7.44056 13.819V15.4654C7.44056 15.6834 7.61738 15.8605 7.83532 15.8605C8.05327 15.8605 8.23085 15.6838 8.23085 15.4654V13.819C8.23085 13.6013 8.05354 13.424 7.83532 13.424ZM3.62388 11.5316L2.20846 12.947C2.05412 13.1014 2.05412 13.3517 2.20846 13.5053C2.28579 13.5826 2.38714 13.6213 2.48826 13.6213C2.58955 13.6213 2.69007 13.5829 2.76741 13.5053L4.18289 12.0899C4.33723 11.9356 4.33723 11.6853 4.18289 11.5316C4.02849 11.3776 3.77822 11.3776 3.62388 11.5316ZM12.6768 11.5316C12.5224 11.3776 12.2725 11.3776 12.1181 11.5316C11.9638 11.686 11.9638 11.9356 12.1181 12.0899L13.5336 13.5053C13.6107 13.5826 13.7119 13.6213 13.8134 13.6213C13.9145 13.6213 14.0151 13.5829 14.0922 13.5053C14.2466 13.351 14.2466 13.1014 14.0922 12.947L12.6768 11.5316ZM2.56833 8.03041C2.56833 7.81186 2.39064 7.63531 2.17274 7.63531H0.394766C0.176545 7.63531 0 7.81186 0 8.03041C0 8.24879 0.176819 8.4255 0.394766 8.4255H2.1728C2.39102 8.42545 2.56833 8.24879 2.56833 8.03041ZM15.6049 7.63531H13.4978C13.2797 7.63531 13.103 7.81186 13.103 8.03041C13.103 8.24879 13.2797 8.4255 13.4978 8.4255H15.6049C15.823 8.4255 16 8.24885 16 8.03041C16 7.8118 15.823 7.63531 15.6049 7.63531Z" fill="#242424"/>
</g>
<defs>
<clipPath id="clip0_1796_433">
<rect width="16" height="16" fill="white"/>
</clipPath>
</defs>
</svg>
