<svg width="22" height="20" viewBox="0 0 22 20" fill="none" xmlns="http://www.w3.org/2000/svg">
<path d="M12.0572 5.52725C12.0572 3.70105 13.5373 2.2207 15.3637 2.2207C17.1901 2.2207 18.6702 3.70105 18.6702 5.52725C18.6702 7.35344 17.1901 8.83379 15.3637 8.83379C13.5373 8.83379 12.0572 7.35322 12.0572 5.52725ZM16.7664 9.05924H13.9609C11.6265 9.05924 9.72754 10.9585 9.72754 13.2926V16.7248L9.73633 16.778L9.97306 16.8519C12.2005 17.5477 14.1363 17.7801 15.7291 17.7801C18.8406 17.7801 20.644 16.8927 20.7554 16.8364L20.9763 16.7241L20.9998 16.7243V13.2929C21 10.9585 19.101 9.05924 16.7664 9.05924ZM6.63634 8.83379C8.46252 8.83379 9.94285 7.35344 9.94285 5.52725C9.94285 3.70105 8.46252 2.2207 6.63634 2.2207C4.81017 2.2207 3.32984 3.70105 3.32984 5.52725C3.32984 7.35344 4.81017 8.83379 6.63634 8.83379ZM8.96438 16.7248V13.2929C8.96438 11.9264 9.51561 10.6888 10.4039 9.78296C9.72822 9.32641 8.91433 9.05947 8.03934 9.05947H5.23357C2.89922 9.05924 1 10.9585 1 13.2929V16.7248L1.00879 16.778L1.24574 16.8519C3.473 17.5477 5.40875 17.7801 7.0018 17.7801C8.01477 17.7801 8.88637 17.6854 9.60872 17.5569L9.06268 17.386L8.96438 16.7248Z" fill="#D6D3D9"/>
</svg>
