<svg>
  <symbol id="icon-burger" viewBox="0 0 36 14" fill="none" xmlns="http://www.w3.org/2000/svg">
    <path fill-rule="evenodd" clip-rule="evenodd"
      d="M0 0.8C0 0.358172 0.447715 0 1 0H35C35.5523 0 36 0.358172 36 0.8C36 1.24183 35.5523 1.6 35 1.6H1C0.447715 1.6 0 1.24183 0 0.8Z"
      fill="currentColor" />
    <path fill-rule="evenodd" clip-rule="evenodd"
      d="M0 12.4C0 11.9581 0.447715 11.6 1 11.6H35C35.5523 11.6 36 11.9581 36 12.4C36 12.8418 35.5523 13.2 35 13.2H1C0.447715 13.2 0 12.8418 0 12.4Z"
      fill="currentColor" />
  </symbol>
  <symbol id="icon-favorites" viewBox="0 0 22 20" fill="currentColor" xmlns="http://www.w3.org/2000/svg">
    <path
      d="M11 20C10.6868 20 10.3848 19.8841 10.1495 19.6734C9.26077 18.8794 8.40392 18.1331 7.64793 17.4749L7.64407 17.4714C5.42766 15.5415 3.5137 13.8747 2.18201 12.2329C0.693375 10.3974 0 8.65709 0 6.75591C0 4.90876 0.619858 3.20464 1.74527 1.95726C2.88411 0.695126 4.44676 0 6.14587 0C7.4158 0 8.57881 0.410249 9.60251 1.21926C10.1191 1.62762 10.5874 2.1274 11 2.71036C11.4127 2.1274 11.8809 1.62762 12.3977 1.21926C13.4214 0.410249 14.5844 0 15.8543 0C17.5532 0 19.1161 0.695126 20.2549 1.95726C21.3803 3.20464 22 4.90876 22 6.75591C22 8.65709 21.3068 10.3974 19.8182 12.2327C18.4865 13.8747 16.5727 15.5413 14.3566 17.4711C13.5993 18.1304 12.7411 18.8778 11.8503 19.6738C11.6152 19.8841 11.313 20 11 20ZM6.14587 1.31685C4.81099 1.31685 3.5847 1.86121 2.6926 2.84979C1.78723 3.85329 1.28856 5.24046 1.28856 6.75591C1.28856 8.35489 1.87015 9.78493 3.17415 11.3927C4.43426 12.9464 6.30845 14.5785 8.4785 16.4682L8.47978 16.4693L8.48381 16.4727C9.24265 17.1336 10.1029 17.8827 10.9982 18.6826C11.8988 17.8812 12.7604 17.1308 13.5207 16.469C13.5227 16.4673 13.5246 16.4656 13.5266 16.4638C15.6945 14.5758 17.5668 12.9453 18.826 11.3927C20.1299 9.78493 20.7114 8.35489 20.7114 6.75591C20.7114 5.24046 20.2128 3.85329 19.3074 2.84979C18.4155 1.86121 17.189 1.31685 15.8543 1.31685C14.8764 1.31685 13.9786 1.63448 13.1859 2.26083C12.4794 2.81926 11.9873 3.52519 11.6987 4.01914C11.5504 4.27315 11.2892 4.42476 11 4.42476C10.7108 4.42476 10.4496 4.27315 10.3013 4.01914C10.0129 3.52519 9.52077 2.81926 8.81413 2.26083C8.02139 1.63448 7.12358 1.31685 6.14587 1.31685Z"
      fill="white" />
    <path
      d="M6.14587 1.31685C4.81099 1.31685 3.5847 1.86121 2.6926 2.84979C1.78723 3.85329 1.28856 5.24046 1.28856 6.75591C1.28856 8.35489 1.87015 9.78493 3.17415 11.3927C4.43426 12.9464 6.30845 14.5785 8.4785 16.4682L8.47978 16.4693L8.48381 16.4727C9.24265 17.1336 10.1029 17.8827 10.9982 18.6826C11.8988 17.8812 12.7604 17.1308 13.5207 16.469L13.5266 16.4638C15.6945 14.5758 17.5668 12.9453 18.826 11.3927C20.1299 9.78493 20.7114 8.35489 20.7114 6.75591C20.7114 5.24046 20.2128 3.85329 19.3074 2.84979C18.4155 1.86121 17.189 1.31685 15.8543 1.31685C14.8764 1.31685 13.9786 1.63448 13.1859 2.26083C12.4794 2.81926 11.9873 3.52519 11.6987 4.01914C11.5504 4.27315 11.2892 4.42476 11 4.42476C10.7108 4.42476 10.4496 4.27315 10.3013 4.01914C10.0129 3.52519 9.52077 2.81926 8.81413 2.26083C8.02139 1.63448 7.12358 1.31685 6.14587 1.31685Z"
      fill="currentColor" />
  </symbol>
  <symbol viewbox="0 0 20 20" fill="none" xmlns="http://www.w3.org/2000/svg" id="icon-flag-cu">
    <g id="flag-cu-svgrepo-com" clip-path="url(#clip0_1838_713)">
      <g id="Clip path group">
        <mask id="mask0_1838_713" style="mask-type:luminance" maskunits="userSpaceOnUse" x="0" y="2" width="20"
          height="16">
          <g id="clip0_503_4774">
            <path id="Vector"
              d="M18.5714 2.85715H1.42857C0.639593 2.85715 0 3.49674 0 4.28572V15.7143C0 16.5033 0.639593 17.1429 1.42857 17.1429H18.5714C19.3604 17.1429 20 16.5033 20 15.7143V4.28572C20 3.49674 19.3604 2.85715 18.5714 2.85715Z"
              fill="white"></path>
          </g>
        </mask>
        <g mask="url(#mask0_1838_713)">
          <g id="Group">
            <path id="Vector_2"
              d="M18.5713 3.03571H1.42847C0.738111 3.03571 0.178467 3.59535 0.178467 4.28571V15.7143C0.178467 16.4046 0.738111 16.9643 1.42847 16.9643H18.5713C19.2617 16.9643 19.8213 16.4046 19.8213 15.7143V4.28571C19.8213 3.59535 19.2617 3.03571 18.5713 3.03571Z"
              fill="white" stroke="#F5F5F5" stroke-width="14.2857"></path>
            <g id="Mask group">
              <mask id="mask1_1838_713" style="mask-type:alpha" maskunits="userSpaceOnUse" x="-7" y="-5" width="34"
                height="30">
                <g id="Group_2">
                  <path id="Vector_3"
                    d="M18.5713 3.03571H1.42847C0.738111 3.03571 0.178467 3.59535 0.178467 4.28571V15.7143C0.178467 16.4046 0.738111 16.9643 1.42847 16.9643H18.5713C19.2617 16.9643 19.8213 16.4046 19.8213 15.7143V4.28571C19.8213 3.59535 19.2617 3.03571 18.5713 3.03571Z"
                    fill="white" stroke="white" stroke-width="14.2857"></path>
                </g>
              </mask>
              <g mask="url(#mask1_1838_713)">
                <g id="Group_3">
                  <path id="Vector_4" fill-rule="evenodd" clip-rule="evenodd" d="M0 5.71429H20V2.85715H0V5.71429Z"
                    fill="#0B389F"></path>
                  <path id="Vector_5" fill-rule="evenodd" clip-rule="evenodd" d="M0 11.4286H20V8.57144H0V11.4286Z"
                    fill="#0B389F"></path>
                  <path id="Vector_6" fill-rule="evenodd" clip-rule="evenodd" d="M0 17.1428H20V14.2857H0V17.1428Z"
                    fill="#0B389F"></path>
                  <path id="Vector_7" fill-rule="evenodd" clip-rule="evenodd"
                    d="M0 2.85715L9.52379 10L0 17.1429V2.85715Z" fill="#E12A43"></path>
                  <path id="Vector_8" fill-rule="evenodd" clip-rule="evenodd"
                    d="M3.33326 10.7305L2.21367 11.541L2.63852 10.2257L1.52173 9.4114L2.90389 9.40903L3.33326 8.09525L3.76264 9.40903L5.1448 9.4114L4.028 10.2257L4.45285 11.541L3.33326 10.7305Z"
                    fill="white"></path>
                </g>
              </g>
            </g>
          </g>
        </g>
      </g>
    </g>
    <defs>
      <clippath id="clip0_1838_713">
        <rect width="20" height="20" fill="white"></rect>
      </clippath>
    </defs>
  </symbol>
  <symbol viewbox="0 0 20 20" fill="none" xmlns="http://www.w3.org/2000/svg" id="icon-flag-do">
    <g clip-path="url(#clip0_1838_728)">
      <mask id="mask0_1838_728" style="mask-type:luminance" maskunits="userSpaceOnUse" x="0" y="2" width="20"
        height="16">
        <path
          d="M18.5714 2.85715H1.42857C0.639593 2.85715 0 3.49674 0 4.28572V15.7143C0 16.5033 0.639593 17.1429 1.42857 17.1429H18.5714C19.3604 17.1429 20 16.5033 20 15.7143V4.28572C20 3.49674 19.3604 2.85715 18.5714 2.85715Z"
          fill="white"></path>
      </mask>
      <g mask="url(#mask0_1838_728)">
        <path
          d="M18.5713 3.03571H1.42847C0.738111 3.03571 0.178467 3.59535 0.178467 4.28571V15.7143C0.178467 16.4046 0.738111 16.9643 1.42847 16.9643H18.5713C19.2617 16.9643 19.8213 16.4046 19.8213 15.7143V4.28571C19.8213 3.59535 19.2617 3.03571 18.5713 3.03571Z"
          fill="white" stroke="#F5F5F5" stroke-width="14.2857"></path>
        <mask id="mask1_1838_728" style="mask-type:alpha" maskunits="userSpaceOnUse" x="-7" y="-5" width="34"
          height="30">
          <path
            d="M18.5713 3.03571H1.42847C0.738111 3.03571 0.178467 3.59535 0.178467 4.28571V15.7143C0.178467 16.4046 0.738111 16.9643 1.42847 16.9643H18.5713C19.2617 16.9643 19.8213 16.4046 19.8213 15.7143V4.28571C19.8213 3.59535 19.2617 3.03571 18.5713 3.03571Z"
            fill="white" stroke="white" stroke-width="14.2857"></path>
        </mask>
        <g mask="url(#mask1_1838_728)">
          <path fill-rule="evenodd" clip-rule="evenodd" d="M0 8.57143H8.57143V2.85715H0V8.57143Z" fill="#083D7A"></path>
          <path fill-rule="evenodd" clip-rule="evenodd" d="M11.4285 17.1429H19.9999V11.4286H11.4285V17.1429Z"
            fill="#083D7A"></path>
          <path fill-rule="evenodd" clip-rule="evenodd" d="M0 17.1429H8.57143V11.4286H0V17.1429Z" fill="#DF1E35"></path>
          <path fill-rule="evenodd" clip-rule="evenodd" d="M11.4285 8.57143H19.9999V2.85715H11.4285V8.57143Z"
            fill="#DF1E35"></path>
          <mask id="mask2_1838_728" style="mask-type:luminance" maskunits="userSpaceOnUse" x="8" y="8" width="4"
            height="4">
            <path fill-rule="evenodd" clip-rule="evenodd"
              d="M8.98993 8.98987C8.43207 9.54776 8.43207 10.4523 8.98993 11.0102C9.54785 11.5681 10.4524 11.5681 11.0103 11.0102C11.5681 10.4523 11.5681 9.54776 11.0103 8.98987"
              fill="white"></path>
          </mask>
          <g mask="url(#mask2_1838_728)">
            <path
              d="M8.65311 8.65314C7.90925 9.39699 7.90925 10.603 8.65311 11.3469L9.32654 10.6734C8.95461 10.3015 8.95461 9.6985 9.32654 9.32657L8.65311 8.65314ZM8.65311 11.3469C9.39696 12.0907 10.603 12.0907 11.3469 11.3469L10.6735 10.6734C10.3015 11.0454 9.69847 11.0454 9.32654 10.6734L8.65311 11.3469ZM11.3469 11.3469C12.0908 10.603 12.0908 9.39699 11.3469 8.65314L10.6735 9.32657C11.0454 9.6985 11.0454 10.3015 10.6735 10.6734L11.3469 11.3469Z"
              fill="#0F6D1A"></path>
          </g>
          <path fill-rule="evenodd" clip-rule="evenodd"
            d="M10.0001 10.4762C10.2631 10.4762 10.4763 10.263 10.4763 9.99999C10.4763 9.737 10.2631 9.5238 10.0001 9.5238C9.73714 9.5238 9.52393 9.737 9.52393 9.99999C9.52393 10.263 9.73714 10.4762 10.0001 10.4762Z"
            fill="#042F60"></path>
        </g>
      </g>
    </g>
    <defs>
      <clippath id="clip0_1838_728">
        <rect width="20" height="20" fill="white"></rect>
      </clippath>
    </defs>
  </symbol>
  <symbol viewbox="0 0 20 20" fill="none" xmlns="http://www.w3.org/2000/svg" id="icon-flag-it">
    <g id="flag-it-svgrepo-com" clip-path="url(#clip0_1838_747)">
      <g id="Clip path group">
        <mask id="mask0_1838_747" style="mask-type:luminance" maskunits="userSpaceOnUse" x="0" y="2" width="20"
          height="16">
          <g id="clip0_503_4138">
            <path id="Vector"
              d="M18.5714 2.85715H1.42857C0.639593 2.85715 0 3.49674 0 4.28572V15.7143C0 16.5033 0.639593 17.1429 1.42857 17.1429H18.5714C19.3604 17.1429 20 16.5033 20 15.7143V4.28572C20 3.49674 19.3604 2.85715 18.5714 2.85715Z"
              fill="white"></path>
          </g>
        </mask>
        <g mask="url(#mask0_1838_747)">
          <g id="Group">
            <path id="Vector_2"
              d="M18.5713 3.03571H1.42847C0.738111 3.03571 0.178467 3.59535 0.178467 4.28571V15.7143C0.178467 16.4046 0.738111 16.9643 1.42847 16.9643H18.5713C19.2617 16.9643 19.8213 16.4046 19.8213 15.7143V4.28571C19.8213 3.59535 19.2617 3.03571 18.5713 3.03571Z"
              fill="white" stroke="#F5F5F5" stroke-width="14.2857"></path>
            <g id="Mask group">
              <mask id="mask1_1838_747" style="mask-type:alpha" maskunits="userSpaceOnUse" x="-7" y="-5" width="34"
                height="30">
                <g id="Group_2">
                  <path id="Vector_3"
                    d="M18.5713 3.03571H1.42847C0.738111 3.03571 0.178467 3.59535 0.178467 4.28571V15.7143C0.178467 16.4046 0.738111 16.9643 1.42847 16.9643H18.5713C19.2617 16.9643 19.8213 16.4046 19.8213 15.7143V4.28571C19.8213 3.59535 19.2617 3.03571 18.5713 3.03571Z"
                    fill="white" stroke="white" stroke-width="14.2857"></path>
                </g>
              </mask>
              <g mask="url(#mask1_1838_747)">
                <g id="Group_3">
                  <path id="Vector_4" d="M19.9999 2.85715H13.3333V17.1429H19.9999V2.85715Z" fill="#E43D4C"></path>
                  <path id="Vector_5" fill-rule="evenodd" clip-rule="evenodd" d="M0 17.1429H6.66666V2.85715H0V17.1429Z"
                    fill="#1BB65D"></path>
                </g>
              </g>
            </g>
          </g>
        </g>
      </g>
    </g>
    <defs>
      <clippath id="clip0_1838_747">
        <rect width="20" height="20" fill="white"></rect>
      </clippath>
    </defs>
  </symbol>
  <symbol viewbox="0 0 20 20" fill="none" xmlns="http://www.w3.org/2000/svg" id="icon-flag-my">
    <g id="flag-my-svgrepo-com" clip-path="url(#clip0_1838_770)">
      <g id="Clip path group">
        <mask id="mask0_1838_770" style="mask-type:luminance" maskunits="userSpaceOnUse" x="0" y="2" width="20"
          height="16">
          <g id="clip0_503_3033">
            <path id="Vector"
              d="M18.5714 2.85715H1.42857C0.639593 2.85715 0 3.49674 0 4.28572V15.7143C0 16.5033 0.639593 17.1429 1.42857 17.1429H18.5714C19.3604 17.1429 20 16.5033 20 15.7143V4.28572C20 3.49674 19.3604 2.85715 18.5714 2.85715Z"
              fill="white"></path>
          </g>
        </mask>
        <g mask="url(#mask0_1838_770)">
          <g id="Group">
            <path id="Vector_2"
              d="M18.5714 2.85715H1.42857C0.639593 2.85715 0 3.49674 0 4.28572V15.7143C0 16.5033 0.639593 17.1429 1.42857 17.1429H18.5714C19.3604 17.1429 20 16.5033 20 15.7143V4.28572C20 3.49674 19.3604 2.85715 18.5714 2.85715Z"
              fill="white"></path>
            <g id="Mask group">
              <mask id="mask1_1838_770" style="mask-type:alpha" maskunits="userSpaceOnUse" x="0" y="2" width="20"
                height="16">
                <g id="Group_2">
                  <path id="Vector_3"
                    d="M18.5714 2.85715H1.42857C0.639593 2.85715 0 3.49674 0 4.28572V15.7143C0 16.5033 0.639593 17.1429 1.42857 17.1429H18.5714C19.3604 17.1429 20 16.5033 20 15.7143V4.28572C20 3.49674 19.3604 2.85715 18.5714 2.85715Z"
                    fill="white"></path>
                </g>
              </mask>
              <g mask="url(#mask1_1838_770)">
                <g id="Group_3">
                  <path id="Vector_4" fill-rule="evenodd" clip-rule="evenodd"
                    d="M20 2.85715H9.52379V3.80953H20V2.85715ZM20 4.76191H9.52379V5.71429H20V4.76191ZM9.52379 6.66667H20V7.61905H9.52379V6.66667ZM20 8.57143H9.52379V9.52381H20V8.57143ZM0 10.4762H20V11.4286H0V10.4762ZM20 12.3809H0V13.3334H20V12.3809ZM0 14.2857H20V15.2381H0V14.2857ZM20 16.1905H0V17.1429H20V16.1905Z"
                    fill="#E1244A"></path>
                  <path id="Vector_5" d="M11.4286 2.85715H0V10.4762H11.4286V2.85715Z" fill="#0C3F8E"></path>
                  <path id="Vector_6" fill-rule="evenodd" clip-rule="evenodd"
                    d="M4.76193 9.52383C5.43701 9.52383 6.0574 9.2897 6.54634 8.89822C6.28733 8.99483 6.00699 9.04764 5.71431 9.04764C4.39934 9.04764 3.33336 7.98165 3.33336 6.66668C3.33336 5.35172 4.39934 4.28573 5.71431 4.28573C6.00699 4.28573 6.28733 4.33854 6.54634 4.43515C6.0574 4.04367 5.43701 3.80954 4.76193 3.80954C3.18397 3.80954 1.90479 5.08873 1.90479 6.66668C1.90479 8.24464 3.18397 9.52383 4.76193 9.52383ZM6.79262 8.38282L7.6191 7.44764L8.44553 8.38282L8.22967 7.1536L9.4761 7.09053L8.38046 6.4929L9.10824 5.47908L7.95788 5.96307L7.6191 4.76193L7.28024 5.96307L6.12986 5.47908L6.8577 6.4929L5.76206 7.09053L7.00849 7.1536L6.79262 8.38282Z"
                    fill="#FFD34F"></path>
                </g>
              </g>
            </g>
          </g>
        </g>
      </g>
    </g>
    <defs>
      <clippath id="clip0_1838_770">
        <rect width="20" height="20" fill="white"></rect>
      </clippath>
    </defs>
  </symbol>
  <symbol viewbox="0 0 20 20" fill="none" xmlns="http://www.w3.org/2000/svg" id="icon-flag-ru">
    <g id="flag-ru-svgrepo-com" clip-path="url(#clip0_1838_792)">
      <g id="Clip path group">
        <mask id="mask0_1838_792" style="mask-type:luminance" maskunits="userSpaceOnUse" x="0" y="2" width="20"
          height="16">
          <g id="clip0_503_2726">
            <path id="Vector"
              d="M18.5714 2.85715H1.42857C0.639593 2.85715 0 3.49674 0 4.28572V15.7143C0 16.5033 0.639593 17.1429 1.42857 17.1429H18.5714C19.3604 17.1429 20 16.5033 20 15.7143V4.28572C20 3.49674 19.3604 2.85715 18.5714 2.85715Z"
              fill="white"></path>
          </g>
        </mask>
        <g mask="url(#mask0_1838_792)">
          <g id="Group">
            <path id="Vector_2"
              d="M18.5713 3.03572H1.42847C0.738111 3.03572 0.178467 3.59536 0.178467 4.28572V15.7143C0.178467 16.4046 0.738111 16.9643 1.42847 16.9643H18.5713C19.2617 16.9643 19.8213 16.4046 19.8213 15.7143V4.28572C19.8213 3.59536 19.2617 3.03572 18.5713 3.03572Z"
              fill="white" stroke="#F5F5F5" stroke-width="14.2857"></path>
            <g id="Mask group">
              <mask id="mask1_1838_792" style="mask-type:alpha" maskunits="userSpaceOnUse" x="-7" y="-5" width="34"
                height="30">
                <g id="Group_2">
                  <path id="Vector_3"
                    d="M18.5713 3.03572H1.42847C0.738111 3.03572 0.178467 3.59536 0.178467 4.28572V15.7143C0.178467 16.4046 0.738111 16.9643 1.42847 16.9643H18.5713C19.2617 16.9643 19.8213 16.4046 19.8213 15.7143V4.28572C19.8213 3.59536 19.2617 3.03572 18.5713 3.03572Z"
                    fill="white" stroke="white" stroke-width="14.2857"></path>
                </g>
              </mask>
              <g mask="url(#mask1_1838_792)">
                <g id="Group_3">
                  <path id="Vector_4" fill-rule="evenodd" clip-rule="evenodd" d="M0 12.3809H20V7.61905H0V12.3809Z"
                    fill="#0C47B7"></path>
                  <path id="Vector_5" fill-rule="evenodd" clip-rule="evenodd" d="M0 17.1428H20V12.3809H0V17.1428Z"
                    fill="#E53B35"></path>
                </g>
              </g>
            </g>
          </g>
        </g>
      </g>
    </g>
    <defs>
      <clippath id="clip0_1838_792">
        <rect width="20" height="20" fill="white"></rect>
      </clippath>
    </defs>
  </symbol>
  <symbol viewbox="0 0 20 20" fill="none" xmlns="http://www.w3.org/2000/svg" id="icon-flag-th">
    <g id="flag-th-svgrepo-com" clip-path="url(#clip0_1838_817)">
      <g id="Clip path group">
        <mask id="mask0_1838_817" style="mask-type:luminance" maskunits="userSpaceOnUse" x="0" y="2" width="20"
          height="16">
          <g id="clip0_503_2920">
            <path id="Vector"
              d="M18.5714 2.85715H1.42857C0.639593 2.85715 0 3.49674 0 4.28572V15.7143C0 16.5033 0.639593 17.1429 1.42857 17.1429H18.5714C19.3604 17.1429 20 16.5033 20 15.7143V4.28572C20 3.49674 19.3604 2.85715 18.5714 2.85715Z"
              fill="white"></path>
          </g>
        </mask>
        <g mask="url(#mask0_1838_817)">
          <g id="Group">
            <path id="Vector_2"
              d="M18.5713 3.03572H1.42847C0.738111 3.03572 0.178467 3.59536 0.178467 4.28572V15.7143C0.178467 16.4046 0.738111 16.9643 1.42847 16.9643H18.5713C19.2617 16.9643 19.8213 16.4046 19.8213 15.7143V4.28572C19.8213 3.59536 19.2617 3.03572 18.5713 3.03572Z"
              fill="white" stroke="#F5F5F5" stroke-width="14.2857"></path>
            <g id="Mask group">
              <mask id="mask1_1838_817" style="mask-type:alpha" maskunits="userSpaceOnUse" x="-7" y="-5" width="34"
                height="30">
                <g id="Group_2">
                  <path id="Vector_3"
                    d="M18.5713 3.03572H1.42847C0.738111 3.03572 0.178467 3.59536 0.178467 4.28572V15.7143C0.178467 16.4046 0.738111 16.9643 1.42847 16.9643H18.5713C19.2617 16.9643 19.8213 16.4046 19.8213 15.7143V4.28572C19.8213 3.59536 19.2617 3.03572 18.5713 3.03572Z"
                    fill="white" stroke="white" stroke-width="14.2857"></path>
                </g>
              </mask>
              <g mask="url(#mask1_1838_817)">
                <g id="Group_3">
                  <path id="Vector_4" fill-rule="evenodd" clip-rule="evenodd" d="M0 5.71429H20V2.85715H0V5.71429Z"
                    fill="#F12532"></path>
                  <path id="Vector_5" fill-rule="evenodd" clip-rule="evenodd" d="M0 17.1429H20V14.2857H0V17.1429Z"
                    fill="#F12532"></path>
                  <path id="Vector_6" fill-rule="evenodd" clip-rule="evenodd" d="M0 12.3809H20V7.61905H0V12.3809Z"
                    fill="#322B6C"></path>
                </g>
              </g>
            </g>
          </g>
        </g>
      </g>
    </g>
    <defs>
      <clippath id="clip0_1838_817">
        <rect width="20" height="20" fill="white"></rect>
      </clippath>
    </defs>
  </symbol>
  <symbol viewbox="0 0 20 20" fill="none" xmlns="http://www.w3.org/2000/svg" id="icon-flag-tr">
    <g id="flag-tr-svgrepo-com" clip-path="url(#clip0_1838_804)">
      <g id="Clip path group">
        <mask id="mask0_1838_804" style="mask-type:luminance" maskunits="userSpaceOnUse" x="0" y="2" width="20"
          height="16">
          <g id="clip0_503_4206">
            <path id="Vector"
              d="M18.5714 2.85715H1.42857C0.639593 2.85715 0 3.49674 0 4.28572V15.7143C0 16.5033 0.639593 17.1429 1.42857 17.1429H18.5714C19.3604 17.1429 20 16.5033 20 15.7143V4.28572C20 3.49674 19.3604 2.85715 18.5714 2.85715Z"
              fill="white"></path>
          </g>
        </mask>
        <g mask="url(#mask0_1838_804)">
          <g id="Group">
            <path id="Vector_2"
              d="M18.5714 2.85715H1.42857C0.639593 2.85715 0 3.49674 0 4.28572V15.7143C0 16.5033 0.639593 17.1429 1.42857 17.1429H18.5714C19.3604 17.1429 20 16.5033 20 15.7143V4.28572C20 3.49674 19.3604 2.85715 18.5714 2.85715Z"
              fill="white"></path>
            <g id="Mask group">
              <mask id="mask1_1838_804" style="mask-type:alpha" maskunits="userSpaceOnUse" x="0" y="2" width="20"
                height="16">
                <g id="Group_2">
                  <path id="Vector_3"
                    d="M18.5714 2.85715H1.42857C0.639593 2.85715 0 3.49674 0 4.28572V15.7143C0 16.5033 0.639593 17.1429 1.42857 17.1429H18.5714C19.3604 17.1429 20 16.5033 20 15.7143V4.28572C20 3.49674 19.3604 2.85715 18.5714 2.85715Z"
                    fill="white"></path>
                </g>
              </mask>
              <g mask="url(#mask1_1838_804)">
                <g id="Group_3">
                  <path id="Vector_4" d="M20 2.85715H0V17.1429H20V2.85715Z" fill="#E92434"></path>
                  <path id="Vector_5" fill-rule="evenodd" clip-rule="evenodd"
                    d="M13.5863 10.5489L12.7114 11.6095L12.7711 10.2359L11.4919 9.7316L12.8167 9.36379L12.9011 7.99142L13.6603 9.13777L14.9915 8.79387L14.1359 9.87016L14.8744 11.03L13.5863 10.5489Z"
                    fill="white"></path>
                  <path id="Vector_6" fill-rule="evenodd" clip-rule="evenodd"
                    d="M12.4305 12.6313C11.6463 13.6382 10.4225 14.2857 9.04743 14.2857C6.6805 14.2857 4.76172 12.3669 4.76172 10C4.76172 7.63307 6.6805 5.71429 9.04743 5.71429C10.4225 5.71429 11.6463 6.36186 12.4305 7.36866C11.8253 6.92872 11.0644 6.66666 10.2378 6.66666C8.26536 6.66666 6.66637 8.15904 6.66637 9.99999C6.66637 11.8409 8.26536 13.3333 10.2378 13.3333C11.0644 13.3333 11.8254 13.0712 12.4305 12.6313Z"
                    fill="white"></path>
                </g>
              </g>
            </g>
          </g>
        </g>
      </g>
    </g>
    <defs>
      <clippath id="clip0_1838_804">
        <rect width="20" height="20" fill="white"></rect>
      </clippath>
    </defs>
  </symbol>
  <symbol viewbox="0 0 20 20" fill="none" xmlns="http://www.w3.org/2000/svg" id="icon-flag">
    <path
      d="M12.6659 5.96666L5.99927 3.08332V2.29166C5.99927 1.94999 5.71593 1.66666 5.37427 1.66666C5.0326 1.66666 4.74927 1.94999 4.74927 2.29166V17.7083C4.74927 18.05 5.0326 18.3333 5.37427 18.3333C5.71593 18.3333 5.99927 18.05 5.99927 17.7083V14.4083L12.8493 11.025C12.8493 11.025 12.8493 11.025 12.8576 11.025C14.2409 10.3083 14.9826 9.38332 14.9409 8.40832C14.8992 7.43332 14.0909 6.56666 12.6659 5.96666Z"
      fill="#9E5FC4"></path>
  </symbol>
  <symbol viewbox="0 0 28 28" fill="none" xmlns="http://www.w3.org/2000/svg" id="icon-pin">
    <path
      d="M14.4025 3.85004C12.1886 3.85004 10.0654 4.7295 8.4999 6.29496C6.93444 7.86042 6.05498 9.98363 6.05498 12.1975C6.04811 14.2748 6.82285 16.2788 8.22532 17.8112L14.006 24.5362C14.0549 24.5934 14.1157 24.6394 14.1842 24.6709C14.2526 24.7025 14.3271 24.7188 14.4025 24.7188C14.4778 24.7188 14.5523 24.7025 14.6207 24.6709C14.6892 24.6394 14.75 24.5934 14.799 24.5362L20.5796 17.8112C21.9821 16.2788 22.7568 14.2748 22.75 12.1975C22.75 9.98363 21.8705 7.86042 20.305 6.29496C18.7396 4.7295 16.6164 3.85004 14.4025 3.85004ZM19.7866 17.133L14.4025 23.3988L9.01834 17.1382C8.06041 16.0932 7.42728 14.7921 7.19615 13.3934C6.96502 11.9948 7.14589 10.5592 7.71669 9.26156C8.28749 7.96396 9.22356 6.8605 10.4107 6.08577C11.5979 5.31105 12.9849 4.89852 14.4025 4.89852C15.8201 4.89852 17.207 5.31105 18.3942 6.08577C19.5814 6.8605 20.5174 7.96396 21.0882 9.26156C21.659 10.5592 21.8399 11.9948 21.6088 13.3934C21.3777 14.7921 20.7445 16.0932 19.7866 17.1382V17.133Z"
      fill="white"></path>
    <path
      d="M14.4025 8.54547C13.6802 8.54547 12.9741 8.75966 12.3736 9.16095C11.773 9.56224 11.3049 10.1326 11.0285 10.7999C10.7521 11.4672 10.6797 12.2015 10.8207 12.91C10.9616 13.6184 11.3094 14.2691 11.8201 14.7799C12.3309 15.2906 12.9816 15.6384 13.69 15.7794C14.3985 15.9203 15.1328 15.8479 15.8001 15.5715C16.4674 15.2951 17.0378 14.827 17.4391 14.2265C17.8404 13.6259 18.0545 12.9198 18.0545 12.1975C18.0545 11.2289 17.6698 10.3 16.9849 9.61512C16.3 8.93024 15.3711 8.54547 14.4025 8.54547ZM14.4025 14.8061C13.8866 14.8061 13.3822 14.6531 12.9533 14.3665C12.5243 14.0798 12.1899 13.6724 11.9925 13.1958C11.7951 12.7191 11.7434 12.1946 11.844 11.6886C11.9447 11.1826 12.1931 10.7178 12.558 10.3529C12.9228 9.98813 13.3876 9.73968 13.8936 9.63903C14.3996 9.53838 14.9241 9.59004 15.4008 9.78747C15.8774 9.98491 16.2848 10.3193 16.5715 10.7482C16.8581 11.1772 17.0111 11.6816 17.0111 12.1975C17.0111 12.8893 16.7363 13.5528 16.2471 14.042C15.7579 14.5313 15.0944 14.8061 14.4025 14.8061Z"
      fill="white"></path>
  </symbol>
  <symbol viewbox="0 0 20 20" fill="none" xmlns="http://www.w3.org/2000/svg" id="icon-vk">
    <path fill-rule="evenodd" clip-rule="evenodd"
      d="M18.7447 4.95695C18.8722 4.50164 18.7447 4.16699 18.1382 4.16699H16.1325C15.6225 4.16699 15.3875 4.45605 15.26 4.77489C15.26 4.77489 14.24 7.43872 12.795 9.16908C12.3276 9.66997 12.1151 9.82916 11.8601 9.82916C11.7326 9.82916 11.5481 9.66998 11.5481 9.21467V4.95695C11.5481 4.41046 11.4001 4.16699 10.975 4.16699H7.82325C7.50463 4.16699 7.31295 4.42059 7.31295 4.66098C7.31295 5.17908 8.03528 5.29851 8.10977 6.75561V9.9205C8.10977 10.6144 7.99287 10.7402 7.73786 10.7402C7.05794 10.7402 5.40411 8.06427 4.42305 5.00254C4.23079 4.40739 4.03796 4.16699 3.52537 4.16699H1.51969C0.946641 4.16699 0.832031 4.45605 0.832031 4.77489C0.832031 5.3441 1.5121 8.16743 3.99814 11.9014C5.65568 14.4512 7.99058 15.8337 10.1154 15.8337C11.3905 15.8337 11.5481 15.5266 11.5481 14.9978V13.0705C11.5481 12.4565 11.6688 12.334 12.0724 12.334C12.3701 12.334 12.88 12.4933 14.0701 13.7228C15.4299 15.1797 15.654 15.8337 16.419 15.8337H18.4247C18.9977 15.8337 19.2843 15.5266 19.1189 14.9207C18.9381 14.3168 18.2889 13.4409 17.4273 12.4023C16.9598 11.8102 16.2586 11.1727 16.0462 10.854C15.7487 10.4441 15.8336 10.2621 16.0462 9.89794C16.0462 9.89794 18.4897 6.20943 18.7447 4.9571V4.95695Z"
      fill="#9E5FC4"></path>
  </symbol>
  <symbol viewbox="0 0 20 20" fill="none" xmlns="http://www.w3.org/2000/svg" id="icon-youtube">
    <path
      d="M18.9906 5.49952C18.7745 4.69629 18.1412 4.06315 17.3381 3.84686C15.8708 3.44531 10.0018 3.44531 10.0018 3.44531C10.0018 3.44531 4.13284 3.44531 2.66557 3.83155C1.87793 4.0477 1.2292 4.69643 1.01305 5.49952C0.626953 6.96664 0.626953 10.0093 0.626953 10.0093C0.626953 10.0093 0.626953 13.0673 1.01305 14.5191C1.22934 15.3222 1.86248 15.9555 2.66571 16.1718C4.14829 16.5733 10.0019 16.5733 10.0019 16.5733C10.0019 16.5733 15.8708 16.5733 17.3381 16.1871C18.1413 15.971 18.7745 15.3377 18.9908 14.5346C19.3769 13.0673 19.3769 10.0248 19.3769 10.0248C19.3769 10.0248 19.3923 6.96664 18.9906 5.49952Z"
      fill="#9E5FC4"></path>
    <path d="M8.13477 12.82L13.0152 10.0091L8.13477 7.19812V12.82Z" fill="white"></path>
  </symbol>
  <symbol viewBox="0 0 16 16" fill="none" xmlns="http://www.w3.org/2000/svg" id="icon-filter">
    <path
      d="M15.1772 13.6719H9.68848C9.3018 13.6719 8.98828 13.3584 8.98828 12.9717C8.98828 12.585 9.3018 12.2715 9.68848 12.2715H15.1772C15.5639 12.2715 15.8774 12.585 15.8774 12.9717C15.8774 13.3584 15.5639 13.6719 15.1772 13.6719Z"
      fill="#9E5FC4" />
    <path
      d="M9.55772 3.72657H0.823247C0.436561 3.72657 0.123047 3.41306 0.123047 3.02637C0.123047 2.63969 0.436561 2.32617 0.823247 2.32617H9.55772C9.9444 2.32617 10.2579 2.63969 10.2579 3.02637C10.2579 3.41306 9.9444 3.72657 9.55772 3.72657Z"
      fill="#9E5FC4" />
    <path
      d="M15.1769 8.69923H5.62403C5.23734 8.69923 4.92383 8.38571 4.92383 7.99903C4.92383 7.61234 5.23734 7.29883 5.62403 7.29883H15.1769C15.5635 7.29883 15.8771 7.61234 15.8771 7.99903C15.8771 8.38571 15.5635 8.69923 15.1769 8.69923Z"
      fill="#9E5FC4" />
    <path
      d="M6.4427 13.6719H0.823247C0.436561 13.6719 0.123047 13.3584 0.123047 12.9717C0.123047 12.585 0.436561 12.2715 0.823247 12.2715H6.4427C6.82939 12.2715 7.1429 12.585 7.1429 12.9717C7.1429 13.3584 6.82939 13.6719 6.4427 13.6719Z"
      fill="#9E5FC4" />
    <path
      d="M2.5095 8.69923H0.823247C0.436561 8.69923 0.123047 8.38571 0.123047 7.99903C0.123047 7.61234 0.436561 7.29883 0.823247 7.29883H2.5095C2.89619 7.29883 3.2097 7.61234 3.2097 7.99903C3.2097 8.38571 2.89619 8.69923 2.5095 8.69923Z"
      fill="#9E5FC4" />
    <path
      d="M15.1783 3.72657H12.7041C12.3174 3.72657 12.0039 3.41306 12.0039 3.02637C12.0039 2.63969 12.3174 2.32617 12.7041 2.32617H15.1783C15.5649 2.32617 15.8785 2.63969 15.8785 3.02637C15.8785 3.41306 15.5649 3.72657 15.1783 3.72657Z"
      fill="#9E5FC4" />
    <path
      d="M8.95848 14.5293H7.04343C6.71206 14.5293 6.44336 14.2606 6.44336 13.9292V12.0141C6.44336 11.6828 6.71206 11.4141 7.04343 11.4141H8.95848C9.28985 11.4141 9.55855 11.6828 9.55855 12.0141V13.9292C9.55855 14.2606 9.28985 14.5293 8.95848 14.5293Z"
      fill="#9E5FC4" />
    <path
      d="M5.02488 9.5566H3.10984C2.77847 9.5566 2.50977 9.28789 2.50977 8.95652V7.04148C2.50977 6.71011 2.77847 6.44141 3.10984 6.44141H5.02488C5.35625 6.44141 5.62496 6.71011 5.62496 7.04148V8.95652C5.62496 9.28789 5.35625 9.5566 5.02488 9.5566Z"
      fill="#9E5FC4" />
    <path
      d="M12.0737 4.58394H10.1587C9.8273 4.58394 9.55859 4.31524 9.55859 3.98387V2.06882C9.55859 1.73745 9.8273 1.46875 10.1587 1.46875H12.0737C12.4051 1.46875 12.6738 1.73745 12.6738 2.06882V3.98387C12.6736 4.31541 12.4051 4.58394 12.0737 4.58394Z"
      fill="#9E5FC4" />
  </symbol>
  <symbol viewBox="0 0 20 20" fill="none" xmlns="http://www.w3.org/2000/svg" id="icon-close">
    <path fill-rule="evenodd" clip-rule="evenodd"
      d="M16.296 17.8213L2.15387 3.67914L3.09668 2.73633L17.2388 16.8785L16.296 17.8213Z" fill="#242424" />
    <path fill-rule="evenodd" clip-rule="evenodd"
      d="M16.9629 3.67958L2.82074 17.8217L1.87793 16.8789L16.0201 2.73677L16.9629 3.67958Z" fill="#242424" />
  </symbol>
  <symbol id="icon-luggage" viewBox="0 0 80 149" fill="none" xmlns="http://www.w3.org/2000/svg">
    <path d="M64.1062 61.2251L24.0858 50.0761L3.38855 124.743L43.409 135.892L64.1062 61.2251Z" fill="#FFC727" />
    <g opacity="0.1">
      <path d="M61.6577 70.0925L21.6373 58.9435L21.5114 59.3979L61.5318 70.547L61.6577 70.0925Z" fill="#020100" />
      <path d="M59.4225 78.1669L19.4021 67.0179L19.2761 67.4723L59.2965 78.6214L59.4225 78.1669Z" fill="#020100" />
      <path d="M57.1725 86.233L17.1521 75.084L17.0261 75.5385L57.0465 86.6875L57.1725 86.233Z" fill="#020100" />
      <path d="M54.939 94.2944L14.9186 83.1454L14.7926 83.5999L54.813 94.7489L54.939 94.2944Z" fill="#020100" />
      <path d="M52.7036 102.368L12.6832 91.219L12.5573 91.6734L52.5777 102.822L52.7036 102.368Z" fill="#020100" />
      <path d="M50.4679 110.436L10.4475 99.287L10.3215 99.7415L50.3419 110.89L50.4679 110.436Z" fill="#020100" />
      <path d="M48.2326 118.503L8.21216 107.354L8.08619 107.808L48.1066 118.957L48.2326 118.503Z" fill="#020100" />
      <path d="M45.9986 126.57L5.97815 115.421L5.85218 115.875L45.8726 127.024L45.9986 126.57Z" fill="#020100" />
    </g>
    <path d="M45.6737 56.0697L42.5852 55.2099L21.9009 129.88L24.9894 130.74L45.6737 56.0697Z" fill="#263238" />
    <path d="M45.6338 84.1457L42.2976 83.2163L36.0441 105.776L39.3803 106.706L45.6338 84.1457Z" fill="#263238" />
    <path d="M44.9882 130.298L35.3722 127.622L29.9761 132.14L43.437 135.891L44.9882 130.298Z" fill="#263238" />
    <path d="M4.96539 119.154L14.574 121.829L16.8751 128.491L3.41418 124.74L4.96539 119.154Z" fill="#263238" />
    <path d="M34.7687 140.695L38.3269 141.69L42.5394 135.64L34.8643 133.502L36.1287 137.467L34.7687 140.695Z"
      fill="#263238" />
    <path
      d="M30.9014 141.808C30.1515 144.52 31.7321 147.335 34.4449 148.087C37.1503 148.839 39.9586 147.254 40.7085 144.535C41.4584 141.815 39.8778 139.007 37.165 138.255C34.4596 137.504 31.6512 139.088 30.9014 141.808Z"
      fill="#37474F" />
    <path
      d="M33.1292 142.427C32.7175 143.908 33.585 145.449 35.0627 145.861C36.5404 146.274 38.0769 145.404 38.4886 143.923C38.9003 142.442 38.0328 140.901 36.5551 140.489C35.0774 140.076 33.5409 140.946 33.1292 142.427Z"
      fill="#DBDBDB" />
    <path
      d="M36.2025 141.534C36.0922 141.917 36.0554 142.249 36.1142 142.264C36.1731 142.278 36.3054 141.976 36.4083 141.593C36.5186 141.21 36.5554 140.878 36.4965 140.863C36.4377 140.849 36.3054 141.151 36.2025 141.534Z"
      fill="#263238" />
    <path
      d="M37.2461 142.292C36.9006 142.491 36.6433 142.69 36.6727 142.742C36.7021 142.794 37.0109 142.676 37.3564 142.477C37.7019 142.278 37.9592 142.079 37.9298 142.027C37.9004 141.976 37.5917 142.094 37.2461 142.292Z"
      fill="#263238" />
    <path
      d="M37.4449 143.569C37.0626 143.458 36.7318 143.421 36.7171 143.48C36.7024 143.539 37.0038 143.672 37.3861 143.775C37.7683 143.886 38.0992 143.923 38.1139 143.864C38.1286 143.805 37.8272 143.672 37.4449 143.569Z"
      fill="#263238" />
    <path
      d="M36.6879 144.615C36.4895 144.269 36.291 144.011 36.2395 144.04C36.188 144.07 36.3057 144.379 36.5042 144.726C36.7027 145.072 36.9011 145.33 36.9526 145.3C37.0041 145.271 36.8864 144.961 36.6879 144.615Z"
      fill="#263238" />
    <path
      d="M35.4083 144.814C35.5186 144.431 35.5554 144.099 35.4965 144.084C35.4377 144.069 35.3054 144.372 35.2025 144.755C35.0922 145.138 35.0554 145.47 35.1142 145.485C35.1731 145.499 35.3054 145.197 35.4083 144.814Z"
      fill="#263238" />
    <path
      d="M34.3641 144.055C34.7096 143.856 34.9669 143.657 34.9375 143.606C34.9081 143.554 34.5993 143.672 34.2538 143.871C33.9083 144.07 33.651 144.269 33.6804 144.321C33.7098 144.372 34.0186 144.254 34.3641 144.055Z"
      fill="#263238" />
    <path
      d="M34.1661 142.779C34.5484 142.89 34.8792 142.927 34.8939 142.868C34.9086 142.809 34.6072 142.676 34.2249 142.573C33.8426 142.463 33.5118 142.426 33.4971 142.485C33.4824 142.544 33.7838 142.676 34.1661 142.779Z"
      fill="#263238" />
    <path
      d="M34.9308 141.733C35.1293 142.079 35.3278 142.337 35.3792 142.308C35.4307 142.278 35.3131 141.969 35.1146 141.622C34.9161 141.276 34.7176 141.018 34.6661 141.048C34.6147 141.077 34.7323 141.387 34.9308 141.733Z"
      fill="#263238" />
    <path d="M8.36156 133.348L4.8107 132.353L4.31079 124.99L11.9859 127.127L8.86147 129.869L8.36156 133.348Z"
      fill="#263238" />
    <path
      d="M11.104 136.295C10.3541 139.008 7.54578 140.6 4.84036 139.848C2.13495 139.096 0.546986 136.281 1.29686 133.568C2.04673 130.856 4.85507 129.264 7.56048 130.016C10.2659 130.768 11.8539 133.583 11.104 136.295Z"
      fill="#37474F" />
    <path
      d="M8.88372 135.677C8.47202 137.158 6.94287 138.028 5.45784 137.615C3.98015 137.202 3.11266 135.669 3.52435 134.181C3.93604 132.699 5.46519 131.829 6.95022 132.242C8.42791 132.655 9.29541 134.188 8.88372 135.677Z"
      fill="#DBDBDB" />
    <path
      d="M6.70798 133.318C6.5977 133.701 6.46538 134.003 6.41392 133.989C6.3551 133.974 6.39921 133.65 6.50213 133.259C6.61241 132.876 6.74474 132.574 6.7962 132.588C6.85501 132.603 6.8109 132.927 6.70798 133.318Z"
      fill="#263238" />
    <path
      d="M5.42171 133.428C5.62021 133.774 5.73783 134.084 5.68637 134.113C5.63491 134.143 5.43641 133.885 5.23792 133.538C5.03942 133.192 4.9218 132.882 4.97326 132.853C5.02472 132.824 5.22322 133.081 5.42171 133.428Z"
      fill="#263238" />
    <path
      d="M4.59088 134.423C4.97316 134.533 5.27459 134.666 5.25988 134.718C5.24518 134.777 4.9217 134.732 4.53206 134.629C4.14978 134.519 3.84836 134.386 3.86306 134.334C3.87777 134.275 4.20124 134.32 4.59088 134.423Z"
      fill="#263238" />
    <path
      d="M4.70793 135.713C5.05345 135.514 5.36222 135.396 5.39163 135.447C5.42104 135.499 5.16373 135.698 4.8182 135.897C4.47267 136.096 4.1639 136.214 4.13449 136.162C4.10509 136.111 4.3624 135.912 4.70793 135.713Z"
      fill="#263238" />
    <path
      d="M5.69306 136.538C5.80333 136.155 5.93566 135.853 5.98712 135.868C6.04594 135.882 6.00182 136.207 5.8989 136.597C5.78863 136.98 5.65629 137.283 5.60483 137.268C5.54602 137.253 5.59013 136.929 5.69306 136.538Z"
      fill="#263238" />
    <path
      d="M6.98011 136.428C6.78161 136.082 6.66399 135.772 6.71545 135.743C6.76691 135.713 6.9654 135.971 7.1639 136.318C7.36239 136.664 7.48002 136.973 7.42856 137.003C7.3771 137.032 7.1786 136.774 6.98011 136.428Z"
      fill="#263238" />
    <path
      d="M7.81099 135.433C7.42871 135.322 7.12729 135.189 7.142 135.138C7.1567 135.079 7.48017 135.123 7.86981 135.226C8.2521 135.337 8.55352 135.469 8.53881 135.521C8.52411 135.58 8.20063 135.536 7.81099 135.433Z"
      fill="#263238" />
    <path
      d="M7.69307 134.15C7.34755 134.349 7.03878 134.467 7.00937 134.415C6.97996 134.363 7.23727 134.164 7.5828 133.965C7.92833 133.766 8.2371 133.648 8.2665 133.7C8.29591 133.752 8.0386 133.951 7.69307 134.15Z"
      fill="#263238" />
    <path d="M54.2342 54.8266L47.5543 52.967L46.6219 56.333L53.3017 58.1926L54.2342 54.8266Z" fill="#263238" />
    <path d="M78.4992 2.8228L75.4604 1.97626L59.3888 59.9557L62.4275 60.8022L78.4992 2.8228Z" fill="#C7C7C7" />
    <path d="M79.3856 2.15477L75.0577 0.949097L73.0343 8.24889L77.3621 9.45456L79.3856 2.15477Z" fill="#263238" />
  </symbol>
  <symbol id="icon-plane" viewBox="0 0 340 83" fill="none" xmlns="http://www.w3.org/2000/svg">
    <g opacity="0.6">
      <path d="M262.762 49.0961L1.44067 105.941L235.957 35.7071L262.762 49.0961Z" fill="#EBEBEB" />
      <path
        d="M226.308 66.1391C212.408 69.7202 198.423 72.8628 184.423 75.8739C177.422 77.4086 170.408 78.7972 163.394 80.2589L142.321 84.4101L121.206 88.3274C114.148 89.5552 107.105 90.8561 100.047 91.9962C85.9175 94.3641 71.7733 96.5858 57.5427 98.3691C71.442 94.788 85.4134 91.6307 99.4279 88.6343C106.428 87.0849 113.442 85.711 120.457 84.2493L141.529 80.1127L162.645 76.2101C169.702 74.9822 176.746 73.6814 183.803 72.5412C197.933 70.1733 212.077 67.9516 226.308 66.1683V66.1391Z"
        fill="#EBEBEB" />
      <path
        d="M127.327 61.5788C118.569 64.9114 109.769 68.054 100.911 71.0212C92.0671 74.0323 83.1658 76.8826 74.2645 79.689C65.3487 82.4515 56.4042 85.1849 47.4309 87.7428C38.4575 90.3446 29.441 92.771 20.3524 95.0073C29.0953 91.6747 37.9102 88.5321 46.7683 85.5503C55.612 82.5392 64.5133 79.689 73.4147 76.8826C82.3304 74.12 91.2749 71.4013 100.248 68.8287C109.222 66.2269 118.238 63.8005 127.327 61.5496V61.5788Z"
        fill="#EBEBEB" />
    </g>
    <path
      d="M269.372 51.1853C268.868 50.6006 261.868 45.6309 261.335 45.2655L262.531 45.0609C262.531 45.0609 268.926 50.586 269.372 51.1999V51.1853Z"
      fill="#FFC727" />
    <path opacity="0.5"
      d="M269.372 51.1853C268.868 50.6006 261.868 45.6309 261.335 45.2655L262.531 45.0609C262.531 45.0609 268.926 50.586 269.372 51.1999V51.1853Z"
      fill="white" />
    <path
      d="M269.401 51.2291C269.401 51.2291 269.401 51.2437 269.401 51.2584C269.343 51.3899 268.868 51.4922 268.335 51.5653C268.335 51.5653 268.335 51.5653 268.321 51.5653C267.658 51.653 266.938 51.6676 266.823 51.5945C266.679 51.4922 261.623 48.9197 258.526 47.3557C258.483 47.3411 258.44 47.3118 258.411 47.2972H258.382C258.238 47.2241 258.08 47.151 257.95 47.078C257.417 46.8149 256.985 46.5956 256.683 46.4348C256.366 46.274 256.193 46.1863 256.193 46.1863L261.393 45.2801C261.695 45.4847 264.057 47.1657 266.146 48.6858C266.218 48.7297 266.29 48.7881 266.362 48.8466C266.563 48.9927 266.751 49.1243 266.938 49.2705C268.205 50.2059 269.243 50.9953 269.43 51.2145C269.43 51.2145 269.43 51.2291 269.444 51.2437C269.444 51.2437 269.444 51.2437 269.444 51.2584L269.401 51.2291Z"
      fill="#FFC727" />
    <g opacity="0.1">
      <path
        d="M269.402 51.229C269.402 51.229 269.402 51.2436 269.402 51.2582C269.344 51.3898 268.869 51.4921 268.336 51.5652C268.336 51.5652 268.336 51.5652 268.321 51.5652C267.659 51.6529 266.939 51.6675 266.823 51.5944C266.665 51.4921 261.48 48.8611 258.412 47.2971C258.916 47.5455 265.57 50.7905 266.91 49.2411C268.177 50.1766 269.214 50.9659 269.402 51.1851C269.402 51.1851 269.402 51.1997 269.416 51.2144C269.416 51.2144 269.416 51.2144 269.416 51.229H269.402Z"
        fill="black" />
    </g>
    <path
      d="M337.89 57.0187C337.89 57.7349 334.058 57.9541 333.54 57.808C332.964 57.6472 291.266 40.9841 291.266 40.9841L306.606 34.8158C306.721 34.9035 306.865 35.0058 307.052 35.1227C307.11 35.1666 307.182 35.2104 307.254 35.2543C310.077 37.2422 318.532 43.1912 325.906 48.4094C326.05 48.5117 326.194 48.614 326.338 48.7163C326.54 48.8479 326.727 48.9941 326.914 49.1256C332.028 52.7506 336.464 55.9224 337.89 57.0041V57.0187Z"
      fill="#FFC727" />
    <path
      d="M337.89 57.0187C334.159 54.183 309.789 37.0522 306.605 34.8158L308.55 34.0265C308.55 34.0265 336.925 55.9224 337.774 56.7994C337.847 56.8725 337.875 56.9456 337.875 57.0041L337.89 57.0187Z"
      fill="#FFC727" />
    <path opacity="0.5"
      d="M337.89 57.0187C334.159 54.183 309.789 37.0522 306.605 34.8158L308.55 34.0265C308.55 34.0265 336.925 55.9224 337.774 56.7994C337.847 56.8725 337.875 56.9456 337.875 57.0041L337.89 57.0187Z"
      fill="white" />
    <g opacity="0.5">
      <path opacity="0.1"
        d="M337.89 57.0187C337.89 57.7349 334.058 57.9541 333.54 57.808C332.964 57.6472 291.266 40.9841 291.266 40.9841L306.606 34.8158C306.606 34.8158 302.817 39.2154 311.82 45.9976C317.955 50.6165 324.495 51.5666 326.914 49.1402C332.028 52.7652 336.464 55.937 337.89 57.0187Z"
        fill="black" />
    </g>
    <path
      d="M303.106 46.4508C301.924 47.0354 300.628 47.4885 300.542 46.29C300.498 45.793 300.887 45.2668 302.789 44.3313C303.235 44.1121 304.33 43.6297 304.647 44.6383C304.949 45.603 303.552 46.2461 303.106 46.4654V46.4508Z"
      fill="#FFC727" />
    <path opacity="0.1"
      d="M303.106 46.4508C301.924 47.0354 300.628 47.4885 300.542 46.29C300.498 45.793 300.887 45.2668 302.789 44.3313C303.235 44.1121 304.33 43.6297 304.647 44.6383C304.949 45.603 303.552 46.2461 303.106 46.4654V46.4508Z"
      fill="black" />
    <path
      d="M312.784 50.4554C311.603 51.0401 310.306 51.4932 310.22 50.2946C310.177 49.7976 310.566 49.2714 312.467 48.336C312.913 48.1167 314.008 47.6344 314.325 48.6429C314.627 49.6076 313.23 50.2508 312.784 50.47V50.4554Z"
      fill="#FFC727" />
    <path opacity="0.1"
      d="M312.784 50.4554C311.603 51.0401 310.306 51.4932 310.22 50.2946C310.177 49.7976 310.566 49.2714 312.467 48.336C312.913 48.1167 314.008 47.6344 314.325 48.6429C314.627 49.6076 313.23 50.2508 312.784 50.47V50.4554Z"
      fill="black" />
    <path
      d="M322.463 54.476C321.282 55.0607 319.986 55.5138 319.9 54.3152C319.856 53.8183 320.245 53.2921 322.147 52.3566C322.593 52.1373 323.688 51.655 324.005 52.6635C324.307 53.6282 322.91 54.2714 322.463 54.4906V54.476Z"
      fill="#FFC727" />
    <path opacity="0.1"
      d="M322.463 54.476C321.282 55.0607 319.986 55.5138 319.9 54.3152C319.856 53.8183 320.245 53.2921 322.147 52.3566C322.593 52.1373 323.688 51.655 324.005 52.6635C324.307 53.6282 322.91 54.2714 322.463 54.4906V54.476Z"
      fill="black" />
    <path
      d="M319.294 43.9222C318.128 46.027 315.477 46.7871 313.807 47.4595C309.356 49.2573 306.13 50.2805 304.545 46.1732C304.344 45.647 304.228 45.15 304.185 44.6823C303.926 41.5835 307.08 40.0487 308.679 39.1864C310.609 38.1486 311.977 37.4762 313 37.0523C314.656 36.3361 315.405 36.2484 316.169 36.2192C317.062 36.1899 319.093 36.4238 319.77 40.1949C320.043 41.7735 319.813 42.9721 319.294 43.9076V43.9222Z"
      fill="#FFC727" />
    <path
      d="M319.351 40.9843C319.351 43.2938 317.925 45.1501 316.183 45.1501C314.44 45.1501 313.014 43.2792 313.014 40.9843C313.014 38.6895 314.44 36.8185 316.183 36.8185C317.925 36.8185 319.351 38.6895 319.351 40.9843Z"
      fill="#263238" />
    <path
      d="M318.977 40.9837C318.977 43.0154 317.724 44.6671 316.183 44.6671C314.642 44.6671 313.374 43.0154 313.374 40.9837C313.374 38.952 314.627 37.3003 316.183 37.3003C317.738 37.3003 318.977 38.952 318.977 40.9837Z"
      fill="#455A64" />
    <path
      d="M252.909 39.872L252.175 40.1497L250.518 40.7636C249.035 40.1058 247.004 39.2142 244.8 38.2641C239.255 35.8523 232.701 33.0167 231.434 32.5782C231.477 32.5782 231.535 32.6074 231.592 32.622C231.635 32.622 231.679 32.6513 231.736 32.6659C231.794 32.6805 231.866 32.7097 231.924 32.7244C231.952 32.7244 231.996 32.7536 232.039 32.7536C232.168 32.7974 232.312 32.8413 232.471 32.8998C232.615 32.9436 232.759 33.0021 232.917 33.0459C233.292 33.1629 233.71 33.309 234.17 33.4698C234.315 33.5137 234.459 33.5721 234.603 33.616C234.732 33.6598 234.862 33.7037 235.006 33.7475C235.078 33.7768 235.15 33.7914 235.222 33.8206C235.438 33.8937 235.668 33.9668 235.899 34.0545C236.043 34.1129 236.201 34.1568 236.36 34.2153C238.131 34.8146 240.191 35.5162 242.251 36.2178L242.813 36.4078C243.547 36.6563 244.282 36.9194 245.002 37.1532C246.356 37.621 247.652 38.0595 248.79 38.4541C248.977 38.5126 249.15 38.5857 249.323 38.6441C249.928 38.8488 250.49 39.0388 250.965 39.2142C251.109 39.2727 251.253 39.3165 251.383 39.3604C251.455 39.3896 251.512 39.4042 251.584 39.4335C251.613 39.4335 251.656 39.4627 251.685 39.4627C252.448 39.7258 252.895 39.8866 252.895 39.8866L252.909 39.872Z"
      fill="#FFC727" />
    <path opacity="0.5"
      d="M252.909 39.872L252.175 40.1497L250.518 40.7636C249.035 40.1058 247.004 39.2142 244.8 38.2641C239.255 35.8523 232.701 33.0167 231.434 32.5782C231.477 32.5782 231.535 32.6074 231.592 32.622C231.635 32.622 231.679 32.6513 231.736 32.6659C231.794 32.6805 231.866 32.7097 231.924 32.7244C231.952 32.7244 231.996 32.7536 232.039 32.7536C232.168 32.7974 232.312 32.8413 232.471 32.8998C232.615 32.9436 232.759 33.0021 232.917 33.0459C233.292 33.1629 233.71 33.309 234.17 33.4698C234.315 33.5137 234.459 33.5721 234.603 33.616C234.732 33.6598 234.862 33.7037 235.006 33.7475C235.078 33.7768 235.15 33.7914 235.222 33.8206C235.438 33.8937 235.668 33.9668 235.899 34.0545C236.043 34.1129 236.201 34.1568 236.36 34.2153C238.131 34.8146 240.191 35.5162 242.251 36.2178L242.813 36.4078C243.547 36.6563 244.282 36.9194 245.002 37.1532C246.356 37.621 247.652 38.0595 248.79 38.4541C248.977 38.5126 249.15 38.5857 249.323 38.6441C249.928 38.8488 250.49 39.0388 250.965 39.2142C251.109 39.2727 251.253 39.3165 251.383 39.3604C251.455 39.3896 251.512 39.4042 251.584 39.4335C251.613 39.4335 251.656 39.4627 251.685 39.4627C252.448 39.7258 252.895 39.8866 252.895 39.8866L252.909 39.872Z"
      fill="white" />
    <path
      d="M250.533 40.7645L246.097 42.4016C246.097 42.4016 236.202 37.7388 230.296 34.8155C230.253 34.8008 230.224 34.7862 230.224 34.7862C230.196 34.7862 230.167 34.757 230.152 34.7424C229.533 34.4354 228.957 34.1577 228.453 33.8946C226.926 33.1199 225.961 32.5937 225.99 32.5206C226.148 32.1844 229.821 32.1114 231.29 32.5206C231.29 32.5206 231.319 32.5206 231.333 32.5206C231.362 32.5206 231.391 32.5352 231.434 32.5499C232.659 32.9738 238.823 35.634 244.239 37.9873C244.282 38.0019 244.325 38.0165 244.369 38.0458C244.513 38.1189 244.657 38.1773 244.801 38.2358C247.004 39.2005 249.035 40.0921 250.519 40.7353L250.533 40.7645Z"
      fill="#FFC727" />
    <g opacity="0.1">
      <path
        d="M250.532 40.7649L246.096 42.402C246.096 42.402 236.201 37.7392 230.296 34.8159C231.275 35.2397 241.285 39.7125 243.763 39.0986C244.339 38.9524 244.685 38.6162 244.814 38.2654C247.018 39.2301 249.049 40.1217 250.532 40.7649Z"
        fill="black" />
    </g>
    <path
      d="M261.926 34.3472L251.182 39.5946C251.182 39.5946 251.297 30.2399 251.369 23.5162C251.369 23.2823 251.369 23.0485 251.369 22.8292C251.369 22.6392 251.369 22.4638 251.369 22.2884C251.398 19.9789 251.426 18.1226 251.441 17.2894C251.484 14.5853 251.772 14.0299 252.478 14.4684C253.184 14.9069 256.324 17.6841 257.274 18.9119C258.052 19.9205 259.766 26.0741 260.875 30.2838C260.875 30.3276 260.889 30.3568 260.904 30.3861C260.976 30.6346 261.033 30.8684 261.091 31.1023C261.581 33.0025 261.926 34.3472 261.926 34.3472Z"
      fill="#FFC727" />
    <g opacity="0.1">
      <path
        d="M261.926 34.3478L251.182 39.5952C251.182 39.5952 251.297 30.2404 251.369 23.5167C252.953 27.0978 256.079 31.9944 261.091 31.1174C261.581 33.0176 261.926 34.3624 261.926 34.3624V34.3478Z"
        fill="black" />
    </g>
    <path
      d="M243.662 45.325C242.553 42.5185 247.249 39.9606 252.592 37.5342C257.922 35.1078 310.508 11.5748 318.128 9.47001C325.747 7.3652 334.62 10.2447 336.132 14.659C338.379 21.295 328.902 26.8347 294.838 41.1738C290.372 43.0447 270.409 47.9121 259.189 47.956C247.191 47.9998 244.224 46.6989 243.677 45.325H243.662Z"
      fill="#FFC727" />
    <path opacity="0.5"
      d="M243.662 45.325C242.553 42.5185 247.249 39.9606 252.592 37.5342C257.922 35.1078 310.508 11.5748 318.128 9.47001C325.747 7.3652 334.62 10.2447 336.132 14.659C338.379 21.295 328.902 26.8347 294.838 41.1738C290.372 43.0447 270.409 47.9121 259.189 47.956C247.191 47.9998 244.224 46.6989 243.677 45.325H243.662Z"
      fill="white" />
    <path opacity="0.1"
      d="M294.837 41.1728C290.372 43.0584 270.409 47.9111 259.174 47.955C247.176 47.9988 244.209 46.698 243.662 45.324C243.086 43.8623 244.094 42.4591 245.952 41.1143C245.952 41.3921 245.981 41.6698 246.096 41.9475C246.586 43.2045 249.279 44.3739 260.168 44.3447C270.351 44.3154 285 35.94 289.061 34.2298C319.971 21.2209 332.041 20.1393 329.996 14.1318C329.103 11.5154 325.358 9.49827 320.936 8.94283C327.792 8.10968 334.807 10.7992 336.117 14.6872C338.364 21.3232 328.887 26.8776 294.823 41.202L294.837 41.1728Z"
      fill="black" />
    <path d="M260.327 36.0578L261.536 35.5316V37.3294L260.327 37.8556V36.0578Z" fill="#455A64" />
    <path d="M262.53 35.0939L263.826 34.5239V36.3217L262.53 36.8918V35.0939Z" fill="#455A64" />
    <path d="M264.82 34.0851L266.117 33.515V35.3275L264.82 35.8829V34.0851Z" fill="#455A64" />
    <path d="M267.111 33.0765L268.393 32.5211V34.3189L267.111 34.889V33.0765Z" fill="#455A64" />
    <path d="M269.401 32.0824L270.683 31.5123V33.3102L269.401 33.8802V32.0824Z" fill="#455A64" />
    <path d="M271.676 31.0747L272.972 30.5046V32.3171L271.676 32.8726V31.0747Z" fill="#455A64" />
    <path d="M273.967 30.0655L275.263 29.4954V31.3079L273.967 31.878V30.0655Z" fill="#455A64" />
    <path d="M276.257 29.0708L277.539 28.5007V30.2986L276.257 30.8686V29.0708Z" fill="#455A64" />
    <path d="M278.547 28.0632L279.829 27.4931V29.291L278.547 29.861V28.0632Z" fill="#455A64" />
    <path d="M280.823 27.0544L282.119 26.4844V28.2969L280.823 28.8669V27.0544Z" fill="#455A64" />
    <path d="M283.113 26.0459L284.409 25.4904V27.2883L283.113 27.8583V26.0459Z" fill="#455A64" />
    <path d="M285.403 25.0516L286.685 24.4816V26.2794L285.403 26.8495V25.0516Z" fill="#455A64" />
    <path d="M287.678 24.0439L288.975 23.4739V25.2864L287.678 25.8418V24.0439Z" fill="#455A64" />
    <path d="M289.969 23.0348L291.265 22.4794V24.2772L289.969 24.8473V23.0348Z" fill="#455A64" />
    <path d="M292.259 22.0415L293.541 21.4714V23.2693L292.259 23.8394V22.0415Z" fill="#455A64" />
    <path d="M294.55 21.0324L295.832 20.4623V22.2602L294.55 22.8303V21.0324Z" fill="#455A64" />
    <path d="M296.825 20.0233L298.121 19.4532V21.2657L296.825 21.8358V20.0233Z" fill="#455A64" />
    <path d="M299.115 19.0152L300.411 18.4597V20.2576L299.115 20.8276V19.0152Z" fill="#455A64" />
    <path d="M301.406 18.0208L302.687 17.4507V19.2486L301.406 19.8187V18.0208Z" fill="#455A64" />
    <path d="M303.695 17.0118L304.976 16.4417V18.2542L303.695 18.8096V17.0118Z" fill="#455A64" />
    <path d="M305.971 16.0037L307.267 15.4483V17.2462L305.971 17.8162V16.0037Z" fill="#455A64" />
    <path d="M309.558 14.4406V16.2385L308.261 16.8085V15.0107L309.558 14.4406Z" fill="#455A64" />
    <path d="M311.834 13.4316V15.2441L310.552 15.7995V14.0016L311.834 13.4316Z" fill="#455A64" />
    <path d="M314.123 12.4225V14.235L312.827 14.805V12.9925L314.123 12.4225Z" fill="#455A64" />
    <path d="M316.414 11.4291V13.2269L315.117 13.797V11.9991L316.414 11.4291Z" fill="#455A64" />
    <path
      d="M322.391 10.6836C323.097 10.1135 323.932 9.77733 324.782 9.54346V10.742C324.004 10.7128 323.226 10.6982 322.391 10.6689V10.6836Z"
      fill="#455A64" />
    <path
      d="M327.59 9.26511V10.9168C326.986 10.8583 326.395 10.8291 325.776 10.7999V9.35281C326.366 9.26511 326.986 9.23588 327.59 9.26511Z"
      fill="#455A64" />
    <path
      d="M333.337 11.6041C332.833 11.6041 332.372 11.5018 331.897 11.4433C331.422 11.3994 330.99 11.2971 330.529 11.2679C329.866 11.1656 329.218 11.0925 328.584 11.034V9.38232C329.377 9.49926 330.14 9.70389 330.874 10.0108C331.335 10.1862 331.768 10.4347 332.185 10.6832C332.401 10.8002 332.589 10.9609 332.79 11.1217C332.977 11.2825 333.179 11.4287 333.352 11.6041H333.337Z"
      fill="#455A64" />
    <path
      d="M292.26 26.2939L277.107 33.69C277.107 33.69 253.025 20.5933 235.741 11.0047C235.726 11.0047 235.712 10.9901 235.698 10.9901C226.465 5.87424 219.436 1.89848 219.537 1.75231C219.825 1.35766 224.463 1.40151 226.307 1.64999C226.523 1.67923 226.71 1.70846 226.825 1.75231C227.603 1.97156 254.854 12.2179 273.939 19.3948C284.309 23.2974 292.26 26.2939 292.26 26.2939Z"
      fill="#FFC727" />
    <g opacity="0.1">
      <path
        d="M292.26 26.2938L277.108 33.6899C277.108 33.6899 253.025 20.5933 235.741 11.0047C237.095 11.6917 268.077 27.5509 272.124 25.1684C273.651 24.2767 274.054 21.9527 273.953 19.3947C284.324 23.2974 292.274 26.2938 292.274 26.2938H292.26Z"
        fill="black" />
    </g>
    <path
      d="M294.463 25.285L289.969 27.4776C278.461 22.5809 230.569 3.3745 226.565 1.75204C226.522 1.73742 226.479 1.72281 226.436 1.70819C226.392 1.70819 226.364 1.67896 226.335 1.67896C226.32 1.67896 226.306 1.67896 226.306 1.67896C226.522 1.70819 226.709 1.73742 226.824 1.78127C228.02 2.11746 294.463 25.2997 294.463 25.2997V25.285Z"
      fill="#FFC727" />
    <path opacity="0.5"
      d="M294.463 25.285L289.969 27.4776C278.461 22.5809 230.569 3.3745 226.565 1.75204C226.522 1.73742 226.479 1.72281 226.436 1.70819C226.392 1.70819 226.364 1.67896 226.335 1.67896C226.32 1.67896 226.306 1.67896 226.306 1.67896C226.522 1.70819 226.709 1.73742 226.824 1.78127C228.02 2.11746 294.463 25.2997 294.463 25.2997V25.285Z"
      fill="white" />
    <path
      d="M262.013 25.6357C260.53 26.3665 258.916 26.9366 258.801 25.431C258.758 24.8171 259.233 24.1448 261.61 22.99C262.172 22.7123 263.54 22.113 263.929 23.3701C264.318 24.5833 262.56 25.3726 261.999 25.6503L262.013 25.6357Z"
      fill="#FFC727" />
    <path opacity="0.1"
      d="M262.013 25.6357C260.53 26.3665 258.916 26.9366 258.801 25.431C258.758 24.8171 259.233 24.1448 261.61 22.99C262.172 22.7123 263.54 22.113 263.929 23.3701C264.318 24.5833 262.56 25.3726 261.999 25.6503L262.013 25.6357Z"
      fill="black" />
    <path
      d="M249.193 19.0581C247.71 19.7889 246.097 20.359 245.981 18.8535C245.938 18.2396 246.413 17.5672 248.79 16.4125C249.352 16.1348 250.72 15.5355 251.109 16.7925C251.498 18.0057 249.741 18.795 249.179 19.0727L249.193 19.0581Z"
      fill="#FFC727" />
    <path opacity="0.1"
      d="M249.193 19.0581C247.71 19.7889 246.097 20.359 245.981 18.8535C245.938 18.2396 246.413 17.5672 248.79 16.4125C249.352 16.1348 250.72 15.5355 251.109 16.7925C251.498 18.0057 249.741 18.795 249.179 19.0727L249.193 19.0581Z"
      fill="black" />
    <path
      d="M236.331 12.4073C234.948 13.0943 233.45 13.6205 233.335 12.2173C233.292 11.6472 233.724 11.0187 235.956 9.93705C236.475 9.68857 237.742 9.11851 238.117 10.2879C238.477 11.4133 236.849 12.1588 236.316 12.4073H236.331Z"
      fill="#FFC727" />
    <path opacity="0.1"
      d="M236.331 12.4073C234.948 13.0943 233.45 13.6205 233.335 12.2173C233.292 11.6472 233.724 11.0187 235.956 9.93705C236.475 9.68857 237.742 9.11851 238.117 10.2879C238.477 11.4133 236.849 12.1588 236.316 12.4073H236.331Z"
      fill="black" />
    <path
      d="M281.154 24.1454C279.988 26.2502 277.337 27.0103 275.667 27.6827C271.216 29.4805 267.99 30.5037 266.405 26.3964C266.204 25.8702 266.088 25.3732 266.045 24.9055C265.786 21.8067 268.94 20.272 270.539 19.4096C272.469 18.3718 273.837 17.6994 274.86 17.2755C276.516 16.5593 277.265 16.4716 278.029 16.4424C278.922 16.4131 280.953 16.647 281.63 20.4181C281.903 21.9967 281.673 23.1953 281.154 24.1308V24.1454Z"
      fill="#FFC727" />
    <path
      d="M278.029 25.3732C279.779 25.3732 281.198 23.5081 281.198 21.2074C281.198 18.9067 279.779 17.0416 278.029 17.0416C276.279 17.0416 274.86 18.9067 274.86 21.2074C274.86 23.5081 276.279 25.3732 278.029 25.3732Z"
      fill="#263238" />
    <path
      d="M280.837 21.2068C280.837 23.2385 279.584 24.8902 278.043 24.8902C276.502 24.8902 275.234 23.2385 275.234 21.2068C275.234 19.1751 276.487 17.5234 278.043 17.5234C279.599 17.5234 280.837 19.1751 280.837 21.2068Z"
      fill="#455A64" />
    <path
      d="M232.932 33.0607C232.773 33.0024 232.629 32.9586 232.485 32.9148C232.629 32.9586 232.773 33.017 232.932 33.0607Z"
      fill="#FFC727" />
  </symbol>
  <symbol id="icon-confetti" viewBox="0 0 60 60" fill="none" xmlns="http://www.w3.org/2000/svg">
    <g clip-path="url(#clip0_2_4812)">
      <path
        d="M25.7259 27.9037C24.5843 27.9037 23.6588 26.9782 23.6588 25.8366C23.6588 24.695 24.5843 23.7695 25.7259 23.7695C26.8675 23.7695 27.7929 24.695 27.7929 25.8366C27.7929 26.9782 26.8675 27.9037 25.7259 27.9037Z"
        fill="#FAA074" />
      <path
        d="M46.0069 37.5343L59.8391 51.3654C60.4877 52.0139 59.1164 54.4367 56.7763 56.7766C54.4361 59.1166 52.0132 60.4877 51.3646 59.8391L47.4852 55.9598L46.0069 37.5343Z"
        fill="#8D58CD" />
      <path
        d="M42.2896 46.008L54.7988 58.5161C53.1995 59.7334 51.8284 60.3027 51.3646 59.839L47.4852 55.9596L42.2896 46.008Z"
        fill="#5C2CC7" />
      <path
        d="M41.2832 32.8105L55.9602 47.4861C56.6088 48.1346 55.2375 50.5573 52.8974 52.8972C50.5572 55.2372 48.1343 56.6083 47.4857 55.9598L45.6332 54.1075L44.4648 51.7939L42.565 51.0396L32.8085 41.2843L41.2832 32.8105Z"
        fill="#FAA074" />
      <path
        d="M35.1864 38.9053L50.9189 54.6364C49.3197 55.8537 47.9486 56.423 47.4847 55.9593L45.6322 54.1071L44.7368 51.7735L42.564 51.0391L32.8076 41.2837L35.1864 38.9053Z"
        fill="#EAC941" />
      <path
        d="M32.9115 41.3808C32.263 40.7323 33.634 38.3099 35.9738 35.9701C38.3135 33.6304 40.7359 32.2594 41.3844 32.9079C42.0329 33.5563 40.6618 35.9788 38.3221 38.3185C35.9824 40.6582 33.56 42.0292 32.9115 41.3808Z"
        fill="#8D58CD" />
      <path
        d="M29.7829 39.2574C30.1021 39.2574 30.4109 39.0856 30.5712 38.7839C30.8024 38.3491 30.6374 37.8089 30.2024 37.5776C26.3825 35.5464 18.4627 32.6879 8.33814 36.3638C7.87513 36.532 7.63607 37.0436 7.80411 37.5066C7.97228 37.9696 8.4838 38.2087 8.94692 38.0406C18.4225 34.6001 25.8065 37.2605 29.3647 39.1527C29.4983 39.2236 29.6417 39.2574 29.7829 39.2574Z"
        fill="#8D58CD" />
      <path
        d="M31.5306 32.4217C31.7589 32.4217 31.9872 32.3346 32.1614 32.1604C32.5097 31.812 32.5097 31.2472 32.1613 30.8989L30.487 29.2249C30.1389 28.8765 29.574 28.8766 29.2256 29.225C28.8773 29.5734 28.8773 30.1382 29.2257 30.4864L30.9 32.1605C31.0741 32.3346 31.3024 32.4217 31.5306 32.4217Z"
        fill="#8D58CD" />
      <path
        d="M22.1441 23.0353C22.3725 23.0353 22.6009 22.9481 22.7751 22.7739C23.1233 22.4254 23.1231 21.8606 22.7746 21.5123L10.3958 9.14379C10.0474 8.79563 9.48256 8.79586 9.1344 9.14426C8.78623 9.49277 8.78647 10.0575 9.13498 10.4058L21.5137 22.7743C21.6878 22.9484 21.916 23.0353 22.1441 23.0353Z"
        fill="#8D58CD" />
      <path
        d="M15.0638 6.09605C13.9221 6.09605 12.9967 5.1706 12.9967 4.02898C12.9967 2.88737 13.9221 1.96191 15.0638 1.96191C16.2054 1.96191 17.1308 2.88737 17.1308 4.02898C17.1308 5.1706 16.2054 6.09605 15.0638 6.09605Z"
        fill="#FAA074" />
      <path
        d="M4.1486 17.0997C3.00699 17.0997 2.08153 16.1743 2.08153 15.0327C2.08153 13.8911 3.00699 12.9656 4.1486 12.9656C5.29021 12.9656 6.21567 13.8911 6.21567 15.0327C6.21567 16.1743 5.29021 17.0997 4.1486 17.0997Z"
        fill="#FAA074" />
      <path
        d="M22.8899 45.7054C21.7483 45.7054 20.8229 44.78 20.8229 43.6384C20.8229 42.4967 21.7483 41.5713 22.8899 41.5713C24.0315 41.5713 24.957 42.4967 24.957 43.6384C24.957 44.78 24.0315 45.7054 22.8899 45.7054Z"
        fill="#FAA074" />
      <path
        d="M4.41126 29.758L6.59317 28.5668L8.81329 29.6854L8.35239 27.2463L10.1045 25.4846L7.63767 25.1683L6.50036 22.9609L5.43665 25.2046L2.98169 25.602L4.79106 27.305L4.41126 29.758Z"
        fill="#8D58CD" />
      <path
        d="M4.84188 7.93914L5.54243 5.55402L7.90329 4.77508L5.85263 3.37621L5.84583 0.891602L3.8779 2.41223L1.51282 1.65566L2.3472 3.99426L0.892432 6.01117L3.37599 5.93594L4.84188 7.93914Z"
        fill="#8D58CD" />
      <path
        d="M14.5882 55.2002L16.7701 54.009L18.9902 55.1277L18.5295 52.6884L20.2814 50.9268L17.8147 50.6105L16.6773 48.4031L15.6137 50.6468L13.1587 51.0443L14.9681 52.7473L14.5882 55.2002Z"
        fill="#8D58CD" />
      <path
        d="M11.2565 20.492C10.1086 20.492 10.1067 18.708 11.2565 18.708C12.4044 18.708 12.4063 20.492 11.2565 20.492Z"
        fill="#AE80EA" />
      <path
        d="M0.862041 34.2058C-0.285811 34.2058 -0.287803 32.4219 0.862041 32.4219C2.00989 32.4219 2.01177 34.2058 0.862041 34.2058Z"
        fill="#AE80EA" />
      <path d="M33.3005 1.78395C32.1526 1.78395 32.1507 0 33.3005 0C34.4483 0 34.4503 1.78395 33.3005 1.78395Z"
        fill="#AE80EA" />
      <path
        d="M4.19102 39.6804C3.04317 39.6804 3.0413 37.8965 4.19102 37.8965C5.33899 37.8965 5.34087 39.6804 4.19102 39.6804Z"
        fill="#AE80EA" />
      <path
        d="M38.3146 30.4839C38.4538 30.4839 38.595 30.4512 38.7271 30.3823C39.1636 30.1541 39.3326 29.6152 39.1043 29.1785C37.2573 25.6449 34.6678 18.3204 38.0769 8.96826C38.2456 8.50548 38.0071 7.99349 37.5443 7.82474C37.0816 7.65587 36.5696 7.89458 36.4008 8.35724C32.7572 18.3529 35.5402 26.2106 37.5235 30.0048C37.6827 30.3096 37.9933 30.4839 38.3146 30.4839Z"
        fill="#8D58CD" />
      <path
        d="M43.6867 24.9448C42.5429 24.9448 41.6157 24.021 41.6157 22.8816C41.6157 21.7421 42.5429 20.8184 43.6867 20.8184C44.8305 20.8184 45.7578 21.7421 45.7578 22.8816C45.7578 24.021 44.8305 24.9448 43.6867 24.9448Z"
        fill="#FAA074" />
      <path
        d="M7.20193 44.4612C7.49115 44.3868 7.57764 44.2594 7.80756 43.868C8.07768 43.4082 8.48584 42.7134 9.5069 42.4507C10.5275 42.188 11.2208 42.5991 11.6797 42.8709C12.0711 43.103 12.2087 43.1727 12.4986 43.0983C12.7879 43.0239 12.8744 42.8965 13.1042 42.5052C13.3742 42.0455 13.7824 41.3507 14.8034 41.0879C15.2811 40.9649 15.7668 41.2525 15.8896 41.7294C16.0124 42.2065 15.7251 42.6928 15.248 42.8155C14.9587 42.8899 14.8722 43.0173 14.6424 43.4087C14.3724 43.8684 13.9642 44.5631 12.9432 44.8259C11.9224 45.0886 11.229 44.6776 10.7702 44.4056C10.3789 44.1737 10.2413 44.1036 9.9515 44.1784C9.66217 44.2528 9.57568 44.3802 9.34576 44.7716C9.07565 45.2313 8.66748 45.926 7.64643 46.1887C7.57189 46.208 7.49701 46.2171 7.42353 46.2171C7.02615 46.2171 6.66381 45.9497 6.56021 45.5471C6.43764 45.0702 6.72486 44.5839 7.20193 44.4612Z"
        fill="#FAA074" />
      <path
        d="M13.8371 29.2958C13.4048 29.0595 13.2461 28.5175 13.4823 28.0852C13.7188 27.6529 14.2608 27.494 14.6929 27.7305C14.9552 27.8738 15.1058 27.8401 15.5426 27.7114C16.0545 27.5607 16.8278 27.3328 17.7522 27.8382C18.6773 28.344 18.9016 29.118 19.05 29.63C19.1761 30.0656 19.2285 30.2101 19.4902 30.3532C19.7525 30.4966 19.9031 30.4627 20.3398 30.334C20.8515 30.1832 21.6247 29.9553 22.5493 30.4607C22.9816 30.697 23.1404 31.239 22.9042 31.6713C22.6677 32.1036 22.1257 32.2624 21.6936 32.026C21.431 31.8827 21.2805 31.9166 20.844 32.0452C20.5692 32.1262 20.2192 32.2293 19.8107 32.2293C19.4584 32.2293 19.0624 32.1525 18.6343 31.9184C17.709 31.4125 17.4847 30.6386 17.3364 30.1265C17.2103 29.6911 17.1579 29.5465 16.8963 29.4035C16.6342 29.2602 16.4835 29.2939 16.0466 29.4226C15.535 29.5733 14.7615 29.8012 13.8371 29.2958Z"
        fill="#FAA074" />
      <path
        d="M42.5542 13.1128C42.9463 12.8833 43.0738 12.7971 43.1481 12.5093C43.2223 12.2221 43.1526 12.0851 42.9208 11.6955C42.648 11.237 42.2357 10.544 42.4993 9.52346C42.7628 8.50335 43.4589 8.096 43.9196 7.82635C44.3117 7.5969 44.4393 7.51053 44.5136 7.22284C44.6369 6.746 45.1226 6.45901 45.6004 6.58229C46.0774 6.70557 46.3641 7.19213 46.241 7.66909C45.9774 8.68921 45.2813 9.09655 44.8206 9.36608C44.4284 9.59553 44.3009 9.68178 44.2266 9.9696C44.1524 10.2568 44.2222 10.3938 44.454 10.7833C44.7268 11.2419 45.139 11.9348 44.8755 12.9554C44.6119 13.9755 43.9158 14.3829 43.4552 14.6524C43.0629 14.8819 42.9354 14.9682 42.8611 15.2559C42.7572 15.6581 42.3951 15.9249 41.9981 15.9249C41.9242 15.9249 41.8491 15.9157 41.7744 15.8964C41.2974 15.7731 41.0106 15.2865 41.1338 14.8096C41.3975 13.7897 42.0935 13.3823 42.5542 13.1128Z"
        fill="#FAA074" />
      <path
        d="M27.7511 14.7022C27.5141 14.2703 27.6721 13.7281 28.1039 13.4911C28.5358 13.2539 29.0779 13.412 29.3151 13.8439C29.8222 14.7681 29.5936 15.5411 29.4423 16.0526C29.3139 16.487 29.2799 16.6368 29.4229 16.8971C29.5661 17.1581 29.7112 17.2104 30.1481 17.3366C30.6611 17.4847 31.4359 17.7082 31.9429 18.6318C32.4501 19.5561 32.2214 20.329 32.0701 20.8406C31.9417 21.275 31.9077 21.4247 32.0506 21.685C32.2876 22.1168 32.1298 22.6591 31.6978 22.8961C31.5617 22.9709 31.4146 23.0064 31.2695 23.0064C30.9544 23.0064 30.6491 22.8391 30.4868 22.5435C29.9794 21.6191 30.208 20.8462 30.3594 20.3347C30.4879 19.9002 30.5217 19.7505 30.3789 19.4902C30.2357 19.2292 30.0906 19.1768 29.6536 19.0506C29.1407 18.9026 28.3658 18.679 27.859 17.7555C27.3516 16.8311 27.5802 16.0581 27.7316 15.5466C27.8601 15.1122 27.8939 14.9624 27.7511 14.7022Z"
        fill="#FAA074" />
      <path
        d="M29.7802 4.43934L28.5867 6.61703L29.7075 8.83281L27.2636 8.37285L25.4984 10.1214L25.1816 7.65953L22.9698 6.52445L25.2179 5.46285L25.6161 3.0127L27.3225 4.81855L29.7802 4.43934Z"
        fill="#8D58CD" />
      <path
        d="M55.2715 14.5966L54.078 16.7742L55.1988 18.99L52.7549 18.5302L50.9897 20.2787L50.6728 17.8167L48.4611 16.6816L50.7091 15.62L51.1073 13.1699L52.8137 14.9758L55.2715 14.5966Z"
        fill="#8D58CD" />
      <path
        d="M19.57 12.1903C18.4221 12.1903 18.4202 10.4064 19.57 10.4064C20.7178 10.4064 20.7197 12.1903 19.57 12.1903Z"
        fill="#AE80EA" />
      <path
        d="M38.9118 5.02711C37.7639 5.02711 37.762 3.24316 38.9118 3.24316C40.0596 3.24316 40.0616 5.02711 38.9118 5.02711Z"
        fill="#AE80EA" />
      <path
        d="M44.7198 43.1793L44.1588 40.6068L41.7215 39.6105L43.9949 38.2821L44.1854 35.709L47.6443 39.1719L47.6547 39.1922L49.041 41.4308L46.4207 41.1693L44.7198 43.1793Z"
        fill="white" />
      <path
        d="M49.041 52.0166L46.4398 52.4246L45.6327 54.108L42.5645 51.0401L43.3642 50.2426L42.8898 47.6525L45.234 48.8513L47.5505 47.5998L47.1348 50.1999L49.041 52.0166Z"
        fill="white" />
    </g>
  </symbol>

</svg>