<svg width="110" height="146" viewBox="0 0 110 146" fill="none" xmlns="http://www.w3.org/2000/svg">
<path d="M55.0095 146C24.6752 146 0 121.541 0 91.4719V0H110V91.4719C110 121.541 85.3248 146 54.9905 146M1.7911 1.77542V91.4719C1.7911 120.559 25.666 144.206 54.9905 144.206C84.3149 144.206 108.19 120.54 108.19 91.4719V1.77542H1.7911Z" fill="#C49A6C"/>
<path d="M46.3784 32.6569C45.7305 31.2025 44.835 29.9559 43.7298 28.9171C42.6247 27.8972 41.2909 27.0851 39.8237 26.5184C38.3565 25.9518 36.7369 25.6685 35.0602 25.6685H31.7257V22.3821H29.8584V25.6685H26.5429C24.8662 25.6685 23.2465 25.9518 21.7603 26.5184C20.2741 27.0851 18.9403 27.8972 17.8351 28.9171C16.7109 29.9559 15.8154 31.2025 15.1866 32.6569C14.5388 34.1112 14.2148 35.7355 14.2148 37.492C14.2148 39.3619 14.5197 41.0429 15.1485 42.4972C15.7582 43.9704 16.6347 45.217 17.7208 46.2369C18.826 47.2569 20.1407 48.0312 21.646 48.5601C23.1322 49.07 24.7899 49.3345 26.5429 49.3345H29.8584V52.6209H31.7257V49.3345H35.0602C36.8131 49.3345 38.4709 49.07 39.9571 48.5601C41.4624 48.0312 42.7962 47.2569 43.8823 46.2369C44.9874 45.217 45.8448 43.9515 46.4546 42.4972C47.0643 41.0429 47.3692 39.3619 47.3692 37.492C47.3692 35.7355 47.0453 34.1112 46.3974 32.6569M26.5429 47.5591C24.9805 47.5591 23.5514 47.3324 22.2367 46.8791C20.96 46.4258 19.8549 45.7836 18.9403 44.9337C18.0257 44.0838 17.3016 43.045 16.7872 41.7984C16.2727 40.5518 16.0059 39.0975 16.0059 37.4732C16.0059 35.9622 16.2727 34.5834 16.8253 33.3557C17.3778 32.128 18.121 31.0703 19.0546 30.2015C19.9883 29.3327 21.1125 28.6527 22.3891 28.1616C23.6657 27.6706 25.0567 27.425 26.5239 27.425H29.8393V47.5213H26.5239L26.5429 47.5591ZM44.7969 41.8173C44.2824 43.045 43.5583 44.1027 42.6628 44.9337C41.7482 45.7836 40.643 46.4258 39.3664 46.8791C38.0707 47.3324 36.6226 47.5591 35.0602 47.5591H31.7257V27.4628H35.0602C36.5273 27.4628 37.9183 27.7083 39.1949 28.1994C40.4716 28.6905 41.5767 29.3704 42.5294 30.2393C43.4631 31.1081 44.2252 32.1658 44.7588 33.3935C45.2923 34.6211 45.5781 35.9999 45.5781 37.5109C45.5781 39.1353 45.3113 40.5896 44.7969 41.8362" fill="#C49A6C"/>
<path d="M87.2302 83.615V94.8719H71.2437V83.615H69.4336V111.89H71.2437V96.6473H87.2302V111.89H89.0213V83.615H87.2302Z" fill="#C49A6C"/>
<path d="M5.64062 5.59033V91.4716C5.64062 118.443 27.7816 140.39 54.9911 140.39C82.2005 140.39 104.341 118.443 104.341 91.4716V5.59033H5.64062ZM55.8866 48.6348C73.7976 48.0682 78.8469 57.4553 79.914 60.1373C76.4651 63.1593 74.9408 66.3135 74.4073 67.6356H70.5965C61.66 67.6356 55.8675 61.9127 55.8675 53.0356V48.6348H55.8866ZM7.45078 7.38464H54.1146V53.0545C54.1146 61.9127 48.3221 67.6545 39.3856 67.6545H7.45078V7.38464ZM54.1146 138.596C36.0321 138.256 20.3886 127.868 12.6335 112.833C14.7676 113.211 16.6921 113.74 18.426 114.231C20.8078 114.911 22.9609 115.515 25.0378 115.515C27.4958 115.515 29.8395 114.665 32.3737 112.078C37.0039 107.299 42.0723 108.905 47.4265 110.605C49.6178 111.303 51.8662 112.002 54.1146 112.248V138.577V138.596ZM54.1146 110.472C52.1329 110.227 50.1132 109.585 47.9791 108.924C42.5868 107.224 36.4894 105.278 31.078 110.85C27.1719 114.873 23.8946 113.948 18.9214 112.531C16.8255 111.927 14.4437 111.285 11.6808 110.888C10.5185 108.357 9.56579 105.713 8.87984 102.974C12.6335 103.163 15.6822 104.032 18.426 104.825C20.8078 105.505 22.9609 106.109 25.0378 106.109C27.4958 106.109 29.8395 105.259 32.3737 102.672C37.0039 97.8933 42.0723 99.4988 47.4265 101.199C49.6178 101.897 51.8662 102.596 54.1146 102.842V110.472ZM54.1146 101.048C52.1329 100.802 50.1132 100.16 47.9791 99.4987C42.5868 97.7989 36.4894 95.8535 31.078 101.444C27.1719 105.467 23.8946 104.542 18.9214 103.125C15.968 102.275 12.6526 101.35 8.46065 101.199C7.98429 98.9321 7.66037 96.609 7.52699 94.248C11.9095 94.2858 15.3583 95.268 18.426 96.1179C20.8078 96.7978 22.9609 97.4022 25.0378 97.4022C27.4958 97.4022 29.8395 96.5523 32.3737 93.9647C37.0039 89.1862 42.0723 90.7916 47.4265 92.4915C49.6178 93.1903 51.8662 93.8892 54.1146 94.1347V101.048ZM54.1146 92.3404C52.1329 92.0949 50.1132 91.4527 47.9791 90.7916C42.5868 89.0918 36.4894 87.1464 31.078 92.7182C27.1719 96.7412 23.8946 95.8157 18.9214 94.3991C15.7394 93.4925 12.1191 92.4726 7.46983 92.4537C7.46983 92.1326 7.45078 91.7927 7.45078 91.4716V69.411H39.3856C48.3221 69.411 54.1146 75.1339 54.1146 84.011V92.3404ZM45.3115 68.5233C50.0369 66.9934 53.4667 63.5937 55.0101 58.9096C56.5535 63.5937 59.9833 66.9934 64.7087 68.5233C59.9833 70.0532 56.5535 73.4529 55.0101 78.137C53.4667 73.4529 50.0369 70.0532 45.3115 68.5233ZM102.569 91.4716C102.569 117.159 81.7241 138.105 55.9057 138.596V84.011C55.9057 75.1339 61.6791 69.411 70.6346 69.411H102.569V91.4716ZM102.569 67.6356H76.3508C77.799 64.2737 83.6486 54.641 102.569 55.0188V67.6356ZM102.569 53.2434C92.3373 53.0545 85.6493 55.7743 81.3811 58.9663C80.8857 57.8708 79.933 56.2276 78.3706 54.5088V44.744C85.8398 44.3285 91.7847 38.209 91.7847 30.6918V20.5114H90.8892C85.4778 20.5114 80.7714 23.5334 78.3706 27.9531V21.9091V20.8703C78.3706 16.9606 75.1504 13.7686 71.2062 13.7686H70.3106V19.8504C70.3106 23.4579 73.0544 26.461 76.5795 26.8954V52.7712C73.0544 49.7681 66.6903 46.5194 55.9247 46.8405V7.38464H102.588V53.2623L102.569 53.2434ZM78.4658 42.9686V34.6015C78.4658 28.1231 83.5533 22.7779 89.9936 22.3246V30.6918C89.9936 37.1702 84.9062 42.5153 78.4658 42.9686ZM76.5604 20.8703V25.1011C74.0262 24.6855 72.0827 22.4946 72.0827 19.8504V15.6196C74.6169 16.054 76.5604 18.2449 76.5604 20.8703Z" fill="#C49A6C"/>
</svg>
