<svg width="40" height="40" viewBox="0 0 40 40" fill="none" xmlns="http://www.w3.org/2000/svg">
<path d="M31.3203 8.1875C30.3828 10.5312 28.1171 11.9297 23.5312 11.6172C22.4609 11.4766 21.375 11.2969 20.2812 11.0937C10.9765 8.1875 1.82495 8.1875 1.82495 14C4.44058 11.0937 11.0234 11.5937 19.4062 13.6875C28.5312 15.9687 38.2968 16.9062 38.2968 9.64062C36.8593 11.1484 34.125 11.875 30.75 12.0156C31.5312 11.2031 31.7265 9.92969 31.3203 8.1875ZM11.4843 14.6484C5.95698 14.625 1.82495 15.9062 1.82495 19.8125C4.44058 16.9062 11.0234 17.0938 19.4062 19.1875C28.5312 21.4688 38.2968 22.7188 38.2968 15.4531C35.5312 18.3594 28.125 18.5469 20.2812 16.0781C17.3359 15.1484 14.1875 14.6562 11.4843 14.6484ZM9.61714 20.0859C5.05151 20.0703 1.82495 21.3047 1.82495 25.625C4.44058 22.7188 11.3828 22.1641 19.4062 24.1719C28.8593 26.5312 38.2968 27.0781 38.2968 21.2656C35.5312 24.1719 27.9765 23.0313 20.2812 21.5781C16.5 20.9922 12.7421 20.0859 9.61714 20.0859ZM9.61714 25.8906C5.05151 25.8828 1.82495 27.125 1.82495 31.4375C3.31167 29.7891 6.16245 29.0703 9.83589 29.0312C9.02339 29.8437 8.82808 31.1328 9.23433 32.8906C10.3203 30.1719 13.2968 28.8438 19.414 29.9844C28.9921 31.7656 38.2968 32.8906 38.2968 27.0781C35.5312 29.9844 27.9765 28.5312 20.2812 27.0781C16.5 26.4844 12.7421 25.8984 9.61714 25.8906Z" fill="#C49A6C"/>
</svg>
