<svg width="24" height="24" viewBox="0 0 24 24" fill="none" xmlns="http://www.w3.org/2000/svg">
<path d="M17.7457 3.07943C16.9554 2.30548 16.016 1.70028 14.9846 1.3006C13.9531 0.900915 12.8512 0.715096 11.7457 0.754429C9.67304 0.825166 7.70235 1.67115 6.22343 3.12508C4.7445 4.579 3.86505 6.53498 3.75899 8.60618C3.705 9.68684 3.86549 10.7675 4.23119 11.7858C4.5969 12.8042 5.16058 13.74 5.88974 14.5394C8.08067 16.8641 9.8646 19.541 11.1667 22.4579L11.3107 22.7954C11.3686 22.9303 11.4647 23.0452 11.5872 23.1259C11.7097 23.2067 11.8533 23.2497 12 23.2497C12.1467 23.2497 12.2902 23.2067 12.4127 23.1259C12.5353 23.0452 12.6314 22.9303 12.6892 22.7954L13.0095 22.0454C14.2466 19.2916 15.9522 16.7732 18.0502 14.6024C19.5155 13.0225 20.3041 10.9318 20.2471 8.77774C20.1902 6.6237 19.2924 4.57753 17.7457 3.07718V3.07943ZM12 11.9999C11.4066 11.9999 10.8266 11.824 10.3333 11.4943C9.83993 11.1647 9.45541 10.6962 9.22835 10.148C9.00129 9.5998 8.94188 8.9966 9.05763 8.41466C9.17339 7.83271 9.45911 7.29817 9.87867 6.87861C10.2982 6.45905 10.8328 6.17333 11.4147 6.05757C11.9967 5.94182 12.5999 6.00123 13.148 6.22829C13.6962 6.45535 14.1648 6.83987 14.4944 7.33322C14.824 7.82657 15 8.40658 15 8.99993C15 9.79558 14.6839 10.5586 14.1213 11.1212C13.5587 11.6839 12.7956 11.9999 12 11.9999Z" fill="#C49A6C"/>
</svg>
