<svg width="20" height="20" viewBox="0 0 20 20" fill="none" xmlns="http://www.w3.org/2000/svg">
<g clip-path="url(#clip0_4857_609)">
<path fill-rule="evenodd" clip-rule="evenodd" d="M9.9975 0H10.0025C15.5162 0 20 4.48625 20 10C20 15.5138 15.5162 20 10.0025 20C7.96875 20 6.0825 19.395 4.50125 18.3475L0.6575 19.5763L1.90375 15.8612C0.705 14.215 0 12.1875 0 10C0 4.485 4.48375 0 9.9975 0ZM13.8588 15.5325C14.6226 15.3675 15.5801 14.8025 15.8213 14.1212C16.0626 13.4387 16.0626 12.8575 15.9926 12.7337C15.936 12.6355 15.8024 12.5712 15.6029 12.4751C15.5509 12.4501 15.4945 12.423 15.4338 12.3925C15.1401 12.2462 13.7113 11.54 13.4413 11.4462C13.1763 11.3462 12.9238 11.3812 12.7238 11.6637C12.6858 11.717 12.6478 11.7704 12.6101 11.8234C12.3688 12.1628 12.1361 12.4901 11.9426 12.6987C11.7663 12.8862 11.4788 12.91 11.2376 12.81C11.2113 12.799 11.1811 12.7868 11.1473 12.7732C10.7654 12.6189 9.91813 12.2767 8.89256 11.3637C8.02756 10.5937 7.44006 9.63498 7.27006 9.34748C7.10315 9.05907 7.24712 8.88995 7.38019 8.73365C7.38265 8.73076 7.38511 8.72787 7.38756 8.72498C7.47335 8.61884 7.5566 8.53045 7.64027 8.44163C7.70045 8.37773 7.76085 8.31361 7.82256 8.24248C7.83173 8.23192 7.84064 8.22167 7.84932 8.21169C7.98036 8.06102 8.05839 7.9713 8.14631 7.78373C8.24631 7.58998 8.17506 7.38998 8.10381 7.24248C8.05479 7.13918 7.75197 6.40444 7.492 5.7737C7.38076 5.50379 7.27736 5.25292 7.20506 5.07873C7.01131 4.61498 6.86381 4.59748 6.57006 4.58498C6.56107 4.58453 6.55198 4.58407 6.5428 4.58361C6.44995 4.57891 6.34768 4.57373 6.23506 4.57373C5.85256 4.57373 5.45381 4.68623 5.21256 4.93248C5.20413 4.94109 5.19534 4.95003 5.18623 4.9593C4.87759 5.27319 4.19006 5.97241 4.19006 7.36623C4.19006 8.76274 5.18094 10.1143 5.36428 10.3643C5.36933 10.3712 5.37377 10.3773 5.37756 10.3825C5.3886 10.397 5.40939 10.4271 5.43965 10.4709C5.814 11.013 7.63736 13.6535 10.3563 14.78C12.6538 15.7325 13.3363 15.6437 13.8588 15.5325Z" fill="#4A5157"/>
</g>
<defs>
<clipPath id="clip0_4857_609">
<rect width="20" height="20" fill="white"/>
</clipPath>
</defs>
</svg>
