<svg width="40" height="40" viewBox="0 0 40 40" fill="none" xmlns="http://www.w3.org/2000/svg">
<path d="M24.9425 28.5213C24.8512 29.1654 25.2234 29.8053 25.8608 30.0281C26.5858 30.2816 27.3792 29.8992 27.6328 29.174L28.0747 27.9094L24.9425 28.5213Z" fill="#C49A6C"/>
<path d="M33.1381 10.7281C34.551 10.7281 35.6964 9.58274 35.6964 8.16985C35.6964 6.75695 34.551 5.61157 33.1381 5.61157C31.7252 5.61157 30.5798 6.75695 30.5798 8.16985C30.5798 9.58274 31.7252 10.7281 33.1381 10.7281Z" fill="#C49A6C"/>
<path d="M6.78618 16.6484C8.19908 16.6484 9.34446 15.503 9.34446 14.0901C9.34446 12.6772 8.19908 11.5319 6.78618 11.5319C5.37328 11.5319 4.22791 12.6772 4.22791 14.0901C4.22791 15.503 5.37328 16.6484 6.78618 16.6484Z" fill="#C49A6C"/>
<path d="M39.9738 22.4897C39.8266 21.7358 39.096 21.244 38.3421 21.3912L36.6364 21.7243C37.1796 21.3499 37.4751 20.7496 37.4768 20.1327C37.479 19.3452 37.4927 14.3454 37.4949 13.5494C37.4978 12.4658 36.6124 11.5954 35.5399 11.6031L33.7545 11.6158C32.6762 11.6235 31.8106 12.5096 31.8276 13.5874L31.841 14.4346L34.3385 12.6906L31.3676 16.0191C30.7518 15.9595 26.7615 15.5734 26.1527 15.5146C25.5158 15.4532 24.949 15.9195 24.8873 16.5567C24.8258 17.1938 25.2922 17.7603 25.9294 17.822C26.8862 17.9146 31.0477 18.3173 31.7293 18.3832C32.0985 18.4188 32.4606 18.276 32.7057 18.0013L35.606 14.7519L33.6384 18.7692C33.4389 19.1766 33.2731 19.6266 32.7873 19.7355C29.8249 20.252 30.3509 20.1602 28.4779 20.4868C27.5709 20.6449 27.4 21.4088 27.2345 21.8822L26.6049 23.6836L13.993 26.147C14.1192 27.2276 13.5241 27.854 13.2094 28.2494L12.3759 29.2973L18.8405 28.0346C18.8405 28.778 18.8405 31.2906 18.8405 32.0408H16.2777C15.6376 32.0408 15.1187 32.5598 15.1187 33.1999C15.1187 33.84 15.6376 34.359 16.2777 34.359H23.7215C24.3616 34.359 24.8806 33.84 24.8806 33.1999C24.8806 32.5598 24.3616 32.0408 23.7215 32.0408H21.1587C21.1587 31.2264 21.1587 28.649 21.1587 27.5819L28.1487 26.2166C28.1487 25.8369 28.1487 26.105 28.1487 25.2498C28.1487 24.8344 28.0586 24.0392 28.8541 23.5377L32.7263 21.1119L29.5921 24.2699C29.3336 24.5305 29.1884 24.8827 29.1884 25.2497V31.7819C29.1884 32.5501 29.8111 33.1729 30.5793 33.1729C31.3475 33.1729 31.9703 32.5501 31.9703 31.7819V25.8227L34.7007 23.0715L33.3948 25.1918L38.8752 24.1214C39.6294 23.9741 40.1211 23.2436 39.9738 22.4897Z" fill="#C49A6C"/>
<path d="M14.2589 22.6657C14.2088 22.0275 13.6512 21.5511 13.0127 21.6008C11.6992 21.7038 9.89013 21.8457 8.56529 21.9496L5.58561 18.6113L8.08318 20.3554L8.09654 19.5081C8.11357 18.4297 7.24732 17.5443 6.16889 17.5365C4.20014 17.5225 4.2453 17.5091 3.97334 17.5659C3.28506 17.6559 2.42631 18.402 2.42921 19.47L2.44725 26.0533C2.45014 27.0853 3.28022 27.9998 4.54905 27.9808L1.15913 28.6538C0.42921 28.7964 -0.0891488 29.4775 0.0128042 30.2142C0.123195 31.012 0.877881 31.5431 1.65757 31.3909L4.63444 30.8094L6.58857 28.3529L5.04678 28.0656L8.31677 28.056L5.09834 32.1018C4.61983 32.7034 4.6892 33.5919 5.28576 34.0767C5.88764 34.5656 6.77068 34.468 7.2517 33.8633L12.2958 27.5225C13.0096 26.6253 12.3883 25.2655 11.2075 25.2655H11.2035L5.03865 25.2835L6.4749 25.0071C6.4749 25.0071 6.16154 24.4367 4.31826 20.6723L7.21857 23.9218C7.45896 24.1911 7.81193 24.3338 8.17396 24.3055C9.00935 24.24 12.6116 23.9575 13.1941 23.9117C13.8322 23.8618 14.309 23.3039 14.2589 22.6657Z" fill="#C49A6C"/>
</svg>
