<svg width="24" height="24" viewBox="0 0 24 24" fill="none" xmlns="http://www.w3.org/2000/svg">
<path d="M22.3494 17.0529L19.5456 14.2491C18.7956 13.4992 17.5613 13.4847 16.7942 14.217L15.228 15.7117C12.8175 14.3586 9.64171 11.1828 8.28861 8.77224L9.78336 7.20615C10.5156 6.4389 10.5012 5.20463 9.75125 4.45477L6.94747 1.65104C6.54889 1.25237 6.04016 1.05376 5.47719 1.07588C4.91389 1.09829 4.42288 1.33679 4.05721 1.7657L1.20903 5.1061C1.1241 5.20576 1.07656 5.33185 1.07464 5.46278C1.05102 7.06393 1.65374 8.93443 2.86597 11.0222C3.95244 12.8934 5.47841 14.8342 7.27892 16.6347C10.3305 19.6863 14.8545 22.9267 18.4502 22.9263C18.4792 22.9263 18.5087 22.9261 18.5375 22.9257C18.6685 22.9238 18.7946 22.8762 18.8942 22.7913L22.2346 19.9431C22.6635 19.5774 22.902 19.0864 22.9244 18.5231C22.9468 17.9598 22.7479 17.4514 22.3494 17.0529ZM21.5047 19.087L18.3235 21.7995C15.6378 21.7262 11.6469 19.4116 8.07444 15.8392C4.49811 12.2629 2.26785 8.39532 2.20058 5.67709L4.91333 2.49554C5.07449 2.30649 5.27357 2.20979 5.52191 2.1999C5.76997 2.1909 5.97627 2.27063 6.15196 2.44642L8.95574 5.2502C9.27711 5.57157 9.2833 6.10056 8.96952 6.42934L7.19436 8.28929C7.0303 8.46118 6.99196 8.71759 7.09855 8.92998C8.49266 11.708 12.2923 15.5076 15.0703 16.9017C15.2826 17.0083 15.5391 16.9699 15.7109 16.8059L17.5709 15.0307C17.8997 14.7169 18.4287 14.7231 18.7501 15.0445L21.5539 17.8483C21.7296 18.024 21.8102 18.2301 21.8003 18.4783C21.7905 18.7267 21.6938 18.9258 21.5047 19.087Z" fill="black"/>
</svg>
