<svg width="20" height="20" viewBox="0 0 20 20" fill="none" xmlns="http://www.w3.org/2000/svg">
<g clip-path="url(#clip0_4857_598)">
<path d="M18.7575 9.59431H18.7619C18.8735 9.59431 18.9799 9.54751 19.0555 9.46551C19.1323 9.38231 19.1703 9.27071 19.1603 9.15791C18.7587 4.74071 15.2615 1.24231 10.8439 0.839912C10.7319 0.831112 10.6191 0.867512 10.5359 0.944712C10.4527 1.02151 10.4063 1.12991 10.4075 1.24311C10.4771 7.11351 11.2515 9.51231 18.7575 9.59431ZM18.7575 10.4055C11.2515 10.4875 10.4775 12.8863 10.4079 18.7567C10.4067 18.8699 10.4531 18.9783 10.5363 19.0551C10.6107 19.1235 10.7079 19.1615 10.8079 19.1615C10.8199 19.1615 10.8323 19.1611 10.8443 19.1599C15.2619 18.7575 18.7591 15.2595 19.1603 10.8419C19.1703 10.7291 19.1327 10.6175 19.0555 10.5343C18.9783 10.4511 18.8707 10.4099 18.7575 10.4055ZM9.12906 0.841912C4.72546 1.25591 1.23946 4.75351 0.839864 9.15871C0.829864 9.27151 0.867464 9.38311 0.944664 9.46631C1.02026 9.54831 1.12706 9.59471 1.23826 9.59471H1.24306C8.72426 9.50871 9.49666 7.11111 9.56706 1.24471C9.56826 1.13151 9.52146 1.02271 9.43826 0.945912C9.35426 0.869112 9.24186 0.831512 9.12906 0.841912ZM1.24266 10.4051C1.11826 10.3911 1.02066 10.4503 0.944264 10.5335C0.867464 10.6167 0.829464 10.7283 0.839464 10.8411C1.23906 15.2463 4.72546 18.7439 9.12906 19.1579C9.14146 19.1591 9.15426 19.1595 9.16666 19.1595C9.26666 19.1595 9.36346 19.1219 9.43786 19.0535C9.52106 18.9767 9.56786 18.8679 9.56666 18.7547C9.49626 12.8887 8.72426 10.4911 1.24266 10.4051Z" fill="#4A5157"/>
</g>
<defs>
<clipPath id="clip0_4857_598">
<rect width="20" height="20" fill="white"/>
</clipPath>
</defs>
</svg>
