<svg width="22" height="16" viewBox="0 0 22 16" fill="none" xmlns="http://www.w3.org/2000/svg">
<path fill-rule="evenodd" clip-rule="evenodd" d="M8.38181 3.20123C9.42607 3.92357 10.5054 4.71634 11.542 5.47934C12.5888 6.25084 13.6511 6.99303 14.6675 7.73948C12.8452 8.92841 11.0152 10.0748 9.168 11.2467C8.90865 11.4103 8.66213 11.6093 8.38181 11.7346V3.20123ZM0.00617203 4.42965V11.6371C0.00617203 12.485 -0.0356037 13.2863 0.162377 13.8797C0.359449 14.4688 0.715451 14.943 1.13548 15.2869C1.57094 15.642 2.07634 15.9012 2.82013 15.9631C3.52032 16.0203 4.3404 15.9812 5.14731 15.9812H16.8699C17.6582 15.9812 18.4565 16.0338 19.2148 15.9631C20.5562 15.8379 21.4798 14.9732 21.8371 13.8452C22.031 13.2337 21.9934 12.4324 21.9934 11.6022V4.39382C21.9934 3.53942 22.0492 2.80323 21.8371 2.15079C21.6482 1.56956 21.3181 1.09164 20.8827 0.727268C20.4558 0.370339 19.9618 0.0962436 19.2148 0.032955C18.4778 -0.0284721 17.6541 0.0148061 16.8876 0.0148061H5.16456C4.38989 0.0148061 3.49626 -0.027076 2.78562 0.032955C1.46605 0.144641 0.480689 1.04836 0.145576 2.16894C-0.0446853 2.80322 0.00617203 3.6162 0.00617203 4.42965Z" fill="#4A5157"/>
</svg>
