<svg width="20" height="20" viewBox="0 0 20 20" fill="none" xmlns="http://www.w3.org/2000/svg">
<g clip-path="url(#clip0_4857_613)">
<path fill-rule="evenodd" clip-rule="evenodd" d="M10 20C15.523 20 20 15.523 20 10C20 4.477 15.523 0 10 0C4.477 0 0 4.477 0 10C0 15.523 4.477 20 10 20ZM5.68798 5.48706V8.88906C6.20598 8.27206 6.82598 7.96106 7.54598 7.96106C7.91698 7.96106 8.24898 8.03206 8.54698 8.17206C8.84598 8.31206 9.06898 8.49106 9.21998 8.70806C9.37198 8.92806 9.47398 9.16806 9.52898 9.43306C9.58398 9.69706 9.61198 10.1071 9.61198 10.6641V14.3011H8.00298V11.0251C8.00298 10.3751 7.97398 9.96306 7.91298 9.78806C7.85198 9.61206 7.74398 9.47306 7.58998 9.37206C7.43498 9.26706 7.24198 9.21606 7.00898 9.21606C6.74298 9.21606 6.50298 9.28306 6.29498 9.41506C6.08298 9.54806 5.92998 9.74806 5.83298 10.0141C5.73498 10.2811 5.68598 10.6741 5.68698 11.1961L5.68498 14.3021H4.07898V5.48706H5.68798ZM12.024 8.88906V5.48706H10.416V14.3021H12.023V11.1961C12.023 10.6741 12.072 10.2811 12.168 10.0141C12.266 9.74806 12.419 9.54806 12.629 9.41506C12.838 9.28306 13.077 9.21606 13.343 9.21606C13.576 9.21606 13.771 9.26706 13.924 9.37206C14.08 9.47306 14.187 9.61206 14.248 9.78806C14.31 9.96306 14.34 10.3751 14.34 11.0251V14.3011H15.947V10.6641C15.947 10.1071 15.919 9.69706 15.864 9.43306C15.81 9.16806 15.707 8.92806 15.555 8.70806C15.405 8.49106 15.181 8.31206 14.884 8.17206C14.586 8.03206 14.251 7.96106 13.882 7.96106C13.162 7.96106 12.542 8.27206 12.024 8.88906Z" fill="#4A5157"/>
</g>
<defs>
<clipPath id="clip0_4857_613">
<rect width="20" height="20" fill="white"/>
</clipPath>
</defs>
</svg>
