<svg width="114" height="26" viewBox="0 0 114 26" fill="none" xmlns="http://www.w3.org/2000/svg">
<path d="M96.1508 25.6469L103.251 17.237L96.4113 7.57531H100.124C101.948 7.57531 101.688 8.31359 104.847 12.7753L105.922 14.3161L110.222 7.80001C110.352 7.60742 110.58 7.54321 110.775 7.54321H112.99L106.541 15.1827L114 25.6469H110.515C108.202 25.679 108.626 24.7482 105.564 20.479L103.87 18.1037L98.9519 25.358C98.8216 25.5506 98.6262 25.6148 98.3656 25.6148H96.1508V25.6469Z" fill="currentColor"/>
<path d="M88.6921 26C86.1841 26 83.5783 25.2939 81.9498 23.3038C80.4189 21.442 79.8652 19.1309 79.8001 16.7877C79.7675 13.8667 80.5166 11.5235 82.0801 9.75808C83.6435 7.99265 85.7932 7.12598 88.5292 7.12598C89.8321 7.12598 91.0046 7.31857 92.0143 7.70375C93.0241 8.08894 93.8058 8.60252 94.4246 9.2766C95.0435 9.95067 95.4995 10.721 95.7926 11.5877C96.0858 12.4544 96.2486 13.4173 96.2812 14.4445C96.2812 14.9902 96.2486 15.5038 96.1509 15.9531C96.1509 16.0173 96.0858 16.0494 96.0532 16.0494H84.5881C84.6532 18.9704 85.1092 21.0568 85.9561 22.3729C86.8029 23.6889 88.2035 24.3309 90.1903 24.3309C92.2423 24.3309 93.8383 23.7531 95.4018 22.5655C95.6623 22.7902 95.9555 23.4001 95.4018 23.8815C93.9686 25.1655 91.1675 26 88.6921 26ZM84.5555 15.1828L91.9818 14.6371C92.0143 12.1976 91.9166 8.18523 88.6269 8.18523C85.1743 8.18523 84.6532 12.5828 84.5555 15.1828Z" fill="currentColor"/>
<path d="M76.9338 23.5604V12.9678C76.9338 9.34068 75.5332 7.15796 71.9178 7.15796C69.3772 7.15796 66.9669 8.34561 65.2407 10.111C65.2407 8.69869 65.0127 7.54314 63.6121 7.54314H60.6807L60.8435 9.59747V23.5283L60.6807 25.6147H65.4361L65.2732 23.5283V11.074C66.6412 10.0468 67.9115 9.53327 69.7355 9.53327C72.0481 9.53327 72.5041 11.6518 72.5041 13.995V23.1752C72.5041 24.716 72.8624 25.6147 74.1652 25.6147H77.0967L76.9338 23.5604Z" fill="currentColor"/>
<path d="M56.088 2.31112C56.088 3.59507 55.0131 4.62223 53.7103 4.62223C52.4074 4.62223 51.3326 3.59507 51.3326 2.31112C51.3326 1.02716 52.4074 0 53.7103 0C55.0131 0 56.088 1.02716 56.088 2.31112Z" fill="currentColor"/>
<path d="M51.4954 7.54308L51.6582 9.59741V23.5283L51.4954 25.6147H56.2508L56.0879 23.5283V9.95048C56.0879 8.57024 55.8274 7.51099 54.4268 7.51099H51.4954V7.54308Z" fill="currentColor"/>
<path d="M47.0005 23.5604V12.9678C47.0005 9.30858 45.5999 7.15796 41.9845 7.15796C38.9554 7.15796 36.9034 8.6666 35.2748 10.3678C34.6885 8.34561 33.2554 7.15796 30.5194 7.15796C27.9462 7.15796 25.8617 8.34561 24.1679 10.1431V10.111C24.1679 8.69869 23.9399 7.54314 22.5394 7.54314H19.6079L19.7708 9.59747V23.5283L19.6079 25.6147H24.3634L24.2005 23.5283V11.074C25.5359 9.98264 27.1319 9.53327 28.4022 9.53327C30.9102 9.53327 31.1708 12.0691 31.1708 13.995V23.5283L31.0079 25.6147H35.7634L35.6005 23.5283V11.074C36.7405 10.111 38.3365 9.53327 39.8348 9.53327C42.4405 9.53327 42.6034 12.3259 42.6034 13.995V23.1752C42.6034 24.9086 43.0919 25.6147 44.2645 25.6147H47.1959L47.0005 23.5604Z" fill="currentColor"/>
<path d="M7.5892 26C5.40692 26 2.18235 25.3901 0.228064 24.2988C0.58635 23.4963 1.27035 22.8864 2.24749 23.4C4.00635 24.2988 5.7652 24.716 7.71949 24.716C10.5206 24.716 12.5726 23.1753 12.4423 20.3827C12.1492 14.5407 -0.0325062 13.6741 6.52001e-05 6.64445C0.0326366 1.47655 4.75549 0 9.28292 0C11.4652 0 13.6149 0.417292 15.7321 1.25186C15.3738 2.08643 14.7549 2.79259 13.6801 2.27901C12.1818 1.57284 10.6835 1.25186 9.08749 1.25186C6.31892 1.25186 4.75549 2.7284 4.75549 4.91112C4.72292 10.4963 17.1001 11.3309 17.3281 18.5852C17.4583 23.8815 12.9635 26 7.5892 26Z" fill="currentColor"/>
</svg>
