<svg xmlns="http://www.w3.org/2000/svg">
  <symbol id="icon-menu" viewBox="0 0 60 23" fill="none" xmlns="http://www.w3.org/2000/svg">
    <rect width="60" height="1" fill="currentColor" />
    <rect y="11" width="40" height="1" fill="currentColor" />
    <rect y="22" width="26" height="1" fill="currentColor" />
  </symbol>
  <symbol id="icon-header-logo" viewBox="0 0 114 26" fill="none">
    <path
      d="M96.1508 25.6469L103.251 17.237L96.4113 7.57531H100.124C101.948 7.57531 101.688 8.31359 104.847 12.7753L105.922 14.3161L110.222 7.80001C110.352 7.60742 110.58 7.54321 110.775 7.54321H112.99L106.541 15.1827L114 25.6469H110.515C108.202 25.679 108.626 24.7482 105.564 20.479L103.87 18.1037L98.9519 25.358C98.8216 25.5506 98.6262 25.6148 98.3656 25.6148H96.1508V25.6469Z"
      fill="currentColor" />
    <path
      d="M88.6921 26C86.1841 26 83.5783 25.2939 81.9498 23.3038C80.4189 21.442 79.8652 19.1309 79.8001 16.7877C79.7675 13.8667 80.5166 11.5235 82.0801 9.75808C83.6435 7.99265 85.7932 7.12598 88.5292 7.12598C89.8321 7.12598 91.0046 7.31857 92.0143 7.70375C93.0241 8.08894 93.8058 8.60252 94.4246 9.2766C95.0435 9.95067 95.4995 10.721 95.7926 11.5877C96.0858 12.4544 96.2486 13.4173 96.2812 14.4445C96.2812 14.9902 96.2486 15.5038 96.1509 15.9531C96.1509 16.0173 96.0858 16.0494 96.0532 16.0494H84.5881C84.6532 18.9704 85.1092 21.0568 85.9561 22.3729C86.8029 23.6889 88.2035 24.3309 90.1903 24.3309C92.2423 24.3309 93.8383 23.7531 95.4018 22.5655C95.6623 22.7902 95.9555 23.4001 95.4018 23.8815C93.9686 25.1655 91.1675 26 88.6921 26ZM84.5555 15.1828L91.9818 14.6371C92.0143 12.1976 91.9166 8.18523 88.6269 8.18523C85.1743 8.18523 84.6532 12.5828 84.5555 15.1828Z"
      fill="currentColor" />
    <path
      d="M76.9338 23.5604V12.9678C76.9338 9.34068 75.5332 7.15796 71.9178 7.15796C69.3772 7.15796 66.9669 8.34561 65.2407 10.111C65.2407 8.69869 65.0127 7.54314 63.6121 7.54314H60.6807L60.8435 9.59747V23.5283L60.6807 25.6147H65.4361L65.2732 23.5283V11.074C66.6412 10.0468 67.9115 9.53327 69.7355 9.53327C72.0481 9.53327 72.5041 11.6518 72.5041 13.995V23.1752C72.5041 24.716 72.8624 25.6147 74.1652 25.6147H77.0967L76.9338 23.5604Z"
      fill="currentColor" />
    <path
      d="M56.088 2.31112C56.088 3.59507 55.0131 4.62223 53.7103 4.62223C52.4074 4.62223 51.3326 3.59507 51.3326 2.31112C51.3326 1.02716 52.4074 0 53.7103 0C55.0131 0 56.088 1.02716 56.088 2.31112Z"
      fill="currentColor" />
    <path
      d="M51.4954 7.54308L51.6582 9.59741V23.5283L51.4954 25.6147H56.2508L56.0879 23.5283V9.95048C56.0879 8.57024 55.8274 7.51099 54.4268 7.51099H51.4954V7.54308Z"
      fill="currentColor" />
    <path
      d="M47.0005 23.5604V12.9678C47.0005 9.30858 45.5999 7.15796 41.9845 7.15796C38.9554 7.15796 36.9034 8.6666 35.2748 10.3678C34.6885 8.34561 33.2554 7.15796 30.5194 7.15796C27.9462 7.15796 25.8617 8.34561 24.1679 10.1431V10.111C24.1679 8.69869 23.9399 7.54314 22.5394 7.54314H19.6079L19.7708 9.59747V23.5283L19.6079 25.6147H24.3634L24.2005 23.5283V11.074C25.5359 9.98264 27.1319 9.53327 28.4022 9.53327C30.9102 9.53327 31.1708 12.0691 31.1708 13.995V23.5283L31.0079 25.6147H35.7634L35.6005 23.5283V11.074C36.7405 10.111 38.3365 9.53327 39.8348 9.53327C42.4405 9.53327 42.6034 12.3259 42.6034 13.995V23.1752C42.6034 24.9086 43.0919 25.6147 44.2645 25.6147H47.1959L47.0005 23.5604Z"
      fill="currentColor" />
    <path
      d="M7.5892 26C5.40692 26 2.18235 25.3901 0.228064 24.2988C0.58635 23.4963 1.27035 22.8864 2.24749 23.4C4.00635 24.2988 5.7652 24.716 7.71949 24.716C10.5206 24.716 12.5726 23.1753 12.4423 20.3827C12.1492 14.5407 -0.0325062 13.6741 6.52001e-05 6.64445C0.0326366 1.47655 4.75549 0 9.28292 0C11.4652 0 13.6149 0.417292 15.7321 1.25186C15.3738 2.08643 14.7549 2.79259 13.6801 2.27901C12.1818 1.57284 10.6835 1.25186 9.08749 1.25186C6.31892 1.25186 4.75549 2.7284 4.75549 4.91112C4.72292 10.4963 17.1001 11.3309 17.3281 18.5852C17.4583 23.8815 12.9635 26 7.5892 26Z"
      fill="currentColor" />
  </symbol>
  <symbol id="icon-phone" viewBox="0 0 24 24" fill="none" xmlns="http://www.w3.org/2000/svg">
    <path
      d="M22.3494 17.0529L19.5456 14.2491C18.7956 13.4992 17.5613 13.4847 16.7942 14.217L15.228 15.7117C12.8175 14.3586 9.64171 11.1828 8.28861 8.77224L9.78336 7.20615C10.5156 6.4389 10.5012 5.20463 9.75125 4.45477L6.94747 1.65104C6.54889 1.25237 6.04016 1.05376 5.47719 1.07588C4.91389 1.09829 4.42288 1.33679 4.05721 1.7657L1.20903 5.1061C1.1241 5.20576 1.07656 5.33185 1.07464 5.46278C1.05102 7.06393 1.65374 8.93443 2.86597 11.0222C3.95244 12.8934 5.47841 14.8342 7.27892 16.6347C10.3305 19.6863 14.8545 22.9267 18.4502 22.9263C18.4792 22.9263 18.5087 22.9261 18.5375 22.9257C18.6685 22.9238 18.7946 22.8762 18.8942 22.7913L22.2346 19.9431C22.6635 19.5774 22.902 19.0864 22.9244 18.5231C22.9468 17.9598 22.7479 17.4514 22.3494 17.0529ZM21.5047 19.087L18.3235 21.7995C15.6378 21.7262 11.6469 19.4116 8.07444 15.8392C4.49811 12.2629 2.26785 8.39532 2.20058 5.67709L4.91333 2.49554C5.07449 2.30649 5.27357 2.20979 5.52191 2.1999C5.76997 2.1909 5.97627 2.27063 6.15196 2.44642L8.95574 5.2502C9.27711 5.57157 9.2833 6.10056 8.96952 6.42934L7.19436 8.28929C7.0303 8.46118 6.99196 8.71759 7.09855 8.92998C8.49266 11.708 12.2923 15.5076 15.0703 16.9017C15.2826 17.0083 15.5391 16.9699 15.7109 16.8059L17.5709 15.0307C17.8997 14.7169 18.4287 14.7231 18.7501 15.0445L21.5539 17.8483C21.7296 18.024 21.8102 18.2301 21.8003 18.4783C21.7905 18.7267 21.6938 18.9258 21.5047 19.087Z"
      fill="currentColor" />
  </symbol>
  <symbol id="icon-whatsapp" viewBox="0 0 20 20" fill="none" xmlns="http://www.w3.org/2000/svg">
    <g clip-path="url(#clip0_4857_609)">
      <path fill-rule="evenodd" clip-rule="evenodd"
        d="M9.9975 0H10.0025C15.5162 0 20 4.48625 20 10C20 15.5138 15.5162 20 10.0025 20C7.96875 20 6.0825 19.395 4.50125 18.3475L0.6575 19.5763L1.90375 15.8612C0.705 14.215 0 12.1875 0 10C0 4.485 4.48375 0 9.9975 0ZM13.8588 15.5325C14.6226 15.3675 15.5801 14.8025 15.8213 14.1212C16.0626 13.4387 16.0626 12.8575 15.9926 12.7337C15.936 12.6355 15.8024 12.5712 15.6029 12.4751C15.5509 12.4501 15.4945 12.423 15.4338 12.3925C15.1401 12.2462 13.7113 11.54 13.4413 11.4462C13.1763 11.3462 12.9238 11.3812 12.7238 11.6637C12.6858 11.717 12.6478 11.7704 12.6101 11.8234C12.3688 12.1628 12.1361 12.4901 11.9426 12.6987C11.7663 12.8862 11.4788 12.91 11.2376 12.81C11.2113 12.799 11.1811 12.7868 11.1473 12.7732C10.7654 12.6189 9.91813 12.2767 8.89256 11.3637C8.02756 10.5937 7.44006 9.63498 7.27006 9.34748C7.10315 9.05907 7.24712 8.88995 7.38019 8.73365C7.38265 8.73076 7.38511 8.72787 7.38756 8.72498C7.47335 8.61884 7.5566 8.53045 7.64027 8.44163C7.70045 8.37773 7.76085 8.31361 7.82256 8.24248C7.83173 8.23192 7.84064 8.22167 7.84932 8.21169C7.98036 8.06102 8.05839 7.9713 8.14631 7.78373C8.24631 7.58998 8.17506 7.38998 8.10381 7.24248C8.05479 7.13918 7.75197 6.40444 7.492 5.7737C7.38076 5.50379 7.27736 5.25292 7.20506 5.07873C7.01131 4.61498 6.86381 4.59748 6.57006 4.58498C6.56107 4.58453 6.55198 4.58407 6.5428 4.58361C6.44995 4.57891 6.34768 4.57373 6.23506 4.57373C5.85256 4.57373 5.45381 4.68623 5.21256 4.93248C5.20413 4.94109 5.19534 4.95003 5.18623 4.9593C4.87759 5.27319 4.19006 5.97241 4.19006 7.36623C4.19006 8.76274 5.18094 10.1143 5.36428 10.3643C5.36933 10.3712 5.37377 10.3773 5.37756 10.3825C5.3886 10.397 5.40939 10.4271 5.43965 10.4709C5.814 11.013 7.63736 13.6535 10.3563 14.78C12.6538 15.7325 13.3363 15.6437 13.8588 15.5325Z"
        fill="currentColor" />
    </g>
    <defs>
      <clipPath id="clip0_4857_609">
        <rect width="20" height="20" fill="white" />
      </clipPath>
    </defs>
  </symbol>
  <symbol id="icon-tg" viewBox="0 0 22 18" fill="none" xmlns="http://www.w3.org/2000/svg">
    <mask id="mask0_4857_600" style="mask-type:luminance" maskUnits="userSpaceOnUse" x="0" y="0" width="22" height="18">
      <path fill-rule="evenodd" clip-rule="evenodd" d="M0 0H22V18H0V0Z" fill="white" />
    </mask>
    <g mask="url(#mask0_4857_600)">
      <path fill-rule="evenodd" clip-rule="evenodd"
        d="M22 1.44622C21.8844 1.94953 21.7641 2.45183 21.6541 2.95632C20.9432 6.21875 20.2346 9.48168 19.5249 12.7444C19.2192 14.1495 18.9158 15.5552 18.603 16.9588C18.5624 17.1412 18.4899 17.3224 18.4006 17.4876C18.1615 17.9292 17.7678 18.0957 17.2832 17.9467C17.0623 17.8787 16.8397 17.7793 16.653 17.6465C15.0719 16.5215 13.4989 15.3855 11.9234 14.253C11.8664 14.212 11.8079 14.1728 11.7399 14.1257C11.6876 14.1696 11.6382 14.2072 11.5931 14.2494C10.7797 15.0104 9.96622 15.7713 9.1542 16.5339C8.91227 16.761 8.63696 16.8977 8.27512 16.8772C8.30507 16.4379 8.33256 16.0127 8.36336 15.5878C8.4279 14.6981 8.49409 13.8085 8.55983 12.9189C8.57019 12.7788 8.60741 12.6354 8.58869 12.4993C8.51791 11.9864 8.8116 11.689 9.17035 11.3751C12.0869 8.82213 14.9895 6.25373 17.8963 3.68988C17.9389 3.65231 17.9941 3.62065 18.0193 3.57374C18.0653 3.48769 18.0932 3.39231 18.1288 3.3008C18.0307 3.27375 17.9221 3.20659 17.8365 3.22797C17.6602 3.27189 17.4834 3.34309 17.3288 3.43786C13.5401 5.76116 9.75418 8.08879 5.96864 10.4171C5.86231 10.4825 5.77103 10.5187 5.63452 10.4764C4.02852 9.97852 2.41891 9.49203 0.813018 8.99373C0.618731 8.93343 0.42536 8.84333 0.25913 8.72854C-0.0533439 8.5128 -0.0909645 8.19695 0.188585 7.94189C0.393351 7.75505 0.641292 7.58925 0.900055 7.4883C2.25308 6.96035 3.61532 6.4553 4.97499 5.94378C10.1402 4.00084 15.3055 2.05785 20.4722 0.118797C20.6366 0.0570996 20.8158 0.0164929 20.9911 0.00327607C21.4558 -0.0317064 21.8006 0.215252 21.9427 0.658833C21.9594 0.711081 21.9808 0.76198 22 0.813498V1.44622Z"
        fill="currentColor" />
    </g>
  </symbol>
  <symbol id="icon-vk" viewBox="0 0 24 14" fill="none" xmlns="http://www.w3.org/2000/svg">
    <mask id="mask0_4857_606" style="mask-type:luminance" maskUnits="userSpaceOnUse" x="0" y="0" width="24" height="14">
      <path fill-rule="evenodd" clip-rule="evenodd" d="M0 0H24V14H0V0Z" fill="white" />
    </mask>
    <g mask="url(#mask0_4857_606)">
      <path fill-rule="evenodd" clip-rule="evenodd"
        d="M7.92898 0.972652C8.10115 0.584837 8.37473 0.344025 8.73062 0.254702C9.16196 0.146473 9.60749 0.0718104 10.0505 0.0435314C11.0907 -0.0228801 12.1332 -0.0395431 13.1615 0.187249C13.7311 0.312863 14.0157 0.623691 14.0255 1.2266C14.0416 2.20659 14.0074 3.18738 14.004 4.16785C14.002 4.75739 14.0181 5.347 14.0263 5.93653C14.0265 5.95656 14.028 5.97675 14.0314 5.99637C14.0915 6.33805 14.1669 6.70551 14.5144 6.83096C14.8454 6.95041 15.0802 6.67058 15.2833 6.44724C16.2368 5.39923 16.9288 4.1717 17.5368 2.89242C17.7881 2.36369 18.0015 1.81565 18.2251 1.27331C18.4264 0.784953 18.6494 0.622569 19.158 0.618804C20.4242 0.609431 21.6902 0.600859 22.9563 0.591967C23.9683 0.584837 24.216 0.947898 23.8219 1.90706C23.3671 3.01378 22.6551 3.9578 21.9638 4.9124C21.4815 5.5786 20.977 6.22813 20.5052 6.90194C19.8565 7.82866 19.895 8.16096 20.6751 8.9748C21.5014 9.83663 22.3396 10.6875 23.1392 11.575C23.4252 11.8927 23.6383 12.2896 23.8404 12.6749C24.1345 13.2355 23.9477 13.6705 23.3542 13.8596C23.1713 13.9179 22.9729 13.9453 22.7809 13.9493C21.6806 13.9722 20.5802 13.9899 19.4797 13.9973C18.809 14.0018 18.2498 13.6901 17.7814 13.237C17.2862 12.7579 16.8425 12.2228 16.369 11.7193C16.1327 11.4681 15.8971 11.2107 15.6312 10.9953C15.1054 10.5696 14.6179 10.6683 14.3669 11.3086C14.1852 11.7717 14.082 12.2868 14.0459 12.7866C13.9796 13.7033 13.722 13.9885 12.8262 13.9972C11.7543 14.0075 10.6879 14.0069 9.64552 13.6772C7.81487 13.0981 6.36419 11.9683 5.16323 10.4669C3.42128 8.28929 2.10513 5.84176 0.893496 3.32918C0.617421 2.75671 0.356467 2.17615 0.103852 1.59223C-0.142683 1.02208 0.0528772 0.686978 0.65686 0.671036C1.74713 0.642196 2.83803 0.635868 3.92861 0.624171C4.5262 0.617763 4.9174 0.877641 5.15505 1.47687C5.79925 3.10191 6.60924 4.63938 7.64168 6.043C7.82726 6.29535 8.05119 6.53023 8.29554 6.72185C8.65634 7.00472 9.00506 6.90274 9.15292 6.4631C9.2721 6.10861 9.3703 5.7276 9.37779 5.35629C9.39727 4.38792 9.42011 3.41273 9.33188 2.45101C9.24404 1.49273 8.94045 1.23597 7.92898 0.972652Z"
        fill="currentColor" />
    </g>
  </symbol>
  <symbol id="icon-youtube" viewBox="0 0 22 16" fill="none" xmlns="http://www.w3.org/2000/svg">
    <path fill-rule="evenodd" clip-rule="evenodd"
      d="M8.38181 3.20123C9.42607 3.92357 10.5054 4.71634 11.542 5.47934C12.5888 6.25084 13.6511 6.99303 14.6675 7.73948C12.8452 8.92841 11.0152 10.0748 9.168 11.2467C8.90865 11.4103 8.66213 11.6093 8.38181 11.7346V3.20123ZM0.00617203 4.42965V11.6371C0.00617203 12.485 -0.0356037 13.2863 0.162377 13.8797C0.359449 14.4688 0.715451 14.943 1.13548 15.2869C1.57094 15.642 2.07634 15.9012 2.82013 15.9631C3.52032 16.0203 4.3404 15.9812 5.14731 15.9812H16.8699C17.6582 15.9812 18.4565 16.0338 19.2148 15.9631C20.5562 15.8379 21.4798 14.9732 21.8371 13.8452C22.031 13.2337 21.9934 12.4324 21.9934 11.6022V4.39382C21.9934 3.53942 22.0492 2.80323 21.8371 2.15079C21.6482 1.56956 21.3181 1.09164 20.8827 0.727268C20.4558 0.370339 19.9618 0.0962436 19.2148 0.032955C18.4778 -0.0284721 17.6541 0.0148061 16.8876 0.0148061H5.16456C4.38989 0.0148061 3.49626 -0.027076 2.78562 0.032955C1.46605 0.144641 0.480689 1.04836 0.145576 2.16894C-0.0446853 2.80322 0.00617203 3.6162 0.00617203 4.42965Z"
      fill="currentColor" />
  </symbol>
  <symbol id="icon-dzen" viewBox="0 0 20 20" fill="none" xmlns="http://www.w3.org/2000/svg">
    <g clip-path="url(#clip0_4857_598)">
      <path
        d="M18.7575 9.59431H18.7619C18.8735 9.59431 18.9799 9.54751 19.0555 9.46551C19.1323 9.38231 19.1703 9.27071 19.1603 9.15791C18.7587 4.74071 15.2615 1.24231 10.8439 0.839912C10.7319 0.831112 10.6191 0.867512 10.5359 0.944712C10.4527 1.02151 10.4063 1.12991 10.4075 1.24311C10.4771 7.11351 11.2515 9.51231 18.7575 9.59431ZM18.7575 10.4055C11.2515 10.4875 10.4775 12.8863 10.4079 18.7567C10.4067 18.8699 10.4531 18.9783 10.5363 19.0551C10.6107 19.1235 10.7079 19.1615 10.8079 19.1615C10.8199 19.1615 10.8323 19.1611 10.8443 19.1599C15.2619 18.7575 18.7591 15.2595 19.1603 10.8419C19.1703 10.7291 19.1327 10.6175 19.0555 10.5343C18.9783 10.4511 18.8707 10.4099 18.7575 10.4055ZM9.12906 0.841912C4.72546 1.25591 1.23946 4.75351 0.839864 9.15871C0.829864 9.27151 0.867464 9.38311 0.944664 9.46631C1.02026 9.54831 1.12706 9.59471 1.23826 9.59471H1.24306C8.72426 9.50871 9.49666 7.11111 9.56706 1.24471C9.56826 1.13151 9.52146 1.02271 9.43826 0.945912C9.35426 0.869112 9.24186 0.831512 9.12906 0.841912ZM1.24266 10.4051C1.11826 10.3911 1.02066 10.4503 0.944264 10.5335C0.867464 10.6167 0.829464 10.7283 0.839464 10.8411C1.23906 15.2463 4.72546 18.7439 9.12906 19.1579C9.14146 19.1591 9.15426 19.1595 9.16666 19.1595C9.26666 19.1595 9.36346 19.1219 9.43786 19.0535C9.52106 18.9767 9.56786 18.8679 9.56666 18.7547C9.49626 12.8887 8.72426 10.4911 1.24266 10.4051Z"
        fill="currentColor" />
    </g>
    <defs>
      <clipPath id="clip0_4857_598">
        <rect width="20" height="20" fill="white" />
      </clipPath>
    </defs>
  </symbol>
  <symbol id="icon-hh" viewBox="0 0 20 20" fill="none" xmlns="http://www.w3.org/2000/svg">
    <g clip-path="url(#clip0_4857_613)">
      <path fill-rule="evenodd" clip-rule="evenodd"
        d="M10 20C15.523 20 20 15.523 20 10C20 4.477 15.523 0 10 0C4.477 0 0 4.477 0 10C0 15.523 4.477 20 10 20ZM5.68798 5.48706V8.88906C6.20598 8.27206 6.82598 7.96106 7.54598 7.96106C7.91698 7.96106 8.24898 8.03206 8.54698 8.17206C8.84598 8.31206 9.06898 8.49106 9.21998 8.70806C9.37198 8.92806 9.47398 9.16806 9.52898 9.43306C9.58398 9.69706 9.61198 10.1071 9.61198 10.6641V14.3011H8.00298V11.0251C8.00298 10.3751 7.97398 9.96306 7.91298 9.78806C7.85198 9.61206 7.74398 9.47306 7.58998 9.37206C7.43498 9.26706 7.24198 9.21606 7.00898 9.21606C6.74298 9.21606 6.50298 9.28306 6.29498 9.41506C6.08298 9.54806 5.92998 9.74806 5.83298 10.0141C5.73498 10.2811 5.68598 10.6741 5.68698 11.1961L5.68498 14.3021H4.07898V5.48706H5.68798ZM12.024 8.88906V5.48706H10.416V14.3021H12.023V11.1961C12.023 10.6741 12.072 10.2811 12.168 10.0141C12.266 9.74806 12.419 9.54806 12.629 9.41506C12.838 9.28306 13.077 9.21606 13.343 9.21606C13.576 9.21606 13.771 9.26706 13.924 9.37206C14.08 9.47306 14.187 9.61206 14.248 9.78806C14.31 9.96306 14.34 10.3751 14.34 11.0251V14.3011H15.947V10.6641C15.947 10.1071 15.919 9.69706 15.864 9.43306C15.81 9.16806 15.707 8.92806 15.555 8.70806C15.405 8.49106 15.181 8.31206 14.884 8.17206C14.586 8.03206 14.251 7.96106 13.882 7.96106C13.162 7.96106 12.542 8.27206 12.024 8.88906Z"
        fill="currentColor" />
    </g>
    <defs>
      <clipPath id="clip0_4857_613">
        <rect width="20" height="20" fill="white" />
      </clipPath>
    </defs>
  </symbol>
  <symbol id="icon-emblem" viewBox="0 0 110 146" fill="none" xmlns="http://www.w3.org/2000/svg">
    <path
      d="M55.0095 146C24.6752 146 0 121.541 0 91.4719V0H110V91.4719C110 121.541 85.3248 146 54.9905 146M1.7911 1.77542V91.4719C1.7911 120.559 25.666 144.206 54.9905 144.206C84.3149 144.206 108.19 120.54 108.19 91.4719V1.77542H1.7911Z"
      fill="#C49A6C" />
    <path
      d="M46.3784 32.6569C45.7305 31.2025 44.835 29.9559 43.7298 28.9171C42.6247 27.8972 41.2909 27.0851 39.8237 26.5184C38.3565 25.9518 36.7369 25.6685 35.0602 25.6685H31.7257V22.3821H29.8584V25.6685H26.5429C24.8662 25.6685 23.2465 25.9518 21.7603 26.5184C20.2741 27.0851 18.9403 27.8972 17.8351 28.9171C16.7109 29.9559 15.8154 31.2025 15.1866 32.6569C14.5388 34.1112 14.2148 35.7355 14.2148 37.492C14.2148 39.3619 14.5197 41.0429 15.1485 42.4972C15.7582 43.9704 16.6347 45.217 17.7208 46.2369C18.826 47.2569 20.1407 48.0312 21.646 48.5601C23.1322 49.07 24.7899 49.3345 26.5429 49.3345H29.8584V52.6209H31.7257V49.3345H35.0602C36.8131 49.3345 38.4709 49.07 39.9571 48.5601C41.4624 48.0312 42.7962 47.2569 43.8823 46.2369C44.9874 45.217 45.8448 43.9515 46.4546 42.4972C47.0643 41.0429 47.3692 39.3619 47.3692 37.492C47.3692 35.7355 47.0453 34.1112 46.3974 32.6569M26.5429 47.5591C24.9805 47.5591 23.5514 47.3324 22.2367 46.8791C20.96 46.4258 19.8549 45.7836 18.9403 44.9337C18.0257 44.0838 17.3016 43.045 16.7872 41.7984C16.2727 40.5518 16.0059 39.0975 16.0059 37.4732C16.0059 35.9622 16.2727 34.5834 16.8253 33.3557C17.3778 32.128 18.121 31.0703 19.0546 30.2015C19.9883 29.3327 21.1125 28.6527 22.3891 28.1616C23.6657 27.6706 25.0567 27.425 26.5239 27.425H29.8393V47.5213H26.5239L26.5429 47.5591ZM44.7969 41.8173C44.2824 43.045 43.5583 44.1027 42.6628 44.9337C41.7482 45.7836 40.643 46.4258 39.3664 46.8791C38.0707 47.3324 36.6226 47.5591 35.0602 47.5591H31.7257V27.4628H35.0602C36.5273 27.4628 37.9183 27.7083 39.1949 28.1994C40.4716 28.6905 41.5767 29.3704 42.5294 30.2393C43.4631 31.1081 44.2252 32.1658 44.7588 33.3935C45.2923 34.6211 45.5781 35.9999 45.5781 37.5109C45.5781 39.1353 45.3113 40.5896 44.7969 41.8362"
      fill="#C49A6C" />
    <path
      d="M87.2302 83.615V94.8719H71.2437V83.615H69.4336V111.89H71.2437V96.6473H87.2302V111.89H89.0213V83.615H87.2302Z"
      fill="#C49A6C" />
    <path
      d="M5.64062 5.59033V91.4716C5.64062 118.443 27.7816 140.39 54.9911 140.39C82.2005 140.39 104.341 118.443 104.341 91.4716V5.59033H5.64062ZM55.8866 48.6348C73.7976 48.0682 78.8469 57.4553 79.914 60.1373C76.4651 63.1593 74.9408 66.3135 74.4073 67.6356H70.5965C61.66 67.6356 55.8675 61.9127 55.8675 53.0356V48.6348H55.8866ZM7.45078 7.38464H54.1146V53.0545C54.1146 61.9127 48.3221 67.6545 39.3856 67.6545H7.45078V7.38464ZM54.1146 138.596C36.0321 138.256 20.3886 127.868 12.6335 112.833C14.7676 113.211 16.6921 113.74 18.426 114.231C20.8078 114.911 22.9609 115.515 25.0378 115.515C27.4958 115.515 29.8395 114.665 32.3737 112.078C37.0039 107.299 42.0723 108.905 47.4265 110.605C49.6178 111.303 51.8662 112.002 54.1146 112.248V138.577V138.596ZM54.1146 110.472C52.1329 110.227 50.1132 109.585 47.9791 108.924C42.5868 107.224 36.4894 105.278 31.078 110.85C27.1719 114.873 23.8946 113.948 18.9214 112.531C16.8255 111.927 14.4437 111.285 11.6808 110.888C10.5185 108.357 9.56579 105.713 8.87984 102.974C12.6335 103.163 15.6822 104.032 18.426 104.825C20.8078 105.505 22.9609 106.109 25.0378 106.109C27.4958 106.109 29.8395 105.259 32.3737 102.672C37.0039 97.8933 42.0723 99.4988 47.4265 101.199C49.6178 101.897 51.8662 102.596 54.1146 102.842V110.472ZM54.1146 101.048C52.1329 100.802 50.1132 100.16 47.9791 99.4987C42.5868 97.7989 36.4894 95.8535 31.078 101.444C27.1719 105.467 23.8946 104.542 18.9214 103.125C15.968 102.275 12.6526 101.35 8.46065 101.199C7.98429 98.9321 7.66037 96.609 7.52699 94.248C11.9095 94.2858 15.3583 95.268 18.426 96.1179C20.8078 96.7978 22.9609 97.4022 25.0378 97.4022C27.4958 97.4022 29.8395 96.5523 32.3737 93.9647C37.0039 89.1862 42.0723 90.7916 47.4265 92.4915C49.6178 93.1903 51.8662 93.8892 54.1146 94.1347V101.048ZM54.1146 92.3404C52.1329 92.0949 50.1132 91.4527 47.9791 90.7916C42.5868 89.0918 36.4894 87.1464 31.078 92.7182C27.1719 96.7412 23.8946 95.8157 18.9214 94.3991C15.7394 93.4925 12.1191 92.4726 7.46983 92.4537C7.46983 92.1326 7.45078 91.7927 7.45078 91.4716V69.411H39.3856C48.3221 69.411 54.1146 75.1339 54.1146 84.011V92.3404ZM45.3115 68.5233C50.0369 66.9934 53.4667 63.5937 55.0101 58.9096C56.5535 63.5937 59.9833 66.9934 64.7087 68.5233C59.9833 70.0532 56.5535 73.4529 55.0101 78.137C53.4667 73.4529 50.0369 70.0532 45.3115 68.5233ZM102.569 91.4716C102.569 117.159 81.7241 138.105 55.9057 138.596V84.011C55.9057 75.1339 61.6791 69.411 70.6346 69.411H102.569V91.4716ZM102.569 67.6356H76.3508C77.799 64.2737 83.6486 54.641 102.569 55.0188V67.6356ZM102.569 53.2434C92.3373 53.0545 85.6493 55.7743 81.3811 58.9663C80.8857 57.8708 79.933 56.2276 78.3706 54.5088V44.744C85.8398 44.3285 91.7847 38.209 91.7847 30.6918V20.5114H90.8892C85.4778 20.5114 80.7714 23.5334 78.3706 27.9531V21.9091V20.8703C78.3706 16.9606 75.1504 13.7686 71.2062 13.7686H70.3106V19.8504C70.3106 23.4579 73.0544 26.461 76.5795 26.8954V52.7712C73.0544 49.7681 66.6903 46.5194 55.9247 46.8405V7.38464H102.588V53.2623L102.569 53.2434ZM78.4658 42.9686V34.6015C78.4658 28.1231 83.5533 22.7779 89.9936 22.3246V30.6918C89.9936 37.1702 84.9062 42.5153 78.4658 42.9686ZM76.5604 20.8703V25.1011C74.0262 24.6855 72.0827 22.4946 72.0827 19.8504V15.6196C74.6169 16.054 76.5604 18.2449 76.5604 20.8703Z"
      fill="#C49A6C" />
  </symbol>
  <symbol id="icon-pin" viewBox="0 0 24 24" fill="none" xmlns="http://www.w3.org/2000/svg">
    <path
      d="M17.7457 3.07943C16.9554 2.30548 16.016 1.70028 14.9846 1.3006C13.9531 0.900915 12.8512 0.715096 11.7457 0.754429C9.67304 0.825166 7.70235 1.67115 6.22343 3.12508C4.7445 4.579 3.86505 6.53498 3.75899 8.60618C3.705 9.68684 3.86549 10.7675 4.23119 11.7858C4.5969 12.8042 5.16058 13.74 5.88974 14.5394C8.08067 16.8641 9.8646 19.541 11.1667 22.4579L11.3107 22.7954C11.3686 22.9303 11.4647 23.0452 11.5872 23.1259C11.7097 23.2067 11.8533 23.2497 12 23.2497C12.1467 23.2497 12.2902 23.2067 12.4127 23.1259C12.5353 23.0452 12.6314 22.9303 12.6892 22.7954L13.0095 22.0454C14.2466 19.2916 15.9522 16.7732 18.0502 14.6024C19.5155 13.0225 20.3041 10.9318 20.2471 8.77774C20.1902 6.6237 19.2924 4.57753 17.7457 3.07718V3.07943ZM12 11.9999C11.4066 11.9999 10.8266 11.824 10.3333 11.4943C9.83993 11.1647 9.45541 10.6962 9.22835 10.148C9.00129 9.5998 8.94188 8.9966 9.05763 8.41466C9.17339 7.83271 9.45911 7.29817 9.87867 6.87861C10.2982 6.45905 10.8328 6.17333 11.4147 6.05757C11.9967 5.94182 12.5999 6.00123 13.148 6.22829C13.6962 6.45535 14.1648 6.83987 14.4944 7.33322C14.824 7.82657 15 8.40658 15 8.99993C15 9.79558 14.6839 10.5586 14.1213 11.1212C13.5587 11.6839 12.7956 11.9999 12 11.9999Z"
      fill="currentColor" />
  </symbol>
  <symbol id="icon-arrow" viewBox="0 0 8 12" fill="none" xmlns="http://www.w3.org/2000/svg">
    <path
      d="M1.07422 0.269753C0.981689 0.308815 0.921509 0.399391 0.921509 0.499977L0.921631 11.5C0.921631 11.6004 0.981812 11.6911 1.07434 11.7303C1.16687 11.7694 1.27393 11.7492 1.34595 11.6792L7.00281 6.17918C7.05115 6.13218 7.07849 6.06748 7.07849 5.99998C7.07849 5.93247 7.05115 5.86777 7.00281 5.82078L1.34583 0.320778C1.27368 0.25071 1.16675 0.23069 1.07422 0.269753Z"
      fill="#C49A6C" />
  </symbol>
  <symbol id="icon-wave" viewBox="0 0 40 40" fill="none" xmlns="http://www.w3.org/2000/svg">
    <path
      d="M31.3203 8.1875C30.3828 10.5312 28.1171 11.9297 23.5312 11.6172C22.4609 11.4766 21.375 11.2969 20.2812 11.0937C10.9765 8.1875 1.82495 8.1875 1.82495 14C4.44058 11.0937 11.0234 11.5937 19.4062 13.6875C28.5312 15.9687 38.2968 16.9062 38.2968 9.64062C36.8593 11.1484 34.125 11.875 30.75 12.0156C31.5312 11.2031 31.7265 9.92969 31.3203 8.1875ZM11.4843 14.6484C5.95698 14.625 1.82495 15.9062 1.82495 19.8125C4.44058 16.9062 11.0234 17.0938 19.4062 19.1875C28.5312 21.4688 38.2968 22.7188 38.2968 15.4531C35.5312 18.3594 28.125 18.5469 20.2812 16.0781C17.3359 15.1484 14.1875 14.6562 11.4843 14.6484ZM9.61714 20.0859C5.05151 20.0703 1.82495 21.3047 1.82495 25.625C4.44058 22.7188 11.3828 22.1641 19.4062 24.1719C28.8593 26.5312 38.2968 27.0781 38.2968 21.2656C35.5312 24.1719 27.9765 23.0313 20.2812 21.5781C16.5 20.9922 12.7421 20.0859 9.61714 20.0859ZM9.61714 25.8906C5.05151 25.8828 1.82495 27.125 1.82495 31.4375C3.31167 29.7891 6.16245 29.0703 9.83589 29.0312C9.02339 29.8437 8.82808 31.1328 9.23433 32.8906C10.3203 30.1719 13.2968 28.8438 19.414 29.9844C28.9921 31.7656 38.2968 32.8906 38.2968 27.0781C35.5312 29.9844 27.9765 28.5312 20.2812 27.0781C16.5 26.4844 12.7421 25.8984 9.61714 25.8906Z"
      fill="#C49A6C" />
  </symbol>
  <symbol id="icon-children" viewBox="0 0 40 40" fill="none" xmlns="http://www.w3.org/2000/svg">
    <path
      d="M24.9425 28.5213C24.8512 29.1654 25.2234 29.8053 25.8608 30.0281C26.5858 30.2816 27.3792 29.8992 27.6328 29.174L28.0747 27.9094L24.9425 28.5213Z"
      fill="#C49A6C" />
    <path
      d="M33.1381 10.7281C34.551 10.7281 35.6964 9.58274 35.6964 8.16985C35.6964 6.75695 34.551 5.61157 33.1381 5.61157C31.7252 5.61157 30.5798 6.75695 30.5798 8.16985C30.5798 9.58274 31.7252 10.7281 33.1381 10.7281Z"
      fill="#C49A6C" />
    <path
      d="M6.78618 16.6484C8.19908 16.6484 9.34446 15.503 9.34446 14.0901C9.34446 12.6772 8.19908 11.5319 6.78618 11.5319C5.37328 11.5319 4.22791 12.6772 4.22791 14.0901C4.22791 15.503 5.37328 16.6484 6.78618 16.6484Z"
      fill="#C49A6C" />
    <path
      d="M39.9738 22.4897C39.8266 21.7358 39.096 21.244 38.3421 21.3912L36.6364 21.7243C37.1796 21.3499 37.4751 20.7496 37.4768 20.1327C37.479 19.3452 37.4927 14.3454 37.4949 13.5494C37.4978 12.4658 36.6124 11.5954 35.5399 11.6031L33.7545 11.6158C32.6762 11.6235 31.8106 12.5096 31.8276 13.5874L31.841 14.4346L34.3385 12.6906L31.3676 16.0191C30.7518 15.9595 26.7615 15.5734 26.1527 15.5146C25.5158 15.4532 24.949 15.9195 24.8873 16.5567C24.8258 17.1938 25.2922 17.7603 25.9294 17.822C26.8862 17.9146 31.0477 18.3173 31.7293 18.3832C32.0985 18.4188 32.4606 18.276 32.7057 18.0013L35.606 14.7519L33.6384 18.7692C33.4389 19.1766 33.2731 19.6266 32.7873 19.7355C29.8249 20.252 30.3509 20.1602 28.4779 20.4868C27.5709 20.6449 27.4 21.4088 27.2345 21.8822L26.6049 23.6836L13.993 26.147C14.1192 27.2276 13.5241 27.854 13.2094 28.2494L12.3759 29.2973L18.8405 28.0346C18.8405 28.778 18.8405 31.2906 18.8405 32.0408H16.2777C15.6376 32.0408 15.1187 32.5598 15.1187 33.1999C15.1187 33.84 15.6376 34.359 16.2777 34.359H23.7215C24.3616 34.359 24.8806 33.84 24.8806 33.1999C24.8806 32.5598 24.3616 32.0408 23.7215 32.0408H21.1587C21.1587 31.2264 21.1587 28.649 21.1587 27.5819L28.1487 26.2166C28.1487 25.8369 28.1487 26.105 28.1487 25.2498C28.1487 24.8344 28.0586 24.0392 28.8541 23.5377L32.7263 21.1119L29.5921 24.2699C29.3336 24.5305 29.1884 24.8827 29.1884 25.2497V31.7819C29.1884 32.5501 29.8111 33.1729 30.5793 33.1729C31.3475 33.1729 31.9703 32.5501 31.9703 31.7819V25.8227L34.7007 23.0715L33.3948 25.1918L38.8752 24.1214C39.6294 23.9741 40.1211 23.2436 39.9738 22.4897Z"
      fill="#C49A6C" />
    <path
      d="M14.2589 22.6657C14.2088 22.0275 13.6512 21.5511 13.0127 21.6008C11.6992 21.7038 9.89013 21.8457 8.56529 21.9496L5.58561 18.6113L8.08318 20.3554L8.09654 19.5081C8.11357 18.4297 7.24732 17.5443 6.16889 17.5365C4.20014 17.5225 4.2453 17.5091 3.97334 17.5659C3.28506 17.6559 2.42631 18.402 2.42921 19.47L2.44725 26.0533C2.45014 27.0853 3.28022 27.9998 4.54905 27.9808L1.15913 28.6538C0.42921 28.7964 -0.0891488 29.4775 0.0128042 30.2142C0.123195 31.012 0.877881 31.5431 1.65757 31.3909L4.63444 30.8094L6.58857 28.3529L5.04678 28.0656L8.31677 28.056L5.09834 32.1018C4.61983 32.7034 4.6892 33.5919 5.28576 34.0767C5.88764 34.5656 6.77068 34.468 7.2517 33.8633L12.2958 27.5225C13.0096 26.6253 12.3883 25.2655 11.2075 25.2655H11.2035L5.03865 25.2835L6.4749 25.0071C6.4749 25.0071 6.16154 24.4367 4.31826 20.6723L7.21857 23.9218C7.45896 24.1911 7.81193 24.3338 8.17396 24.3055C9.00935 24.24 12.6116 23.9575 13.1941 23.9117C13.8322 23.8618 14.309 23.3039 14.2589 22.6657Z"
      fill="#C49A6C" />
  </symbol>
</svg>