<svg width="30" height="24" viewBox="0 0 30 24" fill="none" xmlns="http://www.w3.org/2000/svg">
<path d="M21.3687 11.7754V16.4982H24.0596V13.8388H26.7686C28.1831 13.8388 29.3897 12.9806 29.8563 11.7754H21.3687Z" fill="white"/>
<path d="M21.2476 7.5C21.2589 7.73695 21.2904 7.97231 21.3416 8.20317C21.3528 8.25392 21.364 8.3056 21.3778 8.35543C21.383 8.37573 21.3881 8.39603 21.3942 8.41726C21.6352 9.23304 22.1128 9.94546 22.7578 10.4512C23.4028 10.9569 24.1816 11.2297 24.9812 11.2299H29.9508C29.9825 11.0451 29.999 10.8577 29.9999 10.6698C29.9979 9.83011 29.6854 9.02541 29.1306 8.43148C28.5758 7.83756 27.8239 7.50268 27.0391 7.5H21.2476Z" fill="#4CC567"/>
<path d="M16.5979 8.45048L14.7134 12.8181H14.5228V7.5H11.8491V16.5H14.1209C14.4131 16.4998 14.6991 16.4102 14.9452 16.2416C15.1913 16.073 15.3871 15.8325 15.5095 15.5486L17.3931 11.1819H17.5846V16.5H20.2582V7.5H17.9856C17.6936 7.50003 17.4077 7.58956 17.1618 7.75801C16.9159 7.92645 16.7202 8.16676 16.5979 8.45048Z" fill="white"/>
<path d="M4.13657 8.68302L5.25175 12.8181H5.44236L6.55754 8.68302C6.64937 8.34263 6.84194 8.04331 7.10632 7.82999C7.37069 7.61667 7.69262 7.50088 8.02374 7.5H10.6974V16.4991H8.02374V11.1819H7.83228L6.30311 16.4991H4.39187L2.86184 11.1819H2.67123V16.4991H-0.00244141V7.5H2.67123C3.00236 7.50088 3.32428 7.61667 3.58866 7.82999C3.85304 8.04331 4.04474 8.34263 4.13657 8.68302Z" fill="white"/>
</svg>
