<svg width="17" height="15" viewBox="0 0 17 15" fill="none" xmlns="http://www.w3.org/2000/svg">
<path d="M0.600573 6.85877C2.28392 5.93153 4.163 5.15765 5.91872 4.37981C8.93924 3.10577 11.9718 1.85381 15.0349 0.688246C15.6309 0.489646 16.7017 0.295426 16.8067 1.17863C16.7492 2.42879 16.5127 3.67163 16.3504 4.91447C15.9387 7.64759 15.4627 10.3713 14.9986 13.0955C14.8387 14.0028 13.702 14.4726 12.9747 13.8919C11.2268 12.7112 9.46544 11.5421 7.73984 10.334C7.17458 9.75965 7.69874 8.93483 8.20358 8.52467C9.64322 7.10591 11.17 5.90051 12.5344 4.40843C12.9024 3.51965 11.815 4.26869 11.4563 4.49819C9.48542 5.85635 7.56278 7.29743 5.48486 8.49107C4.42346 9.07535 3.18638 8.57603 2.12546 8.24999C1.17421 7.85615 -0.219723 7.45937 0.600477 6.85883L0.600573 6.85877Z" fill="white" fill-opacity="0.8"/>
</svg>
