<svg width="30" height="24" viewBox="0 0 30 24" fill="none" xmlns="http://www.w3.org/2000/svg">
<path fill-rule="evenodd" clip-rule="evenodd" d="M12.1232 7.17291L10.5962 16.8337H13.0392L14.5663 7.17291H12.1232ZM8.54081 7.17291L6.21163 13.8175L5.93612 12.3867L5.8756 12.0665C5.59371 11.4411 4.94084 10.2523 3.70806 9.23788C3.34359 8.93802 2.97619 8.68211 2.62103 8.46351L4.73788 16.8337H7.28324L11.1702 7.17291H8.54081ZM18.0752 9.85494C18.0752 8.7627 20.4544 8.90305 21.4999 9.49613L21.8485 7.42125C21.8485 7.42125 20.7726 7 19.6511 7C18.4387 7 15.5597 7.54585 15.5597 10.1981C15.5597 12.6943 18.9388 12.7253 18.9388 14.0358C18.9388 15.3463 15.9081 15.1121 14.908 14.2854L14.5445 16.4541C14.5445 16.4541 15.6353 17 17.3024 17C18.9692 17 21.4846 16.1109 21.4846 13.6926C21.4846 11.1809 18.0752 10.9469 18.0752 9.85494ZM28.0442 7.17291H26.08C25.1731 7.17291 24.9522 7.89287 24.9522 7.89287L21.309 16.8337H23.8553L24.3647 15.3988H27.4704L27.7569 16.8337H30.0001L28.0442 7.17291ZM25.0687 13.4163L26.3524 9.80101L27.0746 13.4163H25.0687Z" fill="#1C83E2"/>
<path fill-rule="evenodd" clip-rule="evenodd" d="M5.14862 8.08284C5.14862 8.08284 5.0475 7.21094 3.96796 7.21094H0.0458797L-6.10352e-05 7.3748C-6.10352e-05 7.3748 1.8852 7.77046 3.69387 9.25279C5.42231 10.6695 5.98616 12.4356 5.98616 12.4356L5.14862 8.08284Z" fill="#1C83E2"/>
</svg>
