<svg width="24" height="24" viewBox="0 0 24 24" fill="none" xmlns="http://www.w3.org/2000/svg">
<path d="M23.77 16.6487V16.3574H23.698L23.614 16.5516L23.53 16.3574H23.458V16.6487H23.506V16.4302L23.59 16.6244H23.65L23.734 16.4302V16.6487H23.77ZM23.29 16.6487V16.406H23.386V16.3574H23.146V16.406H23.242V16.6487H23.29Z" fill="#00A2E5"/>
<path d="M15.2357 17.8978H8.74365V6.10173H15.2357V17.8978Z" fill="#FF5F00"/>
<path d="M9.16556 12C9.16556 9.60922 10.2696 7.4733 11.9976 6.10194C10.7376 5.09466 9.14156 4.5 7.41356 4.5C3.32156 4.5 -0.00244141 7.86165 -0.00244141 12C-0.00244141 16.1383 3.32156 19.5 7.41356 19.5C9.14156 19.5 10.7376 18.9053 11.9976 17.8981C10.2696 16.5267 9.16556 14.3908 9.16556 12Z" fill="#EB001B"/>
<path d="M23.9976 12C23.9976 16.1383 20.6736 19.5 16.5816 19.5C14.8536 19.5 13.2576 18.9053 11.9976 17.8981C13.7256 16.5267 14.8296 14.3908 14.8296 12C14.8296 9.60922 13.7256 7.4733 11.9976 6.10194C13.2576 5.09466 14.8536 4.5 16.5816 4.5C20.6736 4.5 23.9976 7.86165 23.9976 12Z" fill="#F79E1B"/>
</svg>
