<svg width="145" height="40" viewBox="0 0 145 40" fill="none" xmlns="http://www.w3.org/2000/svg">
<path d="M0 30.5V6H21V9.5H7V16.5H21V20H24.5V27H21V30.5H0ZM7 27H17.5V20H7V27ZM28 30.5V6H52.5V9.5H35V16.5H49V20H35V27H52.5V30.5H28ZM63 30.5V27H59.5V23.5H56V13H59.5V9.5H63V6H77V9.5H80.5V13H73.5V9.5H66.5V13H63V23.5H66.5V27H73.5V23.5H80.5V27H77V30.5H63Z" fill="#87F29A"/>
<path d="M87.5 30.5V27H94.5V9.5H87.5V6H108.5V9.5H101.5V27H108.5V30.5H87.5ZM122.5 30.5V9.5H115.5V6H136.5V9.5H129.5V30.5H122.5Z" fill="white"/>
</svg>
