<svg width="80" height="149" viewBox="0 0 80 149" fill="none" xmlns="http://www.w3.org/2000/svg">
  <path d="M64.1062 61.2251L24.0858 50.0761L3.38855 124.743L43.409 135.892L64.1062 61.2251Z" fill="#FFC727" />
  <g opacity="0.1">
    <path d="M61.6577 70.0925L21.6373 58.9435L21.5114 59.3979L61.5318 70.547L61.6577 70.0925Z" fill="#020100" />
    <path d="M59.4225 78.1669L19.4021 67.0179L19.2761 67.4723L59.2965 78.6214L59.4225 78.1669Z" fill="#020100" />
    <path d="M57.1725 86.233L17.1521 75.084L17.0261 75.5385L57.0465 86.6875L57.1725 86.233Z" fill="#020100" />
    <path d="M54.939 94.2944L14.9186 83.1454L14.7926 83.5999L54.813 94.7489L54.939 94.2944Z" fill="#020100" />
    <path d="M52.7036 102.368L12.6832 91.219L12.5573 91.6734L52.5777 102.822L52.7036 102.368Z" fill="#020100" />
    <path d="M50.4679 110.436L10.4475 99.287L10.3215 99.7415L50.3419 110.89L50.4679 110.436Z" fill="#020100" />
    <path d="M48.2326 118.503L8.21216 107.354L8.08619 107.808L48.1066 118.957L48.2326 118.503Z" fill="#020100" />
    <path d="M45.9986 126.57L5.97815 115.421L5.85218 115.875L45.8726 127.024L45.9986 126.57Z" fill="#020100" />
  </g>
  <path d="M45.6737 56.0697L42.5852 55.2099L21.9009 129.88L24.9894 130.74L45.6737 56.0697Z" fill="#263238" />
  <path d="M45.6338 84.1457L42.2976 83.2163L36.0441 105.776L39.3803 106.706L45.6338 84.1457Z" fill="#263238" />
  <path d="M44.9882 130.298L35.3722 127.622L29.9761 132.14L43.437 135.891L44.9882 130.298Z" fill="#263238" />
  <path d="M4.96539 119.154L14.574 121.829L16.8751 128.491L3.41418 124.74L4.96539 119.154Z" fill="#263238" />
  <path d="M34.7687 140.695L38.3269 141.69L42.5394 135.64L34.8643 133.502L36.1287 137.467L34.7687 140.695Z"
    fill="#263238" />
  <path
    d="M30.9014 141.808C30.1515 144.52 31.7321 147.335 34.4449 148.087C37.1503 148.839 39.9586 147.254 40.7085 144.535C41.4584 141.815 39.8778 139.007 37.165 138.255C34.4596 137.504 31.6512 139.088 30.9014 141.808Z"
    fill="#37474F" />
  <path
    d="M33.1292 142.427C32.7175 143.908 33.585 145.449 35.0627 145.861C36.5404 146.274 38.0769 145.404 38.4886 143.923C38.9003 142.442 38.0328 140.901 36.5551 140.489C35.0774 140.076 33.5409 140.946 33.1292 142.427Z"
    fill="#DBDBDB" />
  <path
    d="M36.2025 141.534C36.0922 141.917 36.0554 142.249 36.1142 142.264C36.1731 142.278 36.3054 141.976 36.4083 141.593C36.5186 141.21 36.5554 140.878 36.4965 140.863C36.4377 140.849 36.3054 141.151 36.2025 141.534Z"
    fill="#263238" />
  <path
    d="M37.2461 142.292C36.9006 142.491 36.6433 142.69 36.6727 142.742C36.7021 142.794 37.0109 142.676 37.3564 142.477C37.7019 142.278 37.9592 142.079 37.9298 142.027C37.9004 141.976 37.5917 142.094 37.2461 142.292Z"
    fill="#263238" />
  <path
    d="M37.4449 143.569C37.0626 143.458 36.7318 143.421 36.7171 143.48C36.7024 143.539 37.0038 143.672 37.3861 143.775C37.7683 143.886 38.0992 143.923 38.1139 143.864C38.1286 143.805 37.8272 143.672 37.4449 143.569Z"
    fill="#263238" />
  <path
    d="M36.6879 144.615C36.4895 144.269 36.291 144.011 36.2395 144.04C36.188 144.07 36.3057 144.379 36.5042 144.726C36.7027 145.072 36.9011 145.33 36.9526 145.3C37.0041 145.271 36.8864 144.961 36.6879 144.615Z"
    fill="#263238" />
  <path
    d="M35.4083 144.814C35.5186 144.431 35.5554 144.099 35.4965 144.084C35.4377 144.069 35.3054 144.372 35.2025 144.755C35.0922 145.138 35.0554 145.47 35.1142 145.485C35.1731 145.499 35.3054 145.197 35.4083 144.814Z"
    fill="#263238" />
  <path
    d="M34.3641 144.055C34.7096 143.856 34.9669 143.657 34.9375 143.606C34.9081 143.554 34.5993 143.672 34.2538 143.871C33.9083 144.07 33.651 144.269 33.6804 144.321C33.7098 144.372 34.0186 144.254 34.3641 144.055Z"
    fill="#263238" />
  <path
    d="M34.1661 142.779C34.5484 142.89 34.8792 142.927 34.8939 142.868C34.9086 142.809 34.6072 142.676 34.2249 142.573C33.8426 142.463 33.5118 142.426 33.4971 142.485C33.4824 142.544 33.7838 142.676 34.1661 142.779Z"
    fill="#263238" />
  <path
    d="M34.9308 141.733C35.1293 142.079 35.3278 142.337 35.3792 142.308C35.4307 142.278 35.3131 141.969 35.1146 141.622C34.9161 141.276 34.7176 141.018 34.6661 141.048C34.6147 141.077 34.7323 141.387 34.9308 141.733Z"
    fill="#263238" />
  <path d="M8.36156 133.348L4.8107 132.353L4.31079 124.99L11.9859 127.127L8.86147 129.869L8.36156 133.348Z"
    fill="#263238" />
  <path
    d="M11.104 136.295C10.3541 139.008 7.54578 140.6 4.84036 139.848C2.13495 139.096 0.546986 136.281 1.29686 133.568C2.04673 130.856 4.85507 129.264 7.56048 130.016C10.2659 130.768 11.8539 133.583 11.104 136.295Z"
    fill="#37474F" />
  <path
    d="M8.88372 135.677C8.47202 137.158 6.94287 138.028 5.45784 137.615C3.98015 137.202 3.11266 135.669 3.52435 134.181C3.93604 132.699 5.46519 131.829 6.95022 132.242C8.42791 132.655 9.29541 134.188 8.88372 135.677Z"
    fill="#DBDBDB" />
  <path
    d="M6.70798 133.318C6.5977 133.701 6.46538 134.003 6.41392 133.989C6.3551 133.974 6.39921 133.65 6.50213 133.259C6.61241 132.876 6.74474 132.574 6.7962 132.588C6.85501 132.603 6.8109 132.927 6.70798 133.318Z"
    fill="#263238" />
  <path
    d="M5.42171 133.428C5.62021 133.774 5.73783 134.084 5.68637 134.113C5.63491 134.143 5.43641 133.885 5.23792 133.538C5.03942 133.192 4.9218 132.882 4.97326 132.853C5.02472 132.824 5.22322 133.081 5.42171 133.428Z"
    fill="#263238" />
  <path
    d="M4.59088 134.423C4.97316 134.533 5.27459 134.666 5.25988 134.718C5.24518 134.777 4.9217 134.732 4.53206 134.629C4.14978 134.519 3.84836 134.386 3.86306 134.334C3.87777 134.275 4.20124 134.32 4.59088 134.423Z"
    fill="#263238" />
  <path
    d="M4.70793 135.713C5.05345 135.514 5.36222 135.396 5.39163 135.447C5.42104 135.499 5.16373 135.698 4.8182 135.897C4.47267 136.096 4.1639 136.214 4.13449 136.162C4.10509 136.111 4.3624 135.912 4.70793 135.713Z"
    fill="#263238" />
  <path
    d="M5.69306 136.538C5.80333 136.155 5.93566 135.853 5.98712 135.868C6.04594 135.882 6.00182 136.207 5.8989 136.597C5.78863 136.98 5.65629 137.283 5.60483 137.268C5.54602 137.253 5.59013 136.929 5.69306 136.538Z"
    fill="#263238" />
  <path
    d="M6.98011 136.428C6.78161 136.082 6.66399 135.772 6.71545 135.743C6.76691 135.713 6.9654 135.971 7.1639 136.318C7.36239 136.664 7.48002 136.973 7.42856 137.003C7.3771 137.032 7.1786 136.774 6.98011 136.428Z"
    fill="#263238" />
  <path
    d="M7.81099 135.433C7.42871 135.322 7.12729 135.189 7.142 135.138C7.1567 135.079 7.48017 135.123 7.86981 135.226C8.2521 135.337 8.55352 135.469 8.53881 135.521C8.52411 135.58 8.20063 135.536 7.81099 135.433Z"
    fill="#263238" />
  <path
    d="M7.69307 134.15C7.34755 134.349 7.03878 134.467 7.00937 134.415C6.97996 134.363 7.23727 134.164 7.5828 133.965C7.92833 133.766 8.2371 133.648 8.2665 133.7C8.29591 133.752 8.0386 133.951 7.69307 134.15Z"
    fill="#263238" />
  <path d="M54.2342 54.8266L47.5543 52.967L46.6219 56.333L53.3017 58.1926L54.2342 54.8266Z" fill="#263238" />
  <path d="M78.4992 2.8228L75.4604 1.97626L59.3888 59.9557L62.4275 60.8022L78.4992 2.8228Z" fill="#C7C7C7" />
  <path d="M79.3856 2.15477L75.0577 0.949097L73.0343 8.24889L77.3621 9.45456L79.3856 2.15477Z" fill="#263238" />
</svg>