<svg width="60" height="60" viewBox="0 0 60 60" fill="none" xmlns="http://www.w3.org/2000/svg">
  <g clip-path="url(#clip0_2_4812)">
    <path
      d="M25.7259 27.9037C24.5843 27.9037 23.6588 26.9782 23.6588 25.8366C23.6588 24.695 24.5843 23.7695 25.7259 23.7695C26.8675 23.7695 27.7929 24.695 27.7929 25.8366C27.7929 26.9782 26.8675 27.9037 25.7259 27.9037Z"
      fill="#FAA074" />
    <path
      d="M46.0069 37.5343L59.8391 51.3654C60.4877 52.0139 59.1164 54.4367 56.7763 56.7766C54.4361 59.1166 52.0132 60.4877 51.3646 59.8391L47.4852 55.9598L46.0069 37.5343Z"
      fill="#8D58CD" />
    <path
      d="M42.2896 46.008L54.7988 58.5161C53.1995 59.7334 51.8284 60.3027 51.3646 59.839L47.4852 55.9596L42.2896 46.008Z"
      fill="#5C2CC7" />
    <path
      d="M41.2832 32.8105L55.9602 47.4861C56.6088 48.1346 55.2375 50.5573 52.8974 52.8972C50.5572 55.2372 48.1343 56.6083 47.4857 55.9598L45.6332 54.1075L44.4648 51.7939L42.565 51.0396L32.8085 41.2843L41.2832 32.8105Z"
      fill="#FAA074" />
    <path
      d="M35.1864 38.9053L50.9189 54.6364C49.3197 55.8537 47.9486 56.423 47.4847 55.9593L45.6322 54.1071L44.7368 51.7735L42.564 51.0391L32.8076 41.2837L35.1864 38.9053Z"
      fill="#EAC941" />
    <path
      d="M32.9115 41.3808C32.263 40.7323 33.634 38.3099 35.9738 35.9701C38.3135 33.6304 40.7359 32.2594 41.3844 32.9079C42.0329 33.5563 40.6618 35.9788 38.3221 38.3185C35.9824 40.6582 33.56 42.0292 32.9115 41.3808Z"
      fill="#8D58CD" />
    <path
      d="M29.7829 39.2574C30.1021 39.2574 30.4109 39.0856 30.5712 38.7839C30.8024 38.3491 30.6374 37.8089 30.2024 37.5776C26.3825 35.5464 18.4627 32.6879 8.33814 36.3638C7.87513 36.532 7.63607 37.0436 7.80411 37.5066C7.97228 37.9696 8.4838 38.2087 8.94692 38.0406C18.4225 34.6001 25.8065 37.2605 29.3647 39.1527C29.4983 39.2236 29.6417 39.2574 29.7829 39.2574Z"
      fill="#8D58CD" />
    <path
      d="M31.5306 32.4217C31.7589 32.4217 31.9872 32.3346 32.1614 32.1604C32.5097 31.812 32.5097 31.2472 32.1613 30.8989L30.487 29.2249C30.1389 28.8765 29.574 28.8766 29.2256 29.225C28.8773 29.5734 28.8773 30.1382 29.2257 30.4864L30.9 32.1605C31.0741 32.3346 31.3024 32.4217 31.5306 32.4217Z"
      fill="#8D58CD" />
    <path
      d="M22.1441 23.0353C22.3725 23.0353 22.6009 22.9481 22.7751 22.7739C23.1233 22.4254 23.1231 21.8606 22.7746 21.5123L10.3958 9.14379C10.0474 8.79563 9.48256 8.79586 9.1344 9.14426C8.78623 9.49277 8.78647 10.0575 9.13498 10.4058L21.5137 22.7743C21.6878 22.9484 21.916 23.0353 22.1441 23.0353Z"
      fill="#8D58CD" />
    <path
      d="M15.0638 6.09605C13.9221 6.09605 12.9967 5.1706 12.9967 4.02898C12.9967 2.88737 13.9221 1.96191 15.0638 1.96191C16.2054 1.96191 17.1308 2.88737 17.1308 4.02898C17.1308 5.1706 16.2054 6.09605 15.0638 6.09605Z"
      fill="#FAA074" />
    <path
      d="M4.1486 17.0997C3.00699 17.0997 2.08153 16.1743 2.08153 15.0327C2.08153 13.8911 3.00699 12.9656 4.1486 12.9656C5.29021 12.9656 6.21567 13.8911 6.21567 15.0327C6.21567 16.1743 5.29021 17.0997 4.1486 17.0997Z"
      fill="#FAA074" />
    <path
      d="M22.8899 45.7054C21.7483 45.7054 20.8229 44.78 20.8229 43.6384C20.8229 42.4967 21.7483 41.5713 22.8899 41.5713C24.0315 41.5713 24.957 42.4967 24.957 43.6384C24.957 44.78 24.0315 45.7054 22.8899 45.7054Z"
      fill="#FAA074" />
    <path
      d="M4.41126 29.758L6.59317 28.5668L8.81329 29.6854L8.35239 27.2463L10.1045 25.4846L7.63767 25.1683L6.50036 22.9609L5.43665 25.2046L2.98169 25.602L4.79106 27.305L4.41126 29.758Z"
      fill="#8D58CD" />
    <path
      d="M4.84188 7.93914L5.54243 5.55402L7.90329 4.77508L5.85263 3.37621L5.84583 0.891602L3.8779 2.41223L1.51282 1.65566L2.3472 3.99426L0.892432 6.01117L3.37599 5.93594L4.84188 7.93914Z"
      fill="#8D58CD" />
    <path
      d="M14.5882 55.2002L16.7701 54.009L18.9902 55.1277L18.5295 52.6884L20.2814 50.9268L17.8147 50.6105L16.6773 48.4031L15.6137 50.6468L13.1587 51.0443L14.9681 52.7473L14.5882 55.2002Z"
      fill="#8D58CD" />
    <path d="M11.2565 20.492C10.1086 20.492 10.1067 18.708 11.2565 18.708C12.4044 18.708 12.4063 20.492 11.2565 20.492Z"
      fill="#AE80EA" />
    <path
      d="M0.862041 34.2058C-0.285811 34.2058 -0.287803 32.4219 0.862041 32.4219C2.00989 32.4219 2.01177 34.2058 0.862041 34.2058Z"
      fill="#AE80EA" />
    <path d="M33.3005 1.78395C32.1526 1.78395 32.1507 0 33.3005 0C34.4483 0 34.4503 1.78395 33.3005 1.78395Z"
      fill="#AE80EA" />
    <path
      d="M4.19102 39.6804C3.04317 39.6804 3.0413 37.8965 4.19102 37.8965C5.33899 37.8965 5.34087 39.6804 4.19102 39.6804Z"
      fill="#AE80EA" />
    <path
      d="M38.3146 30.4839C38.4538 30.4839 38.595 30.4512 38.7271 30.3823C39.1636 30.1541 39.3326 29.6152 39.1043 29.1785C37.2573 25.6449 34.6678 18.3204 38.0769 8.96826C38.2456 8.50548 38.0071 7.99349 37.5443 7.82474C37.0816 7.65587 36.5696 7.89458 36.4008 8.35724C32.7572 18.3529 35.5402 26.2106 37.5235 30.0048C37.6827 30.3096 37.9933 30.4839 38.3146 30.4839Z"
      fill="#8D58CD" />
    <path
      d="M43.6867 24.9448C42.5429 24.9448 41.6157 24.021 41.6157 22.8816C41.6157 21.7421 42.5429 20.8184 43.6867 20.8184C44.8305 20.8184 45.7578 21.7421 45.7578 22.8816C45.7578 24.021 44.8305 24.9448 43.6867 24.9448Z"
      fill="#FAA074" />
    <path
      d="M7.20193 44.4612C7.49115 44.3868 7.57764 44.2594 7.80756 43.868C8.07768 43.4082 8.48584 42.7134 9.5069 42.4507C10.5275 42.188 11.2208 42.5991 11.6797 42.8709C12.0711 43.103 12.2087 43.1727 12.4986 43.0983C12.7879 43.0239 12.8744 42.8965 13.1042 42.5052C13.3742 42.0455 13.7824 41.3507 14.8034 41.0879C15.2811 40.9649 15.7668 41.2525 15.8896 41.7294C16.0124 42.2065 15.7251 42.6928 15.248 42.8155C14.9587 42.8899 14.8722 43.0173 14.6424 43.4087C14.3724 43.8684 13.9642 44.5631 12.9432 44.8259C11.9224 45.0886 11.229 44.6776 10.7702 44.4056C10.3789 44.1737 10.2413 44.1036 9.9515 44.1784C9.66217 44.2528 9.57568 44.3802 9.34576 44.7716C9.07565 45.2313 8.66748 45.926 7.64643 46.1887C7.57189 46.208 7.49701 46.2171 7.42353 46.2171C7.02615 46.2171 6.66381 45.9497 6.56021 45.5471C6.43764 45.0702 6.72486 44.5839 7.20193 44.4612Z"
      fill="#FAA074" />
    <path
      d="M13.8371 29.2958C13.4048 29.0595 13.2461 28.5175 13.4823 28.0852C13.7188 27.6529 14.2608 27.494 14.6929 27.7305C14.9552 27.8738 15.1058 27.8401 15.5426 27.7114C16.0545 27.5607 16.8278 27.3328 17.7522 27.8382C18.6773 28.344 18.9016 29.118 19.05 29.63C19.1761 30.0656 19.2285 30.2101 19.4902 30.3532C19.7525 30.4966 19.9031 30.4627 20.3398 30.334C20.8515 30.1832 21.6247 29.9553 22.5493 30.4607C22.9816 30.697 23.1404 31.239 22.9042 31.6713C22.6677 32.1036 22.1257 32.2624 21.6936 32.026C21.431 31.8827 21.2805 31.9166 20.844 32.0452C20.5692 32.1262 20.2192 32.2293 19.8107 32.2293C19.4584 32.2293 19.0624 32.1525 18.6343 31.9184C17.709 31.4125 17.4847 30.6386 17.3364 30.1265C17.2103 29.6911 17.1579 29.5465 16.8963 29.4035C16.6342 29.2602 16.4835 29.2939 16.0466 29.4226C15.535 29.5733 14.7615 29.8012 13.8371 29.2958Z"
      fill="#FAA074" />
    <path
      d="M42.5542 13.1128C42.9463 12.8833 43.0738 12.7971 43.1481 12.5093C43.2223 12.2221 43.1526 12.0851 42.9208 11.6955C42.648 11.237 42.2357 10.544 42.4993 9.52346C42.7628 8.50335 43.4589 8.096 43.9196 7.82635C44.3117 7.5969 44.4393 7.51053 44.5136 7.22284C44.6369 6.746 45.1226 6.45901 45.6004 6.58229C46.0774 6.70557 46.3641 7.19213 46.241 7.66909C45.9774 8.68921 45.2813 9.09655 44.8206 9.36608C44.4284 9.59553 44.3009 9.68178 44.2266 9.9696C44.1524 10.2568 44.2222 10.3938 44.454 10.7833C44.7268 11.2419 45.139 11.9348 44.8755 12.9554C44.6119 13.9755 43.9158 14.3829 43.4552 14.6524C43.0629 14.8819 42.9354 14.9682 42.8611 15.2559C42.7572 15.6581 42.3951 15.9249 41.9981 15.9249C41.9242 15.9249 41.8491 15.9157 41.7744 15.8964C41.2974 15.7731 41.0106 15.2865 41.1338 14.8096C41.3975 13.7897 42.0935 13.3823 42.5542 13.1128Z"
      fill="#FAA074" />
    <path
      d="M27.7511 14.7022C27.5141 14.2703 27.6721 13.7281 28.1039 13.4911C28.5358 13.2539 29.0779 13.412 29.3151 13.8439C29.8222 14.7681 29.5936 15.5411 29.4423 16.0526C29.3139 16.487 29.2799 16.6368 29.4229 16.8971C29.5661 17.1581 29.7112 17.2104 30.1481 17.3366C30.6611 17.4847 31.4359 17.7082 31.9429 18.6318C32.4501 19.5561 32.2214 20.329 32.0701 20.8406C31.9417 21.275 31.9077 21.4247 32.0506 21.685C32.2876 22.1168 32.1298 22.6591 31.6978 22.8961C31.5617 22.9709 31.4146 23.0064 31.2695 23.0064C30.9544 23.0064 30.6491 22.8391 30.4868 22.5435C29.9794 21.6191 30.208 20.8462 30.3594 20.3347C30.4879 19.9002 30.5217 19.7505 30.3789 19.4902C30.2357 19.2292 30.0906 19.1768 29.6536 19.0506C29.1407 18.9026 28.3658 18.679 27.859 17.7555C27.3516 16.8311 27.5802 16.0581 27.7316 15.5466C27.8601 15.1122 27.8939 14.9624 27.7511 14.7022Z"
      fill="#FAA074" />
    <path
      d="M29.7802 4.43934L28.5867 6.61703L29.7075 8.83281L27.2636 8.37285L25.4984 10.1214L25.1816 7.65953L22.9698 6.52445L25.2179 5.46285L25.6161 3.0127L27.3225 4.81855L29.7802 4.43934Z"
      fill="#8D58CD" />
    <path
      d="M55.2715 14.5966L54.078 16.7742L55.1988 18.99L52.7549 18.5302L50.9897 20.2787L50.6728 17.8167L48.4611 16.6816L50.7091 15.62L51.1073 13.1699L52.8137 14.9758L55.2715 14.5966Z"
      fill="#8D58CD" />
    <path
      d="M19.57 12.1903C18.4221 12.1903 18.4202 10.4064 19.57 10.4064C20.7178 10.4064 20.7197 12.1903 19.57 12.1903Z"
      fill="#AE80EA" />
    <path
      d="M38.9118 5.02711C37.7639 5.02711 37.762 3.24316 38.9118 3.24316C40.0596 3.24316 40.0616 5.02711 38.9118 5.02711Z"
      fill="#AE80EA" />
    <path
      d="M44.7198 43.1793L44.1588 40.6068L41.7215 39.6105L43.9949 38.2821L44.1854 35.709L47.6443 39.1719L47.6547 39.1922L49.041 41.4308L46.4207 41.1693L44.7198 43.1793Z"
      fill="white" />
    <path
      d="M49.041 52.0166L46.4398 52.4246L45.6327 54.108L42.5645 51.0401L43.3642 50.2426L42.8898 47.6525L45.234 48.8513L47.5505 47.5998L47.1348 50.1999L49.041 52.0166Z"
      fill="white" />
  </g>
  <defs>
    <clipPath id="clip0_2_4812">
      <rect width="60" height="60" fill="white" transform="matrix(-1 0 0 1 60 0)" />
    </clipPath>
  </defs>
</svg>