<svg width="340" height="83" viewBox="0 0 340 83" fill="none" xmlns="http://www.w3.org/2000/svg">
<g opacity="0.6">
<path d="M262.762 49.0961L1.44067 105.941L235.957 35.7071L262.762 49.0961Z" fill="#EBEBEB"/>
<path d="M226.308 66.1391C212.408 69.7202 198.423 72.8628 184.423 75.8739C177.422 77.4086 170.408 78.7972 163.394 80.2589L142.321 84.4101L121.206 88.3274C114.148 89.5552 107.105 90.8561 100.047 91.9962C85.9175 94.3641 71.7733 96.5858 57.5427 98.3691C71.442 94.788 85.4134 91.6307 99.4279 88.6343C106.428 87.0849 113.442 85.711 120.457 84.2493L141.529 80.1127L162.645 76.2101C169.702 74.9822 176.746 73.6814 183.803 72.5412C197.933 70.1733 212.077 67.9516 226.308 66.1683V66.1391Z" fill="#EBEBEB"/>
<path d="M127.327 61.5788C118.569 64.9114 109.769 68.054 100.911 71.0212C92.0671 74.0323 83.1658 76.8826 74.2645 79.689C65.3487 82.4515 56.4042 85.1849 47.4309 87.7428C38.4575 90.3446 29.441 92.771 20.3524 95.0073C29.0953 91.6747 37.9102 88.5321 46.7683 85.5503C55.612 82.5392 64.5133 79.689 73.4147 76.8826C82.3304 74.12 91.2749 71.4013 100.248 68.8287C109.222 66.2269 118.238 63.8005 127.327 61.5496V61.5788Z" fill="#EBEBEB"/>
</g>
<path d="M269.372 51.1853C268.868 50.6006 261.868 45.6309 261.335 45.2655L262.531 45.0609C262.531 45.0609 268.926 50.586 269.372 51.1999V51.1853Z" fill="#FFC727"/>
<path opacity="0.5" d="M269.372 51.1853C268.868 50.6006 261.868 45.6309 261.335 45.2655L262.531 45.0609C262.531 45.0609 268.926 50.586 269.372 51.1999V51.1853Z" fill="white"/>
<path d="M269.401 51.2291C269.401 51.2291 269.401 51.2437 269.401 51.2584C269.343 51.3899 268.868 51.4922 268.335 51.5653C268.335 51.5653 268.335 51.5653 268.321 51.5653C267.658 51.653 266.938 51.6676 266.823 51.5945C266.679 51.4922 261.623 48.9197 258.526 47.3557C258.483 47.3411 258.44 47.3118 258.411 47.2972H258.382C258.238 47.2241 258.08 47.151 257.95 47.078C257.417 46.8149 256.985 46.5956 256.683 46.4348C256.366 46.274 256.193 46.1863 256.193 46.1863L261.393 45.2801C261.695 45.4847 264.057 47.1657 266.146 48.6858C266.218 48.7297 266.29 48.7881 266.362 48.8466C266.563 48.9927 266.751 49.1243 266.938 49.2705C268.205 50.2059 269.243 50.9953 269.43 51.2145C269.43 51.2145 269.43 51.2291 269.444 51.2437C269.444 51.2437 269.444 51.2437 269.444 51.2584L269.401 51.2291Z" fill="#FFC727"/>
<g opacity="0.1">
<path d="M269.402 51.229C269.402 51.229 269.402 51.2436 269.402 51.2582C269.344 51.3898 268.869 51.4921 268.336 51.5652C268.336 51.5652 268.336 51.5652 268.321 51.5652C267.659 51.6529 266.939 51.6675 266.823 51.5944C266.665 51.4921 261.48 48.8611 258.412 47.2971C258.916 47.5455 265.57 50.7905 266.91 49.2411C268.177 50.1766 269.214 50.9659 269.402 51.1851C269.402 51.1851 269.402 51.1997 269.416 51.2144C269.416 51.2144 269.416 51.2144 269.416 51.229H269.402Z" fill="black"/>
</g>
<path d="M337.89 57.0187C337.89 57.7349 334.058 57.9541 333.54 57.808C332.964 57.6472 291.266 40.9841 291.266 40.9841L306.606 34.8158C306.721 34.9035 306.865 35.0058 307.052 35.1227C307.11 35.1666 307.182 35.2104 307.254 35.2543C310.077 37.2422 318.532 43.1912 325.906 48.4094C326.05 48.5117 326.194 48.614 326.338 48.7163C326.54 48.8479 326.727 48.9941 326.914 49.1256C332.028 52.7506 336.464 55.9224 337.89 57.0041V57.0187Z" fill="#FFC727"/>
<path d="M337.89 57.0187C334.159 54.183 309.789 37.0522 306.605 34.8158L308.55 34.0265C308.55 34.0265 336.925 55.9224 337.774 56.7994C337.847 56.8725 337.875 56.9456 337.875 57.0041L337.89 57.0187Z" fill="#FFC727"/>
<path opacity="0.5" d="M337.89 57.0187C334.159 54.183 309.789 37.0522 306.605 34.8158L308.55 34.0265C308.55 34.0265 336.925 55.9224 337.774 56.7994C337.847 56.8725 337.875 56.9456 337.875 57.0041L337.89 57.0187Z" fill="white"/>
<g opacity="0.5">
<path opacity="0.1" d="M337.89 57.0187C337.89 57.7349 334.058 57.9541 333.54 57.808C332.964 57.6472 291.266 40.9841 291.266 40.9841L306.606 34.8158C306.606 34.8158 302.817 39.2154 311.82 45.9976C317.955 50.6165 324.495 51.5666 326.914 49.1402C332.028 52.7652 336.464 55.937 337.89 57.0187Z" fill="black"/>
</g>
<path d="M303.106 46.4508C301.924 47.0354 300.628 47.4885 300.542 46.29C300.498 45.793 300.887 45.2668 302.789 44.3313C303.235 44.1121 304.33 43.6297 304.647 44.6383C304.949 45.603 303.552 46.2461 303.106 46.4654V46.4508Z" fill="#FFC727"/>
<path opacity="0.1" d="M303.106 46.4508C301.924 47.0354 300.628 47.4885 300.542 46.29C300.498 45.793 300.887 45.2668 302.789 44.3313C303.235 44.1121 304.33 43.6297 304.647 44.6383C304.949 45.603 303.552 46.2461 303.106 46.4654V46.4508Z" fill="black"/>
<path d="M312.784 50.4554C311.603 51.0401 310.306 51.4932 310.22 50.2946C310.177 49.7976 310.566 49.2714 312.467 48.336C312.913 48.1167 314.008 47.6344 314.325 48.6429C314.627 49.6076 313.23 50.2508 312.784 50.47V50.4554Z" fill="#FFC727"/>
<path opacity="0.1" d="M312.784 50.4554C311.603 51.0401 310.306 51.4932 310.22 50.2946C310.177 49.7976 310.566 49.2714 312.467 48.336C312.913 48.1167 314.008 47.6344 314.325 48.6429C314.627 49.6076 313.23 50.2508 312.784 50.47V50.4554Z" fill="black"/>
<path d="M322.463 54.476C321.282 55.0607 319.986 55.5138 319.9 54.3152C319.856 53.8183 320.245 53.2921 322.147 52.3566C322.593 52.1373 323.688 51.655 324.005 52.6635C324.307 53.6282 322.91 54.2714 322.463 54.4906V54.476Z" fill="#FFC727"/>
<path opacity="0.1" d="M322.463 54.476C321.282 55.0607 319.986 55.5138 319.9 54.3152C319.856 53.8183 320.245 53.2921 322.147 52.3566C322.593 52.1373 323.688 51.655 324.005 52.6635C324.307 53.6282 322.91 54.2714 322.463 54.4906V54.476Z" fill="black"/>
<path d="M319.294 43.9222C318.128 46.027 315.477 46.7871 313.807 47.4595C309.356 49.2573 306.13 50.2805 304.545 46.1732C304.344 45.647 304.228 45.15 304.185 44.6823C303.926 41.5835 307.08 40.0487 308.679 39.1864C310.609 38.1486 311.977 37.4762 313 37.0523C314.656 36.3361 315.405 36.2484 316.169 36.2192C317.062 36.1899 319.093 36.4238 319.77 40.1949C320.043 41.7735 319.813 42.9721 319.294 43.9076V43.9222Z" fill="#FFC727"/>
<path d="M319.351 40.9843C319.351 43.2938 317.925 45.1501 316.183 45.1501C314.44 45.1501 313.014 43.2792 313.014 40.9843C313.014 38.6895 314.44 36.8185 316.183 36.8185C317.925 36.8185 319.351 38.6895 319.351 40.9843Z" fill="#263238"/>
<path d="M318.977 40.9837C318.977 43.0154 317.724 44.6671 316.183 44.6671C314.642 44.6671 313.374 43.0154 313.374 40.9837C313.374 38.952 314.627 37.3003 316.183 37.3003C317.738 37.3003 318.977 38.952 318.977 40.9837Z" fill="#455A64"/>
<path d="M252.909 39.872L252.175 40.1497L250.518 40.7636C249.035 40.1058 247.004 39.2142 244.8 38.2641C239.255 35.8523 232.701 33.0167 231.434 32.5782C231.477 32.5782 231.535 32.6074 231.592 32.622C231.635 32.622 231.679 32.6513 231.736 32.6659C231.794 32.6805 231.866 32.7097 231.924 32.7244C231.952 32.7244 231.996 32.7536 232.039 32.7536C232.168 32.7974 232.312 32.8413 232.471 32.8998C232.615 32.9436 232.759 33.0021 232.917 33.0459C233.292 33.1629 233.71 33.309 234.17 33.4698C234.315 33.5137 234.459 33.5721 234.603 33.616C234.732 33.6598 234.862 33.7037 235.006 33.7475C235.078 33.7768 235.15 33.7914 235.222 33.8206C235.438 33.8937 235.668 33.9668 235.899 34.0545C236.043 34.1129 236.201 34.1568 236.36 34.2153C238.131 34.8146 240.191 35.5162 242.251 36.2178L242.813 36.4078C243.547 36.6563 244.282 36.9194 245.002 37.1532C246.356 37.621 247.652 38.0595 248.79 38.4541C248.977 38.5126 249.15 38.5857 249.323 38.6441C249.928 38.8488 250.49 39.0388 250.965 39.2142C251.109 39.2727 251.253 39.3165 251.383 39.3604C251.455 39.3896 251.512 39.4042 251.584 39.4335C251.613 39.4335 251.656 39.4627 251.685 39.4627C252.448 39.7258 252.895 39.8866 252.895 39.8866L252.909 39.872Z" fill="#FFC727"/>
<path opacity="0.5" d="M252.909 39.872L252.175 40.1497L250.518 40.7636C249.035 40.1058 247.004 39.2142 244.8 38.2641C239.255 35.8523 232.701 33.0167 231.434 32.5782C231.477 32.5782 231.535 32.6074 231.592 32.622C231.635 32.622 231.679 32.6513 231.736 32.6659C231.794 32.6805 231.866 32.7097 231.924 32.7244C231.952 32.7244 231.996 32.7536 232.039 32.7536C232.168 32.7974 232.312 32.8413 232.471 32.8998C232.615 32.9436 232.759 33.0021 232.917 33.0459C233.292 33.1629 233.71 33.309 234.17 33.4698C234.315 33.5137 234.459 33.5721 234.603 33.616C234.732 33.6598 234.862 33.7037 235.006 33.7475C235.078 33.7768 235.15 33.7914 235.222 33.8206C235.438 33.8937 235.668 33.9668 235.899 34.0545C236.043 34.1129 236.201 34.1568 236.36 34.2153C238.131 34.8146 240.191 35.5162 242.251 36.2178L242.813 36.4078C243.547 36.6563 244.282 36.9194 245.002 37.1532C246.356 37.621 247.652 38.0595 248.79 38.4541C248.977 38.5126 249.15 38.5857 249.323 38.6441C249.928 38.8488 250.49 39.0388 250.965 39.2142C251.109 39.2727 251.253 39.3165 251.383 39.3604C251.455 39.3896 251.512 39.4042 251.584 39.4335C251.613 39.4335 251.656 39.4627 251.685 39.4627C252.448 39.7258 252.895 39.8866 252.895 39.8866L252.909 39.872Z" fill="white"/>
<path d="M250.533 40.7645L246.097 42.4016C246.097 42.4016 236.202 37.7388 230.296 34.8155C230.253 34.8008 230.224 34.7862 230.224 34.7862C230.196 34.7862 230.167 34.757 230.152 34.7424C229.533 34.4354 228.957 34.1577 228.453 33.8946C226.926 33.1199 225.961 32.5937 225.99 32.5206C226.148 32.1844 229.821 32.1114 231.29 32.5206C231.29 32.5206 231.319 32.5206 231.333 32.5206C231.362 32.5206 231.391 32.5352 231.434 32.5499C232.659 32.9738 238.823 35.634 244.239 37.9873C244.282 38.0019 244.325 38.0165 244.369 38.0458C244.513 38.1189 244.657 38.1773 244.801 38.2358C247.004 39.2005 249.035 40.0921 250.519 40.7353L250.533 40.7645Z" fill="#FFC727"/>
<g opacity="0.1">
<path d="M250.532 40.7649L246.096 42.402C246.096 42.402 236.201 37.7392 230.296 34.8159C231.275 35.2397 241.285 39.7125 243.763 39.0986C244.339 38.9524 244.685 38.6162 244.814 38.2654C247.018 39.2301 249.049 40.1217 250.532 40.7649Z" fill="black"/>
</g>
<path d="M261.926 34.3472L251.182 39.5946C251.182 39.5946 251.297 30.2399 251.369 23.5162C251.369 23.2823 251.369 23.0485 251.369 22.8292C251.369 22.6392 251.369 22.4638 251.369 22.2884C251.398 19.9789 251.426 18.1226 251.441 17.2894C251.484 14.5853 251.772 14.0299 252.478 14.4684C253.184 14.9069 256.324 17.6841 257.274 18.9119C258.052 19.9205 259.766 26.0741 260.875 30.2838C260.875 30.3276 260.889 30.3568 260.904 30.3861C260.976 30.6346 261.033 30.8684 261.091 31.1023C261.581 33.0025 261.926 34.3472 261.926 34.3472Z" fill="#FFC727"/>
<g opacity="0.1">
<path d="M261.926 34.3478L251.182 39.5952C251.182 39.5952 251.297 30.2404 251.369 23.5167C252.953 27.0978 256.079 31.9944 261.091 31.1174C261.581 33.0176 261.926 34.3624 261.926 34.3624V34.3478Z" fill="black"/>
</g>
<path d="M243.662 45.325C242.553 42.5185 247.249 39.9606 252.592 37.5342C257.922 35.1078 310.508 11.5748 318.128 9.47001C325.747 7.3652 334.62 10.2447 336.132 14.659C338.379 21.295 328.902 26.8347 294.838 41.1738C290.372 43.0447 270.409 47.9121 259.189 47.956C247.191 47.9998 244.224 46.6989 243.677 45.325H243.662Z" fill="#FFC727"/>
<path opacity="0.5" d="M243.662 45.325C242.553 42.5185 247.249 39.9606 252.592 37.5342C257.922 35.1078 310.508 11.5748 318.128 9.47001C325.747 7.3652 334.62 10.2447 336.132 14.659C338.379 21.295 328.902 26.8347 294.838 41.1738C290.372 43.0447 270.409 47.9121 259.189 47.956C247.191 47.9998 244.224 46.6989 243.677 45.325H243.662Z" fill="white"/>
<path opacity="0.1" d="M294.837 41.1728C290.372 43.0584 270.409 47.9111 259.174 47.955C247.176 47.9988 244.209 46.698 243.662 45.324C243.086 43.8623 244.094 42.4591 245.952 41.1143C245.952 41.3921 245.981 41.6698 246.096 41.9475C246.586 43.2045 249.279 44.3739 260.168 44.3447C270.351 44.3154 285 35.94 289.061 34.2298C319.971 21.2209 332.041 20.1393 329.996 14.1318C329.103 11.5154 325.358 9.49827 320.936 8.94283C327.792 8.10968 334.807 10.7992 336.117 14.6872C338.364 21.3232 328.887 26.8776 294.823 41.202L294.837 41.1728Z" fill="black"/>
<path d="M260.327 36.0578L261.536 35.5316V37.3294L260.327 37.8556V36.0578Z" fill="#455A64"/>
<path d="M262.53 35.0939L263.826 34.5239V36.3217L262.53 36.8918V35.0939Z" fill="#455A64"/>
<path d="M264.82 34.0851L266.117 33.515V35.3275L264.82 35.8829V34.0851Z" fill="#455A64"/>
<path d="M267.111 33.0765L268.393 32.5211V34.3189L267.111 34.889V33.0765Z" fill="#455A64"/>
<path d="M269.401 32.0824L270.683 31.5123V33.3102L269.401 33.8802V32.0824Z" fill="#455A64"/>
<path d="M271.676 31.0747L272.972 30.5046V32.3171L271.676 32.8726V31.0747Z" fill="#455A64"/>
<path d="M273.967 30.0655L275.263 29.4954V31.3079L273.967 31.878V30.0655Z" fill="#455A64"/>
<path d="M276.257 29.0708L277.539 28.5007V30.2986L276.257 30.8686V29.0708Z" fill="#455A64"/>
<path d="M278.547 28.0632L279.829 27.4931V29.291L278.547 29.861V28.0632Z" fill="#455A64"/>
<path d="M280.823 27.0544L282.119 26.4844V28.2969L280.823 28.8669V27.0544Z" fill="#455A64"/>
<path d="M283.113 26.0459L284.409 25.4904V27.2883L283.113 27.8583V26.0459Z" fill="#455A64"/>
<path d="M285.403 25.0516L286.685 24.4816V26.2794L285.403 26.8495V25.0516Z" fill="#455A64"/>
<path d="M287.678 24.0439L288.975 23.4739V25.2864L287.678 25.8418V24.0439Z" fill="#455A64"/>
<path d="M289.969 23.0348L291.265 22.4794V24.2772L289.969 24.8473V23.0348Z" fill="#455A64"/>
<path d="M292.259 22.0415L293.541 21.4714V23.2693L292.259 23.8394V22.0415Z" fill="#455A64"/>
<path d="M294.55 21.0324L295.832 20.4623V22.2602L294.55 22.8303V21.0324Z" fill="#455A64"/>
<path d="M296.825 20.0233L298.121 19.4532V21.2657L296.825 21.8358V20.0233Z" fill="#455A64"/>
<path d="M299.115 19.0152L300.411 18.4597V20.2576L299.115 20.8276V19.0152Z" fill="#455A64"/>
<path d="M301.406 18.0208L302.687 17.4507V19.2486L301.406 19.8187V18.0208Z" fill="#455A64"/>
<path d="M303.695 17.0118L304.976 16.4417V18.2542L303.695 18.8096V17.0118Z" fill="#455A64"/>
<path d="M305.971 16.0037L307.267 15.4483V17.2462L305.971 17.8162V16.0037Z" fill="#455A64"/>
<path d="M309.558 14.4406V16.2385L308.261 16.8085V15.0107L309.558 14.4406Z" fill="#455A64"/>
<path d="M311.834 13.4316V15.2441L310.552 15.7995V14.0016L311.834 13.4316Z" fill="#455A64"/>
<path d="M314.123 12.4225V14.235L312.827 14.805V12.9925L314.123 12.4225Z" fill="#455A64"/>
<path d="M316.414 11.4291V13.2269L315.117 13.797V11.9991L316.414 11.4291Z" fill="#455A64"/>
<path d="M322.391 10.6836C323.097 10.1135 323.932 9.77733 324.782 9.54346V10.742C324.004 10.7128 323.226 10.6982 322.391 10.6689V10.6836Z" fill="#455A64"/>
<path d="M327.59 9.26511V10.9168C326.986 10.8583 326.395 10.8291 325.776 10.7999V9.35281C326.366 9.26511 326.986 9.23588 327.59 9.26511Z" fill="#455A64"/>
<path d="M333.337 11.6041C332.833 11.6041 332.372 11.5018 331.897 11.4433C331.422 11.3994 330.99 11.2971 330.529 11.2679C329.866 11.1656 329.218 11.0925 328.584 11.034V9.38232C329.377 9.49926 330.14 9.70389 330.874 10.0108C331.335 10.1862 331.768 10.4347 332.185 10.6832C332.401 10.8002 332.589 10.9609 332.79 11.1217C332.977 11.2825 333.179 11.4287 333.352 11.6041H333.337Z" fill="#455A64"/>
<path d="M292.26 26.2939L277.107 33.69C277.107 33.69 253.025 20.5933 235.741 11.0047C235.726 11.0047 235.712 10.9901 235.698 10.9901C226.465 5.87424 219.436 1.89848 219.537 1.75231C219.825 1.35766 224.463 1.40151 226.307 1.64999C226.523 1.67923 226.71 1.70846 226.825 1.75231C227.603 1.97156 254.854 12.2179 273.939 19.3948C284.309 23.2974 292.26 26.2939 292.26 26.2939Z" fill="#FFC727"/>
<g opacity="0.1">
<path d="M292.26 26.2938L277.108 33.6899C277.108 33.6899 253.025 20.5933 235.741 11.0047C237.095 11.6917 268.077 27.5509 272.124 25.1684C273.651 24.2767 274.054 21.9527 273.953 19.3947C284.324 23.2974 292.274 26.2938 292.274 26.2938H292.26Z" fill="black"/>
</g>
<path d="M294.463 25.285L289.969 27.4776C278.461 22.5809 230.569 3.3745 226.565 1.75204C226.522 1.73742 226.479 1.72281 226.436 1.70819C226.392 1.70819 226.364 1.67896 226.335 1.67896C226.32 1.67896 226.306 1.67896 226.306 1.67896C226.522 1.70819 226.709 1.73742 226.824 1.78127C228.02 2.11746 294.463 25.2997 294.463 25.2997V25.285Z" fill="#FFC727"/>
<path opacity="0.5" d="M294.463 25.285L289.969 27.4776C278.461 22.5809 230.569 3.3745 226.565 1.75204C226.522 1.73742 226.479 1.72281 226.436 1.70819C226.392 1.70819 226.364 1.67896 226.335 1.67896C226.32 1.67896 226.306 1.67896 226.306 1.67896C226.522 1.70819 226.709 1.73742 226.824 1.78127C228.02 2.11746 294.463 25.2997 294.463 25.2997V25.285Z" fill="white"/>
<path d="M262.013 25.6357C260.53 26.3665 258.916 26.9366 258.801 25.431C258.758 24.8171 259.233 24.1448 261.61 22.99C262.172 22.7123 263.54 22.113 263.929 23.3701C264.318 24.5833 262.56 25.3726 261.999 25.6503L262.013 25.6357Z" fill="#FFC727"/>
<path opacity="0.1" d="M262.013 25.6357C260.53 26.3665 258.916 26.9366 258.801 25.431C258.758 24.8171 259.233 24.1448 261.61 22.99C262.172 22.7123 263.54 22.113 263.929 23.3701C264.318 24.5833 262.56 25.3726 261.999 25.6503L262.013 25.6357Z" fill="black"/>
<path d="M249.193 19.0581C247.71 19.7889 246.097 20.359 245.981 18.8535C245.938 18.2396 246.413 17.5672 248.79 16.4125C249.352 16.1348 250.72 15.5355 251.109 16.7925C251.498 18.0057 249.741 18.795 249.179 19.0727L249.193 19.0581Z" fill="#FFC727"/>
<path opacity="0.1" d="M249.193 19.0581C247.71 19.7889 246.097 20.359 245.981 18.8535C245.938 18.2396 246.413 17.5672 248.79 16.4125C249.352 16.1348 250.72 15.5355 251.109 16.7925C251.498 18.0057 249.741 18.795 249.179 19.0727L249.193 19.0581Z" fill="black"/>
<path d="M236.331 12.4073C234.948 13.0943 233.45 13.6205 233.335 12.2173C233.292 11.6472 233.724 11.0187 235.956 9.93705C236.475 9.68857 237.742 9.11851 238.117 10.2879C238.477 11.4133 236.849 12.1588 236.316 12.4073H236.331Z" fill="#FFC727"/>
<path opacity="0.1" d="M236.331 12.4073C234.948 13.0943 233.45 13.6205 233.335 12.2173C233.292 11.6472 233.724 11.0187 235.956 9.93705C236.475 9.68857 237.742 9.11851 238.117 10.2879C238.477 11.4133 236.849 12.1588 236.316 12.4073H236.331Z" fill="black"/>
<path d="M281.154 24.1454C279.988 26.2502 277.337 27.0103 275.667 27.6827C271.216 29.4805 267.99 30.5037 266.405 26.3964C266.204 25.8702 266.088 25.3732 266.045 24.9055C265.786 21.8067 268.94 20.272 270.539 19.4096C272.469 18.3718 273.837 17.6994 274.86 17.2755C276.516 16.5593 277.265 16.4716 278.029 16.4424C278.922 16.4131 280.953 16.647 281.63 20.4181C281.903 21.9967 281.673 23.1953 281.154 24.1308V24.1454Z" fill="#FFC727"/>
<path d="M278.029 25.3732C279.779 25.3732 281.198 23.5081 281.198 21.2074C281.198 18.9067 279.779 17.0416 278.029 17.0416C276.279 17.0416 274.86 18.9067 274.86 21.2074C274.86 23.5081 276.279 25.3732 278.029 25.3732Z" fill="#263238"/>
<path d="M280.837 21.2068C280.837 23.2385 279.584 24.8902 278.043 24.8902C276.502 24.8902 275.234 23.2385 275.234 21.2068C275.234 19.1751 276.487 17.5234 278.043 17.5234C279.599 17.5234 280.837 19.1751 280.837 21.2068Z" fill="#455A64"/>
<path d="M232.932 33.0607C232.773 33.0024 232.629 32.9586 232.485 32.9148C232.629 32.9586 232.773 33.017 232.932 33.0607Z" fill="#FFC727"/>
</svg>
